<?xml version="1.0" encoding="UTF-8"?>
<svg xmlns="http://www.w3.org/2000/svg">
<metadata>
Created by FontPrep 20130207 at Tue Apr 30 08:46:54 2019
 By michaelhawkins
Copyright (c) 1998-2018 by Peter S. Baker
</metadata>
<defs>
<font id="5e709cef3c3a2fc2ffc49d7e9749cab5" horiz-adv-x="1024">
  <font-face font-family="Junicode-Italic" font-weight="400" font-style="italic" font-stretch="normal" units-per-em="2048" panose-1="0 0 5 0 0 0 0 0 0 0" ascent="1485" descent="-563" x-height="852" cap-height="1363" bbox="-1449 -852 3478 2063" underline-thickness="70" underline-position="-100" slope="-11" unicode-range="U+000D-1034A"/>
<missing-glyph horiz-adv-x="1024" d="M68 -132v1640h864v-1640h-864zM534 86q0 39 -20 71q-36 56 -100 56q-38 0 -68 -21q-50 -37 -50 -106q0 -37 29 -77t77 -40t78 17q54 33 54 100zM354 1194q292 0 292 -199q0 -89 -116 -151l-106 -56q-114 -62 -114 -144t76 -218q8 -8 26 -6t18 18q-20 70 -20 122t74 93 l166 88q82 43 80 196t-116 294q-114 131 -244 131q-84 0 -84 -84t68 -84z"/>
    <glyph glyph-name="twodotenleader" unicode=".." horiz-adv-x="1361" d="M191 -25q-57 0 -88 37t-31 80t32 81t92 38q60 -1 90 -39t29 -86q1 -48 -33 -80q-34 -31 -91 -31zM887 -25q-57 0 -88 37t-31 80t32 81t92 38q60 -1 90 -39t29 -86q1 -48 -33 -80q-34 -31 -91 -31z"/>
    <glyph glyph-name="ellipsis" unicode="..." horiz-adv-x="2048" d="M191 -25q-57 0 -88 37t-31 80t32 81t92 38q60 -1 90 -39t29 -86q1 -48 -33 -80q-34 -31 -91 -31zM887 -25q-57 0 -88 37t-31 80t32 81t92 38q60 -1 90 -39t29 -86q1 -48 -33 -80q-34 -31 -91 -31zM1574 -25q-57 0 -88 37t-31 80t32 81t92 38q59 -1 89 -39t30 -86t-34 -80 q-34 -31 -90 -31z"/>
    <glyph glyph-name="second" unicode="′′" horiz-adv-x="918" d="M180 939q-33 0 -33 36q0 10 5 22l206 467q10 22 42 22t64 -21t33 -37q0 -16 -5 -27l-271 -434q-16 -28 -41 -28zM532 939q-33 0 -33 36q0 10 5 22l206 467q10 22 42 22t64 -21t33 -37q0 -16 -5 -27l-271 -434q-16 -28 -41 -28z"/>
    <glyph glyph-name="uni2036" unicode="‵‵" horiz-adv-x="894" d="M119 1419q0 32 37 50t65 18t38 -23l206 -467q5 -10 5 -22q0 -37 -33 -37q-23 0 -41 29l-271 434q-6 9 -6 18zM439 1419q0 32 37 50t65 18t38 -23l206 -467q5 -10 5 -22q0 -37 -33 -37q-23 0 -41 29l-271 434q-6 9 -6 18z"/>
    <glyph glyph-name="exclamdbl" unicode="!!" horiz-adv-x="905" d="M201 -25q-47 1 -88 29t-41 78t31 90q31 39 87 39q56 -1 92 -35t35 -86t-35 -84t-81 -31zM288 419q-30 0 -31 13l185 854q8 38 47 76t82 37q79 0 79 -70q0 -27 -9 -51l-317 -842q-6 -17 -36 -17zM586 -25q-47 1 -88 29t-41 78t31 90q31 39 87 39q55 -1 91 -35t36 -86 t-34 -84t-82 -31zM672 419q-30 0 -30 13l185 854q8 38 47 76t82 37q79 0 79 -70q0 -27 -9 -51l-317 -842q-7 -17 -37 -17z"/>
    <glyph glyph-name="uni2047" unicode="??" horiz-adv-x="1226" d="M1320 1059q0 -115 -52 -206t-99 -112l-191 -88q-84 -39 -100 -92t-17 -123q0 -13 -22.5 -17.5t-24.5 5.5q-24 88 -24 149q0 136 166 213l120 56q170 79 170 211q0 139 -243 139q-16 0 -32.5 19t-16.5 55t36 65t76 29q103 0 178.5 -94t75.5 -209zM742 -25q-57 0 -88 37 t-31 80t32 81t92 38t89.5 -38.5t29.5 -87t-33.5 -79.5t-90.5 -31zM772 1059q0 -115 -52.5 -206t-98.5 -112l-191 -88q-88 -40 -100 -90q-16 -45 -17 -125q0 -13 -22.5 -17.5t-24.5 5.5q-24 88 -24 149q0 137 166 213l120 56q170 78 170 211q0 139 -243 139q-16 0 -32.5 19 t-16.5 55t36 65t76 29q103 0 178.5 -94t75.5 -209zM194 -25q-57 0 -88 37t-31 80t32 81t92 38t89.5 -38.5t29.5 -87t-33.5 -79.5t-90.5 -31z"/>
    <glyph glyph-name="uni2048" unicode="?!" horiz-adv-x="1070" d="M772 1059q0 -115 -52.5 -206t-98.5 -112l-191 -88q-88 -40 -100 -90q-16 -45 -17 -125q0 -13 -22.5 -17.5t-24.5 5.5q-24 88 -24 149q0 137 166 213l120 56q170 78 170 211q0 139 -243 139q-16 0 -32.5 19t-16.5 55t36 65t76 29q103 0 178.5 -94t75.5 -209zM194 -25 q-57 0 -88 37t-31 80t32 81t92 38t89.5 -38.5t29.5 -87t-33.5 -79.5t-90.5 -31zM751 -25q-47 0 -88 28.5t-41 79t31 89.5t87 39t91.5 -34.5t35.5 -86.5t-34.5 -83.5t-81.5 -31.5zM837.5 419q-30.5 0 -30.5 13l185 854q8 38 47 75.5t82 37.5q79 0 79 -70q0 -27 -9 -51 l-317 -842q-6 -17 -36.5 -17z"/>
    <glyph glyph-name="uni2049" unicode="!?" horiz-adv-x="1128" d="M201 -25q-47 0 -88 28.5t-41 79t31 89.5t87 39t91.5 -34.5t35.5 -86.5t-34.5 -83.5t-81.5 -31.5zM287.5 419q-30.5 0 -30.5 13l185 854q8 38 47 75.5t82 37.5q79 0 79 -70q0 -27 -9 -51l-317 -842q-6 -17 -36.5 -17zM1222 1059q0 -115 -52.5 -206t-98.5 -112l-191 -88 q-88 -40 -100 -90q-16 -45 -17 -125q0 -13 -22.5 -17.5t-24.5 5.5q-24 88 -24 149q0 137 166 213l120 56q170 78 170 211q0 139 -243 139q-16 0 -32.5 19t-16.5 55t36 65t76 29q103 0 178.5 -94t75.5 -209zM644 -25q-57 0 -88 37t-31 80t32 81t92 38t89.5 -38.5t29.5 -87 t-33.5 -79.5t-90.5 -31z"/>
    <glyph glyph-name="uniE1A6" unicode="ſb" horiz-adv-x="1332" d="M810 45q140 -1 260 195t121 355q0 159 -84 159q-100 0 -219 -166t-148 -266.5t-29 -158.5q0 -118 99 -118zM1330 659q0 -257 -183 -471t-425 -215q-145 0 -145 160q0 41 12 92l227 975q10 43 10 77q0 118 -119 118q-99 0 -167 -109t-117 -366l-200 -1031 q-27 -139 -69 -235t-117 -150q-76 -54 -158 -55t-122 37t-40 72q1 34 23 55q22 20 41 20q59 0 85 -50t67 -50q42 0 84 62t51 108l213 1104q35 179 77 323t140 239q99 95 266 95q55 0 96 -20l121 41q7 2 13 2q6 -1 5 -9q0 -8 -2 -16l-200 -864l21 -6q198 260 346 260 q166 0 166 -193z"/>
    <glyph glyph-name="uniEADA" unicode="t" horiz-adv-x="964" d="M624 154q0 -52 35 -52q90 0 223 199q2 3 12 3t20 -18t3 -26q-87 -138 -178 -212t-171 -75q-40 0 -63 30.5t-23 73.5t8 71l168 582h-156q-12 0 -12 28t22 31l173 30l108 378q9 33 9 85t-31.5 82.5t-84.5 30.5q-90 0 -146 -79.5t-82 -155.5t-79 -353l-238 -1221 q-20 -99 -240 -143q-6 0 -14 8t-8 25t4 18q123 24 143 127l232 1186q83 429 198 543t287 114q74 0 124 -48t50 -136t-60 -290l-55 -182h224q8 0 8 -20.5t-11 -39t-18 -18.5h-224l-145 -505q-12 -42 -12 -71z"/>
    <glyph glyph-name="uniEBA1" unicode="ſh" horiz-adv-x="1339" d="M1331 646q-1 -230 -111 -452t-264 -221q-52 0 -83 31q-31 32 -31 72t20 63q21 23 45 23q55 0 73 -52t44 -51q56 1 114 177t58 342t-78 165q-69 0 -159 -95q-89 -95 -149 -183t-97 -244l-54 -221q-6 -27 -67 -27q-60 0 -53 27l277 1200q10 44 10 78q0 117 -119 117 q-99 0 -167 -109t-117 -366l-200 -1031q-27 -139 -69 -235t-117 -150q-76 -54 -158 -55t-122 37t-40 72q1 34 23 55q22 20 41 20q59 0 85 -50t67 -50q42 0 84 62t51 108l213 1104q35 179 77 323t140 239q99 95 266 95q55 0 96 -20l120 40q7 3 13 3q6 -1 6 -9t-2 -16 l-209 -917l9 -10q106 175 191 246q84 71 178 71t130 -72q35 -73 35 -134z"/>
    <glyph glyph-name="uniEBA2" unicode="ſi" horiz-adv-x="932" d="M686 133q0 -31 28 -31t132 93q9 8 25 -7t16 -21q-1 -27 -109 -111q-108 -83 -179 -83q-54 0 -54 87q0 38 11 77l137 488q5 18 5 36q0 50 -24 50t-118 -88q-9 -9 -25 8t-16 23t2 9q37 59 125 124t146 65q57 0 57 -86q0 -37 -11 -76l-137 -487q-11 -39 -11 -70zM-154 -551 q-64 1 -108 37t-43 68q0 32 20 56t43 23q58 0 86 -50t66 -50q38 -1 81 55t54 115l213 1104q83 429 198 543t287 114q85 0 137 -48t52 -118q0 -96 -66 -96q-24 0 -50 18q-25 18 -25 54q0 121 -103 121q-90 0 -148 -79q-58 -78 -82 -154q-25 -76 -79 -355l-178 -918 q-21 -115 -59 -215t-110 -162q-72 -63 -186 -63z"/>
    <glyph glyph-name="uniEBA3" unicode="ſl" horiz-adv-x="946" d="M729 113q53 0 131 94q11 13 29 -9t12 -28q-197 -197 -276 -197q-59 0 -60 99q0 37 6 63l244 1065q10 44 10 78q0 117 -118 117q-99 0 -167 -109t-117 -366l-200 -1031q-27 -139 -69 -235t-117 -150q-76 -54 -158 -55t-122 37t-40 72q1 34 23 55q22 20 41 20q59 0 85 -50 t67 -50q42 0 84 62t51 108l213 1104q35 179 77 323t140 239t266 95q55 0 96 -20l127 43q2 1 6 1t4 -8t-2 -18l-286 -1253q-8 -36 -9 -53q0 -43 29 -43z"/>
    <glyph glyph-name="uniEBA4" unicode="ſö" horiz-adv-x="1442" d="M-144 -551q-76 0 -118.5 36.5t-42.5 70.5t21 55.5t42 21.5q60 0 87 -50t71 -50t79.5 49.5t49.5 120.5l219 1139q77 398 183 510q102 112 213 112q80 0 131.5 -49.5t51.5 -116.5q0 -96 -66 -96q-34 0 -54.5 21.5t-20.5 50.5q0 121 -71 121q-63 0 -121 -102t-124 -451 l-185 -953q-60 -310 -164.5 -375t-180.5 -65zM1408 1135q0 -58 -33.5 -91.5t-78.5 -33.5q-87 0 -87 90q0 52 35 88.5t79 36.5q85 -1 85 -90zM1051 1135q0 -58 -33.5 -91.5t-78.5 -33.5q-87 0 -87 90q0 52 35 88.5t79 36.5q85 -1 85 -90zM1186 588q0 180 -129 180 q-117 0 -241 -190t-124 -350t133 -160q109 0 235 186.5t126 333.5zM1298 537q0 -213 -137 -388.5t-344 -175.5q-123 0 -182.5 91.5t-59.5 240.5q0 195 151 371t331 176q120 0 180.5 -85t60.5 -230z"/>
    <glyph glyph-name="uniEBA5" unicode="ſp" horiz-adv-x="1263" d="M1091 1158q0 114 -97 176t-196 61q-100 -1 -200 -61t-132 -154t-87 -373l-178 -918q-21 -115 -59 -215t-110 -162q-72 -63 -186 -63q-64 1 -108 37t-43.5 68t20.5 56t43 23q58 0 86 -50t66 -50t81 55q42 55 54 115l213 1104q83 429 240 543t332 114q136 0 268 -77 t132 -221t-138 -267q-35 -31 -87 -61q95 -16 170 -96t75 -232q0 -203 -167 -370t-365 -167q-36 0 -84 13l-94 -406q-4 -17 -4 -28q0 -56 124 -56q9 0 9 -12t-7 -28t-20 -15q-68 8 -193 8t-194 -8q-9 1 -9 13t7 27t20 15q127 0 144 76l260 1131q-92 -27 -181 -46 q-22 -3 -25 27t12 32q103 22 211 63l52 225q6 26 48 52t68.5 25.5t23.5 -13.5l-54 -231q259 126 259 321zM1111 477q0 119 -60 199t-149 80q-47 0 -92 -13l-148 -626q-2 -14 -2 -19q0 -59 76 -59q146 0 260 135t115 303z"/>
    <glyph glyph-name="uniEBA6" unicode="ſſ" horiz-adv-x="944" d="M1401 1308q-1 -106 -73 -106q-32 0 -52 23q-19 23 -19 56q1 33 -31 73t-75 41q-95 1 -162 -101t-118 -365l-197 -1011q-23 -118 -66 -228q-44 -110 -122 -161t-156 -51t-120 37t-42 71t20 54q20 22 43 22q59 0 85 -50t68 -50t82 55t52 115l209 1075q62 317 123 444 q-39 122 -164 125q-96 0 -166 -101t-118 -348l-201 -1038q-59 -305 -188 -389q-79 -51 -157 -51t-120 37q-41 37 -41 71t19 55q20 21 44 21q59 0 85 -50t68 -50t83 55q40 56 51 115l213 1104q36 182 78 320q43 139 142 227t263 88q127 0 181 -96q113 118 288 118 q91 0 141 -50t50 -106z"/>
    <glyph glyph-name="uniEBA7" unicode="ſſi" horiz-adv-x="1400" d="M1152 133q0 -31 28 -31t132 93q9 8 25 -7t16 -21q-1 -27 -109 -111q-108 -83 -179 -83q-54 0 -54 87q0 38 11 77l137 488q5 18 5 36q0 50 -24 50t-118 -88q-9 -9 -25 8t-16 23t2 9q37 59 125 124t146 65q57 0 57 -86q0 -37 -11 -76l-137 -487q-11 -39 -11 -70zM1401 1308 q-1 -106 -73 -106q-32 0 -52 23q-19 23 -19 56q1 33 -31 73t-75 41q-95 1 -162 -101t-118 -365l-197 -1011q-23 -118 -66 -228q-44 -110 -122 -161t-156 -51t-120 37t-42 71t20 54q20 22 43 22q59 0 85 -50t68 -50t82 55t52 115l209 1075q62 317 123 444q-39 122 -164 125 q-96 0 -166 -101t-118 -348l-201 -1038q-59 -305 -188 -389q-79 -51 -157 -51t-120 37q-41 37 -41 71t19 55q20 21 44 21q59 0 85 -50t68 -50t83 55q40 56 51 115l213 1104q36 182 78 320q43 139 142 227t263 88q127 0 181 -96q113 118 288 118q91 0 141 -50t50 -106z"/>
    <glyph glyph-name="uniEBA8" unicode="ſſl" horiz-adv-x="1393" d="M742 1442q126 0 180 -96q112 118 288 118q53 0 97 -18l117 38q7 2 13 2t6 -9t-1 -15l-287 -1253q-8 -36 -8 -53q0 -43 29 -43q48 0 131 94q7 9 27 -11t14 -26q-170 -197 -277 -197q-59 0 -59 99q0 37 6 63l244 1065q9 42 9 88q-1 46 -33 76t-85 31q-97 1 -164 -101 t-118 -365l-197 -1011q-59 -305 -188 -389q-78 -51 -156 -51t-120 37t-42 71t20 54q20 22 44 22q58 0 84 -50t68 -50t82 55t52 115l209 1075q62 317 123 444q-39 124 -166 125q-94 0 -164 -100t-118 -349l-201 -1038q-59 -305 -188 -389q-78 -51 -156 -51t-120 37t-42 71 t19 55q20 21 44 21q59 0 85 -50t68 -50t83 55q40 56 51 115l213 1104q34 174 78 316q43 143 142 231t264 88z"/>
    <glyph glyph-name="uniEBA9" unicode="ſti" horiz-adv-x="1357" d="M1109 135q-1 -33 33 -33t129 95q1 2 7 2q6 1 20 -13t14 -21t-2 -9q-81 -81 -128 -117q-86 -66 -161 -66q-54 0 -54 87q0 38 11 77l123 434q20 71 20 99q0 77 -63 77h-272l-150 -522q-12 -42 -12 -71q0 -52 35 -52q90 0 223 199q2 3 12 3t20 -18t3 -26q-87 -138 -178 -212 t-171 -75q-40 1 -63 31t-23 73t8 71l173 599h-156q-12 -1 -12 27t22 32l173 30l103 361q9 33 9 85t-32 82t-84 31q-90 0 -146 -79q-56 -78 -82 -154q-25 -76 -79 -355l-178 -918q-21 -115 -59 -215t-110 -162q-72 -63 -186 -63q-64 1 -108 37t-43.5 68t20.5 56t43 23 q58 0 86 -50t66 -50t81 55q42 55 54 115l213 1104q83 429 198 543t287 114q74 0 124 -48t50 -136t-60 -290l-50 -165h326q52 -1 101 13t57 14t8 -7t-2 -14l-178 -628q-10 -35 -10 -68z"/>
    <glyph glyph-name="uniEBAA" unicode="ſtr" horiz-adv-x="1590" d="M1575 852q93 0 93 -80q0 -36 -28 -62t-61 -26t-50 14t-47 15q-60 0 -204 -237t-206 -472q-8 -31 -66 -31t-57 25q0 2 1 6l151 567q20 71 20 99q0 77 -63 77h-272l-150 -522q-12 -42 -12 -71q0 -52 35 -52q90 0 223 199q2 3 12 3t20 -18t3 -26q-87 -138 -178 -212 t-171 -75q-40 1 -63 31t-23 73t8 71l173 599h-156q-12 -1 -12 27t22 32l173 30l103 361q9 33 9 85t-32 82t-84 31q-90 0 -146 -79q-56 -78 -82 -154q-25 -76 -79 -355l-178 -918q-21 -115 -59 -215t-110 -162q-72 -63 -186 -63q-64 1 -108 37t-43.5 68t20.5 56t43 23 q58 0 86 -50t66 -50t81 55q42 55 54 115l213 1104q83 429 198 543t287 114q74 0 124 -48t50 -136t-60 -290l-50 -165h326q52 -1 101 13t57 14t8 -7q1 -7 -29 -112t-31 -107l-47 -167l10 -2q209 395 373 395z"/>
    <glyph glyph-name="uniEBAB" unicode="ſü" horiz-adv-x="1421" d="M-144 -551q-76 0 -118 36q-42 37 -43 71q0 34 21 56t42 21q60 0 87 -50t71 -50q44 -1 79 49q36 50 50 121l219 1139q77 398 183 510q102 112 213 112q80 0 132 -50t51 -116q0 -96 -66 -96q-35 0 -55 22t-20 50q0 121 -71 121q-63 0 -121 -102t-124 -451l-185 -953 q-30 -156 -79 -255q-94 -185 -266 -185zM1408 1135q0 -57 -34 -91t-78 -34q-87 0 -87 90q0 52 35 88t79 37q85 -1 85 -90zM1051 1135q1 -57 -33 -91t-79 -34q-87 0 -87 90q0 52 35 88t79 37q85 -1 85 -90zM1194 141q0 -39 34 -39t125 93q3 3 12 3t23 -15t6 -27 q-164 -183 -284 -183q-58 0 -58 90q0 36 11 74l82 287q-245 -308 -335 -380t-146 -71q-84 0 -84 99q0 38 20 108l127 445q6 21 6 41q-1 45 -29 45t-53 -28q-54 -61 -68 -61q-13 0 -21 14t-9 20q0 4 2 6q154 190 268 190q55 0 55 -82q0 -47 -25 -134l-87 -302 q-41 -142 -41 -187t28 -45q44 0 159 122t228 317q58 100 121 288q8 23 65 23t57 -26l-177 -623q-12 -42 -12 -62z"/>
    <glyph glyph-name="uniEEC8" unicode="ſä" horiz-adv-x="1361" d="M1402 1135q0 -58 -33.5 -91.5t-78.5 -33.5q-87 0 -87 90q0 52 35 88.5t79 36.5q85 -1 85 -90zM1045 1135q0 -58 -33.5 -91.5t-78.5 -33.5q-87 0 -87 90q0 52 35 88.5t79 36.5q85 -1 85 -90zM1021 778q-136 0 -251.5 -220t-115.5 -382q0 -94 57 -94t201 145t195 316 l45 151q-43 84 -131 84zM1156 103q32 0 129 94q9 9 28 -11t11 -30q-66 -81 -146 -132t-140 -51t-60 79q0 56 24 120l43 115l-12 4q-238 -318 -404 -318q-60 0 -91.5 48t-31.5 120q0 211 174 457q74 105 151 165h-461l-169 -874q-60 -310 -164.5 -375t-180.5 -65t-118.5 36.5 t-42.5 70.5t21 55.5t42 21.5q60 0 87 -50t71 -50t79.5 49.5t49.5 120.5l204 1060h-182q-7 -1 -7 19t13 40t21 20h170q81 397 183 509.5t213 112.5q80 0 131.5 -49.5t51.5 -116.5q0 -96 -66 -96q-34 0 -54.5 21.5t-20.5 50.5q0 121 -71 121q-62 0 -118.5 -102t-126.5 -451 h626q17 2 35 2q72 0 133 -56l24 70q8 24 66.5 24t51.5 -24l-189 -655q-10 -35 -10 -59q1 -41 33 -41z"/>
    <glyph glyph-name="uniEECC" unicode="ffü" horiz-adv-x="1422" d="M1187 141q0 -39 34 -39t125 93q3 3 12 3q8 0 20 -13t12 -19t-3 -10q-164 -183 -284 -183q-58 0 -58 90q0 36 11 74l82 287q-244 -308 -334 -380t-147 -71q-84 0 -84 99q0 38 20 108l142 498q6 21 6 41q0 44 -29 44h-342l-169 -874q-60 -311 -199 -397q-70 -44 -146 -43 q-76 0 -118 36q-42 37 -43 71q0 34 21 56t42 21q60 0 87 -50t71 -50q44 -1 79 49q36 50 50 121l204 1060h-182q-7 -1 -7 17t13 40t21 22h170q81 398 183 510t213 112q80 0 132 -50t51 -116q0 -96 -66 -96q-35 0 -55 22t-20 50q0 121 -71 121q-63 0 -119 -102t-126 -451h376 q28 10 54 10q55 0 55 -82q0 -47 -25 -134l-87 -302q-41 -142 -41 -187t28 -45q44 0 159 122t228 317q58 101 121 288q8 23 69 23t53 -26l-177 -623q-12 -42 -12 -62zM1039 1135q1 -57 -33 -91t-79 -34q-87 0 -87 90q0 52 35 88t79 37q85 -1 85 -90zM1396 1135q0 -57 -34 -91 t-78 -34q-87 0 -87 90q0 52 35 88t79 37q85 -1 85 -90z"/>
    <glyph glyph-name="uniEECE" unicode="fft" horiz-adv-x="1509" d="M701 1376q-109 0 -171 -85t-89 -191t-63 -291h349q56 292 123 442q-40 125 -149 125zM1169 154q0 -52 35 -52q90 0 223 199q2 3 12 3q9 0 19 -18t4 -26q-116 -162 -192 -224t-157 -63q-40 1 -63 31t-23 73t8 71l168 582h-371l-158 -812q-20 -104 -62 -218t-124 -168 t-157 -54t-119 37t-44 69t19 56q19 22 44 22q63 0 89 -50t62 -50q38 0 81 56t55 114l193 998h-348l-162 -841q-52 -270 -168 -375q-73 -65 -187 -65q-64 1 -108 37t-43 68q0 32 19 56t44 23q62 0 88 -50t64 -50t81 55t54 115l197 1027h-182q-7 0 -7 16t11 39q11 24 23 24 h171q36 197 84 333t146 218t253 82q54 0 106 -26t75 -70q112 118 288 118q83 0 137 -47t54 -119q0 -96 -68 -96q-25 0 -51 18q-25 18 -25 54q-1 121 -103 121q-102 1 -160 -95t-84 -195t-63 -296h372l108 212q6 12 38 12t32 -19q0 -2 -1 -6l-49 -200h224q8 0 8 -20t-11 -40 q-11 -18 -18 -18h-224l-145 -505q-12 -42 -12 -71z"/>
    <glyph glyph-name="uniEECF" unicode="ffy" horiz-adv-x="1667" d="M701 1376q-109 0 -171 -85t-86 -175t-59 -274h349q56 286 116 409q-40 125 -149 125zM761 -459q0 88 75 88q40 -1 60 -35t59 -34q65 0 139 92t106 205q31 112 31 309t-38 397t-93 200h-261l-165 -845q-20 -104 -62 -218t-124 -168t-157 -54t-119 37t-44 69t19 56 q19 22 44 22q63 0 89 -50t63 -50t81 57t54 113l200 1031h-348l-169 -874q-52 -271 -168 -375q-73 -66 -187 -65q-64 1 -108 37t-43 68q0 32 19 56t44 23q62 0 88 -50t64 -50t81 55t54 115l204 1060h-182q-7 -1 -7 15t11 40t23 24h171q33 176 79 306t144 212t253 82 q54 0 106 -26t75 -70q112 118 288 118q83 0 137 -47t54 -119q0 -96 -68 -96q-25 0 -51 18q-25 18 -25 54q-1 121 -103 121q-102 1 -160 -95t-80 -179t-60 -279h276q23 10 47 10q85 0 129 -183t45 -442q0 -87 -8 -188h10q74 131 131 323t57 270t-18 152q0 68 72 68t72 -64 q0 -74 -44 -254t-156 -402t-161 -304t-177 -232t-254 -151q-52 1 -83 31t-31 65z"/>
    <glyph glyph-name="uniEED0" unicode="fty" horiz-adv-x="1624" d="M718 -459q0 88 75 88q41 -1 61 -35t59 -34q65 0 139 92t106 205q32 112 31 309q1 196 -35 380t-86 184h-216l-145 -505q-12 -42 -12 -71q0 -52 35 -52q90 0 223 199q2 3 12 3q9 0 19 -18t4 -26q-116 -162 -192 -224t-157 -63q-40 1 -63 31t-23 73t8 71l168 582h-365 l-163 -841q-61 -311 -199 -397q-70 -44 -146 -43q-76 0 -118 36q-42 37 -43 71q0 34 21 56t42 21q60 0 87 -50t71 -50q44 -1 79 49q36 50 50 121l199 1027h-182q-8 0 -8 16t14 40q12 23 20 23h170q74 401 187 528t298 127q89 0 139 -48t50 -118q0 -96 -66 -96q-34 0 -54 22 t-21 50q1 121 -103 121q-104 1 -176 -119t-132 -467h362l111 212q6 12 38 12t32 -19q0 -2 -1 -6l-49 -199h165q47 43 96 43q86 -2 130 -184t44 -441q0 -87 -8 -188h10q74 131 132 323t57 270q0 78 -19 152q0 68 72 68t72 -64q0 -74 -44 -254t-156 -402t-160 -304 q-50 -82 -178 -232t-253 -151q-51 1 -83 31t-32 65z"/>
    <glyph glyph-name="uniEEDA" unicode="ꞇꞇ" horiz-adv-x="879" d="M1517 290q0 -3 -2 -5q-139 -198 -229.5 -255t-188.5 -57t-157.5 77t-59.5 201t85 273t222 226h-667q-95 -75 -170 -205t-75 -230t42.5 -162.5t122.5 -62.5q116 0 283 219q5 6 12 6q35 0 35 -25q0 -3 -2 -5q-139 -198 -229.5 -255t-188.5 -57t-157.5 77t-59.5 201t85 273 t222 226h-323q-10 0 -10 13t51.5 77.5t64.5 85.5q6 8 29 8t24 -15q-22 -46 -22 -68t33 -22h1015q177 0 379 17q15 -2 14.5 -24.5t-11.5 -47t-26 -24.5h-391q-95 -75 -170 -205t-75 -230t42.5 -162.5t122.5 -62.5q116 0 283 219q5 6 12 6q35 0 35 -25z"/>
    <glyph glyph-name="uniF4FB" unicode="ſj" horiz-adv-x="916" d="M265 -553q-32 -1 -53 25t-21 53q1 27 27 42t56 15t58 -24t51 -25q69 0 119 66t66 141l202 883q5 22 5 36q1 43 -31 43t-105 -92q-12 -14 -36 20q-6 9 -3 19q152 203 254 203q61 0 61 -97q0 -30 -7 -61l-127 -555q-26 -113 -78 -283q-51 -170 -161 -290t-277 -119z M-154 -551q-64 1 -108 37t-43 68q0 32 20 56t43 23q58 0 86 -50t66 -50q38 -1 81 55t54 115l213 1104q83 429 198 543t287 114q85 0 137 -48t52 -118q0 -96 -66 -96q-24 0 -50 18q-25 18 -25 54q0 121 -103 121q-90 0 -148 -79q-58 -78 -82 -154q-25 -76 -79 -355l-178 -918 q-21 -115 -59 -215t-110 -162q-72 -63 -186 -63z"/>
    <glyph glyph-name="uniF4FC" unicode="ſk" horiz-adv-x="1349" d="M1133 672q0 43 -20.5 61.5t-45.5 18.5q-107 0 -252 -177q-32 -36 -41 -75l-20 -88q-1 -4 -1 -7q0 -18 25 -18q125 0 240 98t115 187zM1135 852q129 0 129 -144q0 -64 -74.5 -155.5t-239.5 -173.5q-22 -11 -8 -31l148 -207q60 -84 106 -84t102 49q11 10 29 -9t8 -25 q-33 -37 -70 -68t-103 -31t-107.5 26.5t-83.5 94.5l-137 221q-14 23 -54 25t-49 -35l-72 -309q-5 -23 -65.5 -23t-54.5 23l278 1204q10 44 10 78q0 117 -120 117q-99 0 -166.5 -109t-117.5 -366l-200 -1031q-27 -138 -68.5 -234.5t-117.5 -151t-158 -54.5t-122 37.5 t-40 71.5t22.5 54.5t41.5 20.5q59 0 84.5 -50t67.5 -50t84 62t51 108l213 1104q35 180 77 323.5t140.5 238.5t265.5 95q55 0 96 -20l120 40q7 2 9 3q14 0 8 -25l-188 -823l12 -6q66 102 155.5 160.5t158.5 58.5z"/>
    <glyph glyph-name="uniF4FD" unicode="ſs" horiz-adv-x="984" d="M1003 740q0 -32 -19 -50t-37 -18q-51 0 -71 58t-82 58q-36 0 -58 -38t-22 -72q0 -70 98 -211t97 -242q1 -101 -87 -177t-204 -75q-54 -1 -94 35t-41 73q1 37 15 59t40 22q66 0 92 -54t86 -53q82 0 82 121q0 64 -90 190t-90 228t65 180t189 78q52 0 92 -40t39 -72z M-154 -551q-64 1 -108 37t-43 68q0 32 20 56t43 23q58 0 86 -50t66 -50q38 -1 81 55t54 115l213 1104q83 429 198 543t287 114q85 0 137 -48t52 -118q0 -96 -66 -96q-24 0 -50 18q-25 18 -25 54q0 121 -103 121q-90 0 -148 -79q-58 -78 -82 -154q-25 -76 -79 -355l-178 -918 q-21 -115 -59 -215t-110 -162q-72 -63 -186 -63z"/>
    <glyph glyph-name="uniF4FE" unicode="ſſk" horiz-adv-x="1796" d="M742 1442q126 0 180 -96q112 118 288 118q53 0 97 -18l117 38q5 2 9 1q10 0 10 -12q0 -5 -1 -11l-187 -823l13 -6q68 99 156 159t159 60t101 -44q29 -45 29 -99q1 -81 -97 -174t-228 -158q-8 -4 -8 -11t8 -18l148 -207q60 -84 108 -84t101 49q3 3 8 3q31 0 31 -30 q0 -3 -2 -7q-50 -99 -162 -99q-76 1 -116 25t-85 96l-137 221q-16 25 -56 25t-49 -39l-71 -305q-6 -23 -66 -23t-55 23l277 1201q9 41 9 89q-1 48 -33 78t-85 31q-97 1 -164 -101t-118 -365l-197 -1011q-59 -305 -162.5 -372.5t-181.5 -67.5t-120 37t-42 71t20 54 q20 22 44 22q58 0 84 -50t68 -50t82 55t52 115l209 1075q62 317 123 444q-39 124 -166 125q-94 0 -164 -100t-118 -349l-201 -1038q-59 -305 -162.5 -372.5t-181.5 -67.5t-120 37t-42 71t19 55q20 21 44 21q59 0 85 -50t68 -50t83 55q40 56 51 115l213 1104q34 174 78 316 q43 143 142 231t264 88zM1580 666q0 86 -67 86q-111 0 -252 -177q-33 -42 -41 -75l-20 -88q-2 -8 -2 -16t22 -9q123 0 242 96q118 97 118 183z"/>
    <glyph glyph-name="uniF4FF" unicode="ſſt" horiz-adv-x="1433" d="M742 1442q126 0 180 -96q112 118 288 118q74 0 125 -48t51 -136t-60 -290l-55 -182h224q8 0 8 -20t-11 -40q-11 -18 -18 -18h-224l-145 -505q-12 -42 -12 -71q0 -52 35 -52q90 0 223 199q2 3 12 3q9 0 19 -18t4 -26q-116 -162 -192 -224t-157 -63q-40 1 -63 31t-23 73 t8 71l168 582h-156q-12 0 -12 28t22 31l173 30l108 378q9 33 9 85q-1 52 -33 82t-85 31q-97 1 -164 -101t-118 -365l-197 -1011q-59 -305 -162.5 -372.5t-181.5 -67.5t-120 37t-42 71t20 54q20 22 44 22q58 0 84 -50t68 -50t82 55t52 115l209 1075q62 317 123 444 q-39 124 -166 125q-94 0 -164 -100t-118 -349l-201 -1038q-59 -305 -162.5 -372.5t-181.5 -67.5t-120 37t-42 71t19 55q20 21 44 21q59 0 85 -50t68 -50t83 55q40 56 51 115l213 1104q34 174 78 316q43 143 142 231t264 88z"/>
    <glyph glyph-name="uniFB00" unicode="ff" horiz-adv-x="946" d="M701 1376q-109 0 -171 -85t-86 -175t-59 -274h349q56 286 116 409q-40 125 -149 125zM331 -522q-75 0 -119 37t-44 69t19 55t44 23q63 0 89 -50t63 -50t81 57t54 113l200 1031h-348l-169 -874q-52 -271 -168 -375q-73 -66 -187 -65q-64 1 -108 37t-43.5 68t19.5 56t44 23 q62 0 88 -50t64 -50.5t81 55.5t54 115l204 1060h-182q-7 -1 -7 15t11 40t23 24h171q33 176 79 306t144 212t253 82q54 0 106 -26t75 -70q112 118 288 118q83 0 137 -47t54 -119q0 -96 -68 -96q-25 0 -51 18q-25 18 -25 54q-1 121 -103 121q-102 1 -160 -95t-80 -179 t-60 -279h285q7 0 7 -14t-12 -40t-24 -25h-271l-165 -845q-20 -104 -62 -218t-124 -168t-157 -54z"/>
    <glyph glyph-name="uniFB01" unicode="fi" horiz-adv-x="932" d="M598 -27q-54 0 -54 87q0 36 11 77l123 434q20 71 20 99q0 77 -63 77h-267l-167 -858q-18 -93 -56.5 -203.5t-114 -173.5t-184.5 -63q-64 0 -107.5 36.5t-43.5 68.5t20 55.5t43 23.5q62 0 88 -50t64 -50t81 55.5t54 114.5l202 1044h-182q-7 0 -7 15t11 39t23 24h170 q41 205 89 345t151 217t241 77q82 0 135.5 -45t53.5 -131t-66 -86q-24 0 -49.5 18t-25.5 54q0 121 -102 121t-163.5 -99t-84 -192t-57.5 -279h326q52 0 101 13.5t57 13.5t8 -7t-2 -14l-178 -628q-10 -35 -10 -68t33.5 -33t128.5 95q2 2 7.5 2t19.5 -13.5t14 -20.5t-2 -9 q-42 -51 -128 -117t-161 -66z"/>
    <glyph glyph-name="uniFB02" unicode="fl" horiz-adv-x="926" d="M803 1267q0 128 -117 128q-96 0 -157 -94.5t-84 -186.5t-58 -272h325l83 358q8 37 8 67zM681 145q0 -33 28 -32q49 0 131 94q10 13 28.5 -8.5t12.5 -28.5q-178 -197 -277 -197q-60 0 -60 99q0 32 7 63l143 628h-322l-169 -874q-17 -86 -58.5 -205t-123 -177t-159.5 -58 t-121.5 36.5t-43.5 68.5t19 55.5t44 23.5q62 0 88 -50t64 -50t80.5 53.5t54.5 116.5l205 1060h-185q-7 0 -7 14.5t11 39.5t23 25h173q21 109 64.5 268t146.5 256.5t265 97.5q55 0 97 -18l68 20q69 21 69 10l-289 -1267q-7 -31 -7 -64z"/>
    <glyph glyph-name="uniFB03" unicode="ffi" horiz-adv-x="1397" d="M696 1376q-184 0 -265 -313q-8 -33 -48 -238h348q60 303 119 426q-40 125 -154 125zM1063 -27q-54 0 -54 87q0 38 11 77l123 434q20 71 20 105q0 71 -65 71h-261l-163 -829q-20 -99 -66 -224q-46 -124 -133 -170t-153 -46t-110 37t-44 69t19 55t44 23q59 0 87 -50t73 -50 q28 0 72 56t55 114l198 1015h-348l-167 -858q-21 -104 -67 -222q-86 -218 -288 -218q-64 1 -108 37t-43.5 68t20.5 56t43 23q58 0 86 -50t66 -50t81 55q42 55 54 115l202 1044h-184q-7 0 -7 15t11 39t23 24h172q66 335 146 449q118 168 333 168q54 0 106 -26t75 -70 q112 118 288 118q83 0 137 -47t54 -119q0 -96 -68 -96q-25 0 -51 18q-25 18 -25 54q0 121 -103 121q-176 0 -251 -318q-7 -30 -51 -252h321q50 -1 100 13t61 14q6 0 4 -10t-65 -239l-112 -400q-11 -39 -11 -61q0 -40 34 -40t129 95q2 2 9 2t20 -13t13 -20t-1 -8 q-34 -46 -124 -116t-167 -69z"/>
    <glyph glyph-name="uniFB04" unicode="ffl" horiz-adv-x="1393" d="M696 1376q-182 0 -264 -307q-14 -59 -47 -227h349q56 286 116 409q-40 125 -154 125zM1270 1270q0 125 -119 125q-170 0 -249 -320q-10 -38 -48 -233h324l84 358q8 40 8 70zM1148 162q0 -49 26 -49q50 0 133 94q3 3 10 3t20 -12.5t13 -19t-2 -8.5q-176 -197 -277 -197 q-60 0 -60 107q0 27 7 55l143 628h-322l-165 -845q-19 -100 -64.5 -219.5t-127.5 -170t-154 -50.5t-116 37t-44 69t19 55t44 23q62 0 88 -50t72 -50q28 0 72.5 57t54.5 113l200 1031h-348l-169 -874q-19 -103 -85 -271.5t-270 -168.5q-64 0 -107.5 36.5t-43.5 68.5t20 55.5 t43 23.5q61 0 87.5 -50t64.5 -50t81 55.5t54 114.5l204 1060h-182q-7 0 -7 15.5t11 39.5t23 24h171q62 320 143 432q118 168 333 168q54 0 106 -26t75 -70q112 118 288 118q52 0 93 -19q27 8 72 25t56.5 17t11.5 -14l-288 -1264q-7 -28 -7 -47z"/>
    <glyph glyph-name="uniFB05" unicode="ſt" horiz-adv-x="964" d="M624 154q0 -52 35 -52q90 0 223 199q2 3 12 3t20 -18t3 -26q-87 -138 -178 -212t-171 -75q-40 1 -63 31t-23 73t8 71l168 582h-156q-12 0 -12 28t22 31l173 30l108 378q9 33 9 85t-32 82t-84 31q-90 0 -146 -79q-56 -78 -82 -154q-25 -76 -79 -355l-178 -918 q-21 -115 -59 -215t-110 -162q-72 -63 -186 -63q-64 1 -108 37t-43.5 68t20.5 56t43 23q58 0 86 -50t66 -50t81 55q42 55 54 115l213 1104q83 429 198 543t287 114q74 0 124 -48t50 -136t-60 -290l-55 -182h224q8 0 8 -20t-11 -40q-11 -18 -18 -18h-224l-145 -505 q-12 -42 -12 -71z"/>
    <glyph glyph-name="Q_u" unicode="Qu" horiz-adv-x="2469" d="M1371 886q0 194 -94.5 311t-246.5 117t-309 -130t-249 -332t-92 -384t96.5 -301.5t230.5 -119.5q273 0 468.5 267.5t195.5 571.5zM2357 -337.5q0 -28.5 -17 -28.5q-83 -2 -163 -2q-527 0 -950 113t-637 209t-293.5 210t-79.5 279q0 353 275.5 647.5t586.5 294.5 q216 0 335.5 -142t119.5 -357q0 -154 -69 -324t-217 -322t-328 -220q-8 -3 -8.5 -10t4.5 -10q184 -116 540 -210t892 -99q9 0 9 -28.5zM2234 141q0 -39 34 -39t125 93q3 3 12 3t23 -15t6 -27q-164 -183 -284 -183q-58 0 -58 90q0 36 11 74l82 287q-244 -308 -334.5 -379.5 t-146.5 -71.5q-84 0 -84 99q0 38 20 108l127 445q6 21 6 41q0 45 -28.5 45t-53.5 -28q-54 -61 -68 -61q-13 0 -21 14t-9 20q0 4 2 6q154 190 268 190q55 0 55 -82q0 -47 -25 -134l-87 -302q-41 -142 -41 -187t28 -45q44 0 159 122t228 317q58 100 121 288q8 23 65 23t57 -26 l-177 -623q-12 -42 -12 -62z"/>
    <glyph glyph-name="f_eth" unicode="fð" horiz-adv-x="1421" d="M1165 627q0 141 -133 141q-100 0 -218 -188t-118 -365q0 -158 141 -158q102 0 215 192t113 378zM1296 645q0 -305 -132 -488.5t-349 -183.5q-240 0 -240 330q0 219 153 384t318 165q40 0 66 -8q-60 119 -170 209l-219 -141q-3 -2 -7 -2q-14 0 -34 66t-16 67q4 0 35 -18 t55 -18t43 12l102 66q-74 54 -109 70q-10 4 -10 16q0 11 18 39t32 20q65 -32 155 -89l301 198q3 2 7 2q19 0 47 -61t20 -61t-46 12t-60 12t-34 -8l-190 -123q264 -198 264 -467zM-144 -551q-76 0 -118.5 36.5t-42.5 70.5t21 55.5t42 21.5q60 0 87 -50t71 -50t79.5 49.5 t49.5 120.5l204 1060h-182q-7 -1 -7 19t13 40t21 20h170q81 397 183 509.5t201 112.5t144 -41t45 -79q0 -96 -66 -96q-34 0 -54.5 22t-20.5 52t-18 51.5t-47 21.5q-62 0 -118.5 -102t-126.5 -451h207q7 0 7 -18t-14 -40q-14 -21 -22 -21h-194l-169 -874 q-60 -310 -164.5 -375t-180.5 -65z"/>
    <glyph glyph-name="f_j" unicode="fj" horiz-adv-x="932" d="M-134 -551q-84 0 -127.5 36.5t-43.5 68.5t19 55.5t44 23.5q62 0 87.5 -50t69.5 -50t79 43.5t51 126.5l202 1044h-182q-7 1 -7 13t11 38t23 27h170q72 393 187 516t294 123q85 0 137 -46t52 -131t-66 -85q-25 0 -50 19.5t-25 52.5q0 121 -105 121q-94 0 -155 -90t-83 -174 t-64 -306h326q54 -1 102 13t56 14t8 -11t-18 -61t-27 -86l-127 -555q-39 -170 -87.5 -310.5t-146.5 -261t-248 -120.5q-34 0 -54 26.5t-20 50.5t26 41t60 17t53 -21t61 -21t85.5 70t57.5 130l202 883q5 22 5 62q0 62 -63 62h-267l-167 -858q-54 -280 -152.5 -360t-182.5 -80 z"/>
    <glyph glyph-name="f_odieresis" unicode="fö" horiz-adv-x="479" d="M692 228q0 -160 133 -160q109 0 235 186.5t126 333.5q0 180 -129 180q-117 0 -241 -190t-124 -350zM-305 -444q0 34 21 55.5t42 21.5q60 0 87 -50t71 -50q44 1 80 51t49 119l204 1060h-182q-7 0 -7 19.5t13 39.5t21 20h170q81 397 183 509.5t213 112.5q80 0 131.5 -49.5 t51.5 -116.5q0 -96 -66 -96q-34 0 -54.5 21.5t-20.5 50.5q0 121 -71 121q-62 0 -118.5 -102t-126.5 -451h587q41 10 84 10q120 0 180.5 -85t60.5 -230q0 -213 -137 -388.5t-344 -175.5q-123 0 -182.5 91.5t-59.5 234.5t71.5 265t169.5 199h-446l-169 -874q-31 -157 -80 -255 q-93 -185 -269 -185q-72 0 -114.5 36.5t-42.5 70.5zM1408 1135q0 -58 -33.5 -91.5t-78.5 -33.5q-87 0 -87 90q0 52 35 88.5t79 36.5q85 -1 85 -90zM1071 1135q0 -58 -33.5 -91.5t-78.5 -33.5q-87 0 -87 90q0 52 35 88.5t79 36.5q85 -1 85 -90z"/>
    <glyph glyph-name="f_r" unicode="fr" horiz-adv-x="1206" d="M1191 852q93 0 93 -80q0 -36 -28 -62t-61 -26t-50 14.5t-47 14.5q-60 0 -204.5 -237t-205.5 -472q-8 -31 -65.5 -31t-57.5 25q0 2 1 6l182 681q7 26 7 35q0 43 -24 43h-361l-169 -874q-60 -310 -164.5 -375t-180.5 -65t-118.5 36.5t-42.5 70.5t21 55.5t42 21.5 q60 0 87 -50t71 -50t79.5 49.5t49.5 120.5l204 1060h-182q-7 -1 -7 19t13 40t21 20h170q73 373 183.5 497.5t295.5 124.5q88 0 138.5 -47.5t50.5 -118.5q0 -96 -66 -96q-34 0 -54.5 22.5t-20.5 49.5q1 121 -103 121t-172 -111.5t-130 -441.5h397q26 10 50 10q54 0 54 -82 q0 -16 -34 -143l-45 -168l10 -2q209 395 373 395z"/>
    <glyph glyph-name="f_t" unicode="ft" horiz-adv-x="1035" d="M-144 -551q-76 0 -118.5 36.5t-42.5 70.5t21 55.5t42 21.5q60 0 87 -50t71 -50t79.5 49.5t49.5 120.5l199 1027h-182q-7 0 -7.5 16.5t13.5 39.5q12 23 20 23h170q74 401 187 528t298 127q88 0 138.5 -47.5t50.5 -118.5q0 -96 -66 -96q-34 0 -54.5 22.5t-20.5 49.5 q1 121 -103 121q-104 1 -176 -119t-132 -467h362l111 212q6 12 38 12t32 -19q0 -2 -1 -6l-49 -199h224q8 0 8 -21t-11 -39.5t-18 -18.5h-224l-145 -505q-12 -42 -12 -71q0 -52 35 -52q90 0 223 199q2 3 12 3q9 0 19 -18t4 -26q-116 -162 -192.5 -224.5t-156.5 -62.5 q-40 0 -63 30.5t-23 73.5t8 71l168 582h-365l-163 -841q-60 -310 -164.5 -375t-180.5 -65z"/>
    <glyph glyph-name="f_thorn" unicode="fþ" horiz-adv-x="1295" d="M1162 672q0 110 -95 110q-74 0 -173.5 -112.5t-121.5 -231.5l-77 -407q98 0 245.5 141.5t184.5 277t37 222.5zM1120 852q174 0 175 -170q0 -84 -37.5 -205.5t-151.5 -241.5t-229.5 -190t-190.5 -70l-75 -385q-7 -38 -36 -72.5t-113 -55.5t-92 -21q-8 -1 -14 15 q-4 16 -4 23t5 9q41 12 86 51t53 82l298 1566q9 46 9 96t-30 81t-80 31q-120 0 -191.5 -137t-115.5 -416h204q7 0 7 -18t-14 -40q-14 -21 -22 -21h-191l-169 -874q-60 -310 -164.5 -375t-180.5 -65t-118.5 36.5t-42.5 70.5t21 55.5t42 21.5q60 0 87 -50t71 -50t79.5 49.5 t49.5 120.5l204 1060h-182q-7 -1 -7 19t13 40t21 20h170q73 373 183.5 497.5t295.5 124.5q55 0 97 -18l68 20q69 21 69 10l-172 -864q141 240 315 240z"/>
    <glyph glyph-name="f_udieresis" unicode="fü" horiz-adv-x="1422" d="M1187 141q0 -39 34 -39t125 93q3 3 12 3t20.5 -13t11.5 -19t-3 -10q-164 -183 -284 -183q-58 0 -58 90q0 36 11 74l82 287q-244 -308 -334.5 -379.5t-146.5 -71.5q-84 0 -84 99q0 38 20 108l142 498q6 21 6 41q0 44 -29 44h-342l-169 -874q-60 -310 -164.5 -375 t-180.5 -65t-118.5 36.5t-42.5 70.5t21 55.5t42 21.5q60 0 87 -50t71 -50t79.5 49.5t49.5 120.5l204 1060h-182q-7 0 -7 17.5t13 39.5t21 22h170q81 397 183 509.5t213 112.5q80 0 131.5 -49.5t51.5 -116.5q0 -96 -66 -96q-34 0 -54.5 21.5t-20.5 50.5q0 121 -71 121 q-62 0 -118.5 -102t-126.5 -451h376q28 10 54 10q55 0 55 -82q0 -47 -25 -134l-87 -302q-41 -142 -41 -187t28 -45q44 0 159 122t228 317q58 101 121 288q8 23 69 23t53 -26l-177 -623q-12 -42 -12 -62zM1039 1135q0 -58 -33.5 -91.5t-78.5 -33.5q-87 0 -87 90q0 52 35 88.5 t79 36.5q85 -1 85 -90zM1396 1135q0 -58 -33.5 -91.5t-78.5 -33.5q-87 0 -87 90q0 52 35 88.5t79 36.5q85 -1 85 -90z"/>
    <glyph glyph-name="f_y" unicode="fy" horiz-adv-x="1200" d="M294 -459q0 88 57.5 88t78 -34.5t58.5 -34.5q65 0 139.5 92.5t105.5 204.5t31 309t-38 397t-93 200h-263l-169 -874q-60 -310 -164.5 -375t-180.5 -65t-118.5 36.5t-42.5 70.5t21 55.5t42 21.5q60 0 87 -50t71 -50t79.5 49.5t49.5 120.5l204 1060h-182q-7 -1 -7 19t13 40 t21 20h170q73 373 183.5 497.5t295.5 124.5q88 0 138.5 -47.5t50.5 -118.5q0 -96 -66 -96q-34 0 -54.5 22.5t-20.5 49.5q1 121 -103 121t-172 -111.5t-130 -441.5h277q23 10 47 10q85 0 129.5 -183t44.5 -442q0 -87 -8 -188h10q74 130 131 322.5t57 270.5t-18 152 q0 68 72 68t72 -64q0 -74 -44 -254.5t-156 -401.5t-161 -303.5t-177 -233t-254 -150.5q-52 0 -83 30.5t-31 65.5z"/>
    <glyph glyph-name="k_i" unicode="ki" horiz-adv-x="1421" d="M1433 1135q0 -58 -33.5 -91.5t-78.5 -33.5q-87 0 -87 90q0 52 35 88.5t79 36.5q85 -1 85 -90zM718 778q131 0 131 -158q0 -110 -155 -236q-35 -29 -75 -52q166 -174 422 -322q-7 20 -7 54t11 73l137 488q5 18 5 36q0 50 -24.5 50t-117.5 -88q-9 -9 -25 8t-16 23t2 9 q37 59 125.5 124t145.5 65t57 -86q0 -37 -11 -76l-137 -487q-11 -39 -11 -70t28.5 -31t131.5 93q9 8 25 -7t16 -21q0 -27 -103 -106t-169 -87q169 -92 374 -174q12 -6 4 -34t-23 -24q-630 168 -995 522q-79 -24 -172 -35q-33 -4 -41 -39l-48 -194q-5 -23 -65 -23t-56 23 l277 1201q16 69 16 98q0 82 -77 82q-15 0 -15 26t15 26q70 0 149 27.5t84 27.5q17 0 14 -13l-211 -905l13 -6q68 100 171.5 159t199.5 59zM714 592q0 86 -68 86q-169 0 -306 -176q-34 -42 -41 -74l-20 -88q-2 -8 -2 -14q0 -12 22 -12q150 0 282.5 96t132.5 182z"/>
    <glyph glyph-name=".notdef" horiz-adv-x="1024" d="M68 -132v1640h864v-1640h-864zM534 86q0 39 -20 71q-36 56 -100 56q-38 0 -68 -21q-50 -37 -50 -106q0 -37 29 -77t77 -40t78 17q54 33 54 100zM354 1194q292 0 292 -199q0 -89 -116 -151l-106 -56q-114 -62 -114 -144t76 -218q8 -8 26 -6t18 18q-20 70 -20 122t74 93 l166 88q82 43 80 196t-116 294q-114 131 -244 131q-84 0 -84 -84t68 -84z"/>
    <glyph glyph-name="uni0000" horiz-adv-x="1024" d="M68 -132v1640h864v-1640h-864zM534 86q0 39 -20 71q-36 56 -100 56q-38 0 -68 -21q-50 -37 -50 -106q0 -37 29 -77t77 -40t78 17q54 33 54 100zM354 1194q292 0 292 -199q0 -89 -116 -151l-106 -56q-114 -62 -114 -144t76 -218q8 -8 26 -6t18 18q-20 70 -20 122t74 93 l166 88q82 43 80 196t-116 294q-114 131 -244 131q-84 0 -84 -84t68 -84z"/>
    <glyph glyph-name="uni000D" unicode="&#xD;" horiz-adv-x="559"/>
    <glyph glyph-name="space" unicode=" " horiz-adv-x="559"/>
    <glyph glyph-name="exclam" unicode="!" horiz-adv-x="520" d="M201 -25q-47 0 -88 28.5t-41 79t31 89.5t87 39t91.5 -34.5t35.5 -86.5t-34.5 -83.5t-81.5 -31.5zM287.5 419q-30.5 0 -30.5 13l185 854q8 38 47 75.5t82 37.5q79 0 79 -70q0 -27 -9 -51l-317 -842q-6 -17 -36.5 -17z"/>
    <glyph glyph-name="quotedbl" unicode="&#34;" horiz-adv-x="758" d="M866 1481q86 0 85 -54q0 -17 -5 -30q-80 -174 -192 -453h-68q13 55 39 242q25 187 31 209q24 86 110 86zM549 1481q74 0 74 -54q0 -19 -5 -30q-70 -157 -190 -453h-70q13 55 39 242q25 187 31 209q24 86 121 86z"/>
    <glyph glyph-name="numbersign" unicode="#" horiz-adv-x="1024" d="M770 500l137 336h-231l-139 -336h233zM664 6h-89l158 395h-233l-162 -395h-86l158 395h-224l43 99h217l136 336h-224l48 100h217l143 354h96l-145 -354h231l142 354h98l-146 -354h205l-41 -100h-205l-139 -336h201l-43 -99h-195z"/>
    <glyph glyph-name="dollar" unicode="$" horiz-adv-x="926" d="M718 382q0 116 -137 190l-148 -507q114 2 199.5 101.5t85.5 215.5zM408 950q0 -107 157 -168q126 434 135 468q-123 0 -207.5 -88t-84.5 -212zM877 490q0 -180 -140 -330t-323 -163l-56 -192q-5 -16 -43.5 -16t-33.5 16l55 192q-125 6 -276 91q0 154 32 269q6 19 37 19 t29 -16q-6 -35 -6 -53q0 -198 206 -236l155 534q-149 70 -197.5 130t-48.5 152q0 173 137 295t314 130l50 171q5 15 43.5 15t34.5 -15l-50 -173q31 0 114.5 -17.5t99.5 -17.5q-3 -104 -34 -246q-4 -18 -35 -18t-31 16l-1 56q-2 131 -133 160l-141 -487q134 -50 188 -109.5 t54 -156.5z"/>
    <glyph glyph-name="percent" unicode="%" horiz-adv-x="1923" d="M946 1128q0 19 -2 39q-90 49 -125 129q-85 0 -176 -97.5t-156 -218.5t-65 -210q0 -151 136 -151q145 0 266.5 178t121.5 331zM1762 535q0 161 -131 161q-115 0 -254 -202t-139 -325q0 -151 135 -151q144 0 266.5 178t122.5 339zM463.5 -130q-48.5 0 -42.5 10l1023 1307 l-5 4q-145 -80 -268 -80q-75 0 -145 22v-14q0 -180 -143 -369.5t-319 -189.5q-149 0 -212.5 82t-63.5 206q0 166 162 337.5t333 171.5q196 0 235 -166q75 -26 140 -26q268 0 488 256q8 9 43 9t32 -9l-1201 -1541q-8 -10 -56.5 -10zM1842 519q0 -181 -143 -370.5t-320 -189.5 q-144 0 -209.5 80.5t-65.5 207.5q0 166 162 338t326 172q128 0 189 -65t61 -173z"/>
    <glyph glyph-name="ampersand" unicode="&amp;" horiz-adv-x="1577" d="M619 840q0 63 -68 63q-38 0 -105.5 -54.5t-109 -146.5t-53.5 -163q220 151 334 252q2 24 2 49zM1739 829q0 -89 -54 -104q-106 -24 -158 -47q-51 -23 -61 -23t-22 17q-63 87 -141 147q0 -86 -8.5 -180t-81 -255.5t-240 -287t-379.5 -125.5t-332 112.5t-120 301.5 q0 101 46.5 226t184 252.5t270.5 127.5q53 0 77 -17t52 -65q120 97 241.5 237t121.5 234q0 32 -23.5 59.5t-23.5 58.5t26.5 53t55.5 22q94 0 94 -111q0 -321 -985 -1003v-17q-1 -174 107 -264t248 -90t289.5 96.5t234 275.5t92.5 384q-40 35 -104 35t-108 -44t-44 -75.5 t15 -75.5t15 -63q0 -58 -67 -58q-88 0 -88 82q0 108 117 213t225 105q54 0 107.5 -27.5t133.5 -107.5t124 -80q38 0 38 63q0 18 -16 81q0 27 22.5 40.5t42.5 13.5q76 0 76 -117z"/>
    <glyph glyph-name="quotesingle" unicode="'" horiz-adv-x="422" d="M534 1481q86 0 85 -55q0 -11 -5 -29q-73 -163 -190 -453h-68q23 180 68 451q24 86 110 86z"/>
    <glyph glyph-name="parenleft" unicode="(" horiz-adv-x="676" d="M270 188q0 -267 142 -475q7 -11 7 -27.5t-29 -36.5t-56 13q-200 251 -200 549q0 170 62.5 388.5t241 477.5t426.5 439q19 14 39.5 14t34.5 -17.5t-27 -48.5q-193 -150 -343 -368t-224 -472t-74 -436z"/>
    <glyph glyph-name="parenright" unicode=")" horiz-adv-x="676" d="M616 958q0 -172 -65 -398t-257 -482.5t-409 -415.5q-22 -16 -40 -16t-27 12t-7.5 23t27.5 30q227 182 368.5 404t208 453t66.5 419q0 264 -143 475q-11 16 -2.5 42t39 26t41.5 -14q200 -253 200 -558z"/>
    <glyph glyph-name="asterisk" unicode="*" horiz-adv-x="807" d="M754 1187l-278 -143l215 -141l-49 -62l-216 141l-61 -288h-72l61 287l-271 -139l-23 62l273 140l-216 142l49 62l215 -141l59 277h72l-60 -279l279 144z"/>
    <glyph glyph-name="plus" unicode="+" horiz-adv-x="1024" d="M907 371h-334v-371h-120v371h-334v100h334v336h120v-336h334v-100z"/>
    <glyph glyph-name="comma" unicode="," horiz-adv-x="520" d="M-71 -370q-19 0 -19 24q0 5 4 8q251 185 251 259.5t-18 82.5q-83 39 -83 97t43.5 96.5t104.5 38.5t94.5 -44t33.5 -104t-48.5 -147.5t-149.5 -175t-208 -134.5q-2 -1 -5 -1z"/>
    <glyph glyph-name="hyphen" unicode="-" horiz-adv-x="827" d="M745 487h-573q-6 0 -6 19t14 57.5t25 38.5h573q6 0 6 -21.5t-15 -57.5t-24 -36z"/>
    <glyph glyph-name="period" unicode="." horiz-adv-x="520" d="M191 -25q-57 0 -88 37t-31 80t32 81t92 38t89.5 -38.5t29.5 -87t-33.5 -79.5t-90.5 -31z"/>
    <glyph glyph-name="slash" unicode="/" horiz-adv-x="541" d="M57 -27q-27 0 -47 19t-20 27t2 14l610 1440q6 15 33.5 15t48 -18.5t20.5 -26t-2 -13.5l-612 -1442q-6 -15 -33 -15z"/>
    <glyph glyph-name="zero" unicode="0" horiz-adv-x="956" d="M873.5 1094q0.5 174 -131.5 174t-235.5 -182t-169 -428t-65.5 -377q0 -230 134 -230t230.5 172t166.5 434.5t70.5 436.5zM1026 977q0 -153 -58.5 -369t-214 -420t-362.5 -204q-273 0 -273 354q0 149 61.5 376.5t215 423t359.5 195.5q272 0 272 -356z"/>
    <glyph glyph-name="one" unicode="1" horiz-adv-x="956" d="M135 20.5q0 28.5 26 28.5q126 0 169.5 34t81.5 177l233 871q5 17 5 31t-12.5 14t-27.5 -7l-142 -57q-14 -6 -17.5 16.5t9.5 28.5q161 70 377 209q14 8 23.5 8t9.5 -10q-35 -98 -56 -176l-248 -926q-27 -100 -27 -144t31.5 -56.5t116.5 -12.5q10 0 10 -28.5t-25 -28.5 q-85 8 -263.5 8t-263.5 -8q-10 0 -10 28.5z"/>
    <glyph glyph-name="two" unicode="2" horiz-adv-x="956" d="M186 148.5q0 -11.5 27 -11.5h297q159 0 237 57q35 25 65 66q4 7 28.5 7t24.5 -19q0 -3 -1 -4l-158 -219q-24 -33 -61 -33q-122 8 -335 8t-343 -8q-34 0 -34 30q0 16 14 27q871 715 871 999q0 82 -46 120t-115 38q-146 0 -295 -182q-5 -5 -18 -5t-23 12t-10 16.5t2 6.5 q89 117 212 198t242 81t180.5 -65t61.5 -166q0 -142 -118.5 -295.5t-681.5 -626.5q-23 -20 -23 -31.5z"/>
    <glyph glyph-name="three" unicode="3" horiz-adv-x="956" d="M864 524q0 -212 -182.5 -379.5t-410 -167.5t-227.5 125q0 47 37.5 73t69.5 26t79.5 -74t125.5 -74q127 0 228 146.5t101 283.5q0 207 -215 207q-66 0 -117 -16q-8 0 -8 22.5t11 40t18 17.5q164 0 295.5 91t131.5 240q0 71 -40.5 106.5t-101.5 35.5q-119 0 -244 -137 q-3 -3 -14 -3t-20.5 14.5t-9.5 19.5t3 10q190 202 380 202q97 0 152.5 -56.5t55.5 -143.5q0 -224 -265 -351q-40 -19 -40 -26.5t25 -13.5q182 -41 182 -218z"/>
    <glyph glyph-name="four" unicode="4" horiz-adv-x="956" d="M326 20.5q0 28.5 25 28.5q158 0 179 78l65 244q5 20 -15 20h-477q-59 0 -59 28.5t72 100.5l302 301q369 369 582 604q14 12 53.5 12t39.5 -24q0 -4 -1 -6l-887 -897q-14 -14 -14 -23.5t23 -9.5h389q20 0 26 21l119 444q4 15 79 15t75 -15l-119 -444q-6 -21 15 -21h118 q8 0 8 -23t-12 -43t-19 -20h-119q-20 0 -25 -20l-66 -244q-3 -11 -3 -21q0 -57 101 -57q10 0 10 -28.5t-25 -28.5q-85 8 -215 8t-215 -8q-10 0 -10 28.5z"/>
    <glyph glyph-name="five" unicode="5" horiz-adv-x="956" d="M882 606q0 -203 -186 -412.5t-448 -209.5q-84 0 -148 25t-64 78t38 79.5t72 26.5t89 -62.5t119 -62.5q140 0 253 151.5t113 300.5q0 223 -259 223q-56 0 -134 -19q-22 -5 -22 12q0 11 5 22l233 530q14 29 41 29h471q4 -1 4 -13.5t-31.5 -71t-45.5 -58.5h-383 q-29 0 -41 -27l-105 -234q-12 -26 8 -23q41 5 80 5q341 0 341 -289z"/>
    <glyph glyph-name="six" unicode="6" horiz-adv-x="956" d="M731 440q0 213 -169 213q-112 0 -228 -110q-58 -141 -58 -279q0 -201 156 -201q127 0 213 121.5t86 255.5zM903 510q0 -203 -157.5 -364.5t-358.5 -161.5q-270 0 -270 303q0 141 78.5 326t309.5 413t534 352q11 4 17.5 -4t6 -24.5t-10.5 -20.5q-316 -155 -460.5 -338.5 t-223.5 -361.5q192 137 303 137t171.5 -71.5t60.5 -184.5z"/>
    <glyph glyph-name="seven" unicode="7" horiz-adv-x="956" d="M216 -15q-70 0 -70 13q0 1 32 40.5t146 199.5l638 901q17 26 17 34.5t-30 8.5h-214q-164 0 -246 -21.5t-150 -122.5q-9 -14 -37.5 -14t-21.5 14l119 248q15 31 48 31h682q33 0 33 -13.5t-17 -39.5l-848 -1264q-11 -15 -81 -15z"/>
    <glyph glyph-name="eight" unicode="8" horiz-adv-x="956" d="M707 338q0 133 -187 287q-133 -69 -198 -171t-65 -200t50.5 -150.5t146.5 -52.5t174.5 88t78.5 199zM868 1085q0 172 -171 172q-86 0 -163.5 -71.5t-77.5 -149.5t36 -133.5t156 -148.5q220 129 220 331zM1018 1135q0 -273 -327 -424q179 -137 179 -305t-152 -295 t-310 -127t-236 67t-78 172q0 266 380 445q-157 126 -157 256q0 166 137.5 287.5t283.5 121.5t213 -56.5t67 -141.5z"/>
    <glyph glyph-name="nine" unicode="9" horiz-adv-x="956" d="M867 1053q0 198 -161 198q-124 0 -208.5 -125.5t-84.5 -239.5t44.5 -169t118.5 -55q111 0 233 112q58 141 58 279zM735 1333q293 0 293 -307q0 -145 -82.5 -326.5t-298 -389t-525.5 -345.5h-9q-15 7 -16 32t8 30q286 145 432.5 302t238.5 357q-162 -135 -284 -135 t-187 74.5t-65 176.5t51 213t172 214.5t272 103.5z"/>
    <glyph glyph-name="colon" unicode=":" horiz-adv-x="561" d="M404 616q-57 0 -87 37t-30 81t32.5 80t93 36t89 -38t28.5 -87t-34.5 -79t-91.5 -30zM230 -24q-57 0 -87 37.5t-30 81.5t32.5 80t93 36t89 -38.5t28.5 -87.5t-34.5 -79t-91.5 -30z"/>
    <glyph glyph-name="semicolon" unicode=";" horiz-adv-x="561" d="M373 616q-57 0 -87 37t-30 81t32.5 80t93 36t89 -38t28.5 -87t-34.5 -79t-91.5 -30zM-30 -370q-19 0 -19 24q0 5 4 8q251 185 251 259.5t-18 82.5q-83 39 -83 97t43.5 96.5t104.5 38.5t94.5 -44t33.5 -104t-48.5 -147.5t-149.5 -175t-208 -134.5q-2 -1 -5 -1z"/>
    <glyph glyph-name="less" unicode="&lt;" horiz-adv-x="1024" d="M911 -2l-796 377v92l796 379v-119l-649 -303v-4l649 -305v-117z"/>
    <glyph glyph-name="equal" unicode="=" horiz-adv-x="1024" d="M907 330h-788v100h788v-100zM907 596h-788v100h788v-100z"/>
    <glyph glyph-name="greater" unicode="&gt;" horiz-adv-x="1024" d="M909 375l-796 -377v117l649 305v4l-649 303v119l796 -379v-92z"/>
    <glyph glyph-name="question" unicode="?" horiz-adv-x="678" d="M772 1059q0 -115 -52.5 -206t-98.5 -112l-191 -88q-88 -40 -100 -90q-16 -45 -17 -125q0 -13 -22.5 -17.5t-24.5 5.5q-24 88 -24 149q0 137 166 213l120 56q170 78 170 211q0 139 -243 139q-16 0 -32.5 19t-16.5 55t36 65t76 29q103 0 178.5 -94t75.5 -209zM194 -25 q-57 0 -88 37t-31 80t32 81t92 38t89.5 -38.5t29.5 -87t-33.5 -79.5t-90.5 -31z"/>
    <glyph glyph-name="at" unicode="@" horiz-adv-x="1556" d="M904 965q-104 0 -189.5 -168t-85.5 -284q0 -70 44 -70q55 -1 159 119t136 226l34 114q-33 63 -98 63zM1526 858q0 -212 -146 -356t-385 -144q-81 0 -102 15.5t-21 45.5t50 177l-9 4q-179 -239 -303 -239q-92 0 -92 126q0 157 128 342t278 185q55 0 99 -41l19 56 q6 14 50 14t37 -18l-141 -492q-14 -47 -14 -77t48 -30q178 0 297 115t119 315t-151.5 329.5t-383.5 129.5q-294 0 -471.5 -208.5t-177.5 -504.5q0 -242 158 -402.5t452 -160.5q151 0 318 72q4 1 11 -6t8 -18.5t-3 -14.5q-167 -105 -395 -105q-279 0 -484.5 165t-205.5 468 q0 348 239.5 566t569.5 218q280 0 442 -157t162 -369z"/>
    <glyph glyph-name="A" unicode="A" horiz-adv-x="1108" d="M874 1168q-12 0 -18 -9l-353 -530q-8 -10 -8 -19.5t19 -9.5h275q32 0 35 29l62 530q0 9 -12 9zM1039.5 1385q15.5 0 15.5 -18q0 -7 -8.5 -45t-20.5 -143l-117 -993q-1 -7 -1 -21q0 -96 144 -96q8 0 8 -21t-11.5 -38t-16.5 -17q-88 7 -213 7t-212 -7q-7 0 -7 20.5t11 38 t18 17.5q81 0 109 30.5t35 86.5l37 310q4 35 -28 35h-310q-31 0 -48 -25l-210 -324q-23 -35 -23 -58q0 -55 132 -55q7 0 7 -21t-11 -38t-17 -17q-86 7 -213 7t-213 -7q-8 0 -8 20t11 38t17 18q76 0 126 22t110 110l674 998q16 23 16 38l-16 36q0 10 25 20q98 39 145.5 65.5 t63 26.5z"/>
    <glyph glyph-name="B" unicode="B" horiz-adv-x="1217" d="M1005 422q0 134 -92 203.5t-250 69.5q-110 0 -127 -59l-102 -359q-21 -72 -21 -110q0 -110 141 -110q206 0 328.5 94.5t122.5 270.5zM1117 1074q0 231 -339 231q-50 0 -71 -75l-124 -435q-2 -10 -2 -12q0 -30 95 -30q199 0 320 92.5t121 228.5zM1257 1095 q0 -158 -87.5 -244.5t-260.5 -117.5q-11 -2 -11 -7.5t11 -9.5q248 -83 248 -326q0 -162 -136 -279.5t-471 -117.5l-306 7q-96 0 -215 -7q-8 0 -8 20t11 38t17 18q106 0 150.5 23.5t64.5 93.5l283 986q5 17 5 37q0 47 -42 60t-120 13q-8 0 -8 21t11 38t17 17q160 -4 232 -4 l262 4q172 0 262.5 -76.5t90.5 -186.5z"/>
    <glyph glyph-name="C" unicode="C" horiz-adv-x="1470" d="M712 -27q-215 0 -356 130t-141 355q0 355 290.5 641t643.5 286q147 0 238.5 -21.5t185.5 -36.5q-15 -158 -59 -308q-8 -17 -39 -17t-31 12q8 60 8 78q0 102 -75 162t-243 60q-318 0 -537 -273t-219 -582q0 -176 102 -293.5t276 -117.5t292 55t166 115.5t71 98.5 q7 10 36 10t29 -19.5t-71 -131.5t-96 -140q-34 -5 -82 -17q-174 -46 -389 -46z"/>
    <glyph glyph-name="D" unicode="D" horiz-adv-x="1514" d="M1404 880q0 182 -123.5 299t-365.5 117q-95 0 -128 -7q-66 -14 -94 -110l-254 -881q-23 -78 -23 -121q0 -124 205 -124q306 0 544.5 264.5t238.5 562.5zM1566 904q0 -327 -266.5 -619t-627.5 -292l-414 7q-96 0 -229 -7q-8 0 -8 20t11 38t17 18q89 0 130 15q63 25 85 102 l283 986q5 22 5 36q0 74 -162 74q-8 0 -8 21t11 38t17 17q133 -4 252 -4l355 4q247 0 398 -119t151 -335z"/>
    <glyph glyph-name="E" unicode="E" horiz-adv-x="1255" d="M1405 1336q0 -5 -3 -16l-88 -310q-4 -14 -42 -14t-38 14q11 56 11 78q0 95 -64 142t-127 50q-213 9 -303 9q-29 0 -35 -22l-160 -554q-2 -9 -2 -15q0 -22 29 -22h192q69 0 97.5 15t44.5 73l27 100q4 15 38.5 15t34.5 -15q-88 -251 -123 -428q-4 -15 -35.5 -15t-31.5 16 l25 90q7 25 7 39q0 41 -103 41h-198q-33 0 -40 -26l-81 -281q-27 -94 -27 -140q0 -99 114 -99l240 8q233 8 328 275q5 14 44 14t39 -14l-94 -325q-8 -26 -28 -26l-713 7q-178 0 -311 -7q-8 0 -8 18t11 38t17 20q95 0 143 21t70 96l283 986q4 14 4 33q0 77 -157 77 q-8 0 -8 19.5t11 38t17 18.5q134 -4 276 -4l655 4q62 0 62 -22z"/>
    <glyph glyph-name="F" unicode="F" horiz-adv-x="1217" d="M1405 1336q0 -5 -3 -16l-88 -310q-4 -14 -43.5 -14t-36.5 14q11 56 11 78q0 92 -64 140.5t-127 51.5q-213 9 -303 9q-29 0 -35 -22l-149 -514q-2 -7 -2 -19q0 -18 29 -18h155q121 0 157 130l32 117q4 14 37 14t31 -14q-28 -73 -87.5 -284.5t-74.5 -283.5 q-4 -15 -39.5 -15t-31.5 15l35 117q7 23 7 47q0 81 -87 81h-161q-32 0 -40 -27l-120 -427q-6 -21 -6 -38q0 -79 164 -79q7 0 7 -21.5t-10.5 -38t-16.5 -16.5q-86 7 -247 7t-269 -7q-8 0 -8 18t11 38t17 20q95 0 135 18q56 24 78 99l283 986q4 14 4 33q0 77 -157 77 q-8 0 -8 19.5t11 38t17 18.5q126 -4 222 -4l709 4q62 0 62 -22z"/>
    <glyph glyph-name="G" unicode="G" horiz-adv-x="1476" d="M1449 1076q0 238 -346 238q-299 0 -511 -267.5t-212 -571.5q0 -173 104 -300t296 -127q306 0 340 125l53 190q9 32 9 49q0 42 -43 54t-161 12q-7 0 -7 20.5t11.5 38t18.5 17.5q75 -5 260 -5t246 5q8 0 8 -19.5t-12 -38t-19 -18.5q-94 0 -124 -21.5t-50 -93.5l-65 -230 q-6 -21 -6 -36.5t17.5 -18.5t17.5 -15q0 -32 -22 -32q-37 0 -177 -20t-205 -29t-149 -9q-221 0 -362.5 130.5t-141.5 350.5q0 342 286.5 636.5t626.5 294.5q170 0 298 -29t145 -29q0 -105 -59 -308q-5 -18 -38.5 -18t-31.5 13q5 31 5 62z"/>
    <glyph glyph-name="H" unicode="H" horiz-adv-x="1503" d="M1161 152q0 -83 157 -83q8 0 8 -18t-11 -38t-18 -20q-88 7 -247.5 7t-260.5 -7q-7 0 -7 19.5t11 38t17 18.5q107 0 150.5 27t61.5 90l126 441q4 15 4 25.5t-29 10.5h-547q-32 0 -42 -36l-127 -441q-6 -21 -6 -35q0 -82 157 -82q7 0 7 -21.5t-11 -38t-18 -16.5 q-85 7 -257 7t-250 -7q-8 0 -8 18t11 38t17 20q118 0 157.5 31t55.5 86l283 986q5 17 5 35q0 80 -156 80q-8 0 -8 19.5t11 38t17 18.5q46 -5 255 -5t255 5q8 0 8 -19.5t-11 -38t-17 -18.5q-117 0 -158 -29.5t-57 -85.5l-112 -392q-5 -19 -5 -30t28 -11h546q34 0 46 41 l113 392q5 17 5 35q0 80 -156 80q-8 0 -8 21.5t11 38t18 16.5q75 -5 253 -5t256 5q8 0 8 -21t-11 -38t-17 -17q-107 0 -152 -26t-63 -89l-282 -986q-6 -21 -6 -34z"/>
    <glyph glyph-name="I" unicode="I" horiz-adv-x="729" d="M401 152q0 -83 157 -83q7 0 7 -21.5t-11 -38t-18 -16.5q-86 7 -253.5 7t-253.5 -7q-8 0 -8 20t11 38t17 18q88 0 140 21.5t73 95.5l283 986q5 22 5 35q0 80 -156 80q-8 0 -8 21t11 38t17 17q46 -5 255 -5t255 5q8 0 8 -21t-11 -38t-17 -17q-114 0 -156 -27.5t-59 -87.5 l-282 -986q-6 -20 -6 -34z"/>
    <glyph glyph-name="J" unicode="J" horiz-adv-x="720" d="M-160 -419q-31 0 -68 21.5t-37 67t37 80t98 34.5t93.5 -34t32.5 -67q80 25 144.5 127.5t269.5 823.5l153 538q5 18 5 29q0 86 -161 86q-8 0 -8 21.5t11 38t18 16.5q47 -5 241.5 -5t266.5 5q8 0 8 -20.5t-11 -38t-18 -17.5q-98 0 -142.5 -26.5t-63.5 -88.5l-300 -1012 q-86 -289 -246.5 -434t-322.5 -145z"/>
    <glyph glyph-name="K" unicode="K" horiz-adv-x="1301" d="M1240 69q13 0 13 -22.5t-11 -38t-17 -15.5q-87 7 -239 7t-239 -7q-7 0 -7 21t11 38t17 17q102 0 102 47q0 25 -22 70l-170 353q-25 51 -61 78.5t-59 27.5t-27 -20l-124 -439q-7 -21 -7 -40q0 -77 150 -77q7 0 7 -22t-11 -38t-17 -16q-87 7 -250.5 7t-249.5 -7q-8 0 -8 20 t11 38t17 18q123 0 161 33t52 84l283 986q6 21 6 39q0 76 -159 76q-9 0 -9 22.5t10.5 38t16.5 15.5q48 -5 257 -5t255 5q8 0 8 -21t-11 -38t-17 -17q-120 0 -159 -30.5t-54 -84.5l-128 -443q-2 -6 -2 -11t10 -5q41 0 147 97l400 365q62 57 62 87q0 25 -48 25q-7 0 -7 21.5 t11 38t18 16.5q46 -5 192 -5t192 5q8 0 8 -20.5t-11 -38t-18 -17.5q-100 0 -162 -27.5t-154 -109.5l-446 -403q-10 -9 -10 -19t4 -19l265 -536q32 -64 82.5 -84t145.5 -20z"/>
    <glyph glyph-name="L" unicode="L" horiz-adv-x="1312" d="M21 14.5q0 21.5 13 38t21 16.5q97 0 141.5 20.5t63.5 87.5l287 995q4 17 4 33q0 82 -159 82q-9 0 -9 22.5t10.5 38t16.5 15.5q48 -5 261 -5t261 5q7 0 7 -21t-11 -38t-17 -17q-103 0 -150.5 -20t-69.5 -95l-257 -895q-22 -77 -22 -118q0 -97 122 -97l333 13 q258 11 344 304q3 14 41.5 14t38.5 -14l-101 -352q-7 -26 -18.5 -30t-72.5 -4l-777 7q-188 0 -293 -7q-8 0 -8 21.5z"/>
    <glyph glyph-name="M" unicode="M" horiz-adv-x="1928" d="M1568 150q0 -81 138 -81q7 0 7 -21.5t-11.5 -38t-17.5 -16.5q-86 7 -223 7t-223 -7q-8 0 -8 20.5t11 38t18 17.5q136 0 172 117l242 853q1 3 1 7q0 12 -9.5 12t-20.5 -13l-798 -1041q-9 -12 -20.5 -12t-14.5 14l-170 1035q-5 30 -20.5 30t-26.5 -30l-296 -855 q-8 -22 -8 -39q0 -78 140 -78q8 0 8 -20.5t-11.5 -38t-17.5 -17.5q-87 7 -199 7t-199 -7q-7 0 -7 20.5t11 38t18 17.5q148 0 190 117l324 924q17 47 17 83q0 94 -155 94q-8 0 -8 21.5t11 38t18 16.5q46 -5 137.5 -5t109.5 -6q43 -12 52 -67l192 -1008q5 -26 19 -26t32 24 l780 1016q39 51 86 62q20 5 103 5t130 5q7 0 7 -21t-10.5 -37t-17.5 -18q-96 0 -138.5 -36.5t-74.5 -144.5l-264 -920q-5 -22 -5 -36z"/>
    <glyph glyph-name="N" unicode="N" horiz-adv-x="1539" d="M1206.5 -29q-16.5 0 -31.5 29l-539 1117q-9 20 -25.5 20t-23.5 -31l-262 -920q-8 -27 -8 -45q0 -72 133 -72q8 0 8 -21t-11 -38t-17 -17q-86 7 -200.5 7t-200.5 -7q-8 0 -8 20t11 38t17 18q90 0 138 21t69 96l264 928q14 50 14 98t-48 65q-30 10 -96 10q-8 0 -8 21t11 38 t17 17q48 -5 130.5 -5t111 -4.5t46.5 -41.5l490 -1024q14 -28 30 -28t23 30l257 882q7 24 7 44q0 71 -149 71q-7 0 -7 20t12 38t18 18q47 -5 193 -5t193 5q7 0 7 -21t-11 -38t-17 -17q-78 0 -117 -19.5t-61 -95.5l-334 -1168q-9 -33 -25.5 -33z"/>
    <glyph glyph-name="O" unicode="O" horiz-adv-x="1478" d="M1371 906q-1 172 -97 290t-248 118t-310 -133q-156 -133 -246 -329t-90 -386t100.5 -305t226.5 -115q211 0 361.5 148t226.5 344t76 368zM1534 886q0 -350 -275 -631.5t-587 -281.5q-177 0 -316 112t-139 356q0 361 276.5 652.5t585.5 291.5q219 0 337 -144.5t118 -354.5 z"/>
    <glyph glyph-name="P" unicode="P" horiz-adv-x="1184" d="M1165 1068q0 103 -76 165.5t-220 62.5t-153 -31l-162 -567q-6 -23 13 -27q64 -13 120 -13q205 0 341.5 114t136.5 296zM1327 1081q0 -213 -185.5 -352.5t-410.5 -139.5q-71 0 -179 13q-25 3 -31 -19l-112 -397q-6 -21 -6 -38q0 -79 157 -79q7 0 7 -21t-11 -38t-17 -17 q-86 7 -254 7t-254 -7q-8 0 -8 21t11 38t17 17q90 0 141.5 24t71.5 93l283 986q4 14 4 29q0 81 -159 81q-8 0 -8 21t11 38t17 17q100 -3 228 -3l329 3q159 0 258.5 -75t99.5 -202z"/>
    <glyph glyph-name="Q" unicode="Q" horiz-adv-x="1478" d="M1371 886q0 194 -94 310q-95 118 -247 118t-309 -130t-249 -332t-92 -384t96.5 -301.5t230.5 -119.5q273 0 468.5 267.5t195.5 571.5zM1534 886q0 -155 -69.5 -325t-216.5 -319.5t-304 -212.5q-8 -3 -8 -9t4 -11q52 -63 213 -150.5t364 -142.5q9 -3 9 -21.5t-17 -37 t-27 -16.5q-272 57 -533 158t-431.5 184.5t-235.5 183.5t-65 276q0 353 275.5 647.5t586.5 294.5q216 0 335.5 -142t119.5 -357z"/>
    <glyph glyph-name="R" unicode="R" horiz-adv-x="1358" d="M1199 1066q0 102 -84.5 166t-252.5 64q-94 0 -117.5 -7.5t-28.5 -23.5l-162 -567q-1 -4 -1 -13.5t17 -13.5q69 -13 117 -13q210 0 361 109t151 299zM1361 1083q0 -130 -99 -261.5t-332 -196.5q-18 -5 -18 -20.5t5 -31.5q85 -277 229 -453q86 -105 197 -105q9 0 9 -10 q0 -24 -21 -26q-41 -3 -116.5 -3t-140 23.5t-129 101t-89.5 144.5l-92 242q-20 51 -44 80t-73 29t-85 5t-41 -18l-112 -397q-7 -25 -7 -43q0 -74 161 -74q7 0 7 -21.5t-10.5 -38t-16.5 -16.5q-87 7 -257.5 7t-256.5 -7q-8 0 -8 20t11 38t17 18q103 0 149.5 25t65.5 92 l283 986q5 17 5 43q0 67 -162 67q-8 0 -8 21t11 38t17 17q100 -3 243 -3l331 3q163 0 270 -72.5t107 -202.5z"/>
    <glyph glyph-name="S" unicode="S" horiz-adv-x="1042" d="M991 504q0 -201 -161.5 -366t-365.5 -165q-115 0 -178.5 20t-169.5 80v72q11 173 35 220q9 16 39 16t31 -7q-7 -38 -7 -67q0 -129 85 -194t211 -65t218.5 106.5t92.5 230.5q0 156 -153 222l-178 76q-152 65 -152 251t154 318.5t347 132.5q107 0 189 -20t105 -20 q-2 -97 -35 -264q-5 -19 -37.5 -19t-34.5 17l-1 56q-18 183 -224 183q-131 0 -222 -95t-91 -227q0 -106 130 -163l242 -103q131 -56 131 -226z"/>
    <glyph glyph-name="T" unicode="T" horiz-adv-x="1275" d="M1405.5 992q-39.5 0 -36.5 14q15 70 15 98q0 178 -196 178h-134q-41 0 -52 -37l-303 -1059q-5 -17 -5 -37q0 -80 157 -80q7 0 7 -21.5t-10.5 -38t-16.5 -16.5q-88 7 -264.5 7t-262.5 -7q-8 0 -8 21t11 38t17 17q116 0 165.5 28t66.5 89l301 1054q5 18 5 23q0 19 -37 19 h-138q-255 0 -334 -276q-4 -14 -40 -14t-38 14l92 321q9 31 78 31l491 -4l538 4q72 0 72 -20l-97 -332q-4 -14 -43.5 -14z"/>
    <glyph glyph-name="U" unicode="U" horiz-adv-x="1482" d="M688 -27q-206 0 -299.5 69.5t-93.5 220.5q0 102 49 276l181 633q8 29 8 46q0 44 -35.5 56.5t-105.5 12.5q-9 0 -9 22.5t10.5 38t16.5 15.5q48 -5 245 -5t243 5q7 0 7 -21.5t-11 -38t-17 -16.5q-127 0 -159 -31t-47 -84l-140 -485q-89 -316 -89 -419t71 -161t197 -58 q200 0 329 104t195 334l197 685q6 22 6 41q0 74 -138 74q-7 0 -7 21t11 38t17 17q70 -5 228.5 -5t204.5 5q8 0 8 -21t-11 -38t-17 -17q-88 0 -132.5 -22t-64.5 -93l-80 -282q-110 -387 -183 -544t-226 -265t-359 -108z"/>
    <glyph glyph-name="V" unicode="V" horiz-adv-x="1206" d="M455 -38q-15 0 -18 44l-74 1166q-4 70 -35.5 92.5t-112.5 22.5q-7 0 -7 21.5t11 38t18 16.5q56 -5 219.5 -5t241.5 5q7 0 7 -20.5t-11 -38t-18 -17.5q-107 0 -137.5 -27.5t-30.5 -66.5q0 -4 2 -34l53 -878q2 -28 13 -28t27 24l335 498q53 78 245 388q31 50 31 79 q0 45 -104 45q-8 0 -8 19.5t11 38t17 18.5q43 -5 208.5 -5t220.5 5q7 0 7 -21t-11 -38t-17 -17q-149 -2 -213 -86q-153 -201 -372 -525l-466 -689q-17 -25 -32 -25z"/>
    <glyph glyph-name="W" unicode="W" horiz-adv-x="1944" d="M1190.5 -36q-12.5 0 -21.5 42l-107 505q-4 25 -11 25t-24 -25l-362 -524q-15 -23 -29 -23t-21 42l-247 1166q-15 73 -45.5 94t-100.5 21q-7 0 -7 19.5t11 38t17 18.5q46 -5 208.5 -5t235.5 5q8 0 8 -19.5t-11 -38t-17 -18.5q-161 0 -161 -78q0 -19 4 -37l199 -920 q7 -26 21 -26t32 24l240 340q24 34 24 62t-4 48l-100 472q-16 77 -39 96t-88 19q-8 0 -8 19.5t11 38t17 18.5q46 -5 205 -5t221 5q8 0 8 -21t-10.5 -37t-17.5 -18q-161 0 -161 -78q0 -18 4 -37l70 -325q6 -32 13 -32t26 32l206 316q33 49 33 83q0 41 -105 41q-8 0 -8 19.5 t11 38t17 18.5q47 -5 205.5 -5t222.5 5q8 0 8 -21t-10.5 -37t-17.5 -18q-151 0 -213 -86l-317 -438q-30 -41 -30 -71t3 -45l85 -395q6 -27 20 -27t33 25q186 244 617 913q33 54 33 83q0 41 -105 41q-8 0 -8 19.5t11 38t17 18.5q47 -5 213 -5t215 5q8 0 8 -21t-11 -38 t-17 -17q-148 0 -213 -86q-156 -201 -373 -515l-484 -699q-16 -23 -28.5 -23z"/>
    <glyph glyph-name="X" unicode="X" horiz-adv-x="1356" d="M878 717q0 -17 4 -28l184 -503q42 -117 206 -117q7 0 7 -24t-11 -38t-17 -14q-89 7 -221.5 7t-236.5 -7q-8 0 -8 19.5t11 38t17 18.5q136 0 136 64q0 24 -13 58l-153 398q-7 19 -17 19t-28 -16l-302 -290q-137 -131 -137 -187q0 -46 93 -46q7 0 7 -21.5t-11 -38 t-18 -16.5q-82 7 -219 7t-233 -7q-8 0 -8 18t11 38t17 20q158 0 249 86l533 503q17 15 17 32t-6 32l-177 457q-26 66 -67 87t-126 21q-8 0 -8 21.5t11.5 38t17.5 16.5q78 -5 220 -5t280 5q7 0 7 -21.5t-10.5 -38t-16.5 -16.5q-162 0 -162 -74q0 -19 9 -42l124 -347 q7 -18 18 -18t28 16l355 341q65 62 65 93t-76 31q-8 0 -8 19.5t11 38t17 18.5q58 -5 192.5 -5t206.5 5q8 0 8 -21t-10.5 -37t-17.5 -18q-95 0 -170 -39.5t-197 -155.5l-361 -343q-16 -15 -16 -32z"/>
    <glyph glyph-name="Y" unicode="Y" horiz-adv-x="1228" d="M633 126q0 -57 140 -57q8 0 8 -21t-11 -38t-17 -17q-87 7 -238.5 7t-237.5 -7q-7 0 -7 21t11 38t17 17q94 0 136.5 20t64.5 97l76 266q27 94 27 128.5t-23 108.5l-151 483q-24 78 -64.5 96.5t-92.5 18.5q-7 0 -7 21t11 38t17 17q46 -5 216 -5t218 5q7 0 7 -21t-11 -38 t-17 -17q-97 0 -120 -20.5t-23 -43.5t9 -51l151 -483q6 -18 16 -18t24 15l445 477q50 54 50 84q0 40 -100 40q-7 0 -7 21.5t11 38t18 16.5q66 -5 192.5 -5t201.5 5q7 0 7 -20.5t-11 -38t-18 -17.5q-92 0 -143.5 -28.5t-211.5 -199.5l-381 -406q-57 -61 -87 -166l-86 -301 q-9 -32 -9 -60z"/>
    <glyph glyph-name="Z" unicode="Z" horiz-adv-x="1199" d="M317 0h-352q-20 0 -20 20t11 31l1236 1216q9 9 9 15.5t-20 6.5h-572q-89 0 -209 -164q-64 -87 -98 -151q-6 -12 -27 -5t-16 19q72 170 133 357q7 22 28 22q4 0 8 -1l28 -4q82 -12 254.5 -12t332.5 4l374 8q17 0 17 -15t-16 -31l-1217 -1205q-8 -8 -8 -25t22 -17 q429 0 645 13q120 7 288 270q5 8 27 1t17 -17q-85 -161 -144 -343q-9 -29 -24 -26l-52 12q-91 21 -655 21z"/>
    <glyph glyph-name="bracketleft" unicode="[" horiz-adv-x="725" d="M532 -354h-432q-17 0 -17 13q0 4 1 9l528 1843q4 19 27 19h420q7 0 7 -19t-13 -39t-21 -20h-276q-23 0 -29 -22l-479 -1678q-8 -28 6 -28h301q8 0 8 -22t-12 -39t-19 -17z"/>
    <glyph glyph-name="backslash" unicode="\" horiz-adv-x="717" d="M714 19q0 -22 -48 -36q-17 -5 -33.5 -5t-20.5 10l-608 1444q-2 6 -2 9q0 26 42 42q18 7 37 7t25 -15l607 -1450q1 -2 1 -6z"/>
    <glyph glyph-name="bracketright" unicode="]" horiz-adv-x="725" d="M201 -354h-432q-9 0 -9 20.5t8 39t19 18.5h305q14 0 21 24l483 1682q6 22 -12 22h-279q-9 0 -9 23.5t11 39t17 15.5h419q16 0 16 -12q0 -3 -1 -7l-529 -1843q-6 -22 -28 -22z"/>
    <glyph glyph-name="asciicircum" unicode="^" horiz-adv-x="1227" d="M1091 535h-136l-302 681l-302 -681h-138l387 837h106z"/>
    <glyph glyph-name="underscore" unicode="_" horiz-adv-x="1024" d="M1024 -256h-1024v102h1024v-102z"/>
    <glyph glyph-name="grave" unicode="`" horiz-adv-x="569" d="M472 1044q0 -37 -36 -37q-24 0 -41 27l-186 301q-2 2 -2 15t33 34t54 21t28 -16l145 -325q5 -12 5 -20z"/>
    <glyph glyph-name="a" unicode="a" horiz-adv-x="918" d="M578 778q-136 0 -251.5 -220t-115.5 -382q0 -94 57 -94t157 100q188 189 239 361l45 151q-43 84 -131 84zM680 135.5q0 -32.5 32.5 -32.5t129.5 94q9 9 28 -11t11 -30q-66 -81 -145.5 -132t-140 -51t-60.5 79q0 56 24 120l43 115l-12 4q-238 -318 -404 -318 q-60 0 -91.5 48t-31.5 120q0 211 173.5 457t367.5 246q72 0 133 -56l24 70q8 24 63.5 24t55.5 -19q0 -2 -1 -5l-189 -655q-10 -35 -10 -67.5z"/>
    <glyph glyph-name="b" unicode="b" horiz-adv-x="852" d="M707 597q0 157 -84 157q-96 0 -213.5 -160t-150 -262.5t-32.5 -168.5q0 -118 99 -118q142 0 261.5 197.5t119.5 354.5zM850 659q0 -253 -180 -469.5t-428 -216.5q-145 0 -145 160q0 39 12 92l227 975q16 67 16 99q0 79 -78 79q-15 0 -15 26t15 26q55 0 137 27.5t94.5 27 t12.5 -10t-2 -16.5l-199 -860l21 -6q198 260 346 260q166 0 166 -193z"/>
    <glyph glyph-name="c" unicode="c" horiz-adv-x="674" d="M301 -27q-92 0 -147.5 79.5t-55.5 203.5q0 203 143.5 399.5t315.5 196.5q62 0 113 -29.5t51 -65t-25 -58t-51.5 -22.5t-36.5 19q-9 57 -15 66q-20 26 -89 26q-90 0 -180 -161.5t-90.5 -292.5t37 -201t99.5 -70t100 21.5t81 60.5q5 4 18 0.5t16.5 -15t-1.5 -17.5 q-140 -140 -283 -140z"/>
    <glyph glyph-name="d" unicode="d" horiz-adv-x="958" d="M578 786q-136 0 -251.5 -223t-115.5 -383q0 -98 59 -98q70 0 199 144.5t199 277.5l42 184q-44 98 -132 98zM714 162q0 -49 25 -49q51 0 133 94q3 3 16 -2t21 -18t4 -17q-174 -197 -276 -197q-60 0 -60 107q0 26 7 55l40 178l-14 11q-102 -149 -213.5 -250t-210.5 -101 q-60 0 -91.5 51.5t-31.5 120.5q0 213 173 460t368 247q80 0 131 -63l92 411q16 67 16 96q0 82 -77 82q-15 0 -15 26t15 26q70 0 148 27.5t83 27.5q13 0 13 -13q0 -3 -2 -12l-287 -1251q-7 -29 -7 -47z"/>
    <glyph glyph-name="e" unicode="e" horiz-adv-x="696" d="M580 711q0 61 -54 61q-74 0 -146.5 -102.5t-119.5 -249.5q123 26 221.5 104t98.5 187zM723 737q0 -135 -163.5 -244t-317.5 -137q-15 -75 -15 -118q0 -166 111 -166q40 0 84 21t141 104q7 6 18.5 0.5t13 -17t-2.5 -16.5q-156 -191 -293 -191q-203 0 -203 242 q0 191 160 414t336 223q131 0 131 -115z"/>
    <glyph glyph-name="f" unicode="f" horiz-adv-x="479" d="M-144 -551q-76 0 -118.5 36t-42.5 70.5t21 56t42 21.5q60 0 87 -50t70.5 -50t79.5 49.5t50 120.5l204 1060h-182q-7 0 -7 19.5t13 39.5t21 20h170q73 373 183.5 497.5t295.5 124.5q88 0 138.5 -47.5t50.5 -118.5q0 -96 -66 -96q-34 0 -54.5 22.5t-20.5 49.5 q0 121 -103.5 121t-171.5 -111.5t-130 -441.5h282q7 0 7 -18.5t-14 -39.5t-22 -21h-269l-169 -874q-60 -311 -199 -397q-70 -44 -146 -43z"/>
    <glyph glyph-name="g" unicode="g" horiz-adv-x="766" d="M585 -352q0 63 -121 150t-193 87t-158.5 -67.5t-86.5 -145t97 -120t193.5 -42.5t182.5 37.5t86 100.5zM587 720q0 71 -79 71q-107 0 -211 -161t-104 -309q0 -73 79 -73q114 0 214.5 163.5t100.5 308.5zM890 770.5q0 -43.5 -23 -43.5q-89 0 -194 29q28 -48 28 -126 q-1 -78 -43 -166q-96 -198 -310 -265q-100 -31 -100 -95q0 -48 123 -114q39 -21 194.5 -108t155.5 -201.5t-156.5 -177t-322 -62.5t-262.5 58t-97 149.5t100.5 166t241.5 119.5q-92 44 -92 97t106 156q-163 42 -163 214.5t138 311.5t316 139q24 0 62 -18t76 -22t84 -4t121 5 q17 1 17 -42.5z"/>
    <glyph glyph-name="h" unicode="h" horiz-adv-x="879" d="M870 618q0 -182 -107 -413.5t-267 -231.5q-48 0 -81.5 29.5t-33.5 71.5t19 65t44 23q63 0 74 -51.5t44 -51.5t71 70.5t69 202t31 237.5q0 174 -76 174q-117 0 -313 -282q-50 -72 -92 -240l-55 -221q-7 -27 -64 -27t-57 23v4l279 1201q16 69 16 103q0 73 -77 73 q-15 0 -15 26t15 26q76 0 151.5 27.5t79.5 27.5q17 0 13 -18l-212 -921l10 -10q188 317 371 317q163 0 163 -234z"/>
    <glyph glyph-name="i" unicode="i" horiz-adv-x="528" d="M540 1135q0 -58 -33.5 -91.5t-78.5 -33.5q-87 0 -87 90q0 52 35 88.5t79 36.5q85 -1 85 -90zM282 133q0 -31 28.5 -31t131.5 93q9 8 25 -7t16 -21q0 -27 -108.5 -110.5t-179.5 -83.5q-54 0 -54 87q0 38 11 77l137 488q5 18 5 36q0 50 -24.5 50t-117.5 -88q-9 -9 -25 8 t-16 23t2 9q37 59 125.5 124t145.5 65t57 -86q0 -37 -11 -76l-137 -487q-11 -39 -11 -70z"/>
    <glyph glyph-name="j" unicode="j" horiz-adv-x="420" d="M540 1135q0 -58 -33.5 -91.5t-78.5 -33.5q-87 0 -87 90q0 52 35 88.5t79 36.5q85 -1 85 -90zM-231 -553q-32 0 -53 25.5t-21 52.5t26.5 42t56.5 15t58 -24.5t51 -24.5q69 0 118.5 66t66.5 141l202 883q5 22 5 36q0 43 -31.5 43t-104.5 -92q-12 -14 -36 20q-6 9 -3 19 q152 203 254 203q61 0 61 -97q0 -30 -7 -61l-127 -555q-26 -112 -78 -282.5t-161.5 -290t-276.5 -119.5z"/>
    <glyph glyph-name="k" unicode="k" horiz-adv-x="893" d="M677 665.5q0 86.5 -67 86.5q-111 0 -252 -177q-33 -42 -41 -75l-20 -88q-2 -8 -2 -16.5t22 -8.5q123 0 241.5 96t118.5 182.5zM850 109q31 0 31 -30q0 -3 -2 -7q-83 -99 -160.5 -99t-118 24.5t-84.5 96.5l-137 221q-15 25 -55.5 25t-49.5 -39l-71 -305q-5 -23 -65.5 -23 t-55.5 23l277 1201q16 69 16 98q0 82 -77 82q-15 0 -15 26t15 26q70 0 149 27.5t84 27.5q17 0 14 -13l-193 -832l13 -6q68 100 156.5 159.5t158.5 59.5t100 -44.5t30 -98.5q0 -81 -97.5 -174t-227.5 -158q-8 -4 -8 -11t8 -18l148 -207q60 -84 108.5 -84t100.5 49q3 3 8 3z "/>
    <glyph glyph-name="l" unicode="l" horiz-adv-x="496" d="M251 162q0 -49 25 -49q52 0 134 94q2 3 9.5 3t20.5 -13t13 -18.5t-2 -8.5q-170 -197 -277 -197q-60 0 -60 107q0 24 7 55l243 1062q15 66 15 98q0 82 -77 82q-15 0 -15 26t15 26q73 0 149.5 27.5t82.5 27.5q16 0 12 -14l-288 -1261q-7 -31 -7 -47z"/>
    <glyph glyph-name="m" unicode="m" horiz-adv-x="1507" d="M1266 147q0 -45 31.5 -45t123.5 93q4 4 12 4t19.5 -12.5t11.5 -20.5t-2 -10q-159 -183 -284 -183q-54 0 -54 88q0 37 11 76l125 445q32 114 32 152t-32 38q-51 0 -119.5 -71t-185 -246.5t-230.5 -452.5q-12 -29 -71 -29t-50 33l150 526q41 144 41 192t-43 48t-135 -95.5 t-198 -279.5t-186 -395q-11 -29 -70 -29t-50 33l176 619q6 21 6 39q0 47 -28.5 47t-110.5 -86q-3 -3 -12.5 -3t-20 13t-10.5 19t2 8q154 190 268 190q59 0 59 -90q0 -38 -10 -72l-90 -307l8 -4q88 199 217.5 336t238.5 137t109 -129q0 -57 -20 -127l-61 -213l12 -4 q246 473 454 473q107 0 107 -125q0 -66 -27 -160l-104 -364q-10 -35 -10 -56z"/>
    <glyph glyph-name="n" unicode="n" horiz-adv-x="1008" d="M764 141q0 -39 34 -39t124 93q3 3 11 3t20 -13t12 -20t-2 -9q-161 -183 -285 -183q-56 0 -56 84q0 39 11 80l125 445q30 106 30 148t-30 42q-86 0 -244.5 -231t-280.5 -539q-11 -29 -70 -29t-50 33l176 619q6 21 6 39q0 47 -32 47t-107 -86q-3 -3 -11 -3t-20 12.5t-12 19 t2 8.5q154 190 268 190q57 0 57 -90q0 -42 -29 -138l-69 -241l8 -4q246 473 449 473q106 0 106 -125q0 -61 -28 -160l-103 -364q-10 -34 -10 -62z"/>
    <glyph glyph-name="o" unicode="o" horiz-adv-x="838" d="M707 588q0 180 -129 180q-117 0 -241 -190t-124 -350t133 -160q109 0 235 186.5t126 333.5zM819 537q0 -213 -137 -388.5t-344 -175.5q-123 0 -182.5 91.5t-59.5 240.5q0 195 151 371t331 176q120 0 180.5 -85t60.5 -230z"/>
    <glyph glyph-name="p" unicode="p" horiz-adv-x="877" d="M725 477q0 118 -60 198.5t-149 80.5q-47 0 -92 -13l-148 -626q-2 -14 -2 -19q0 -59 76 -59q146 0 260.5 135t114.5 303zM864 510q0 -203 -167 -370t-365 -167q-36 0 -84 13l-94 -406q-4 -17 -4 -28q0 -56 124 -56q9 0 9 -12t-7 -27.5t-20 -15.5q-90 8 -193.5 8t-193.5 -8 q-9 1 -9 13t7 27t20 15q126 0 144 76l266 1133q-88 -45 -147 -99q-4 -3 -14 -3t-24 13t-14 21t4 12q105 96 215 146l43 209q5 25 47 51t69 26t24 -13l-56 -239q38 13 119 13q132 0 216.5 -90t84.5 -242z"/>
    <glyph glyph-name="q" unicode="q" horiz-adv-x="952" d="M756 655.5q0 132.5 -82 132.5q-138 0 -285 -246t-147 -401q0 -78 47.5 -78t164.5 95.5t209.5 230t92.5 267zM676 -406q0 -48 69 -48q19 0 41 3q11 2 11 -17q0 -42 -18 -42q-144 0 -390 -49q-11 0 -11 28.5t23 30.5q133 10 156 109l176 774l-10 -2q-80 -138 -228 -273 t-268 -135q-61 0 -97 44t-36 116q0 225 183 472t430 247q91 0 122 -123l89 166q4 8 19 8q45 0 39 -25l-85 -346l-213 -919q-2 -9 -2 -19z"/>
    <glyph glyph-name="r" unicode="r" horiz-adv-x="754" d="M739 852q93 0 93 -80q0 -36 -28 -62t-61 -26t-50 14.5t-47 14.5q-60 0 -204.5 -237t-205.5 -472q-8 -31 -65.5 -31t-57.5 25q0 2 1 6l165 623q7 26 7 35q0 43 -24 43t-115 -91q-3 -3 -13.5 -3t-18.5 13.5t-8 19t2 7.5q123 134 176 167.5t96 33.5q54 0 54 -82 q0 -16 -34 -143l-45 -168l10 -2q209 395 373 395z"/>
    <glyph glyph-name="s" unicode="s" horiz-adv-x="524" d="M543 740q0 -32 -19 -50t-37 -18q-52 0 -71.5 58t-81.5 58q-35 0 -57.5 -38t-22.5 -72q0 -70 97.5 -211t97.5 -242t-87.5 -176.5t-203.5 -75.5q-54 0 -94.5 35.5t-40.5 72.5t14.5 59t40.5 22q66 0 92.5 -53.5t85.5 -53.5q82 0 82 121q0 64 -90 190t-90 228.5t65 180 t189 77.5q52 0 91.5 -40t39.5 -72z"/>
    <glyph glyph-name="t" unicode="t" horiz-adv-x="604" d="M264 154q0 -52 35 -52q63 0 223 199q2 3 12 3t19.5 -17.5t3.5 -26.5q-116 -162 -192.5 -224.5t-156.5 -62.5q-40 0 -63 30.5t-23 73.5t8 71l168 582h-156q-12 0 -12 27.5t22 31.5l167 29l103 203q6 12 38 12t32 -19q0 -2 -1 -6l-49 -200h224q8 0 8 -20.5t-11 -39 t-18 -18.5h-224l-145 -505q-12 -42 -12 -71z"/>
    <glyph glyph-name="u" unicode="u" horiz-adv-x="991" d="M756 141q0 -39 34 -39t125 93q3 3 12 3t23 -15t6 -27q-164 -183 -284 -183q-58 0 -58 90q0 36 11 74l82 287q-244 -308 -334.5 -379.5t-146.5 -71.5q-84 0 -84 99q0 38 20 108l127 445q6 21 6 41q0 45 -28.5 45t-53.5 -28q-54 -61 -67.5 -61t-22 14.5t-8.5 19t2 6.5 q154 190 268 190q55 0 55 -82q0 -47 -25 -134l-87 -302q-41 -142 -41 -187t28 -45q44 0 159 122t228 317q58 100 121 288q8 23 65.5 23t57.5 -21q0 -2 -1 -5l-177 -623q-12 -42 -12 -62z"/>
    <glyph glyph-name="v" unicode="v" horiz-adv-x="823" d="M385 852q55 0 55 -84q0 -42 -11 -79l-136 -482q-10 -35 -10 -60q0 -71 81.5 -71t209.5 162.5t128 345.5q0 119 -36 194q0 74 69 74q50 0 73 -49t23 -98q0 -126 -79 -304.5t-220 -303t-274 -124.5q-58 0 -85 38.5t-27 73.5t6 56l137 484q6 21 6 37q0 49 -31.5 49 t-107.5 -86q-8 -8 -25.5 8t-17.5 21.5t2 7.5q155 190 270 190z"/>
    <glyph glyph-name="w" unicode="w" horiz-adv-x="1239" d="M1247 705q0 -117 -78.5 -300.5t-220.5 -307.5t-274 -124q-112 0 -112 124q0 10 2 28q-164 -152 -306 -152q-56 0 -84 38q-28 37 -28 73t6 57l137 484q6 21 6 37q0 49 -30.5 49t-108.5 -86q-3 -3 -9.5 -3t-20 14t-13.5 19t2 7q154 190 270 190q55 0 55 -84q0 -45 -28 -143 l-119 -418q-10 -35 -10 -60q0 -71 81 -71q48 0 102 46t96 100.5t68 146.5l126 448q10 35 66 35t56 -26q0 -5 -1 -9l-168 -610q-10 -36 -10 -60q0 -71 81.5 -71t209.5 162.5t128 345.5q0 119 -37 194q0 74 70 74q47 0 71.5 -45t24.5 -102z"/>
    <glyph glyph-name="x" unicode="x" horiz-adv-x="963" d="M973 754q0 -109 -68 -109q-31 0 -50 39t-36 39q-44 0 -102 -78l-156 -209l94 -200q56 -119 86 -119q41 0 88 125q3 8 26 8t20 -17q-40 -260 -158 -260q-63 0 -135 144l-99 198l-137 -180q-123 -162 -211 -162q-40 0 -62 23.5t-22 64t23.5 82t53.5 41.5t53 -37.5t32 -37.5 q27 0 78 65l162 207l-146 299q-13 27 -31 27q-33 0 -83 -107q-2 -4 -14.5 -4t-23.5 13.5t-8 19.5q94 223 172 223q55 0 103 -107l110 -245l127 170q136 182 222 182q38 0 65 -29t27 -69z"/>
    <glyph glyph-name="y" unicode="y" horiz-adv-x="793" d="M-113 -459q0 88 75 88q41 0 61 -34.5t59 -34.5q65 0 139 92.5t105.5 204.5t31.5 309t-34 374t-82 177t-113 -131q-4 -7 -18.5 -5.5t-23.5 8.5t-5 15q104 248 221 248q85 0 129.5 -183t44.5 -442q0 -87 -8 -188h10q74 130 131.5 322.5t57.5 270t-19 152.5q0 68 72 68 t72 -64q0 -74 -44 -254.5t-155.5 -401.5t-161 -303.5t-177 -233t-253.5 -150.5q-52 0 -83.5 30.5t-31.5 65.5z"/>
    <glyph glyph-name="z" unicode="z" horiz-adv-x="891" d="M684 41q84 0 84 88q0 22 -27.5 46.5t-27.5 55.5q0 64 69 64q40 0 63 -33.5t23 -71.5q0 -106 -79 -177.5t-156 -71.5t-211.5 62.5t-173.5 62.5q-62 0 -142 -89q-4 -6 -21 -6t-34.5 23t-17.5 28.5t3 8.5l564 628q9 10 9 18q0 16 -40 28q-132 40 -231.5 40t-99.5 -57 q0 -13 19 -38t19 -54q0 -64 -61 -64q-78 0 -78 80q0 68 78.5 149t204.5 81q62 0 152 -28t138.5 -28t71.5 25l41 45q5 5 20.5 5t24.5 -14.5t9 -20.5t-3 -9l-591 -655l2 -8l43 -3q61 -4 189.5 -57t166.5 -53z"/>
    <glyph glyph-name="braceleft" unicode="{" horiz-adv-x="573" d="M74 -164q0 96 93 307t93 295t-139 94q-7 0 -7 22t17 24q105 10 152.5 42t67 87.5t65.5 291t116 321.5q95 116 280 116q10 0 10 -17.5t-15 -19.5q-186 -27 -231 -203q-23 -88 -54 -274t-85.5 -261t-161.5 -102l-2 -8q104 -26 104 -143q0 -63 -95 -275t-95 -283 q0 -115 125 -141q6 -1 5 -18t-16 -19q-227 0 -227 164z"/>
    <glyph glyph-name="bar" unicode="|" horiz-adv-x="537" d="M315 -313h-82v1747h82v-1747z"/>
    <glyph glyph-name="braceright" unicode="}" horiz-adv-x="598" d="M-131 -328q-10 0 -10 18t15 19q190 30 231 203q29 125 57 294t84 243t160 100l2 8q-104 26 -104 143q0 63 95 275t95 283q0 115 -125 141q-6 1 -6 19t17 18q227 0 227 -164q0 -96 -93 -307t-93 -301q0 -79 139 -88q7 0 7 -22t-17 -24q-106 -10 -155 -43.5t-66.5 -90.5 t-63.5 -288t-116 -320q-93 -116 -280 -116z"/>
    <glyph glyph-name="asciitilde" unicode="~" horiz-adv-x="676" d="M653 513q0 -43 -83.5 -103t-128.5 -60t-133 33.5t-142.5 33.5t-116.5 -65q-3 -3 -7 -3t-11.5 5t-7.5 11t1 7q100 151 178 151t165.5 -32t136 -32t120.5 72q2 2 5 2q24 0 24 -20z"/>
    <glyph glyph-name="uni00A0" unicode=" " horiz-adv-x="559"/>
    <glyph glyph-name="exclamdown" unicode="¡" horiz-adv-x="520" d="M332 633q-56 0 -91.5 34.5t-35.5 86.5t34.5 83.5t81.5 31.5t88 -28.5t41 -79t-31 -89.5t-87 -39zM-49 -555q-79 0 -79 70q0 27 9 51l317 842q6 17 36.5 17t30.5 -13l-185 -854q-8 -38 -47 -75.5t-82 -37.5z"/>
    <glyph glyph-name="cent" unicode="¢" horiz-adv-x="866" d="M317 623q0 -195 146 -281l197 669q-139 -6 -241 -126t-102 -262zM524 220h-18l-62 -212q-4 -14 -24 -14t-37 9.5t-14 19.5l61 208q-122 32 -195.5 135.5t-73.5 223.5t63.5 230t190.5 179.5t263 73.5l53 180q3 10 21.5 10t38 -7.5t16.5 -18.5l-50 -169q163 -24 183 -84 q5 -15 5 -36t-21 -46.5t-37 -25.5t-43 32.5t-47 53t-61 37.5l-202 -685q28 -7 86 -7t198 57q9 4 19.5 -12.5t10.5 -27t-4 -13.5q-130 -91 -320 -91z"/>
    <glyph glyph-name="sterling" unicode="£" horiz-adv-x="1081" d="M892 1323q210 1 211 -177q0 -82 -66 -83q-73 0 -75 82q-2 110 -113 110q-56 0 -117 -59.5t-109 -546.5h292q11 0 11 -17t-7 -32.5t-16 -15.5h-291q-53 -304 -276 -422v-4q90 0 226 -62t194 -61q58 0 77 23.5t19 107.5t47 84q35 0 55.5 -28t20.5 -64q0 -98 -106.5 -154.5 t-214.5 -56.5t-219 57t-200 92q-41 -6 -71 -65.5t-101 -59.5t-71 49q0 54 74.5 92t160.5 51t145 117t76 304h-231q-8 0 -8 32.5t26 32.5h222q19 180 61 327.5t152 247t222 99.5z"/>
    <glyph glyph-name="currency" unicode="¤" horiz-adv-x="1024" d="M860 668q0 144 -101 245t-245.5 101t-245.5 -101t-101 -244.5t102 -245.5t245 -102t244.5 101.5t101.5 245.5zM946 668q0 -147 -88 -262l78 -79q2 -2 2 -10t-32 -42.5t-42 -34.5t-12 3l-78 79q-115 -88 -260 -88t-263 89l-79 -80q-3 -3 -12 -3t-41.5 33.5t-32.5 42.5 t2 11l79 80q-87 115 -87 260t87 261l-79 80q-2 2 -2 10t33 42t42 34t11 -2l79 -79q115 88 261.5 88t261.5 -88l78 79q2 3 12 3t42 -33.5t32 -42.5t-2 -11l-78 -78q88 -115 88 -262z"/>
    <glyph glyph-name="yen" unicode="¥" horiz-adv-x="1317" d="M679 146q0 -50 54 -65q24 -7 96 -7q8 0 8 -18q-1 -18 -11 -42q-10 -22 -19 -22q-66 8 -244 8t-266 -8q-8 0 -8 18q1 18 11 42q10 22 19 22q102 0 148 22t68 103l78 273h-330q-15 0 -15 50t15 50h356q4 18 4 56t-22 109h-277q-15 0 -15 51t15 51h246l-131 418 q-22 69 -60 96t-108 27q-8 0 -8 18q1 18 11 42q10 22 19 22q102 -6 218 -6t247 6q8 0 8 -18t-10 -42q-10 -22 -20 -22q-74 0 -103 -9q-50 -17 -50 -66q0 -21 9 -48l162 -518q6 -20 17 -20t26 16l477 512q54 59 54 90q0 43 -107 43q-8 0 -8 18q1 18 11 40q10 24 20 24 q86 -6 214 -6t208 6q8 0 8 -18t-10 -40q-10 -24 -21 -24q-114 0 -185 -50q-39 -27 -196 -195l-278 -296h231q15 0 15 -51t-15 -51h-325l-36 -37q-51 -52 -78 -128h378q15 0 15 -50t-15 -50h-408l-78 -273q-9 -31 -9 -53z"/>
    <glyph glyph-name="brokenbar" unicode="¦" horiz-adv-x="555" d="M432 590v-623h-120v623h120zM432 1399v-582h-120v582h120z"/>
    <glyph glyph-name="section" unicode="§" horiz-adv-x="989" d="M731 332q0 114 -100.5 365.5t-100.5 293.5q0 144 19 183l-8 4q-168 -158 -168 -312t101 -395t101 -328t-6 -133l4 -4q158 143 158 326zM862 384q0 -118 -61 -212q-90 -139 -281.5 -292.5t-327.5 -153.5q-73 0 -125.5 44.5t-52.5 114.5q0 39 35 39q11 0 87 -47t150 -47 t126.5 47t52.5 127q0 132 -107.5 384t-107.5 388t112.5 287.5t275 265t257.5 113.5q58 0 101.5 -39.5t43.5 -95.5q0 -80 -55 -80q-2 0 -48 59.5t-120 59.5t-126 -48.5t-52 -128.5q0 -137 111.5 -402t111.5 -383z"/>
    <glyph glyph-name="dieresis" unicode="¨" horiz-adv-x="909" d="M969 1176q0 -58 -33.5 -91.5t-78.5 -33.5q-87 0 -87 90q0 52 35 88.5t79 36.5q85 -1 85 -90zM612 1176q0 -58 -33.5 -91.5t-78.5 -33.5q-87 0 -87 90q0 52 35 88.5t79 36.5q85 -1 85 -90z"/>
    <glyph glyph-name="copyright" unicode="©" horiz-adv-x="1565" d="M1059.5 566q16.5 0 18.5 -12q-8 -82 -48 -144q-28 -6 -41 -10q-78 -24 -196 -24q-155 0 -259 105t-104 267t108 273.5t267 111.5q75 0 150 -15.5t86 -15.5q16 -35 16 -166q0 -8 -18 -8.5t-19 6.5q-17 161 -218 161q-115 0 -191.5 -102.5t-76.5 -223.5q2 -176 87.5 -264.5 t178.5 -88.5q196 0 242 144q1 6 17.5 6zM1445 746.5q0 270.5 -190.5 461t-459 190.5t-460 -191.5t-191.5 -459.5t191 -459t461 -191t459.5 189.5t189.5 460zM795 27q-299 0 -510 211t-211 510t211 509.5t510 210.5t510 -210.5t211 -509.5t-211 -510t-510 -211z"/>
    <glyph glyph-name="ordfeminine" unicode="ª" horiz-adv-x="579" d="M468 980q-64 0 -130.5 -113t-66.5 -195q-1 -82 29 -82t95 71t105 195l29 96q-19 28 -61 28zM660 626q0 -5 -28 -33t-74 -56.5t-79 -28.5q-48 0 -48 54q0 30 11 56l16 35l-8 4q-134 -149 -216 -149q-44 0 -70 32.5t-26 83.5q0 125 111.5 265.5t235.5 140.5q37 0 64 -18 l12 29q5 13 57.5 13t52.5 -21q0 -4 -2 -10l-118 -391q-7 -23 17 -23q18 0 56 39q8 7 22 -5t14 -17z"/>
    <glyph glyph-name="guillemotleft" unicode="«" horiz-adv-x="887" d="M688 57q-9 0 -12 3l-216 312q-13 19 -13 45.5t42 60.5l383 312q4 4 9 3q23 0 23 -24q0 -6 -3 -9l-277 -294q-25 -26 -25 -51.5t7 -41.5l117 -279q4 -10 -11 -23.5t-24 -13.5zM336.5 57q-8.5 0 -11.5 3l-216 312q-13 19 -13 45.5t42 60.5l383 312q4 4 9 3q23 0 23 -24 q0 -6 -4 -9l-276 -294q-25 -26 -25 -51.5t7 -41.5l117 -279q4 -10 -11.5 -23.5t-24 -13.5z"/>
    <glyph glyph-name="logicalnot" unicode="¬" horiz-adv-x="1366" d="M1366 0h-123v537h-1243v120h1366v-657z"/>
    <glyph glyph-name="uni00AD" unicode="­" horiz-adv-x="827" d="M778 602q6 0 6 -18.5t-14.5 -57.5t-26.5 -39h-571q-6 0 -6 19t14 57.5t25 38.5h573z"/>
    <glyph glyph-name="registered" unicode="®" horiz-adv-x="1565" d="M975 918q0 70 -56.5 118t-142 48t-85.5 -16v-300q0 -26 78 -26q206 0 206 176zM1218 398q8 0 8 -10t-64 -10q-125 0 -236 155l-80 118q-37 46 -45.5 52.5t-39.5 6.5t-50 1.5t-20 -11.5v-211q0 -62 104 -62q8 0 8 -20.5t-8 -20.5q-45 4 -145 4t-149 -4q-8 0 -8 20.5 t8 20.5q96 0 96 62v530q0 58 -101 58q-8 0 -8 20.5t8 20.5q70 -4 144 -4t184 2t184.5 -51t74.5 -147q0 -144 -157 -187q-9 -2 -9 -9.5t9 -21.5q75 -134 192 -245q60 -57 100 -57zM795.5 1398q-268.5 0 -460 -191.5t-191.5 -459.5t191 -459t461 -191t459.5 189.5t189.5 460 t-190.5 461t-459 190.5zM795 27q-299 0 -510 211t-211 510t211 509.5t510 210.5t510 -210.5t211 -509.5t-211 -510t-510 -211z"/>
    <glyph glyph-name="macron" unicode="¯" horiz-adv-x="608" d="M728 1104h-446q-7 0 -7 17.5t12 47t23 29.5h451q6 0 6 -15t-13.5 -47t-25.5 -32z"/>
    <glyph glyph-name="degree" unicode="°" horiz-adv-x="629" d="M488.5 1239q-68.5 0 -113.5 -52.5t-45 -139.5t45 -140t114 -53t114.5 53t45.5 140t-46 139.5t-114.5 52.5zM764 1045q0 -119 -78.5 -191t-196 -72t-196 72t-78.5 191t79.5 192.5t194.5 73.5t195 -73.5t80 -192.5z"/>
    <glyph glyph-name="plusminus" unicode="±" horiz-adv-x="1024" d="M907 2h-788v100h788v-100zM907 596h-334v-371h-120v371h-334v100h334v336h120v-336h334v-100z"/>
    <glyph glyph-name="uni00B2" unicode="²" horiz-adv-x="621" d="M246 638q0 -8 18 -8h196q106 0 156 38q24 16 44 44q2 5 18 4.5t16 -12.5v-3l-104 -145q-16 -22 -40 -21q-82 5 -222 5t-226 -5q-22 0 -22 20q0 11 8 17q576 472 576 660q0 54 -31 79t-75 25q-96 0 -196 -120q-2 -3 -11 -3t-16 7.5t-7 10.5t2 5q60 77 141 130.5t159 53.5 t119 -43t41 -123t-79 -181.5t-449 -413.5q-16 -13 -16 -21z"/>
    <glyph glyph-name="uni00B3" unicode="³" horiz-adv-x="621" d="M700 886q0 -140 -121 -250t-271 -110.5t-150 81.5q0 31 25 49t47 17q36 0 52 -49t24 -49q142 1 209 97t67 187q0 136 -142 136q-40 0 -78 -10q-4 0 -4 14.5t7 26.5t11 12q108 0 196 60q86 60 86 158q0 46 -27 70t-67 24q-70 0 -160 -91q-2 -2 -10 -2t-14 10t-6 13t2 6 q126 133 252 134q64 0 100 -38t36 -94q0 -144 -174 -232q-26 -14 -26 -18t16 -8q120 -27 120 -144z"/>
    <glyph glyph-name="acute" unicode="´" horiz-adv-x="918" d="M360 1005q-25 0 -25 19t13 37l248 339q6 9 26 9t42 -27t22 -36t-3 -12l-274 -303q-24 -26 -49 -26z"/>
    <glyph glyph-name="mu" unicode="µ" horiz-adv-x="991" d="M-32 -528q0 28 12 69l309 1084q6 21 6 41q0 45 -29 45q-22 0 -108 -86q-9 -9 -30 7t-11 30q154 190 268 190q55 0 55 -82q0 -45 -10 -80l-102 -356q-41 -144 -41 -188t28 -44q44 0 221.5 187t286.5 540q7 23 68 23t54 -24l-177 -625q-12 -42 -12 -62q0 -39 30 -39 q36 0 129 93q9 9 31 -9t11 -29q-164 -184 -285 -184q-58 0 -58 90q0 36 11 74l82 287q-160 -202 -213 -259q-176 -192 -263 -192q-14 0 -29 4q-53 -119 -53 -253l5 -121q0 -160 -146 -160q-40 1 -40 29z"/>
    <glyph glyph-name="paragraph" unicode="¶" horiz-adv-x="997" d="M1153 1426q0 -30 -25 -28q-119 0 -139 -74l-434 -1607q-4 -16 -50.5 -16t-42.5 14l436 1609q3 11 3 24q0 50 -59 50q-88 0 -108 -74l-436 -1609q-4 -14 -50 -14t-42 14l263 962q-208 0 -295.5 80.5t-87.5 212.5q0 205 179 345.5t389 140.5q237 -4 323 -4t166 4 q10 0 10 -30z"/>
    <glyph glyph-name="periodcentered" unicode="·" horiz-adv-x="520" d="M320 399q-48 0 -86.5 32t-38.5 84.5t33.5 87t88.5 34.5t88 -35t33 -87t-35 -84t-83 -32z"/>
    <glyph glyph-name="cedilla" unicode="¸" horiz-adv-x="737" d="M383 -256q0 -70 -66 -119t-143 -49q-102 0 -102 66q0 49 51 49q20 0 50 -30t42 -30q57 1 57 67t-91 115q-21 11 -8 30l118 157h67l-61 -80q-18 -23 10 -45q76 -61 76 -131z"/>
    <glyph glyph-name="uni00B9" unicode="¹" horiz-adv-x="621" d="M230 553.5q0 18.5 17 18.5q83 0 112 22.5t54 117.5l154 574q3 12 3 21t-8.5 9t-17.5 -4l-94 -38q-10 -4 -12 10.5t7 19.5q106 46 248 138q9 5 15.5 5t6.5 -7q-23 -65 -37 -116l-163 -611q-18 -66 -18 -95t20.5 -37.5t76.5 -8.5q7 0 7 -18.5t-16 -18.5q-56 5 -174 5 t-174 -5q-7 0 -7 18.5z"/>
    <glyph glyph-name="ordmasculine" unicode="º" horiz-adv-x="568" d="M539 895q0 78 -54 78q-63 0 -135.5 -120.5t-72.5 -198.5q-1 -78 57 -78t131.5 120.5t73.5 198.5zM645 841q0 -126 -89 -229.5t-221 -103.5q-84 0 -125.5 58t-41.5 160t97.5 205.5t213.5 103.5q83 0 124.5 -54t41.5 -140z"/>
    <glyph glyph-name="guillemotright" unicode="»" horiz-adv-x="803" d="M249 793.5q9 -0.5 11 -3.5l216 -312q14 -20 14 -46t-42 -60l-383 -312q-4 -4 -10 -3q-23 0 -23 24q0 6 4 9l277 294q25 26 25 52t-7 41l-117 279q-4 10 11 24t24 13.5zM600 793.5q9 -0.5 12 -3.5l216 -312q13 -20 13 -46t-42 -60l-383 -312q-4 -4 -10 -3q-23 0 -22 24 q0 6 3 9l277 294q25 26 25 52t-7 41l-117 279q-4 10 11 24t24 13.5z"/>
    <glyph glyph-name="onequarter" unicode="¼" horiz-adv-x="1690" d="M312 -88q-12 0 -27.5 16t-15.5 27.5t4 15.5l1141 1368q4 4 14.5 4t29 -16.5t18.5 -25.5t-3 -13l-1144 -1370q-5 -6 -17 -6zM124 537.5q0 17.5 16 17.5q78 0 105 21.5t51 109.5l144 540q3 12 3 20t-7.5 8t-17.5 -4l-88 -36q-9 -4 -11 10t6 18q100 43 234 130q9 5 15 5 t6 -6q-22 -61 -35 -109l-154 -575q-17 -62 -17 -89t19.5 -35t72.5 -8q6 0 6 -17.5t-15 -17.5q-53 5 -163.5 5t-163.5 -5q-6 0 -6 17.5zM1403 65q0 -36 64 -36q6 0 7 -18t-16 -18q-54 5 -136.5 5t-135.5 -5q-6 0 -7 18t16 18q100 0 113 49l42 155q3 13 -10 13h-302 q-37 0 -37 18t45 63l192 191q234 234 368 382q9 8 34 8t25 -15q0 -3 -1 -4l-561 -568q-9 -9 -9 -15t14 -6h247q13 0 16 13l75 282q3 9 50.5 9t47.5 -9l-75 -282q-4 -13 9 -13h75q5 0 5 -14.5t-7.5 -27t-12.5 -12.5h-75q-13 0 -16 -13l-42 -155q-2 -7 -2 -13z"/>
    <glyph glyph-name="onehalf" unicode="½" horiz-adv-x="1690" d="M275 -88q-12 0 -27.5 16t-15.5 27.5t4 15.5l1141 1368q4 4 14.5 4t29 -16.5t18.5 -25.5t-3 -13l-1144 -1370q-5 -6 -17 -6zM127 537q0 18 16 18q79 0 106 21t51 111l146 547q7 27 -2.5 27.5t-19.5 -4.5l-89 -35q-9 -4 -11 10t6 18q101 44 237 131q9 5 14.5 5t5.5 -6 q-22 -62 -35 -111l-155 -581q-17 -63 -17 -90.5t19.5 -35t73.5 -7.5q6 0 6 -18t-16 -18q-53 5 -165 5t-165 -5q-6 0 -6 18zM1492 827q150 -1 150 -157q0 -76 -73.5 -171t-423.5 -389q-14 -12 -14 -19.5t16 -7.5h185q99 0 147 36q22 16 41 41q2 4 17.5 4t15.5 -12q0 -2 -1 -2 l-98 -136q-15 -21 -38 -21q-76 5 -208.5 5t-213.5 -5q-21 0 -21 19q0 10 9 16q542 444 542 622q0 51 -29 74.5t-72 23.5q-91 0 -183 -113q-3 -3 -11 -3t-14.5 7.5t-6.5 10t2 3.5q55 73 131.5 123.5t150.5 50.5z"/>
    <glyph glyph-name="threequarters" unicode="¾" horiz-adv-x="1690" d="M1361 34q11 0 5.5 -19.5t-14.5 -19.5q-49 5 -124 5t-124 -5q-13 0 -6 19.5t15 19.5q91 0 103 53l38 168q3 14 -9 14h-275q-34 0 -34 19.5t42 68.5l174 207q212 254 335 415q8 8 30.5 8t22.5 -16v-4l-511 -617q-8 -10 -8 -16t13 -6h224q12 0 15 14l69 305q2 10 45 10.5 t43 -10.5l-68 -305q-3 -14 8 -14h68q5 0 5 -16t-7 -29.5t-11 -13.5h-68q-12 0 -15 -14l-38 -168q-2 -8 -1 -14q0 -39 58 -39zM319 -88q-12 0 -27.5 16t-15.5 27.5t4 15.5l1141 1368q4 4 14.5 4t29 -16.5t18.5 -25.5t-3 -13l-1144 -1370q-5 -6 -17 -6zM620 807 q0 -142 -122 -253.5t-274.5 -111.5t-152.5 83q0 31 25.5 48.5t46.5 17.5t53 -49.5t84 -49.5q85 0 152.5 98t67.5 190q0 138 -144 138q-44 0 -78 -10q-5 0 -5 15t7 26.5t12 11.5q110 0 198 61t88 161q0 47 -27 71t-68 24q-80 0 -163 -92q-2 -2 -9.5 -2t-14 9.5t-6.5 13t2 6.5 q127 135 254 136q65 0 102 -38t37 -96q0 -150 -177 -235q-27 -13 -27 -18t17 -9q122 -28 122 -146z"/>
    <glyph glyph-name="questiondown" unicode="¿" horiz-adv-x="678" d="M262 -428q0 -36 -36 -65t-76 -29q-103 0 -178.5 94t-75.5 209t52.5 206t98.5 112l191 88q88 40 100 90q16 45 17 125q0 13 22.5 17.5t24.5 -5.5q24 -88 24 -149q0 -137 -166 -213l-120 -56q-170 -78 -170 -211q0 -139 243 -139q16 0 32.5 -19t16.5 -55zM469 629 q-60 0 -89.5 38.5t-29.5 87t33.5 79.5t90.5 31t88 -37t31 -80t-32 -81t-92 -38z"/>
    <glyph glyph-name="Agrave" unicode="À" horiz-adv-x="1108" d="M725 1629q-10 0 -10 19t18.5 55.5t43.5 36.5q7 0 14 -5l298 -193q24 -15 24 -33t-13.5 -28t-26.5 -10t-28 7zM874 1168q-12 0 -18 -9l-353 -530q-8 -10 -8 -19.5t19 -9.5h275q32 0 35 29l62 530q0 9 -12 9zM1039.5 1385q15.5 0 15.5 -18q0 -7 -8.5 -45t-20.5 -143 l-117 -993q-1 -7 -1 -21q0 -96 144 -96q8 0 8 -21t-11.5 -38t-16.5 -17q-88 7 -213 7t-212 -7q-7 0 -7 20.5t11 38t18 17.5q81 0 109 30.5t35 86.5l37 310q4 35 -28 35h-310q-31 0 -48 -25l-210 -324q-23 -35 -23 -58q0 -55 132 -55q7 0 7 -21t-11 -38t-17 -17q-86 7 -213 7 t-213 -7q-8 0 -8 20t11 38t17 18q76 0 126 22t110 110l674 998q16 23 16 38l-16 36q0 10 25 20q98 39 145.5 65.5t63 26.5z"/>
    <glyph glyph-name="Aacute" unicode="Á" horiz-adv-x="1108" d="M866 1480q-15 0 -26.5 7t-11.5 22t28 31l355 211q4 3 10.5 3t20 -6.5t22.5 -34t9 -40.5t-8 -16l-365 -168q-19 -9 -34 -9zM874 1168q-12 0 -18 -9l-353 -530q-8 -10 -8 -19.5t19 -9.5h275q32 0 35 29l62 530q0 9 -12 9zM1039.5 1385q15.5 0 15.5 -18q0 -7 -8.5 -45 t-20.5 -143l-117 -993q-1 -7 -1 -21q0 -96 144 -96q8 0 8 -21t-11.5 -38t-16.5 -17q-88 7 -213 7t-212 -7q-7 0 -7 20.5t11 38t18 17.5q81 0 109 30.5t35 86.5l37 310q4 35 -28 35h-310q-31 0 -48 -25l-210 -324q-23 -35 -23 -58q0 -55 132 -55q7 0 7 -21t-11 -38t-17 -17 q-86 7 -213 7t-213 -7q-8 0 -8 20t11 38t17 18q76 0 126 22t110 110l674 998q16 23 16 38l-16 36q0 10 25 20q98 39 145.5 65.5t63 26.5z"/>
    <glyph glyph-name="Acircumflex" unicode="Â" horiz-adv-x="1108" d="M710 1494q0 6 4 11l304 233q26 20 46.5 20t35.5 -20l182 -233q2 -2 2 -7t-10 -14.5t-15 -9.5t-8 2l-195 130q-17 12 -28.5 12t-34.5 -12l-260 -130l-7 -2q-16 0 -16 20zM874 1168q-12 0 -18 -9l-353 -530q-8 -10 -8 -19.5t19 -9.5h275q32 0 35 29l62 530q0 9 -12 9z M1039.5 1385q15.5 0 15.5 -18q0 -7 -8.5 -45t-20.5 -143l-117 -993q-1 -7 -1 -21q0 -96 144 -96q8 0 8 -21t-11.5 -38t-16.5 -17q-88 7 -213 7t-212 -7q-7 0 -7 20.5t11 38t18 17.5q81 0 109 30.5t35 86.5l37 310q4 35 -28 35h-310q-31 0 -48 -25l-210 -324q-23 -35 -23 -58 q0 -55 132 -55q7 0 7 -21t-11 -38t-17 -17q-86 7 -213 7t-213 -7q-8 0 -8 20t11 38t17 18q76 0 126 22t110 110l674 998q16 23 16 38l-16 36q0 10 25 20q98 39 145.5 65.5t63 26.5z"/>
    <glyph glyph-name="Atilde" unicode="Ã" horiz-adv-x="1108" d="M1116.5 1500q-57.5 0 -158 44t-138.5 44t-64 -26t-34 -66h-49q38 197 181 197q48 0 146.5 -43t137 -43t66 30.5t31.5 63.5h49q-19 -79 -64.5 -140t-103 -61zM874 1168q-12 0 -18 -9l-353 -530q-8 -10 -8 -19.5t19 -9.5h275q32 0 35 29l62 530q0 9 -12 9zM1039.5 1385 q15.5 0 15.5 -18q0 -7 -8.5 -45t-20.5 -143l-117 -993q-1 -7 -1 -21q0 -96 144 -96q8 0 8 -21t-11.5 -38t-16.5 -17q-88 7 -213 7t-212 -7q-7 0 -7 20.5t11 38t18 17.5q81 0 109 30.5t35 86.5l37 310q4 35 -28 35h-310q-31 0 -48 -25l-210 -324q-23 -35 -23 -58 q0 -55 132 -55q7 0 7 -21t-11 -38t-17 -17q-86 7 -213 7t-213 -7q-8 0 -8 20t11 38t17 18q76 0 126 22t110 110l674 998q16 23 16 38l-16 36q0 10 25 20q98 39 145.5 65.5t63 26.5z"/>
    <glyph glyph-name="Adieresis" unicode="Ä" horiz-adv-x="1108" d="M1297 1625q0 -58 -33.5 -91.5t-78.5 -33.5q-87 0 -87 89q0 52 34.5 89t79.5 37q85 -1 85 -90zM898 1625q0 -58 -34 -91.5t-79 -33.5q-87 0 -87 89q0 52 35 89t80 37q85 -1 85 -90zM874 1168q-12 0 -18 -9l-353 -530q-8 -10 -8 -19.5t19 -9.5h275q32 0 35 29l62 530 q0 9 -12 9zM1039.5 1385q15.5 0 15.5 -18q0 -7 -8.5 -45t-20.5 -143l-117 -993q-1 -7 -1 -21q0 -96 144 -96q8 0 8 -21t-11.5 -38t-16.5 -17q-88 7 -213 7t-212 -7q-7 0 -7 20.5t11 38t18 17.5q81 0 109 30.5t35 86.5l37 310q4 35 -28 35h-310q-31 0 -48 -25l-210 -324 q-23 -35 -23 -58q0 -55 132 -55q7 0 7 -21t-11 -38t-17 -17q-86 7 -213 7t-213 -7q-8 0 -8 20t11 38t17 18q76 0 126 22t110 110l674 998q16 23 16 38l-16 36q0 10 25 20q98 39 145.5 65.5t63 26.5z"/>
    <glyph glyph-name="Aring" unicode="Å" horiz-adv-x="1108" d="M874 1168q-12 0 -18 -9l-353 -530q-19 -29 11 -29h275q31 0 35 29l62 530q0 9 -12 9zM1019 1630q-47 0 -74 -35.5t-27 -86t30.5 -83t75.5 -32.5t70.5 35.5t25.5 83.5t-27 83t-74 35zM908 165q0 -96 144 -96q8 0 8 -21t-9 -38t-19 -17q-88 7 -213 7t-212 -7q-7 0 -7 20.5 t11 38t18 17.5q76 0 106.5 28.5t37.5 88.5l37 310q4 35 -28 35h-310q-31 0 -48 -25l-210 -324q-23 -35 -23 -58q0 -55 132 -55q7 0 7 -21t-11 -38t-17 -17q-86 7 -213 7t-213 -7q-8 0 -8 20t11 38t17 18q76 0 126 22t110 110l782 1158q-86 53 -86 153q0 71 55 125.5 t140 54.5t136 -54t51 -126t-47.5 -121.5t-112.5 -58.5q-15 -89 -24 -153l-117 -993q-1 -7 -1 -21z"/>
    <glyph glyph-name="AE" unicode="Æ" horiz-adv-x="1780" d="M1080 1216.5q0 11.5 -13 11.5t-34 -25l-424 -505q-7 -8 -6.5 -15.5t14.5 -6.5h287q26 0 32 24l141 496q3 9 3 20.5zM1580 -7h-75q-407 7 -617 7t-325 -7q-7 0 -7 21.5t10.5 38t16.5 16.5q96 0 139 20t63 88l113 393q5 16 5 26.5t-23 10.5h-328q-25 0 -38 -17l-332 -422 q-31 -39 -31 -64.5t33 -30t106 -4.5q8 0 8 -21t-11 -38t-17 -17q-87 7 -207 7t-214 -7q-8 0 -8 20.5t11 38t18 17.5q83 0 122.5 25t104.5 101l852 1001q33 39 33 58q0 28 -74 28q-10 0 -10 21t11.5 38t18.5 17q155 -4 345.5 -4t567.5 4q62 0 62 -20q0 -6 -2 -13l-93 -319 q-4 -14 -45 -14t-37 14q18 72 18 111q0 162 -199 166l-277 6q-21 0 -27 -22l-160 -559q-3 -11 -3 -18q0 -14 21 -14h221q64 0 86 14t38 74l27 100q4 15 40 15t33 -15q-85 -247 -123 -428q-3 -15 -37 -15t-31 12l26 94q11 40 11 48q0 32 -91 32h-220q-27 0 -34 -24l-81 -283 q-27 -94 -27 -139q0 -99 113 -99h12l229 7q251 8 329 275q5 14 45.5 13.5t36.5 -13.5l-94 -325q-8 -26 -28 -26z"/>
    <glyph glyph-name="Ccedilla" unicode="Ç" horiz-adv-x="1470" d="M833 -256.5q0 -70.5 -66 -119t-143 -48.5q-102 0 -102 66q0 49 51 49q20 0 50 -30t42 -30q57 1 57 67.5t-91 114.5q-21 11 -8 30l98 130h-9q-215 0 -356 130t-141 355q0 355 290.5 641t643.5 286q147 0 238.5 -21.5t185.5 -36.5q-15 -158 -59 -308q-8 -17 -39.5 -17 t-30.5 12q8 60 8 78q0 102 -75 162t-243 60q-318 0 -537 -273t-219 -582q0 -176 102 -293.5t276 -117.5t292 55t166 115.5t71 98.5q7 10 36 10t29 -19.5t-71 -131.5t-96 -140q-34 -5 -82 -17q-142 -38 -312 -44l-42 -55q-18 -23 10 -45q76 -61 76 -131.5z"/>
    <glyph glyph-name="Egrave" unicode="È" horiz-adv-x="1255" d="M850 1629q-10 0 -10 19t18 55.5t44 36.5q7 0 14 -5l298 -193q24 -15 24 -33t-13.5 -28t-26.5 -10t-28 7zM1405 1336q0 -5 -3 -16l-88 -310q-4 -14 -42 -14t-38 14q11 56 11 78q0 95 -64 142t-127 50q-213 9 -303 9q-29 0 -35 -22l-160 -554q-2 -9 -2 -15q0 -22 29 -22 h192q69 0 97.5 15t44.5 73l27 100q4 15 38.5 15t34.5 -15q-88 -251 -123 -428q-4 -15 -35.5 -15t-31.5 16l25 90q7 25 7 39q0 41 -103 41h-198q-33 0 -40 -26l-81 -281q-27 -94 -27 -140q0 -99 114 -99l240 8q233 8 328 275q5 14 44 14t39 -14l-94 -325q-8 -26 -28 -26 l-713 7q-178 0 -311 -7q-8 0 -8 18t11 38t17 20q95 0 143 21t70 96l283 986q4 14 4 33q0 77 -157 77q-8 0 -8 19.5t11 38t17 18.5q134 -4 276 -4l655 4q62 0 62 -22z"/>
    <glyph glyph-name="Eacute" unicode="É" horiz-adv-x="1255" d="M917 1480q-15 0 -26.5 7t-11.5 22t28 31l355 211q4 3 10.5 3t20 -6.5t22.5 -34t9 -40.5t-8 -16l-365 -168q-19 -9 -34 -9zM1405 1336q0 -5 -3 -16l-88 -310q-4 -14 -42 -14t-38 14q11 56 11 78q0 95 -64 142t-127 50q-213 9 -303 9q-29 0 -35 -22l-160 -554q-2 -9 -2 -15 q0 -22 29 -22h192q69 0 97.5 15t44.5 73l27 100q4 15 38.5 15t34.5 -15q-88 -251 -123 -428q-4 -15 -35.5 -15t-31.5 16l25 90q7 25 7 39q0 41 -103 41h-198q-33 0 -40 -26l-81 -281q-27 -94 -27 -140q0 -99 114 -99l240 8q233 8 328 275q5 14 44 14t39 -14l-94 -325 q-8 -26 -28 -26l-713 7q-178 0 -311 -7q-8 0 -8 18t11 38t17 20q95 0 143 21t70 96l283 986q4 14 4 33q0 77 -157 77q-8 0 -8 19.5t11 38t17 18.5q134 -4 276 -4l655 4q62 0 62 -22z"/>
    <glyph glyph-name="Ecircumflex" unicode="Ê" horiz-adv-x="1255" d="M690 1494q0 6 4 11l304 233q26 20 46.5 20t35.5 -20l182 -233q2 -2 2 -7t-10 -14.5t-15 -9.5t-8 2l-195 130q-17 12 -28.5 12t-34.5 -12l-260 -130l-7 -2q-16 0 -16 20zM1405 1336q0 -5 -3 -16l-88 -310q-4 -14 -42 -14t-38 14q11 56 11 78q0 95 -64 142t-127 50 q-213 9 -303 9q-29 0 -35 -22l-160 -554q-2 -9 -2 -15q0 -22 29 -22h192q69 0 97.5 15t44.5 73l27 100q4 15 38.5 15t34.5 -15q-88 -251 -123 -428q-4 -15 -35.5 -15t-31.5 16l25 90q7 25 7 39q0 41 -103 41h-198q-33 0 -40 -26l-81 -281q-27 -94 -27 -140q0 -99 114 -99 l240 8q233 8 328 275q5 14 44 14t39 -14l-94 -325q-8 -26 -28 -26l-713 7q-178 0 -311 -7q-8 0 -8 18t11 38t17 20q95 0 143 21t70 96l283 986q4 14 4 33q0 77 -157 77q-8 0 -8 19.5t11 38t17 18.5q134 -4 276 -4l655 4q62 0 62 -22z"/>
    <glyph glyph-name="Edieresis" unicode="Ë" horiz-adv-x="1255" d="M1315 1625q0 -58 -33.5 -91.5t-78.5 -33.5q-87 0 -87 89q0 52 34.5 89t79.5 37q85 -1 85 -90zM916 1625q0 -58 -34 -91.5t-79 -33.5q-87 0 -87 89q0 52 35 89t80 37q85 -1 85 -90zM1405 1336q0 -5 -3 -16l-88 -310q-4 -14 -42 -14t-38 14q11 56 11 78q0 95 -64 142 t-127 50q-213 9 -303 9q-29 0 -35 -22l-160 -554q-2 -9 -2 -15q0 -22 29 -22h192q69 0 97.5 15t44.5 73l27 100q4 15 38.5 15t34.5 -15q-88 -251 -123 -428q-4 -15 -35.5 -15t-31.5 16l25 90q7 25 7 39q0 41 -103 41h-198q-33 0 -40 -26l-81 -281q-27 -94 -27 -140 q0 -99 114 -99l240 8q233 8 328 275q5 14 44 14t39 -14l-94 -325q-8 -26 -28 -26l-713 7q-178 0 -311 -7q-8 0 -8 18t11 38t17 20q95 0 143 21t70 96l283 986q4 14 4 33q0 77 -157 77q-8 0 -8 19.5t11 38t17 18.5q134 -4 276 -4l655 4q62 0 62 -22z"/>
    <glyph glyph-name="Igrave" unicode="Ì" horiz-adv-x="729" d="M510 1629q-10 0 -10 19t18 55.5t44 36.5q7 0 14 -5l298 -193q24 -15 24 -33t-13.5 -28t-26.5 -10t-28 7zM401 152q0 -83 157 -83q7 0 7 -21.5t-11 -38t-18 -16.5q-86 7 -253.5 7t-253.5 -7q-8 0 -8 20t11 38t17 18q88 0 140 21.5t73 95.5l283 986q5 22 5 35q0 80 -156 80 q-8 0 -8 21t11 38t17 17q46 -5 255 -5t255 5q8 0 8 -21t-11 -38t-17 -17q-114 0 -156 -27.5t-59 -87.5l-282 -986q-6 -20 -6 -34z"/>
    <glyph glyph-name="Iacute" unicode="Í" horiz-adv-x="729" d="M626 1480q-15 0 -26.5 7t-11.5 22t28 31l355 211q4 3 10.5 3t20 -6.5t22.5 -34t9 -40.5t-8 -16l-365 -168q-19 -9 -34 -9zM401 152q0 -83 157 -83q7 0 7 -21.5t-11 -38t-18 -16.5q-86 7 -253.5 7t-253.5 -7q-8 0 -8 20t11 38t17 18q88 0 140 21.5t73 95.5l283 986 q5 22 5 35q0 80 -156 80q-8 0 -8 21t11 38t17 17q46 -5 255 -5t255 5q8 0 8 -21t-11 -38t-17 -17q-114 0 -156 -27.5t-59 -87.5l-282 -986q-6 -20 -6 -34z"/>
    <glyph glyph-name="Icircumflex" unicode="Î" horiz-adv-x="729" d="M425 1494q0 6 4 11l304 233q26 20 46.5 20t35.5 -20l182 -233q2 -2 2 -7t-10 -14.5t-15 -9.5t-8 2l-195 130q-17 12 -28.5 12t-34.5 -12l-260 -130l-7 -2q-16 0 -16 20zM401 152q0 -83 157 -83q7 0 7 -21.5t-11 -38t-18 -16.5q-86 7 -253.5 7t-253.5 -7q-8 0 -8 20t11 38 t17 18q88 0 140 21.5t73 95.5l283 986q5 22 5 35q0 80 -156 80q-8 0 -8 21t11 38t17 17q46 -5 255 -5t255 5q8 0 8 -21t-11 -38t-17 -17q-114 0 -156 -27.5t-59 -87.5l-282 -986q-6 -20 -6 -34z"/>
    <glyph glyph-name="Idieresis" unicode="Ï" horiz-adv-x="729" d="M1005 1625q0 -58 -33.5 -91.5t-78.5 -33.5q-87 0 -87 89q0 52 34.5 89t79.5 37q85 -1 85 -90zM606 1625q0 -58 -34 -91.5t-79 -33.5q-87 0 -87 89q0 52 35 89t80 37q85 -1 85 -90zM401 152q0 -83 157 -83q7 0 7 -21.5t-11 -38t-18 -16.5q-86 7 -253.5 7t-253.5 -7 q-8 0 -8 20t11 38t17 18q88 0 140 21.5t73 95.5l283 986q5 22 5 35q0 80 -156 80q-8 0 -8 21t11 38t17 17q46 -5 255 -5t255 5q8 0 8 -21t-11 -38t-17 -17q-114 0 -156 -27.5t-59 -87.5l-282 -986q-6 -20 -6 -34z"/>
    <glyph glyph-name="Eth" unicode="Ð" horiz-adv-x="1514" d="M1404 880q0 187 -126 302t-363 115q-121 0 -161.5 -24t-60.5 -92l-130 -448q-7 -23 20 -23h230q18 0 18 -25t-15 -38t-23 -13h-232q-27 0 -34 -27l-88 -309q-19 -70 -19 -127t44.5 -87.5t156.5 -30.5q306 0 544.5 264.5t238.5 562.5zM1566 904q0 -327 -266.5 -619 t-627.5 -292l-412 7q-106 0 -231 -7q-8 0 -8 20t11 38t17 18q94 0 144 22t71 95l122 423q7 25 -18 25h-195q-14 0 -14 27t14 38t22 11h195q23 0 31 23l126 439q5 23 5 37q0 73 -162 73q-8 0 -8 21t11 38t17 17q133 -4 225 -4l382 4q247 0 398 -119t151 -335z"/>
    <glyph glyph-name="Ntilde" unicode="Ñ" horiz-adv-x="1539" d="M1228.5 1500q-57.5 0 -158 44t-138.5 44t-64 -26t-34 -66h-49q38 197 181 197q48 0 146.5 -43t137 -43t66 30.5t31.5 63.5h49q-19 -79 -64.5 -140t-103 -61zM1206.5 -29q-16.5 0 -31.5 29l-539 1117q-9 20 -25.5 20t-23.5 -31l-262 -920q-8 -27 -8 -45q0 -72 133 -72 q8 0 8 -21t-11 -38t-17 -17q-86 7 -200.5 7t-200.5 -7q-8 0 -8 20t11 38t17 18q90 0 138 21t69 96l264 928q14 50 14 98t-48 65q-30 10 -96 10q-8 0 -8 21t11 38t17 17q48 -5 130.5 -5t111 -4.5t46.5 -41.5l490 -1024q14 -28 30 -28t23 30l257 882q7 24 7 44q0 71 -149 71 q-7 0 -7 20t12 38t18 18q47 -5 193 -5t193 5q7 0 7 -21t-11 -38t-17 -17q-78 0 -117 -19.5t-61 -95.5l-334 -1168q-9 -33 -25.5 -33z"/>
    <glyph glyph-name="Ograve" unicode="Ò" horiz-adv-x="1478" d="M900 1629q-10 0 -10 19t18 55.5t44 36.5q7 0 14 -5l298 -193q24 -15 24 -33t-13.5 -28t-26.5 -10t-28 7zM1371 906q0 172 -96.5 289.5t-248.5 118t-309.5 -132.5t-247 -329t-89.5 -386t100.5 -305t226.5 -115q211 0 361.5 148t226.5 344t76 368zM1534 886 q0 -350 -275 -631.5t-587 -281.5q-177 0 -316 112t-139 356q0 361 276.5 652.5t585.5 291.5q219 0 337 -144.5t118 -354.5z"/>
    <glyph glyph-name="Oacute" unicode="Ó" horiz-adv-x="1478" d="M1034 1480q-15 0 -26.5 7t-11.5 22t28 31l355 211q4 3 10.5 3t20 -6.5t22.5 -34t9 -40.5t-8 -16l-365 -168q-19 -9 -34 -9zM1371 906q0 172 -96.5 289.5t-248.5 118t-309.5 -132.5t-247 -329t-89.5 -386t100.5 -305t226.5 -115q211 0 361.5 148t226.5 344t76 368z M1534 886q0 -350 -275 -631.5t-587 -281.5q-177 0 -316 112t-139 356q0 361 276.5 652.5t585.5 291.5q219 0 337 -144.5t118 -354.5z"/>
    <glyph glyph-name="Ocircumflex" unicode="Ô" horiz-adv-x="1478" d="M825 1494q0 6 4 11l304 233q26 20 46.5 20t35.5 -20l182 -233q2 -2 2 -7t-10 -14.5t-15 -9.5t-8 2l-195 130q-17 12 -28.5 12t-34.5 -12l-260 -130l-7 -2q-16 0 -16 20zM1371 906q0 172 -96.5 289.5t-248.5 118t-309.5 -132.5t-247 -329t-89.5 -386t100.5 -305 t226.5 -115q211 0 361.5 148t226.5 344t76 368zM1534 886q0 -350 -275 -631.5t-587 -281.5q-177 0 -316 112t-139 356q0 361 276.5 652.5t585.5 291.5q219 0 337 -144.5t118 -354.5z"/>
    <glyph glyph-name="Otilde" unicode="Õ" horiz-adv-x="1478" d="M1269.5 1500q-57.5 0 -158 44t-138.5 44t-64 -26t-34 -66h-49q38 197 181 197q48 0 146.5 -43t137 -43t66 30.5t31.5 63.5h49q-19 -79 -64.5 -140t-103 -61zM1371 906q0 172 -96.5 289.5t-248.5 118t-309.5 -132.5t-247 -329t-89.5 -386t100.5 -305t226.5 -115 q211 0 361.5 148t226.5 344t76 368zM1534 886q0 -350 -275 -631.5t-587 -281.5q-177 0 -316 112t-139 356q0 361 276.5 652.5t585.5 291.5q219 0 337 -144.5t118 -354.5z"/>
    <glyph glyph-name="Odieresis" unicode="Ö" horiz-adv-x="1478" d="M1418 1625q0 -58 -33.5 -91.5t-78.5 -33.5q-87 0 -87 89q0 52 34.5 89t79.5 37q85 -1 85 -90zM1019 1625q0 -58 -34 -91.5t-79 -33.5q-87 0 -87 89q0 52 35 89t80 37q85 -1 85 -90zM1371 906q-1 172 -97 290t-248 118t-310 -133q-156 -133 -246 -329t-90 -386t100.5 -305 t226.5 -115q211 0 361.5 148t226.5 344t76 368zM1534 886q0 -350 -275 -631.5t-587 -281.5q-177 0 -316 112t-139 356q0 361 276.5 652.5t585.5 291.5q219 0 337 -144.5t118 -354.5z"/>
    <glyph glyph-name="multiply" unicode="×" horiz-adv-x="973" d="M924 721l-303 -309l303 -308l-76 -81l-305 311l-303 -311l-76 81l301 308l-301 303l76 82l303 -308l305 312z"/>
    <glyph glyph-name="Oslash" unicode="Ø" horiz-adv-x="1478" d="M707 46q211 0 361.5 148t226.5 344t76 340.5t-55 252.5l-866 -930q48 -76 120.5 -115.5t136.5 -39.5zM380 464q0 -103 33 -191l861 925q-93 115 -241.5 116t-292.5 -115q-177 -142 -268.5 -344t-91.5 -391zM1534 886q0 -350 -275 -631.5t-587 -281.5q-186 0 -323 118 l-163 -175q-3 -3 -11.5 -3t-27.5 18.5t-19 26.5t2 10l168 180q-81 116 -81 293q0 390 326 702q254 242 536 242q172 0 284 -91l125 133q2 2 10 2t27.5 -17.5t19.5 -26t-1 -9.5l-127 -136l6 -8q111 -135 111 -346z"/>
    <glyph glyph-name="Ugrave" unicode="Ù" horiz-adv-x="1482" d="M856 1629q-10 0 -10 19t18 55.5t44 36.5q7 0 14 -5l298 -193q24 -15 24 -33t-13.5 -28t-26.5 -10t-28 7zM688 -27q-206 0 -299.5 69.5t-93.5 220.5q0 102 49 276l181 633q8 29 8 46q0 44 -35.5 56.5t-105.5 12.5q-9 0 -9 22.5t10.5 38t16.5 15.5q48 -5 245 -5t243 5 q7 0 7 -21.5t-11 -38t-17 -16.5q-127 0 -159 -31t-47 -84l-140 -485q-89 -316 -89 -419t71 -161t197 -58q200 0 329 104t195 334l197 685q6 22 6 41q0 74 -138 74q-7 0 -7 21t11 38t17 17q70 -5 228.5 -5t204.5 5q8 0 8 -21t-11 -38t-17 -17q-88 0 -132.5 -22t-64.5 -93 l-80 -282q-110 -387 -183 -544t-226 -265t-359 -108z"/>
    <glyph glyph-name="Uacute" unicode="Ú" horiz-adv-x="1482" d="M1089 1480q-15 0 -26.5 7t-11.5 22t28 31l355 211q4 3 10.5 3t20 -6.5t22.5 -34t9 -40.5t-8 -16l-365 -168q-19 -9 -34 -9zM688 -27q-206 0 -299.5 69.5t-93.5 220.5q0 102 49 276l181 633q8 29 8 46q0 44 -35.5 56.5t-105.5 12.5q-9 0 -9 22.5t10.5 38t16.5 15.5 q48 -5 245 -5t243 5q7 0 7 -21.5t-11 -38t-17 -16.5q-127 0 -159 -31t-47 -84l-140 -485q-89 -316 -89 -419t71 -161t197 -58q200 0 329 104t195 334l197 685q6 22 6 41q0 74 -138 74q-7 0 -7 21t11 38t17 17q70 -5 228.5 -5t204.5 5q8 0 8 -21t-11 -38t-17 -17 q-88 0 -132.5 -22t-64.5 -93l-80 -282q-110 -387 -183 -544t-226 -265t-359 -108z"/>
    <glyph glyph-name="Ucircumflex" unicode="Û" horiz-adv-x="1482" d="M848 1494q0 6 4 11l304 233q26 20 46.5 20t35.5 -20l182 -233q2 -2 2 -7t-10 -14.5t-15 -9.5t-8 2l-195 130q-17 12 -28.5 12t-34.5 -12l-260 -130l-7 -2q-16 0 -16 20zM688 -27q-206 0 -299.5 69.5t-93.5 220.5q0 102 49 276l181 633q8 29 8 46q0 44 -35.5 56.5 t-105.5 12.5q-9 0 -9 22.5t10.5 38t16.5 15.5q48 -5 245 -5t243 5q7 0 7 -21.5t-11 -38t-17 -16.5q-127 0 -159 -31t-47 -84l-140 -485q-89 -316 -89 -419t71 -161t197 -58q200 0 329 104t195 334l197 685q6 22 6 41q0 74 -138 74q-7 0 -7 21t11 38t17 17q70 -5 228.5 -5 t204.5 5q8 0 8 -21t-11 -38t-17 -17q-88 0 -132.5 -22t-64.5 -93l-80 -282q-110 -387 -183 -544t-226 -265t-359 -108z"/>
    <glyph glyph-name="Udieresis" unicode="Ü" horiz-adv-x="1482" d="M1461 1625q0 -58 -33.5 -91.5t-78.5 -33.5q-87 0 -87 89q0 52 34.5 89t79.5 37q85 -1 85 -90zM1062 1625q0 -58 -34 -91.5t-79 -33.5q-87 0 -87 89q0 52 35 89t80 37q85 -1 85 -90zM688 -27q-206 0 -299.5 69.5t-93.5 220.5q0 102 49 276l181 633q8 29 8 46 q0 44 -35.5 56.5t-105.5 12.5q-9 0 -9 22.5t10.5 38t16.5 15.5q48 -5 245 -5t243 5q7 0 7 -21.5t-11 -38t-17 -16.5q-127 0 -159 -31t-47 -84l-140 -485q-89 -316 -89 -419t71 -161t197 -58q200 0 329 104t195 334l197 685q6 22 6 41q0 74 -138 74q-7 0 -7 21t11 38t17 17 q70 -5 228.5 -5t204.5 5q8 0 8 -21t-11 -38t-17 -17q-88 0 -132.5 -22t-64.5 -93l-80 -282q-110 -387 -183 -544t-226 -265t-359 -108z"/>
    <glyph glyph-name="Yacute" unicode="Ý" horiz-adv-x="1337" d="M930 1480q-15 0 -26.5 7t-11.5 22t28 31l355 211q4 3 10.5 3t20 -6.5t22.5 -34t9 -40.5t-8 -16l-365 -168q-19 -9 -34 -9zM633 126q0 -57 140 -57q8 0 8 -21t-11 -38t-17 -17q-87 7 -238.5 7t-237.5 -7q-7 0 -7 21t11 38t17 17q94 0 136.5 20t64.5 97l76 266 q27 94 27 128.5t-23 108.5l-151 483q-24 78 -64.5 96.5t-92.5 18.5q-7 0 -7 21t11 38t17 17q46 -5 216 -5t218 5q7 0 7 -21t-11 -38t-17 -17q-97 0 -120 -20.5t-23 -43.5t9 -51l151 -483q6 -18 16 -18t24 15l445 477q50 54 50 84q0 40 -100 40q-7 0 -7 21.5t11 38t18 16.5 q66 -5 192.5 -5t201.5 5q7 0 7 -20.5t-11 -38t-18 -17.5q-92 0 -143.5 -28.5t-211.5 -199.5l-381 -406q-57 -61 -87 -166l-86 -301q-9 -32 -9 -60z"/>
    <glyph glyph-name="Thorn" unicode="Þ" horiz-adv-x="1159" d="M1075 883q0 117 -36 222.5t-88 105.5q-19 0 -43 -15q-66 -50 -259 -163q-41 -21 -57 -76l-254 -884q-2 -7 -2 -16t19 -9q164 7 356 157t278 355.5t86 322.5zM1238 1003q0 -273 -143.5 -500.5t-359 -372t-397.5 -157.5q-28 -1 -36 -26l-61 -222q-15 -50 -125 -124 l-187 -117q-6 -5 -16 -5q-25 0 -37 35q-4 12 -4 31t17 31l136 89q65 49 80 102l383 1336q8 27 8 49q0 87 -143 87q-8 0 -8 21t11 38t17 17q106 0 283 60q26 9 43.5 9t17.5 -19q0 -7 -10 -37l-63 -193q-4 -12 -4 -20.5t7.5 -8.5t55 26t141.5 89t137 85t96 22q81 0 121 -103.5 t40 -221.5z"/>
    <glyph glyph-name="germandbls" unicode="ß" horiz-adv-x="926" d="M850 222q0 -104 -88 -176.5t-203 -72.5q-60 0 -97.5 37.5t-37.5 71.5q0 80 56 80t84 -42.5t43 -53.5t50 -11q82 0 82 121q0 64 -90 190t-90 242t52 219t176.5 183.5t180.5 134t56 121.5t-39 98.5t-97 30.5t-111.5 -28.5t-147 -109.5t-174 -278t-109.5 -346l-145 -744 q-26 -132 -66 -229.5t-112.5 -154t-158.5 -56.5t-127.5 36t-41.5 73.5t23 56t40 18.5q61 0 87 -50t67 -50t81.5 56.5t51.5 113.5l180 930q45 235 134.5 405.5t196 260.5t194.5 127.5t190 37.5t163.5 -55t61.5 -125q0 -116 -121 -188l-233 -138q-139 -82 -139 -274 q0 -99 89 -228.5t89 -233.5z"/>
    <glyph glyph-name="agrave" unicode="à" horiz-adv-x="918" d="M578 778q-136 0 -251.5 -220t-115.5 -382q0 -94 57 -94t157 100q188 189 239 361l45 151q-43 84 -131 84zM680 135.5q0 -32.5 32.5 -32.5t129.5 94q9 9 28 -11t11 -30q-66 -81 -145.5 -132t-140 -51t-60.5 79q0 56 24 120l43 115l-12 4q-238 -318 -404 -318 q-60 0 -91.5 48t-31.5 120q0 211 173.5 457t367.5 246q72 0 133 -56l24 70q8 24 63.5 24t55.5 -19q0 -2 -1 -5l-189 -655q-10 -35 -10 -67.5zM712 1044q0 -37 -36 -37q-24 0 -41 27l-186 301q-2 2 -2 15t33 34t54 21t28 -16l145 -325q5 -12 5 -20z"/>
    <glyph glyph-name="aacute" unicode="á" horiz-adv-x="918" d="M578 778q-136 0 -251.5 -220t-115.5 -382q0 -94 57 -94t157 100q188 189 239 361l45 151q-43 84 -131 84zM680 135.5q0 -32.5 32.5 -32.5t129.5 94q9 9 28 -11t11 -30q-66 -81 -145.5 -132t-140 -51t-60.5 79q0 56 24 120l43 115l-12 4q-238 -318 -404 -318 q-60 0 -91.5 48t-31.5 120q0 211 173.5 457t367.5 246q72 0 133 -56l24 70q8 24 63.5 24t55.5 -19q0 -2 -1 -5l-189 -655q-10 -35 -10 -67.5zM560 1005q-25 0 -25 19t13 37l248 339q6 9 26 9t42 -27t22 -36t-3 -12l-274 -303q-24 -26 -49 -26z"/>
    <glyph glyph-name="acircumflex" unicode="â" horiz-adv-x="918" d="M578 778q-136 0 -251.5 -220t-115.5 -382q0 -94 57 -94t157 100q188 189 239 361l45 151q-43 84 -131 84zM680 135.5q0 -32.5 32.5 -32.5t129.5 94q9 9 28 -11t11 -30q-66 -81 -145.5 -132t-140 -51t-60.5 79q0 56 24 120l43 115l-12 4q-238 -318 -404 -318 q-60 0 -91.5 48t-31.5 120q0 211 173.5 457t367.5 246q72 0 133 -56l24 70q8 24 63.5 24t55.5 -19q0 -2 -1 -5l-189 -655q-10 -35 -10 -67.5zM685.5 1273q-8.5 0 -34.5 -26l-211 -224q-3 -3 -9 -3q-30 0 -30 27q0 3 2 7l260 354q26 35 48.5 35t37.5 -41l125 -352l-1 -9 q-6 -15 -21.5 -16.5t-18.5 3.5l-123 215q-16 30 -24.5 30z"/>
    <glyph glyph-name="atilde" unicode="ã" horiz-adv-x="918" d="M578 778q-136 0 -251.5 -220t-115.5 -382q0 -94 57 -94t157 100q188 189 239 361l45 151q-43 84 -131 84zM680 135.5q0 -32.5 32.5 -32.5t129.5 94q9 9 28 -11t11 -30q-66 -81 -145.5 -132t-140 -51t-60.5 79q0 56 24 120l43 115l-12 4q-238 -318 -404 -318 q-60 0 -91.5 48t-31.5 120q0 211 173.5 457t367.5 246q72 0 133 -56l24 70q8 24 63.5 24t55.5 -19q0 -2 -1 -5l-189 -655q-10 -35 -10 -67.5zM810 1028q-45 0 -156 47t-151 47q-84 0 -102 -98q-2 -10 -28.5 -10t-24.5 10q42 211 194 211q54 0 159 -46.5t145 -46.5t70 33.5 t34 67.5q0 10 27 10t26 -10q-20 -85 -69.5 -150t-123.5 -65z"/>
    <glyph glyph-name="adieresis" unicode="ä" horiz-adv-x="918" d="M578 778q-136 0 -251.5 -220t-115.5 -382q0 -94 57 -94t157 100q188 189 239 361l45 151q-43 84 -131 84zM680 135.5q0 -32.5 32.5 -32.5t129.5 94q9 9 28 -11t11 -30q-66 -81 -145.5 -132t-140 -51t-60.5 79q0 56 24 120l43 115l-12 4q-238 -318 -404 -318 q-60 0 -91.5 48t-31.5 120q0 211 173.5 457t367.5 246q72 0 133 -56l24 70q8 24 63.5 24t55.5 -19q0 -2 -1 -5l-189 -655q-10 -35 -10 -67.5zM939 1176q0 -58 -33.5 -91.5t-78.5 -33.5q-87 0 -87 90q0 52 35 88.5t79 36.5q85 -1 85 -90zM582 1176q0 -58 -33.5 -91.5 t-78.5 -33.5q-87 0 -87 90q0 52 35 88.5t79 36.5q85 -1 85 -90z"/>
    <glyph glyph-name="aring" unicode="å" horiz-adv-x="918" d="M578 778q-136 0 -251.5 -220t-115.5 -382q0 -94 57 -94t157 100q188 189 239 361l45 151q-43 84 -131 84zM680 135.5q0 -32.5 32.5 -32.5t129.5 94q9 9 28 -11t11 -30q-66 -81 -145.5 -132t-140 -51t-60.5 79q0 56 24 120l43 115l-12 4q-238 -318 -404 -318 q-60 0 -91.5 48t-31.5 120q0 211 173.5 457t367.5 246q72 0 133 -56l24 70q8 24 63.5 24t55.5 -19q0 -2 -1 -5l-189 -655q-10 -35 -10 -67.5zM684 1012q64 0 93 60q15 30 15 67q0 74 -49 109l-23 12q-17 6 -36 6q-62 0 -93 -58q-16 -31 -16 -69q0 -73 50 -108q26 -19 59 -19 zM684 944q-101 0 -153 62t-52 144t64 132.5t153 50.5t148 -72l20 -28l14 -32l9 -38q1 -12 1 -24q0 -94 -73 -151l-30 -20q-46 -24 -101 -24z"/>
    <glyph glyph-name="ae" unicode="æ" horiz-adv-x="1004" d="M403 215q0 116 71.5 262t178.5 250l-6 6q-190 -84 -329.5 -249.5t-139.5 -307.5q0 -94 60 -94q81 0 170 65q-5 62 -5 68zM887 711q0 61 -53 61q-73 0 -148.5 -105t-118.5 -247q119 25 219.5 102.5t100.5 188.5zM1030 737q0 -137 -164.5 -245t-316.5 -136 q-14 -73 -14 -118q0 -166 110 -166q71 0 169 80q58 48 62 48q26 0 26 -28q0 -5 -3 -8q-149 -191 -287 -191t-184 103q-130 -103 -274 -103q-58 0 -90.5 47.5t-32.5 120.5q0 255 296.5 483t567.5 228q135 0 135 -115z"/>
    <glyph glyph-name="ccedilla" unicode="ç" horiz-adv-x="674" d="M174 -424q-102 0 -102 66q0 49 51 49q20 0 50 -30t42 -30q57 1 57 67t-91 115q-21 11 -8 30l99 132q-72 11 -123 84t-51 197q0 203 143.5 399.5t315.5 196.5q62 0 113 -30q51 -28 51 -64t-25 -58q-26 -22 -52 -22.5t-36 18.5q-9 57 -15 66q-20 26 -89 26 q-90 0 -180 -161.5t-90 -292.5t37 -201t99 -70t100 21.5t81 60.5q5 4 18 0.5t16.5 -15t-1.5 -17.5q-121 -121 -245 -137l-42 -56q-18 -23 10 -45q76 -61 76 -131.5t-66 -119t-143 -48.5z"/>
    <glyph glyph-name="egrave" unicode="è" horiz-adv-x="696" d="M580 711q0 61 -54 61q-74 0 -146.5 -102.5t-119.5 -249.5q123 26 221.5 104t98.5 187zM723 737q0 -135 -163.5 -244t-317.5 -137q-15 -75 -15 -118q0 -166 111 -166q40 0 84 21t141 104q7 6 18.5 0.5t13 -17t-2.5 -16.5q-156 -191 -293 -191q-203 0 -203 242 q0 191 160 414t336 223q131 0 131 -115zM672 1044q0 -37 -36 -37q-24 0 -41 27l-186 301q-2 2 -2 15t33 34t54 21t28 -16l145 -325q5 -12 5 -20z"/>
    <glyph glyph-name="eacute" unicode="é" horiz-adv-x="696" d="M580 711q0 61 -54 61q-74 0 -146.5 -102.5t-119.5 -249.5q123 26 221.5 104t98.5 187zM723 737q0 -135 -163.5 -244t-317.5 -137q-15 -75 -15 -118q0 -166 111 -166q40 0 84 21t141 104q7 6 18.5 0.5t13 -17t-2.5 -16.5q-156 -191 -293 -191q-203 0 -203 242 q0 191 160 414t336 223q131 0 131 -115zM540 1005q-25 0 -25 19t13 37l248 339q6 9 26 9t42 -27t22 -36t-3 -12l-274 -303q-24 -26 -49 -26z"/>
    <glyph glyph-name="ecircumflex" unicode="ê" horiz-adv-x="696" d="M580 711q0 61 -54 61q-74 0 -146.5 -102.5t-119.5 -249.5q123 26 221.5 104t98.5 187zM723 737q0 -135 -163.5 -244t-317.5 -137q-15 -75 -15 -118q0 -166 111 -166q40 0 84 21t141 104q7 6 18.5 0.5t13 -17t-2.5 -16.5q-156 -191 -293 -191q-203 0 -203 242 q0 191 160 414t336 223q131 0 131 -115zM631.5 1273q-8.5 0 -34.5 -26l-211 -224q-3 -3 -9 -3q-30 0 -30 27q0 3 2 7l260 354q26 35 48.5 35t37.5 -41l125 -352l-1 -9q-6 -15 -21.5 -16.5t-18.5 3.5l-123 215q-16 30 -24.5 30z"/>
    <glyph glyph-name="edieresis" unicode="ë" horiz-adv-x="696" d="M580 711q0 61 -54 61q-74 0 -146.5 -102.5t-119.5 -249.5q123 26 221.5 104t98.5 187zM723 737q0 -135 -163.5 -244t-317.5 -137q-15 -75 -15 -118q0 -166 111 -166q40 0 84 21t141 104q7 6 18.5 0.5t13 -17t-2.5 -16.5q-156 -191 -293 -191q-203 0 -203 242 q0 191 160 414t336 223q131 0 131 -115zM940 1176q0 -58 -33.5 -91.5t-78.5 -33.5q-87 0 -87 90q0 52 35 88.5t79 36.5q85 -1 85 -90zM583 1176q0 -58 -33.5 -91.5t-78.5 -33.5q-87 0 -87 90q0 52 35 88.5t79 36.5q85 -1 85 -90z"/>
    <glyph glyph-name="igrave" unicode="ì" horiz-adv-x="528" d="M282 133q0 -31 28.5 -31t131.5 93q9 8 25 -7t16 -21q0 -27 -108.5 -110.5t-179.5 -83.5q-54 0 -54 87q0 38 11 77l137 488q5 18 5 36q0 50 -24.5 50t-117.5 -88q-9 -9 -25 8t-16 23t2 9q37 59 125.5 124t145.5 65t57 -86q0 -37 -11 -76l-137 -487q-11 -39 -11 -70z M453 1044q0 -37 -36 -37q-24 0 -41 27l-186 301q-2 2 -2 15t33 34t54 21t28 -16l145 -325q5 -12 5 -20z"/>
    <glyph glyph-name="iacute" unicode="í" horiz-adv-x="528" d="M282 133q0 -31 28.5 -31t131.5 93q9 8 25 -7t16 -21q0 -27 -108.5 -110.5t-179.5 -83.5q-54 0 -54 87q0 38 11 77l137 488q5 18 5 36q0 50 -24.5 50t-117.5 -88q-9 -9 -25 8t-16 23t2 9q37 59 125.5 124t145.5 65t57 -86q0 -37 -11 -76l-137 -487q-11 -39 -11 -70z M341 1005q-25 0 -25 19t13 37l248 339q6 9 26 9t42 -27t22 -36t-3 -12l-274 -303q-24 -26 -49 -26z"/>
    <glyph glyph-name="icircumflex" unicode="î" horiz-adv-x="528" d="M282 133q0 -31 28.5 -31t131.5 93q9 8 25 -7t16 -21q0 -27 -108.5 -110.5t-179.5 -83.5q-54 0 -54 87q0 38 11 77l137 488q5 18 5 36q0 50 -24.5 50t-117.5 -88q-9 -9 -25 8t-16 23t2 9q37 59 125.5 124t145.5 65t57 -86q0 -37 -11 -76l-137 -487q-11 -39 -11 -70z M432.5 1273q-8.5 0 -34.5 -26l-211 -224q-3 -3 -9 -3q-30 0 -30 27q0 3 2 7l260 354q26 35 48.5 35t37.5 -41l125 -352l-1 -9q-6 -15 -21.5 -16.5t-18.5 3.5l-123 215q-16 30 -24.5 30z"/>
    <glyph glyph-name="idieresis" unicode="ï" horiz-adv-x="528" d="M282 133q0 -31 28.5 -31t131.5 93q9 8 25 -7t16 -21q0 -27 -108.5 -110.5t-179.5 -83.5q-54 0 -54 87q0 38 11 77l137 488q5 18 5 36q0 50 -24.5 50t-117.5 -88q-9 -9 -25 8t-16 23t2 9q37 59 125.5 124t145.5 65t57 -86q0 -37 -11 -76l-137 -487q-11 -39 -11 -70z M700 1176q0 -58 -33.5 -91.5t-78.5 -33.5q-87 0 -87 90q0 52 35 88.5t79 36.5q85 -1 85 -90zM343 1176q0 -58 -33.5 -91.5t-78.5 -33.5q-87 0 -87 90q0 52 35 88.5t79 36.5q85 -1 85 -90z"/>
    <glyph glyph-name="eth" unicode="ð" horiz-adv-x="827" d="M817 645q0 -305 -132 -488.5t-349 -183.5q-240 0 -240 330q0 219 153 384t318 165q40 0 66 -8q-60 119 -170 209l-293 -189q-4 -2 -7 -2q-14 0 -34 66t-16 67q4 0 35.5 -18t55.5 -18t42 12l176 114q-110 83 -297 160q-8 3 -8 18.5t15 31t24 12.5q206 -69 352 -166 l301 198q4 2 7 2q19 0 47 -61t20 -61t-46.5 12t-59.5 12t-34 -8l-190 -123q264 -198 264 -467zM686 627q0 141 -133 141q-100 0 -218 -188t-118 -365q0 -158 141 -158q102 0 215 192t113 378z"/>
    <glyph glyph-name="ntilde" unicode="ñ" horiz-adv-x="1008" d="M764 141q0 -39 34 -39t124 93q3 3 11 3t20 -13t12 -20t-2 -9q-161 -183 -285 -183q-56 0 -56 84q0 39 11 80l125 445q30 106 30 148t-30 42q-86 0 -244.5 -231t-280.5 -539q-11 -29 -70 -29t-50 33l176 619q6 21 6 39q0 47 -32 47t-107 -86q-3 -3 -11 -3t-20 12.5t-12 19 t2 8.5q154 190 268 190q57 0 57 -90q0 -42 -29 -138l-69 -241l8 -4q246 473 449 473q106 0 106 -125q0 -61 -28 -160l-103 -364q-10 -34 -10 -62zM840 1028q-45 0 -156 47t-151 47q-84 0 -102 -98q-2 -10 -28.5 -10t-24.5 10q42 211 194 211q54 0 159 -46.5t145 -46.5 t70 33.5t34 67.5q0 10 27 10t26 -10q-20 -85 -69.5 -150t-123.5 -65z"/>
    <glyph glyph-name="ograve" unicode="ò" horiz-adv-x="838" d="M707 588q0 180 -129 180q-117 0 -241 -190.5t-124 -350t133 -159.5q109 0 235 186.5t126 333.5zM819 537q0 -213 -137 -388.5t-344 -175.5q-123 0 -182.5 91.5t-59.5 240.5q0 195 151 371t331 176q120 0 180.5 -85t60.5 -230zM692 1044q0 -37 -36 -37q-24 0 -41 27 l-186 301q-2 2 -2 15t33 34t54 21t28 -16l145 -325q5 -12 5 -20z"/>
    <glyph glyph-name="oacute" unicode="ó" horiz-adv-x="838" d="M707 588q0 180 -129 180q-117 0 -241 -190.5t-124 -350t133 -159.5q109 0 235 186.5t126 333.5zM819 537q0 -213 -137 -388.5t-344 -175.5q-123 0 -182.5 91.5t-59.5 240.5q0 195 151 371t331 176q120 0 180.5 -85t60.5 -230zM560 1005q-25 0 -25 19t13 37l248 339 q6 9 26 9t42 -27t22 -36t-3 -12l-274 -303q-24 -26 -49 -26z"/>
    <glyph glyph-name="ocircumflex" unicode="ô" horiz-adv-x="838" d="M707 588q0 180 -129 180q-117 0 -241 -190.5t-124 -350t133 -159.5q109 0 235 186.5t126 333.5zM819 537q0 -213 -137 -388.5t-344 -175.5q-123 0 -182.5 91.5t-59.5 240.5q0 195 151 371t331 176q120 0 180.5 -85t60.5 -230zM621.5 1273q-8.5 0 -34.5 -26l-211 -224 q-3 -3 -9 -3q-30 0 -30 27q0 3 2 7l260 354q26 35 48.5 35t37.5 -41l125 -352l-1 -9q-6 -15 -21.5 -16.5t-18.5 3.5l-123 215q-16 30 -24.5 30z"/>
    <glyph glyph-name="otilde" unicode="õ" horiz-adv-x="838" d="M707 588q0 180 -129 180q-117 0 -241 -190.5t-124 -350t133 -159.5q109 0 235 186.5t126 333.5zM819 537q0 -213 -137 -388.5t-344 -175.5q-123 0 -182.5 91.5t-59.5 240.5q0 195 151 371t331 176q120 0 180.5 -85t60.5 -230zM772 1028q-45 0 -156 47t-151 47 q-84 0 -102 -98q-2 -10 -28.5 -10t-24.5 10q42 211 194 211q54 0 159 -46.5t145 -46.5t70 33.5t34 67.5q0 10 27 10t26 -10q-20 -85 -69.5 -150t-123.5 -65z"/>
    <glyph glyph-name="odieresis" unicode="ö" horiz-adv-x="838" d="M707 588q0 180 -129 180q-117 0 -241 -190t-124 -350t133 -160q109 0 235 186.5t126 333.5zM819 537q0 -213 -137 -388.5t-344 -175.5q-123 0 -182.5 91.5t-59.5 240.5q0 195 151 371t331 176q120 0 180.5 -85t60.5 -230zM940 1176q0 -58 -33.5 -91.5t-78.5 -33.5 q-87 0 -87 90q0 52 35 88.5t79 36.5q85 -1 85 -90zM583 1176q0 -58 -33.5 -91.5t-78.5 -33.5q-87 0 -87 90q0 52 35 88.5t79 36.5q85 -1 85 -90z"/>
    <glyph glyph-name="divide" unicode="÷" horiz-adv-x="1051" d="M934 371h-815v100h815v-100zM525.5 615q-45.5 0 -70.5 29.5t-25 64t25.5 65t74 30.5t71.5 -30.5t23 -70t-26.5 -64t-72 -24.5zM525.5 36q-45.5 0 -70.5 29.5t-25 64t25.5 64.5t74 30t71.5 -30.5t23 -69.5t-26.5 -63.5t-72 -24.5z"/>
    <glyph glyph-name="oslash" unicode="ø" horiz-adv-x="838" d="M578 768q-95 0 -198 -129t-147 -282q-20 -70 -20 -129t23 -100l407 628q-24 12 -65 12zM346 68q87 0 190 125t149 271q22 70 22 135t-20 110l-407 -625q28 -16 66 -16zM762.5 922q12.5 0 26 -13.5t13.5 -18t-1 -5.5l-63 -96q80 -83 81 -252l-3 -70q-18 -164 -123 -304 q-141 -190 -355 -190q-63 0 -112 28l-68 -104q-4 -6 -17 -6t-24.5 13.5t-11.5 19.5l2 6l71 109q-82 88 -82 275t151.5 362.5t330.5 175.5q62 0 111 -26l60 92q1 4 13.5 4z"/>
    <glyph glyph-name="ugrave" unicode="ù" horiz-adv-x="991" d="M756 141q0 -39 34 -39t125 93q3 3 12 3t23 -15t6 -27q-164 -183 -284 -183q-58 0 -58 90q0 36 11 74l82 287q-244 -308 -334.5 -379.5t-146.5 -71.5q-84 0 -84 99q0 38 20 108l127 445q6 21 6 41q0 45 -28.5 45t-53.5 -28q-54 -61 -67.5 -61t-22 14.5t-8.5 19t2 6.5 q154 190 268 190q55 0 55 -82q0 -47 -25 -134l-87 -302q-41 -142 -41 -187t28 -45q44 0 159 122t228 317q58 100 121 288q8 23 65.5 23t57.5 -21q0 -2 -1 -5l-177 -623q-12 -42 -12 -62zM707 1044q0 -37 -36 -37q-24 0 -41 27l-186 301q-2 2 -2 15t33 34t54 21t28 -16 l145 -325q5 -12 5 -20z"/>
    <glyph glyph-name="uacute" unicode="ú" horiz-adv-x="991" d="M756 141q0 -39 34 -39t125 93q3 3 12 3t23 -15t6 -27q-164 -183 -284 -183q-58 0 -58 90q0 36 11 74l82 287q-244 -308 -334.5 -379.5t-146.5 -71.5q-84 0 -84 99q0 38 20 108l127 445q6 21 6 41q0 45 -28.5 45t-53.5 -28q-54 -61 -67.5 -61t-22 14.5t-8.5 19t2 6.5 q154 190 268 190q55 0 55 -82q0 -47 -25 -134l-87 -302q-41 -142 -41 -187t28 -45q44 0 159 122t228 317q58 100 121 288q8 23 65.5 23t57.5 -21q0 -2 -1 -5l-177 -623q-12 -42 -12 -62zM590 1005q-25 0 -25 19t13 37l248 339q6 9 26 9t42 -27t22 -36t-3 -12l-274 -303 q-24 -26 -49 -26z"/>
    <glyph glyph-name="ucircumflex" unicode="û" horiz-adv-x="991" d="M756 141q0 -39 34 -39t125 93q3 3 12 3t23 -15.5t6 -26.5q-164 -183 -284 -183q-58 0 -58 90q0 36 11 74l82 287q-244 -308 -334.5 -379.5t-146.5 -71.5q-84 0 -84 99q0 38 20 108l127 445q6 21 6 41q0 45 -28.5 45t-53.5 -28q-54 -61 -67.5 -61t-22 14.5t-8.5 19t2 6.5 q154 190 268 190q55 0 55 -82q0 -47 -25 -134l-87 -302q-41 -142 -41 -187t28 -45q44 0 159 122t228 317q58 100 121 288q8 23 65.5 23t57.5 -21q0 -2 -1 -5l-177 -623q-12 -42 -12 -62zM711.5 1273q-8.5 0 -34.5 -26l-211 -224q-3 -3 -9 -3q-30 0 -30 27q0 3 2 7l260 354 q26 35 48.5 35t37.5 -41l125 -352l-1 -9q-6 -15 -21.5 -16.5t-18.5 3.5l-123 215q-16 30 -24.5 30z"/>
    <glyph glyph-name="udieresis" unicode="ü" horiz-adv-x="991" d="M756 141q0 -39 34 -39t125 93q3 3 12 3t23 -15t6 -27q-164 -183 -284 -183q-58 0 -58 90q0 36 11 74l82 287q-244 -308 -334.5 -379.5t-146.5 -71.5q-84 0 -84 99q0 38 20 108l127 445q6 21 6 41q0 45 -28.5 45t-53.5 -28q-54 -61 -67.5 -61t-22 14.5t-8.5 19t2 6.5 q154 190 268 190q55 0 55 -82q0 -47 -25 -134l-87 -302q-41 -142 -41 -187t28 -45q44 0 159 122t228 317q58 100 121 288q8 23 65.5 23t57.5 -21q0 -2 -1 -5l-177 -623q-12 -42 -12 -62zM979 1176q0 -58 -33.5 -91.5t-78.5 -33.5q-87 0 -87 90q0 52 35 88.5t79 36.5 q85 -1 85 -90zM622 1176q0 -58 -33.5 -91.5t-78.5 -33.5q-87 0 -87 90q0 52 35 88.5t79 36.5q85 -1 85 -90z"/>
    <glyph glyph-name="yacute" unicode="ý" horiz-adv-x="793" d="M-113 -459q0 88 75 88q41 0 61 -34.5t59 -34.5q65 0 139 92.5t105.5 204.5t31.5 309t-34 374t-82 177t-113 -131q-4 -7 -18.5 -5.5t-23.5 8.5t-5 15q104 248 221 248q85 0 129.5 -183t44.5 -442q0 -87 -8 -188h10q74 130 131.5 322.5t57.5 270t-19 152.5q0 68 72 68 t72 -64q0 -74 -44 -254.5t-155.5 -401.5t-161 -303.5t-177 -233t-253.5 -150.5q-52 0 -83.5 30.5t-31.5 65.5zM480 1005q-25 0 -25 19t13 37l248 339q6 9 26 9t42 -27t22 -36t-3 -12l-274 -303q-24 -26 -49 -26z"/>
    <glyph glyph-name="thorn" unicode="þ" horiz-adv-x="838" d="M705 672q0 110 -95 110q-74 0 -173.5 -112.5t-121.5 -231.5l-77 -407q98 0 245.5 141.5t184.5 277t37 222.5zM838 682q0 -84 -37.5 -205.5t-151.5 -241.5t-229.5 -190t-190.5 -70l-75 -385q-7 -38 -36.5 -72.5t-112.5 -55.5t-92 -21q-9 -1 -13 15t-5 23q0 7 5 9 q41 12 86 51t53 82l298 1566q9 47 9 75q0 97 -87 97q-15 0 -15 26.5t15 26.5q68 0 148 36t86 36q15 0 12 -18l-157 -854q142 240 316 240t174 -170z"/>
    <glyph glyph-name="ydieresis" unicode="ÿ" horiz-adv-x="793" d="M-113 -459q0 88 75 88q41 0 61 -34.5t59 -34.5q65 0 139 92.5t105.5 204.5t31.5 309t-34 374t-82 177t-113 -131q-4 -7 -18.5 -5.5t-23.5 8.5t-5 15q104 248 221 248q85 0 129.5 -183t44.5 -442q0 -87 -8 -188h10q74 130 131.5 322.5t57.5 270t-19 152.5q0 68 72 68 t72 -64q0 -74 -44 -254.5t-155.5 -401.5t-161 -303.5t-177 -233t-253.5 -150.5q-52 0 -83.5 30.5t-31.5 65.5zM860 1176q0 -58 -33.5 -91.5t-78.5 -33.5q-87 0 -87 90q0 52 35 88.5t79 36.5q85 -1 85 -90zM503 1176q0 -58 -33.5 -91.5t-78.5 -33.5q-87 0 -87 90 q0 52 35 88.5t79 36.5q85 -1 85 -90z"/>
    <glyph glyph-name="Amacron" unicode="Ā" horiz-adv-x="1108" d="M1327 1646q27 0 12.5 -44t-41.5 -44h-590q-27 0 -14.5 44t38.5 44h595zM874 1168q-12 0 -18 -9l-353 -530q-8 -10 -8 -19.5t19 -9.5h275q32 0 35 29l62 530q0 9 -12 9zM1039.5 1385q15.5 0 15.5 -18q0 -7 -8.5 -45t-20.5 -143l-117 -993q-1 -7 -1 -21q0 -96 144 -96 q8 0 8 -21t-11.5 -38t-16.5 -17q-88 7 -213 7t-212 -7q-7 0 -7 20.5t11 38t18 17.5q81 0 109 30.5t35 86.5l37 310q4 35 -28 35h-310q-31 0 -48 -25l-210 -324q-23 -35 -23 -58q0 -55 132 -55q7 0 7 -21t-11 -38t-17 -17q-86 7 -213 7t-213 -7q-8 0 -8 20t11 38t17 18 q76 0 126 22t110 110l674 998q16 23 16 38l-16 36q0 10 25 20q98 39 145.5 65.5t63 26.5z"/>
    <glyph glyph-name="amacron" unicode="ā" horiz-adv-x="918" d="M578 778q-136 0 -251.5 -220t-115.5 -382q0 -94 57 -94t157 100q188 189 239 361l45 151q-43 84 -131 84zM680 135.5q0 -32.5 32.5 -32.5t129.5 94q9 9 28 -11t11 -30q-66 -81 -145.5 -132t-140 -51t-60.5 79q0 56 24 120l43 115l-12 4q-238 -318 -404 -318 q-60 0 -91.5 48t-31.5 120q0 211 173.5 457t367.5 246q72 0 133 -56l24 70q8 24 63.5 24t55.5 -19q0 -2 -1 -5l-189 -655q-10 -35 -10 -67.5zM890 1104h-446q-7 0 -7 17.5t12 47t23 29.5h451q6 0 6 -15t-13.5 -47t-25.5 -32z"/>
    <glyph glyph-name="Abreve" unicode="Ă" horiz-adv-x="1108" d="M874 1168q-12 0 -18 -9l-353 -530q-8 -10 -8 -19.5t19 -9.5h275q32 0 35 29l62 530q0 9 -12 9zM1039.5 1385q15.5 0 15.5 -18q0 -7 -8.5 -45t-20.5 -143l-117 -993q-1 -7 -1 -21q0 -96 144 -96q8 0 8 -21t-11.5 -38t-16.5 -17q-88 7 -213 7t-212 -7q-7 0 -7 20.5t11 38 t18 17.5q81 0 109 30.5t35 86.5l37 310q4 35 -28 35h-310q-31 0 -48 -25l-210 -324q-23 -35 -23 -58q0 -55 132 -55q7 0 7 -21t-11 -38t-17 -17q-86 7 -213 7t-213 -7q-8 0 -8 20t11 38t17 18q76 0 126 22t110 110l674 998q16 23 16 38l-16 36q0 10 25 20q98 39 145.5 65.5 t63 26.5zM1081 1583q-252 0 -252 189q0 42 10 86q13 8 23 8t20 -8q5 -166 197 -166t256 166q11 8 23 8t22 -8q-47 -275 -299 -275z"/>
    <glyph glyph-name="abreve" unicode="ă" horiz-adv-x="918" d="M578 778q-136 0 -251.5 -220t-115.5 -382q0 -94 57 -94t157 100q188 189 239 361l45 151q-43 84 -131 84zM680 135.5q0 -32.5 32.5 -32.5t129.5 94q9 9 28 -11t11 -30q-66 -81 -145.5 -132t-140 -51t-60.5 79q0 56 24 120l43 115l-12 4q-238 -318 -404 -318 q-60 0 -91.5 48t-31.5 120q0 211 173.5 457t367.5 246q72 0 133 -56l24 70q8 24 63.5 24t55.5 -19q0 -2 -1 -5l-189 -655q-10 -35 -10 -67.5zM666 1080q-252 0 -252 189q0 42 10 86q13 8 23 8t20 -8q5 -166 197 -166t256 166q11 8 23 8t22 -8q-47 -275 -299 -275z"/>
    <glyph glyph-name="Aogonek" unicode="Ą" horiz-adv-x="1108" d="M1039.5 1385q15.5 0 15.5 -18q0 -7 -8.5 -45t-20.5 -143l-117 -993q-1 -7 -1 -21q0 -96 144 -96q8 0 8 -21t-11.5 -38t-16.5 -17q-80 6 -190 7q-214 -141 -214 -271.5t127 -130.5q46 0 111 29q15 -3 15 -17q0 -6 -1 -8q-74 -90 -207 -90q-179 0 -179 178q0 147 262 310 q-85 -1 -149 -7q-8 0 -7.5 20.5t11.5 38t18 17.5q81 0 109 30.5t35 86.5l37 310q4 35 -28 35h-310q-31 0 -48 -25l-210 -324q-23 -35 -23 -58q0 -55 132 -55q7 0 7 -21t-11 -38t-17 -17q-86 7 -213 7t-213 -7q-8 0 -8 20t11 38t17 18q76 0 126 22t110 110l674 998 q16 23 16 38l-16 36q0 10 25 20q98 39 145.5 65.5t63 26.5zM874.5 1168q-12.5 0 -18.5 -9l-353 -530q-8 -10 -8 -19.5t19 -9.5h275q32 0 35 29l62 530q1 9 -11.5 9z"/>
    <glyph glyph-name="aogonek" unicode="ą" horiz-adv-x="918" d="M578 778q-136 0 -251.5 -220t-115.5 -382q0 -94 57 -94t157 100q188 189 239 361l45 151q-43 84 -131 84zM473 -488q-179 0 -179 178q0 145 255 305q-14 20 -14 66.5t24 110.5l43 115l-12 4q-238 -318 -404 -318q-60 0 -91.5 48t-31.5 120q0 211 173.5 457t367.5 246 q72 0 133 -56l24 70q8 24 63.5 24t55.5 -19q0 -2 -1 -5l-189 -655q-10 -35 -10 -67.5t32.5 -32.5t129.5 94q9 9 28 -11t11 -30q-66 -81 -143.5 -130.5t-134.5 -52.5q-175 -127 -175 -245q0 -130 127 -130q46 0 111 29q15 -3 15 -17q0 -6 -1 -8q-74 -90 -207 -90z"/>
    <glyph glyph-name="Cacute" unicode="Ć" horiz-adv-x="1470" d="M1081 1480q-15 0 -26.5 7t-11.5 22t28 31l355 211q4 3 10.5 3t20 -6.5t22.5 -34t9 -40.5t-8 -16l-365 -168q-19 -9 -34 -9zM712 -27q-215 0 -356 130t-141 355q0 355 290.5 641t643.5 286q147 0 238.5 -21.5t185.5 -36.5q-15 -158 -59 -308q-8 -17 -39 -17t-31 12 q8 60 8 78q0 102 -75 162t-243 60q-318 0 -537 -273t-219 -582q0 -176 102 -293.5t276 -117.5t292 55t166 115.5t71 98.5q7 10 36 10t29 -19.5t-71 -131.5t-96 -140q-34 -5 -82 -17q-174 -46 -389 -46z"/>
    <glyph glyph-name="cacute" unicode="ć" horiz-adv-x="674" d="M301 -27q-92 0 -147.5 79.5t-55.5 203.5q0 203 143.5 399.5t315.5 196.5q62 0 113 -29.5t51 -65t-25 -58t-51.5 -22.5t-36.5 19q-9 57 -15 66q-20 26 -89 26q-90 0 -180 -161.5t-90.5 -292.5t37 -201t99.5 -70t100 21.5t81 60.5q5 4 18 0.5t16.5 -15t-1.5 -17.5 q-140 -140 -283 -140zM520 1005q-25 0 -25 19t13 37l248 339q6 9 26 9t42 -27t22 -36t-3 -12l-274 -303q-24 -26 -49 -26z"/>
    <glyph glyph-name="Ccircumflex" unicode="Ĉ" horiz-adv-x="1470" d="M905 1494q0 6 4 11l304 233q26 20 46.5 20t35.5 -20l182 -233q2 -2 2 -7t-10 -14.5t-15 -9.5t-8 2l-195 130q-17 12 -28.5 12t-34.5 -12l-260 -130l-7 -2q-16 0 -16 20zM712 -27q-215 0 -356 130t-141 355q0 355 290.5 641t643.5 286q147 0 238.5 -21.5t185.5 -36.5 q-15 -158 -59 -308q-8 -17 -39 -17t-31 12q8 60 8 78q0 102 -75 162t-243 60q-318 0 -537 -273t-219 -582q0 -176 102 -293.5t276 -117.5t292 55t166 115.5t71 98.5q7 10 36 10t29 -19.5t-71 -131.5t-96 -140q-34 -5 -82 -17q-174 -46 -389 -46z"/>
    <glyph glyph-name="ccircumflex" unicode="ĉ" horiz-adv-x="674" d="M301 -27q-92 0 -147.5 79.5t-55.5 203.5q0 203 143.5 399.5t315.5 196.5q62 0 113 -29.5t51 -65t-25 -58t-51.5 -22.5t-36.5 19q-9 57 -15 66q-20 26 -89 26q-90 0 -180 -161.5t-90.5 -292.5t37 -201t99.5 -70t100 21.5t81 60.5q5 4 18 0.5t16.5 -15t-1.5 -17.5 q-140 -140 -283 -140zM585.5 1273q-8.5 0 -34.5 -26l-211 -224q-3 -3 -9 -3q-30 0 -30 27q0 3 2 7l260 354q26 35 48.5 35t37.5 -41l125 -352l-1 -9q-6 -15 -21.5 -16.5t-18.5 3.5l-123 215q-16 30 -24.5 30z"/>
    <glyph glyph-name="Cdotaccent" unicode="Ċ" horiz-adv-x="1470" d="M712 -27q-215 0 -356 130t-141 355q0 355 290.5 641t643.5 286q147 0 238.5 -21.5t185.5 -36.5q-15 -158 -59 -308q-8 -17 -39 -17t-31 12q8 60 8 78q0 102 -75 162t-243 60q-318 0 -537 -273t-219 -582q0 -176 102 -293.5t276 -117.5t292 55t166 115.5t71 98.5 q7 10 36 10t29 -19.5t-71 -131.5t-96 -140q-34 -5 -82 -17q-174 -46 -389 -46zM1346 1700q0 -58 -33.5 -91.5t-78.5 -33.5q-87 0 -87 90q0 52 35 88.5t79 36.5q85 -1 85 -90z"/>
    <glyph glyph-name="cdotaccent" unicode="ċ" horiz-adv-x="674" d="M301 -27q-92 0 -147.5 79.5t-55.5 203.5q0 203 143.5 399.5t315.5 196.5q62 0 113 -29.5t51 -65t-25 -58t-51.5 -22.5t-36.5 19q-9 57 -15 66q-20 26 -89 26q-90 0 -180 -161.5t-90.5 -292.5t37 -201t99.5 -70t100 21.5t81 60.5q5 4 18 0.5t16.5 -15t-1.5 -17.5 q-140 -140 -283 -140zM688 1175q0 -58 -33.5 -91.5t-78.5 -33.5q-87 0 -87 90q0 52 35 88.5t79 36.5q85 -1 85 -90z"/>
    <glyph glyph-name="Ccaron" unicode="Č" horiz-adv-x="1470" d="M1260.5 1615q11.5 0 34.5 11l260 130q4 2 9.5 2t12.5 -11t-3 -20l-304 -233q-26 -20 -46.5 -20t-35.5 20l-182 233q-4 9 10 21q14 13 21 8l195 -130q17 -11 28.5 -11zM712 -27q-215 0 -356 130t-141 355q0 355 290.5 641t643.5 286q147 0 238.5 -21.5t185.5 -36.5 q-15 -158 -59 -308q-8 -17 -39 -17t-31 12q8 60 8 78q0 102 -75 162t-243 60q-318 0 -537 -273t-219 -582q0 -176 102 -293.5t276 -117.5t292 55t166 115.5t71 98.5q7 10 36 10t29 -19.5t-71 -131.5t-96 -140q-34 -5 -82 -17q-174 -46 -389 -46z"/>
    <glyph glyph-name="ccaron" unicode="č" horiz-adv-x="674" d="M301 -27q-92 0 -147.5 79.5t-55.5 203.5q0 203 143.5 399.5t315.5 196.5q62 0 113 -29.5t51 -65t-25 -58t-51.5 -22.5t-36.5 19q-9 57 -15 66q-20 26 -89 26q-90 0 -180 -161.5t-90.5 -292.5t37 -201t99.5 -70t100 21.5t81 60.5q5 4 18 0.5t16.5 -15t-1.5 -17.5 q-140 -140 -283 -140zM536.5 1023q-22.5 0 -37.5 41l-125 352q6 23 29 23q5 0 12 -1l123 -215q17 -30 25.5 -30t34.5 26l211 224q27 -2 31 -13t5 -18l-260 -354q-26 -35 -48.5 -35z"/>
    <glyph glyph-name="Dcaron" unicode="Ď" horiz-adv-x="1514" d="M1050.5 1615q11.5 0 34.5 11l260 130q4 2 9.5 2t12 -11t-2.5 -20l-304 -233q-26 -20 -46.5 -20t-35.5 20l-182 233q-4 9 9.5 21.5t21.5 7.5l195 -130q17 -11 28.5 -11zM1404 880q0 182 -123.5 299t-365.5 117q-95 0 -128 -7q-66 -14 -94 -110l-254 -881q-23 -78 -23 -121 q0 -124 205 -124q306 0 544.5 264.5t238.5 562.5zM1566 904q0 -327 -266.5 -619t-627.5 -292l-414 7q-96 0 -229 -7q-8 0 -8 20t11 38t17 18q89 0 130 15q63 25 85 102l283 986q5 22 5 36q0 74 -162 74q-8 0 -8 21t11 38t17 17q133 -4 252 -4l355 4q247 0 398 -119t151 -335 z"/>
    <glyph glyph-name="dcaron" unicode="ď" horiz-adv-x="958" d="M1194 1492q43 0 43 -19q0 -134 -135 -328q-23 -35 -49 -35t-26 25q0 12 10 30q64 115 64 232l-3 57q0 38 96 38zM578 786q-136 0 -252 -223t-115 -383q0 -98 59 -98q70 0 199 144t199 278l42 184q-44 98 -132 98zM714 162q0 -49 25 -49q51 0 133 94q3 3 16 -2t21 -18 t4 -17q-174 -197 -276 -197q-60 0 -60 107q0 26 7 55l40 178l-14 11q-102 -149 -214 -250t-210 -101q-60 -1 -92 51t-31 121q0 213 173 460t368 247q80 0 131 -63l92 411q16 67 16 96q0 82 -77 82q-15 0 -15 26t15 26q70 0 148 28t83 27q13 0 13 -13q0 -3 -2 -12l-287 -1251 q-7 -29 -7 -47z"/>
    <glyph glyph-name="Dcroat" unicode="Đ" horiz-adv-x="1514" d="M1404 880q0 187 -126 302t-363 115q-121 0 -161 -24t-61 -92l-130 -448q-7 -23 20 -23h230q18 0 18 -25t-15 -38t-23 -13h-232q-27 0 -34 -27l-88 -309q-19 -70 -19 -127t44 -87t157 -31q307 1 545 265t238 562zM1566 904q0 -327 -266 -619t-628 -292l-412 7 q-106 0 -231 -7q-8 0 -8 20t11 38t17 18q94 0 144 22t71 95l122 423q7 25 -18 25h-195q-14 0 -14 27t14 38t22 11h195q23 0 31 23l126 439q5 23 5 37q0 73 -162 73q-8 0 -8 21t11 38t17 17q133 -4 225 -4l382 4q247 0 398 -119t151 -335z"/>
    <glyph glyph-name="dcroat" unicode="đ" horiz-adv-x="958" d="M578 786q-136 0 -251.5 -223t-115.5 -383q0 -98 59 -98q70 0 199 144.5t199 277.5l42 184q-44 98 -132 98zM714 162q0 -49 25 -49q51 0 133 94q3 3 16 -2t21 -18t4 -17q-174 -197 -276 -197q-60 0 -60 107q0 26 7 55l40 178l-14 11q-102 -149 -213.5 -250t-210.5 -101 q-60 0 -91.5 51.5t-31.5 120.5q0 213 173 460t368 247q80 0 131 -63l58 260h-178q-7 0 -7 20t13 47t22 27h171l13 57q16 67 16 96q0 82 -77 82q-15 0 -15 26t15 26q70 0 148 27.5t83 27.5q15 0 13 -13l-75 -329h159q6 0 6 -17.5t-15 -47t-24 -29.5h-147l-193 -840 q-7 -29 -7 -47z"/>
    <glyph glyph-name="Emacron" unicode="Ē" horiz-adv-x="1255" d="M1256 1646q27 0 12.5 -44t-41.5 -44h-590q-27 0 -14.5 44t38.5 44h595zM1405 1336q0 -5 -3 -16l-88 -310q-4 -14 -42 -14t-38 14q11 56 11 78q0 95 -64 142t-127 50q-213 9 -303 9q-29 0 -35 -22l-160 -554q-2 -9 -2 -15q0 -22 29 -22h192q69 0 97.5 15t44.5 73l27 100 q4 15 38.5 15t34.5 -15q-88 -251 -123 -428q-4 -15 -35.5 -15t-31.5 16l25 90q7 25 7 39q0 41 -103 41h-198q-33 0 -40 -26l-81 -281q-27 -94 -27 -140q0 -99 114 -99l240 8q233 8 328 275q5 14 44 14t39 -14l-94 -325q-8 -26 -28 -26l-713 7q-178 0 -311 -7q-8 0 -8 18 t11 38t17 20q95 0 143 21t70 96l283 986q4 14 4 33q0 77 -157 77q-8 0 -8 19.5t11 38t17 18.5q134 -4 276 -4l655 4q62 0 62 -22z"/>
    <glyph glyph-name="emacron" unicode="ē" horiz-adv-x="696" d="M580 711q0 61 -54 61q-74 0 -146.5 -102.5t-119.5 -249.5q123 26 221.5 104t98.5 187zM723 737q0 -135 -163.5 -244t-317.5 -137q-15 -75 -15 -118q0 -166 111 -166q40 0 84 21t141 104q7 6 18.5 0.5t13 -17t-2.5 -16.5q-156 -191 -293 -191q-203 0 -203 242 q0 191 160 414t336 223q131 0 131 -115zM770 1104h-446q-7 0 -7 17.5t12 47t23 29.5h451q6 0 6 -15t-13.5 -47t-25.5 -32z"/>
    <glyph glyph-name="Ebreve" unicode="Ĕ" horiz-adv-x="1255" d="M1405 1336q0 -5 -3 -16l-88 -310q-4 -14 -42 -14t-38 14q11 56 11 78q0 95 -64 142t-127 50q-213 9 -303 9q-29 0 -35 -22l-160 -554q-2 -9 -2 -15q0 -22 29 -22h192q69 0 97.5 15t44.5 73l27 100q4 15 38.5 15t34.5 -15q-88 -251 -123 -428q-4 -15 -35.5 -15t-31.5 16 l25 90q7 25 7 39q0 41 -103 41h-198q-33 0 -40 -26l-81 -281q-27 -94 -27 -140q0 -99 114 -99l240 8q233 8 328 275q5 14 44 14t39 -14l-94 -325q-8 -26 -28 -26l-713 7q-178 0 -311 -7q-8 0 -8 18t11 38t17 20q95 0 143 21t70 96l283 986q4 14 4 33q0 77 -157 77 q-8 0 -8 19.5t11 38t17 18.5q134 -4 276 -4l655 4q62 0 62 -22zM1008 1583q-252 0 -252 189q0 42 10 86q13 8 23 8t20 -8q5 -166 197 -166t256 166q11 8 23 8t22 -8q-47 -275 -299 -275z"/>
    <glyph glyph-name="ebreve" unicode="ĕ" horiz-adv-x="696" d="M580 711q0 61 -54 61q-74 0 -146.5 -102.5t-119.5 -249.5q123 26 221.5 104t98.5 187zM723 737q0 -135 -163.5 -244t-317.5 -137q-15 -75 -15 -118q0 -166 111 -166q40 0 84 21t141 104q7 6 18.5 0.5t13 -17t-2.5 -16.5q-156 -191 -293 -191q-203 0 -203 242 q0 191 160 414t336 223q131 0 131 -115zM664 1080q-252 0 -252 189q0 42 10 86q13 8 23 8t20 -8q5 -166 197 -166t256 166q11 8 23 8t22 -8q-47 -275 -299 -275z"/>
    <glyph glyph-name="Edotaccent" unicode="Ė" horiz-adv-x="1255" d="M1405 1336q0 -5 -3 -16l-88 -310q-4 -14 -42 -14t-38 14q11 56 11 78q0 95 -64 142t-127 50q-213 9 -303 9q-29 0 -35 -22l-160 -554q-2 -9 -2 -15q0 -22 29 -22h192q69 0 97.5 15t44.5 73l27 100q4 15 38.5 15t34.5 -15q-88 -251 -123 -428q-4 -15 -35.5 -15t-31.5 16 l25 90q7 25 7 39q0 41 -103 41h-198q-33 0 -40 -26l-81 -281q-27 -94 -27 -140q0 -99 114 -99l240 8q233 8 328 275q5 14 44 14t39 -14l-94 -325q-8 -26 -28 -26l-713 7q-178 0 -311 -7q-8 0 -8 18t11 38t17 20q95 0 143 21t70 96l283 986q4 14 4 33q0 77 -157 77 q-8 0 -8 19.5t11 38t17 18.5q134 -4 276 -4l655 4q62 0 62 -22zM1118 1700q0 -58 -33.5 -91.5t-78.5 -33.5q-87 0 -87 90q0 52 35 88.5t79 36.5q85 -1 85 -90z"/>
    <glyph glyph-name="edotaccent" unicode="ė" horiz-adv-x="696" d="M580 711q0 61 -54 61q-74 0 -146.5 -102.5t-119.5 -249.5q123 26 221.5 104t98.5 187zM723 737q0 -135 -163.5 -244t-317.5 -137q-15 -75 -15 -118q0 -166 111 -166q40 0 84 21t141 104q7 6 18.5 0.5t13 -17t-2.5 -16.5q-156 -191 -293 -191q-203 0 -203 242 q0 191 160 414t336 223q131 0 131 -115zM716 1175q0 -58 -33.5 -91.5t-78.5 -33.5q-87 0 -87 90q0 52 35 88.5t79 36.5q85 -1 85 -90z"/>
    <glyph glyph-name="Eogonek" unicode="Ę" horiz-adv-x="1255" d="M1405 1336q0 -5 -3 -16l-88 -310q-4 -14 -43.5 -14t-36.5 14q11 56 11 78q0 95 -64 142t-127 50q-213 9 -303 9q-29 0 -35 -22l-160 -554q-2 -9 -2 -15q0 -22 29 -22h192q69 0 97.5 15t44.5 73l27 100q4 15 40 15t33 -15q-88 -251 -123 -428q-4 -15 -37.5 -15t-29.5 16 l25 90q7 25 7 39q0 41 -103 41h-198q-33 0 -40 -26l-81 -281q-27 -94 -27 -140q0 -99 114 -99l240 8q233 8 328 275q5 14 46 14t37 -14l-94 -325q-8 -26 -28 -26q-118 0 -218.5 -81.5t-100.5 -183.5q0 -130 127 -130q46 0 111 29q15 -3 15 -17q0 -6 -1 -8q-74 -90 -207 -90 q-179 0 -179 178q0 141 197 267q61 37 -33 39q-244 4 -423 4t-312 -7q-8 0 -8 18t11 38t17 20q95 0 143 21t70 96l283 986q4 14 4 33q0 77 -157 77q-8 0 -8 19.5t11 38t17 18.5q134 -4 276 -4l655 4q62 0 62 -22z"/>
    <glyph glyph-name="eogonek" unicode="ę" horiz-adv-x="696" d="M723 737q0 -135 -163.5 -244t-317.5 -137q-15 -75 -15 -118q0 -166 111 -166q40 0 84 21t141 104q7 6 18.5 0.5t13 -17t-2.5 -16.5q-90 -110 -181.5 -162.5t-156 -122t-64.5 -151.5q0 -130 127 -130q46 0 111 29q15 -3 15 -17q0 -6 -1 -8q-74 -90 -207 -90 q-179 0 -179 178q0 135 222 284q-182 12 -182 241q0 191 160 414t336 223q131 0 131 -115zM580 711q0 61 -54 61q-74 0 -146.5 -102.5t-119.5 -249.5q123 26 221.5 104t98.5 187z"/>
    <glyph glyph-name="Ecaron" unicode="Ě" horiz-adv-x="1255" d="M1050.5 1615q11.5 0 34.5 11l260 130q4 2 9.5 2t12 -11t-2.5 -20l-304 -233q-26 -20 -46.5 -20t-35.5 20l-182 233q-4 9 9.5 21.5t21.5 7.5l195 -130q17 -11 28.5 -11zM1405 1336q0 -5 -3 -16l-88 -310q-4 -14 -42 -14t-38 14q11 56 11 78q0 95 -64 142t-127 50 q-213 9 -303 9q-29 0 -35 -22l-160 -554q-2 -9 -2 -15q0 -22 29 -22h192q69 0 97.5 15t44.5 73l27 100q4 15 38.5 15t34.5 -15q-88 -251 -123 -428q-4 -15 -35.5 -15t-31.5 16l25 90q7 25 7 39q0 41 -103 41h-198q-33 0 -40 -26l-81 -281q-27 -94 -27 -140q0 -99 114 -99 l240 8q233 8 328 275q5 14 44 14t39 -14l-94 -325q-8 -26 -28 -26l-713 7q-178 0 -311 -7q-8 0 -8 18t11 38t17 20q95 0 143 21t70 96l283 986q4 14 4 33q0 77 -157 77q-8 0 -8 19.5t11 38t17 18.5q134 -4 276 -4l655 4q62 0 62 -22z"/>
    <glyph glyph-name="ecaron" unicode="ě" horiz-adv-x="696" d="M580 711q0 61 -54 61q-74 0 -146.5 -102.5t-119.5 -249.5q123 26 221.5 104t98.5 187zM723 737q0 -135 -163.5 -244t-317.5 -137q-15 -75 -15 -118q0 -166 111 -166q40 0 84 21t141 104q7 6 18.5 0.5t13 -17t-2.5 -16.5q-156 -191 -293 -191q-203 0 -203 242 q0 191 160 414t336 223q131 0 131 -115zM613.5 1023q-22.5 0 -37.5 41l-125 352q6 23 29 23q5 0 12 -1l123 -215q17 -30 25.5 -30t34.5 26l211 224q27 -2 31 -13t5 -18l-260 -354q-26 -35 -48.5 -35z"/>
    <glyph glyph-name="Gcircumflex" unicode="Ĝ" horiz-adv-x="1476" d="M900 1494q0 6 4 11l304 233q26 20 46.5 20t35.5 -20l182 -233q2 -2 2 -7t-10 -14.5t-15 -9.5t-8 2l-195 130q-17 12 -28.5 12t-34.5 -12l-260 -130l-7 -2q-16 0 -16 20zM1449 1076q0 238 -346 238q-299 0 -511 -267.5t-212 -571.5q0 -173 104 -300t296 -127 q306 0 340 125l53 190q9 32 9 49q0 42 -43 54t-161 12q-7 0 -7 20.5t11.5 38t18.5 17.5q75 -5 260 -5t246 5q8 0 8 -19.5t-12 -38t-19 -18.5q-94 0 -124 -21.5t-50 -93.5l-65 -230q-6 -21 -6 -36.5t17.5 -18.5t17.5 -15q0 -32 -22 -32q-37 0 -177 -20t-205 -29t-149 -9 q-221 0 -362.5 130.5t-141.5 350.5q0 342 286.5 636.5t626.5 294.5q170 0 298 -29t145 -29q0 -105 -59 -308q-5 -18 -38.5 -18t-31.5 13q5 31 5 62z"/>
    <glyph glyph-name="gcircumflex" unicode="ĝ" horiz-adv-x="766" d="M585 -352q0 63 -121 150t-193 87t-158.5 -67.5t-86.5 -145t97 -120t193.5 -42.5t182.5 37.5t86 100.5zM587 720q0 71 -79 71q-107 0 -211 -161t-104 -309q0 -73 79 -73q114 0 214.5 163.5t100.5 308.5zM890 770.5q0 -43.5 -23 -43.5q-89 0 -194 29q28 -48 28 -126 q-1 -78 -43 -166q-96 -198 -310 -265q-100 -31 -100 -95q0 -48 123 -114q39 -21 194.5 -108t155.5 -201.5t-156.5 -177t-322 -62.5t-262.5 58t-97 149.5t100.5 166t241.5 119.5q-92 44 -92 97t106 156q-163 42 -163 214.5t138 311.5t316 139q24 0 62 -18t76 -22t84 -4t121 5 q17 1 17 -42.5zM581.5 1273q-8.5 0 -34.5 -26l-211 -224q-3 -3 -9 -3q-30 0 -30 27q0 3 2 7l260 354q26 35 48.5 35t37.5 -41l125 -352l-1 -9q-6 -15 -21.5 -16.5t-18.5 3.5l-123 215q-16 30 -24.5 30z"/>
    <glyph glyph-name="Gbreve" unicode="Ğ" horiz-adv-x="1476" d="M1449 1076q0 238 -346 238q-299 0 -511 -267.5t-212 -571.5q0 -173 104 -300t296 -127q306 0 340 125l53 190q9 32 9 49q0 42 -43 54t-161 12q-7 0 -7 20.5t11.5 38t18.5 17.5q75 -5 260 -5t246 5q8 0 8 -19.5t-12 -38t-19 -18.5q-94 0 -124 -21.5t-50 -93.5l-65 -230 q-6 -21 -6 -36.5t17.5 -18.5t17.5 -15q0 -32 -22 -32q-37 0 -177 -20t-205 -29t-149 -9q-221 0 -362.5 130.5t-141.5 350.5q0 342 286.5 636.5t626.5 294.5q170 0 298 -29t145 -29q0 -105 -59 -308q-5 -18 -38.5 -18t-31.5 13q5 31 5 62zM1216 1583q-252 0 -252 189 q0 42 10 86q13 8 23 8t20 -8q5 -166 197 -166t256 166q11 8 23 8t22 -8q-47 -275 -299 -275z"/>
    <glyph glyph-name="gbreve" unicode="ğ" horiz-adv-x="766" d="M585 -352q0 63 -121 150t-193 87t-158.5 -67.5t-86.5 -145t97 -120t193.5 -42.5t182.5 37.5t86 100.5zM587 720q0 71 -79 71q-107 0 -211 -161t-104 -309q0 -73 79 -73q114 0 214.5 163.5t100.5 308.5zM890 770.5q0 -43.5 -23 -43.5q-89 0 -194 29q28 -48 28 -126 q-1 -78 -43 -166q-96 -198 -310 -265q-100 -31 -100 -95q0 -48 123 -114q39 -21 194.5 -108t155.5 -201.5t-156.5 -177t-322 -62.5t-262.5 58t-97 149.5t100.5 166t241.5 119.5q-92 44 -92 97t106 156q-163 42 -163 214.5t138 311.5t316 139q24 0 62 -18t76 -22t84 -4t121 5 q17 1 17 -42.5zM587 1080q-252 0 -252 189q0 42 10 86q13 8 23 8t20 -8q5 -166 197 -166t256 166q11 8 23 8t22 -8q-47 -275 -299 -275z"/>
    <glyph glyph-name="Gdotaccent" unicode="Ġ" horiz-adv-x="1476" d="M1449 1076q0 238 -346 238q-299 0 -511 -267.5t-212 -571.5q0 -173 104 -300t296 -127q306 0 340 125l53 190q9 32 9 49q0 42 -43 54t-161 12q-7 0 -7 20.5t11.5 38t18.5 17.5q75 -5 260 -5t246 5q8 0 8 -19.5t-12 -38t-19 -18.5q-94 0 -124 -21.5t-50 -93.5l-65 -230 q-6 -21 -6 -36.5t17.5 -18.5t17.5 -15q0 -32 -22 -32q-37 0 -177 -20t-205 -29t-149 -9q-221 0 -362.5 130.5t-141.5 350.5q0 342 286.5 636.5t626.5 294.5q170 0 298 -29t145 -29q0 -105 -59 -308q-5 -18 -38.5 -18t-31.5 13q5 31 5 62zM1316 1700q0 -58 -33.5 -91.5 t-78.5 -33.5q-87 0 -87 90q0 52 35 88.5t79 36.5q85 -1 85 -90z"/>
    <glyph glyph-name="gdotaccent" unicode="ġ" horiz-adv-x="766" d="M585 -352q0 63 -121 150t-193 87t-158.5 -67.5t-86.5 -145t97 -120t193.5 -42.5t182.5 37.5t86 100.5zM587 720q0 71 -79 71q-107 0 -211 -161t-104 -309q0 -73 79 -73q114 0 214.5 163.5t100.5 308.5zM890 770.5q0 -43.5 -23 -43.5q-89 0 -194 29q28 -48 28 -126 q-1 -78 -43 -166q-96 -198 -310 -265q-100 -31 -100 -95q0 -48 123 -114q39 -21 194.5 -108t155.5 -201.5t-156.5 -177t-322 -62.5t-262.5 58t-97 149.5t100.5 166t241.5 119.5q-92 44 -92 97t106 156q-163 42 -163 214.5t138 311.5t316 139q24 0 62 -18t76 -22t84 -4t121 5 q17 1 17 -42.5zM631 1175q0 -58 -33.5 -91.5t-78.5 -33.5q-87 0 -87 90q0 52 35 88.5t79 36.5q85 -1 85 -90z"/>
    <glyph glyph-name="Gcommaaccent" unicode="Ģ" horiz-adv-x="1476" d="M1449 1076q0 238 -346 238q-299 0 -511 -267.5t-212 -571.5q0 -173 104 -300t296 -127q306 0 340 125l53 190q9 32 9 49q0 42 -43 54t-161 12q-7 0 -7 20.5t11.5 38t18.5 17.5q75 -5 260 -5t246 5q8 0 8 -19.5t-12 -38t-19 -18.5q-94 0 -124 -21.5t-50 -93.5l-65 -230 q-6 -21 -6 -36.5t17.5 -18.5t17.5 -15q0 -32 -22 -32q-37 0 -229 -27t-245 -30l-41 -54q-18 -23 10 -45q76 -61 76 -131.5t-66 -119t-143 -48.5q-102 0 -102 66q0 49 51 49q20 0 50 -30t42 -30q57 1 57 67.5t-91 114.5q-21 11 -8 30l98 130q-214 3 -354 132t-140 349 q0 342 286.5 636.5t626.5 294.5q170 0 298 -29t145 -29q0 -105 -59 -308q-5 -18 -38.5 -18t-31.5 13q5 31 5 62z"/>
    <glyph glyph-name="gcommaaccent" unicode="ģ" horiz-adv-x="766" d="M585 -352q0 63 -121 150t-193 87t-158.5 -67.5t-86.5 -145t97 -120t193.5 -42.5t182.5 37.5t86 100.5zM587 720q0 71 -79 71q-107 0 -211 -161t-104 -309q0 -73 79 -73q114 0 214.5 163.5t100.5 308.5zM890 770.5q0 -43.5 -23 -43.5q-89 0 -194 29q28 -48 28 -126 q-1 -78 -43 -166q-96 -198 -310 -265q-100 -31 -100 -95q0 -48 123 -114q39 -21 194.5 -108t155.5 -201.5t-156.5 -177t-322 -62.5t-262.5 58t-97 149.5t100.5 166t241.5 119.5q-92 44 -92 97t106 156q-163 42 -163 214.5t138 311.5t316 139q24 0 62 -18t76 -22t84 -4t121 5 q17 1 17 -42.5zM672 1052q0 -42 -40 -76t-88 -34t-85.5 34t-37.5 94.5t57 152.5t137.5 153.5t123.5 84.5t49 23t11 -9t5 -13t-2 -6q-224 -173 -224 -268q0 -32 24 -42.5t47 -31t23 -62.5z"/>
    <glyph glyph-name="Hcircumflex" unicode="Ĥ" horiz-adv-x="1503" d="M780 1494q0 6 4 11l304 233q26 20 46.5 20t35.5 -20l182 -233q2 -2 2 -7t-10 -14.5t-15 -9.5t-8 2l-195 130q-17 12 -28.5 12t-34.5 -12l-260 -130l-7 -2q-16 0 -16 20zM1161 152q0 -83 157 -83q8 0 8 -18t-11 -38t-18 -20q-88 7 -247.5 7t-260.5 -7q-7 0 -7 19.5t11 38 t17 18.5q107 0 150.5 27t61.5 90l126 441q4 15 4 25.5t-29 10.5h-547q-32 0 -42 -36l-127 -441q-6 -21 -6 -35q0 -82 157 -82q7 0 7 -21.5t-11 -38t-18 -16.5q-85 7 -257 7t-250 -7q-8 0 -8 18t11 38t17 20q118 0 157.5 31t55.5 86l283 986q5 17 5 35q0 80 -156 80 q-8 0 -8 19.5t11 38t17 18.5q46 -5 255 -5t255 5q8 0 8 -19.5t-11 -38t-17 -18.5q-117 0 -158 -29.5t-57 -85.5l-112 -392q-5 -19 -5 -30t28 -11h546q34 0 46 41l113 392q5 17 5 35q0 80 -156 80q-8 0 -8 21.5t11 38t18 16.5q75 -5 253 -5t256 5q8 0 8 -21t-11 -38t-17 -17 q-107 0 -152 -26t-63 -89l-282 -986q-6 -21 -6 -34z"/>
    <glyph glyph-name="hcircumflex" unicode="ĥ" horiz-adv-x="879" d="M870 618q0 -182 -107 -413.5t-267 -231.5q-48 0 -81.5 29.5t-33.5 71t19 65t44 23.5q63 0 74 -51.5t44 -51.5t71 70.5t69 202t31 237.5q0 174 -76 174q-117 0 -313 -282q-50 -72 -92 -240l-55 -221q-7 -27 -64 -27t-57 23v4l279 1201q16 69 16 103q0 73 -77 73 q-15 0 -15 26t15 26q76 0 151.5 27.5t79.5 27.5q17 0 13 -18l-212 -921l10 -10q188 317 371 317q163 0 163 -234zM154 1517q0 6 4 11l304 233q26 20 46.5 20t35.5 -20l182 -233q2 -2 2 -7t-10 -14.5t-15 -9.5t-8 2l-195 130q-17 12 -28.5 12t-34.5 -12l-260 -130l-7 -2 q-16 0 -16 20z"/>
    <glyph glyph-name="Hbar" unicode="Ħ" horiz-adv-x="1503" d="M572 750q0 -11 28 -11h546q34 0 46 41l56 193h-616l-55 -193q-5 -19 -5 -30zM1161 152q0 -83 157 -83q8 0 8 -18t-11 -38t-18 -20q-88 7 -247.5 7t-260.5 -7q-7 0 -7 19.5t11 38t17 18.5q107 0 150.5 27t61.5 90l126 441q4 15 4 25.5t-29 10.5h-547q-32 0 -42 -36 l-127 -441q-6 -21 -6 -35q0 -82 157 -82q7 0 7 -21.5t-11 -38t-18 -16.5q-85 7 -257 7t-250 -7q-8 0 -8 18t11 38t17 20q118 0 157.5 31t55.5 86l226 787h-134q-7 0 -7.5 17.5t11.5 47t24 29.5h133l30 105q5 17 5 35q0 80 -156 80q-8 0 -8 19.5t11 38t17 18.5q46 -5 255 -5 t255 5q8 0 8 -19.5t-11 -38t-17 -18.5q-117 0 -158 -29.5t-57 -85.5l-30 -105h616l30 105q5 17 5 35q0 80 -156 80q-8 0 -8 21.5t11 38t18 16.5q75 -5 253 -5t256 5q8 0 8 -21t-11 -38t-17 -17q-107 0 -152 -26t-63 -89l-30 -105h133q6 0 6 -15t-13 -47t-25 -32h-128 l-225 -787q-6 -21 -6 -34z"/>
    <glyph glyph-name="hbar" unicode="ħ" horiz-adv-x="879" d="M870 618q0 -182 -107 -413.5t-267 -231.5q-48 0 -81.5 29.5t-33.5 71.5t19 65t44 23q63 0 74 -51.5t44 -51.5t71 70.5t69 202t31 237.5q0 174 -76 174q-117 0 -313 -282q-50 -72 -92 -240l-55 -221q-7 -27 -64 -27t-57 23v4l244 1048h-170q-7 0 -7 18t12 47t23 29h163 l14 59q16 69 16 103q0 73 -77 73q-15 0 -15 26t15 26q76 0 151.5 27.5t79.5 27.5q17 0 13 -18l-75 -324h166q6 0 6 -15t-13.5 -47t-25.5 -32h-154l-116 -503l10 -10q188 317 371 317q163 0 163 -234z"/>
    <glyph glyph-name="Itilde" unicode="Ĩ" horiz-adv-x="729" d="M401 152q0 -83 157 -83q7 0 7 -21.5t-11 -38t-18 -16.5q-86 7 -253.5 7t-253.5 -7q-8 0 -8 20t11 38t17 18q88 0 140 21.5t73 95.5l283 986q5 22 5 35q0 80 -156 80q-8 0 -8 21t11 38t17 17q46 -5 255 -5t255 5q8 0 8 -21t-11 -38t-17 -17q-114 0 -156 -27.5t-59 -87.5 l-282 -986q-6 -20 -6 -34zM860 1531q-45 0 -156 47t-151 47q-84 0 -102 -98q-2 -10 -28.5 -10t-24.5 10q42 211 194 211q54 0 159 -46.5t145 -46.5t70 33.5t34 67.5q0 10 27 10t26 -10q-20 -85 -69.5 -150t-123.5 -65z"/>
    <glyph glyph-name="itilde" unicode="ĩ" horiz-adv-x="528" d="M282 133q0 -31 28.5 -31t131.5 93q9 8 25 -7t16 -21q0 -27 -108.5 -110.5t-179.5 -83.5q-54 0 -54 87q0 38 11 77l137 488q5 18 5 36q0 50 -24.5 50t-117.5 -88q-9 -9 -25 8t-16 23t2 9q37 59 125.5 124t145.5 65t57 -86q0 -37 -11 -76l-137 -487q-11 -39 -11 -70z M533 1028q-45 0 -156 47t-151 47q-84 0 -102 -98q-2 -10 -28.5 -10t-24.5 10q42 211 194 211q54 0 159 -46.5t145 -46.5t70 33.5t34 67.5q0 10 27 10t26 -10q-20 -85 -69.5 -150t-123.5 -65z"/>
    <glyph glyph-name="Imacron" unicode="Ī" horiz-adv-x="729" d="M1030 1646q27 0 12.5 -44t-41.5 -44h-590q-27 0 -14.5 44t38.5 44h595zM401 152q0 -83 157 -83q7 0 7 -21.5t-11 -38t-18 -16.5q-86 7 -253.5 7t-253.5 -7q-8 0 -8 20t11 38t17 18q88 0 140 21.5t73 95.5l283 986q5 22 5 35q0 80 -156 80q-8 0 -8 21t11 38t17 17 q46 -5 255 -5t255 5q8 0 8 -21t-11 -38t-17 -17q-114 0 -156 -27.5t-59 -87.5l-282 -986q-6 -20 -6 -34z"/>
    <glyph glyph-name="imacron" unicode="ī" horiz-adv-x="528" d="M282 133q0 -31 28.5 -31t131.5 93q9 8 25 -7t16 -21q0 -27 -108.5 -110.5t-179.5 -83.5q-54 0 -54 87q0 38 11 77l137 488q5 18 5 36q0 50 -24.5 50t-117.5 -88q-9 -9 -25 8t-16 23t2 9q37 59 125.5 124t145.5 65t57 -86q0 -37 -11 -76l-137 -487q-11 -39 -11 -70z M589 1104h-446q-7 0 -7 17.5t12 47t23 29.5h451q6 0 6 -15t-13.5 -47t-25.5 -32z"/>
    <glyph glyph-name="Ibreve" unicode="Ĭ" horiz-adv-x="729" d="M401 152q0 -83 157 -83q7 0 7 -21.5t-11 -38t-18 -16.5q-86 7 -253.5 7t-253.5 -7q-8 0 -8 20t11 38t17 18q88 0 140 21.5t73 95.5l283 986q5 22 5 35q0 80 -156 80q-8 0 -8 21t11 38t17 17q46 -5 255 -5t255 5q8 0 8 -21t-11 -38t-17 -17q-114 0 -156 -27.5t-59 -87.5 l-282 -986q-6 -20 -6 -34zM756 1583q-252 0 -252 189q0 42 10 86q13 8 23 8t20 -8q5 -166 197 -166t256 166q11 8 23 8t22 -8q-47 -275 -299 -275z"/>
    <glyph glyph-name="ibreve" unicode="ĭ" horiz-adv-x="528" d="M282 133q0 -31 28.5 -31t131.5 93q9 8 25 -7t16 -21q0 -27 -108.5 -110.5t-179.5 -83.5q-54 0 -54 87q0 38 11 77l137 488q5 18 5 36q0 50 -24.5 50t-117.5 -88q-9 -9 -25 8t-16 23t2 9q37 59 125.5 124t145.5 65t57 -86q0 -37 -11 -76l-137 -487q-11 -39 -11 -70z M427 1080q-252 0 -252 189q0 42 10 86q13 8 23 8t20 -8q5 -166 197 -166t256 166q11 8 23 8t22 -8q-47 -275 -299 -275z"/>
    <glyph glyph-name="Iogonek" unicode="Į" horiz-adv-x="729" d="M401 152q0 -83 157 -83q7 0 7 -21.5t-11 -38t-18 -16.5q-69 6 -191 7q-213 -141 -213 -271.5t126 -130.5q46 0 111 29q15 -3 15 -17q0 -6 -1 -8q-74 -90 -207 -90q-179 0 -179 178q0 147 263 310q-151 0 -231 -7q-8 0 -8 20t11 38t17 18q88 0 140 21.5t73 95.5l283 986 q5 22 5 35q0 80 -156 80q-8 0 -8 21t11 38t17 17q46 -5 255 -5t255 5q8 0 8 -21t-11 -38t-17 -17q-114 0 -156 -27.5t-59 -87.5l-282 -986q-6 -20 -6 -34z"/>
    <glyph glyph-name="iogonek" unicode="į" horiz-adv-x="528" d="M540 1135q0 -58 -33.5 -91.5t-78.5 -33.5q-87 0 -87 90q0 52 35 88.5t79 36.5q85 -1 85 -90zM113 -488q-179 0 -179 178q0 139 233 291q-26 18 -26 67.5t11 88.5l137 488q5 18 5 36q0 50 -24.5 50t-117.5 -88q-9 -9 -25 8t-16 23t2 9q37 59 125.5 124t145.5 65t57 -86 q0 -37 -11 -76l-137 -487q-11 -39 -11 -70t28.5 -31t131.5 93q9 8 25 -7t16 -21q0 -27 -120 -119q-53 -41 -98 -59q-197 -135 -197 -263t127 -128q46 0 111 29q15 -3 15 -17q0 -6 -1 -8q-74 -90 -207 -90z"/>
    <glyph glyph-name="Idotaccent" unicode="İ" horiz-adv-x="729" d="M401 152q0 -83 157 -83q7 0 7 -21.5t-11 -38t-18 -16.5q-86 7 -253.5 7t-253.5 -7q-8 0 -8 20t11 38t17 18q88 0 140 21.5t73 95.5l283 986q5 22 5 35q0 80 -156 80q-8 0 -8 21t11 38t17 17q46 -5 255 -5t255 5q8 0 8 -21t-11 -38t-17 -17q-114 0 -156 -27.5t-59 -87.5 l-282 -986q-6 -20 -6 -34zM836 1700q0 -58 -33.5 -91.5t-78.5 -33.5q-87 0 -87 90q0 52 35 88.5t79 36.5q85 -1 85 -90z"/>
    <glyph glyph-name="dotlessi" unicode="ı" horiz-adv-x="528" d="M282 133q0 -31 28.5 -31t131.5 93q9 8 25 -7t16 -21q0 -27 -108.5 -110.5t-179.5 -83.5q-54 0 -54 87q0 38 11 77l137 488q5 18 5 36q0 50 -24.5 50t-117.5 -88q-9 -9 -25 8t-16 23t2 9q37 59 125.5 124t145.5 65t57 -86q0 -37 -11 -76l-137 -487q-11 -39 -11 -70z"/>
    <glyph glyph-name="IJ" unicode="Ĳ" horiz-adv-x="1449" d="M569 -419q-31 -1 -68 21t-37 68t37 80t98 34t93 -34t33 -67q81 25 145 127t269 824l153 538q5 18 5 29q0 86 -161 86q-8 -1 -8 21t11 38t18 17q47 -5 241 -5t267 5q8 -1 8 -21t-11 -38t-18 -17q-98 -1 -142 -27t-64 -88l-300 -1012q-86 -289 -246 -434t-323 -145z M401 152q0 -83 157 -83q7 1 7 -21t-11 -38t-18 -17q-86 7 -254 7t-253 -7q-8 0 -8 20t11 38t17 18q88 -1 140 21t73 96l283 986q5 22 5 35q0 80 -156 80q-8 0 -8 21t11 38t17 17q46 -5 255 -5t255 5q8 0 8 -21t-11 -38t-17 -17q-114 1 -156 -27t-59 -88l-282 -986 q-6 -20 -6 -34z"/>
    <glyph glyph-name="ij" unicode="ĳ" horiz-adv-x="948" d="M1068 1135q0 -57 -34 -91t-78 -34q-87 0 -87 90q0 52 35 88t79 37q85 -1 85 -90zM297 -553q-32 -1 -53 25t-21 53q1 27 27 42t56 15t58 -24t51 -25q69 0 119 66t66 141l202 883q5 22 5 36q1 43 -31 43t-105 -92q-12 -14 -36 20q-6 9 -3 19q152 203 254 203q61 0 61 -97 q0 -30 -7 -61l-127 -555q-26 -113 -78 -283q-51 -170 -161 -290t-277 -119zM540 1135q0 -57 -34 -91t-78 -34q-87 0 -87 90q0 52 35 88t79 37q85 -1 85 -90zM282 133q0 -31 28 -31t132 93q9 8 25 -7t16 -21q-1 -27 -109 -111q-108 -83 -179 -83q-54 0 -54 87q0 38 11 77 l137 488q5 18 5 36q0 50 -24 50t-118 -88q-9 -9 -25 8t-16 23t2 9q37 59 125 124t146 65q57 0 57 -86q0 -37 -11 -76l-137 -487q-11 -39 -11 -70z"/>
    <glyph glyph-name="Jcircumflex" unicode="Ĵ" horiz-adv-x="720" d="M425 1494q0 6 4 11l304 233q26 20 46.5 20t35.5 -20l182 -233q2 -2 2 -7t-10 -14.5t-15 -9.5t-8 2l-195 130q-17 12 -28.5 12t-34.5 -12l-260 -130l-7 -2q-16 0 -16 20zM-160 -419q-31 0 -68 21.5t-37 67t37 80t98 34.5t93.5 -34t32.5 -67q80 25 144.5 127.5t269.5 823.5 l153 538q5 18 5 29q0 86 -161 86q-8 0 -8 21.5t11 38t18 16.5q47 -5 241.5 -5t266.5 5q8 0 8 -20.5t-11 -38t-18 -17.5q-98 0 -142.5 -26.5t-63.5 -88.5l-300 -1012q-86 -289 -246.5 -434t-322.5 -145z"/>
    <glyph glyph-name="jcircumflex" unicode="ĵ" horiz-adv-x="420" d="M-231 -553q-32 0 -53 25.5t-21 52.5t26.5 42t56.5 15t58 -24.5t51 -24.5q69 0 118.5 66t66.5 141l202 883q5 22 5 36q0 43 -31.5 43t-104.5 -92q-12 -14 -36 20q-6 9 -3 19q152 203 254 203q61 0 61 -97q0 -30 -7 -61l-127 -555q-26 -112 -78 -282.5t-161.5 -290 t-276.5 -119.5zM410.5 1273q-8.5 0 -34.5 -26l-211 -224q-3 -3 -9 -3q-30 0 -30 27q0 3 2 7l260 354q26 35 48.5 35t37.5 -41l125 -352l-1 -9q-6 -15 -21.5 -16.5t-18.5 3.5l-123 215q-16 30 -24.5 30z"/>
    <glyph glyph-name="Kcommaaccent" unicode="Ķ" horiz-adv-x="1301" d="M798 -260q0 -66 -66 -115t-143 -49q-102 0 -102 66q0 49 51 49q20 0 50 -30t42 -30q57 1 57 71t-108 120v8l69 93q44 -21 97 -69t53 -114zM1240 69q13 0 13 -22.5t-11 -38t-17 -15.5q-87 7 -239 7t-239 -7q-7 0 -7 21t11 38t17 17q102 0 102 47q0 25 -22 70l-170 353 q-25 51 -61 78.5t-59 27.5t-27 -20l-124 -439q-7 -21 -7 -40q0 -77 150 -77q7 0 7 -22t-11 -38t-17 -16q-87 7 -250.5 7t-249.5 -7q-8 0 -8 20t11 38t17 18q123 0 161 33t52 84l283 986q6 21 6 39q0 76 -159 76q-9 0 -9 22.5t10.5 38t16.5 15.5q48 -5 257 -5t255 5 q8 0 8 -21t-11 -38t-17 -17q-120 0 -159 -30.5t-54 -84.5l-128 -443q-2 -6 -2 -11t10 -5q41 0 147 97l400 365q62 57 62 87q0 25 -48 25q-7 0 -7 21.5t11 38t18 16.5q46 -5 192 -5t192 5q8 0 8 -20.5t-11 -38t-18 -17.5q-100 0 -162 -27.5t-154 -109.5l-446 -403 q-10 -9 -10 -19t4 -19l265 -536q32 -64 82.5 -84t145.5 -20z"/>
    <glyph glyph-name="kcommaaccent" unicode="ķ" horiz-adv-x="893" d="M518 -260q0 -66 -66 -115t-143 -49q-102 0 -102 66q0 49 51 49q20 0 50 -30t42 -30q57 1 57 71t-108 120v8l69 93q44 -21 97 -69t53 -114zM677 665.5q0 86.5 -67 86.5q-111 0 -252 -177q-33 -42 -41 -75l-20 -88q-2 -8 -2 -16.5t22 -8.5q123 0 241.5 96t118.5 182.5z M850 109q31 0 31 -30q0 -3 -2 -7q-83 -99 -160.5 -99t-118 24.5t-84.5 96.5l-137 221q-15 25 -55.5 25t-49.5 -39l-71 -305q-5 -23 -65.5 -23t-55.5 23l277 1201q16 69 16 98q0 82 -77 82q-15 0 -15 26t15 26q70 0 149 27.5t84 27.5q17 0 14 -13l-193 -832l13 -6 q68 100 156.5 159.5t158.5 59.5t100 -44.5t30 -98.5q0 -81 -97.5 -174t-227.5 -158q-8 -4 -8 -11t8 -18l148 -207q60 -84 108.5 -84t100.5 49q3 3 8 3z"/>
    <glyph glyph-name="kgreenlandic" unicode="ĸ" horiz-adv-x="995" d="M376 26.5q0 -32.5 -24 -32.5q-82 6 -192.5 6t-177.5 -6q-10 0 -10 18t7 32.5t17 14.5q110 0 127 80l122 576q2 9 2 18q0 62 -101 62q-10 0 -10 19t8 31.5t16 12.5q64 -4 196.5 -4t183.5 4q10 0 10 -18t-7 -31.5t-17 -13.5q-110 0 -127 -80l-36 -168q-4 -21 21.5 -21 t66.5 39l226 216q93 89 205 89q45 0 68.5 -25t23.5 -67t-39 -75t-68 -33t-57.5 24.5t-61.5 24.5t-101 -62l-121 -110q-20 -17 -20 -27t9 -22l27 -35q71 -93 86 -146l52 -176q28 -94 95 -94q17 -1 60 21t46 22q24 0 24 -28q0 -7 -5 -12q-100 -84 -172 -84t-112 29.5 t-64 108.5l-35 117q-33 111 -114 178q-23 19 -45 19t-28 -27l-53 -252q-2 -10 -2 -20q0 -60 91 -60q10 0 10 -32.5z"/>
    <glyph glyph-name="Lacute" unicode="Ĺ" horiz-adv-x="1312" d="M618 1480q-15 0 -26.5 7t-11.5 22t28 31l355 211q4 3 10.5 3t20 -6.5t22.5 -34t9 -40.5t-8 -16l-365 -168q-19 -9 -34 -9zM21 14.5q0 21.5 13 38t21 16.5q97 0 141.5 20.5t63.5 87.5l287 995q4 17 4 33q0 82 -159 82q-9 0 -9 22.5t10.5 38t16.5 15.5q48 -5 261 -5t261 5 q7 0 7 -21t-11 -38t-17 -17q-103 0 -150.5 -20t-69.5 -95l-257 -895q-22 -77 -22 -118q0 -97 122 -97l333 13q258 11 344 304q3 14 41.5 14t38.5 -14l-101 -352q-7 -26 -18.5 -30t-72.5 -4l-777 7q-188 0 -293 -7q-8 0 -8 21.5z"/>
    <glyph glyph-name="lacute" unicode="ĺ" horiz-adv-x="496" d="M251 162q0 -49 25 -49q52 0 134 94q2 3 9.5 3t20.5 -13t13 -18.5t-2 -8.5q-170 -197 -277 -197q-60 0 -60 107q0 24 7 55l243 1062q15 66 15 98q0 82 -77 82q-15 0 -15 26t15 26q73 0 149.5 27.5t82.5 27.5q16 0 12 -14l-288 -1261q-7 -31 -7 -47zM419 1605q-25 0 -25 19 t13 37l248 339q6 9 26 9t42 -27t22 -36t-3 -12l-274 -303q-24 -26 -49 -26z"/>
    <glyph glyph-name="Lcommaaccent" unicode="Ļ" horiz-adv-x="1312" d="M1171.5 -3q-11.5 -4 -210.5 -4t-287 4l-57 -75q-18 -23 10 -45q76 -61 76 -131.5t-66 -119t-143 -48.5q-102 0 -102 66q0 49 51 49q20 0 50 -30t42 -30q57 1 57 67.5t-91 114.5q-21 11 -8 30l115 153q-148 2 -310 2t-269 -7q-8 0 -8 21.5t13 38t21 16.5q97 0 141.5 20.5 t63.5 87.5l287 995q4 17 4 33q0 82 -159 82q-9 0 -9 22.5t10.5 38t16.5 15.5q48 -5 261 -5t261 5q7 0 7 -21t-11 -38t-17 -17q-103 0 -150.5 -20t-69.5 -95l-257 -895q-22 -77 -22 -118q0 -97 122 -97l333 13q258 11 344 304q3 14 41.5 14t38.5 -14l-101 -352 q-7 -26 -18.5 -30z"/>
    <glyph glyph-name="lcommaaccent" unicode="ļ" horiz-adv-x="496" d="M251 162q0 -49 25 -49q52 0 134 94q2 3 9.5 3t20.5 -13t13 -18.5t-2 -8.5q-140 -163 -238 -191l-45 -59q-18 -23 10 -45q76 -61 76 -131.5t-66 -119t-143 -48.5q-102 0 -102 66q0 49 51 49q20 0 50 -30t42 -30q57 1 57 67.5t-91 114.5q-21 11 -8 30l103 137 q-33 20 -33 100q0 24 7 55l243 1062q15 66 15 98q0 82 -77 82q-15 0 -15 26t15 26q73 0 149.5 27.5t82.5 27.5q16 0 12 -14l-288 -1261q-7 -31 -7 -47z"/>
    <glyph glyph-name="Lcaron" unicode="Ľ" horiz-adv-x="1312" d="M1140 1492q43 0 43 -19q0 -134 -135 -328q-23 -35 -49 -35t-26 25q0 12 10 30q64 115 64 232l-3 57q0 38 96 38zM21 14q0 22 13 38t21 17q97 1 141 21t64 87l287 995q4 17 4 33q0 82 -159 82q-9 1 -9 23q1 22 11 38t16 15q48 -5 261 -5t261 5q7 0 7 -21t-11 -38t-17 -17 q-103 0 -151 -20t-69 -95l-257 -895q-22 -77 -22 -118q0 -97 122 -97l333 13q258 11 344 304q3 14 41 14t39 -14l-101 -352q-6 -26 -18 -30t-73 -4l-777 7q-188 0 -293 -7q-8 -1 -8 21z"/>
    <glyph glyph-name="lcaron" unicode="ľ" horiz-adv-x="496" d="M727 1492q43 0 43 -19q0 -134 -135 -328q-23 -35 -49 -35t-26 25q0 12 10 30q64 115 64 232l-3 57q0 38 96 38zM251 162q0 -49 25 -49q52 0 134 94q2 3 10 3t20 -13q13 -13 13 -19t-2 -8q-170 -197 -277 -197q-60 0 -60 107q0 24 7 55l243 1062q15 66 15 98q0 82 -77 82 q-15 0 -15 26t15 26q74 -1 150 27t82 28q16 0 12 -14l-288 -1261q-7 -31 -7 -47z"/>
    <glyph glyph-name="Ldot" unicode="Ŀ" horiz-adv-x="1312" d="M21 14.5q0 21.5 13 38t21 16.5q97 0 141.5 20.5t63.5 87.5l287 995q4 17 4 33q0 82 -159 82q-9 0 -9 22.5t10.5 38t16.5 15.5q48 -5 261 -5t261 5q7 0 7 -21t-11 -38t-17 -17q-103 0 -150.5 -20t-69.5 -95l-257 -895q-22 -77 -22 -118q0 -97 122 -97l333 13 q258 11 344 304q3 14 41.5 14t38.5 -14l-101 -352q-7 -26 -18.5 -30t-72.5 -4l-777 7q-188 0 -293 -7q-8 0 -8 21.5zM1116 976q0 -58 -33.5 -91.5t-78.5 -33.5q-87 0 -87 90q0 52 35 88.5t79 36.5q85 -1 85 -90z"/>
    <glyph glyph-name="ldot" unicode="ŀ" horiz-adv-x="496" d="M251 162q0 -49 25 -49q52 0 134 94q2 3 10 3t20 -13q13 -13 13 -19t-2 -8q-170 -197 -277 -197q-60 0 -60 107q0 24 7 55l243 1062q15 66 15 98q0 82 -77 82q-15 0 -15 26t15 26q74 -1 150 27t82 28q16 0 12 -14l-288 -1261q-7 -31 -7 -47zM771 1175q1 -57 -33 -91 t-79 -34q-87 0 -87 90q0 52 35 88t79 37q85 -1 85 -90z"/>
    <glyph glyph-name="Lslash" unicode="Ł" horiz-adv-x="1312" d="M296 0q-160 0 -267 -7q-8 0 -8 21.5t13 38t21 16.5q97 0 141.5 20.5t63.5 87.5l115 399l-225 -130q-18 -10 -44.5 34.5t-8.5 55.5l320 185l130 451q4 17 4 33q0 82 -159 82q-9 0 -9 22.5t10.5 38t16.5 15.5q48 -5 261 -5t261 5q7 0 7 -21t-11 -38t-17 -17 q-103 0 -150.5 -20t-69.5 -95l-101 -351l285 165q18 10 44 -36t8 -56l-378 -218l-115 -399q-22 -77 -22 -118q0 -97 122 -97l333 13q281 12 344 304q3 14 43.5 14t36.5 -14l-101 -352q-7 -26 -18.5 -30t-363.5 -0.5t-512 3.5z"/>
    <glyph glyph-name="lslash" unicode="ł" horiz-adv-x="496" d="M251 162q0 -49 25 -49q52 0 134 94q2 3 12.5 3t22.5 -16.5t6 -23.5q-175 -197 -277 -197q-60 0 -60 107q0 24 7 55l109 477l-231 -139q-4 -2 -8 -2q-18 0 -38 34t-20 46.5t8 17.5l324 195l99 433q15 66 15 98q0 82 -77 82q-15 0 -15 26t15 26q73 0 149.5 27.5t82.5 27.5 q16 0 12 -14l-142 -623l257 155q3 2 7 2q19 0 39 -34.5t20 -47t-8 -17.5l-350 -210l-111 -486q-7 -31 -7 -47z"/>
    <glyph glyph-name="Nacute" unicode="Ń" horiz-adv-x="1539" d="M1042 1480q-15 0 -26.5 7t-11.5 22t28 31l355 211q4 3 10.5 3t20 -6.5t22.5 -34t9 -40.5t-8 -16l-365 -168q-19 -9 -34 -9zM1206.5 -29q-16.5 0 -31.5 29l-539 1117q-9 20 -25.5 20t-23.5 -31l-262 -920q-8 -27 -8 -45q0 -72 133 -72q8 0 8 -21t-11 -38t-17 -17 q-86 7 -200.5 7t-200.5 -7q-8 0 -8 20t11 38t17 18q90 0 138 21t69 96l264 928q14 50 14 98t-48 65q-30 10 -96 10q-8 0 -8 21t11 38t17 17q48 -5 130.5 -5t111 -4.5t46.5 -41.5l490 -1024q14 -28 30 -28t23 30l257 882q7 24 7 44q0 71 -149 71q-7 0 -7 20t12 38t18 18 q47 -5 193 -5t193 5q7 0 7 -21t-11 -38t-17 -17q-78 0 -117 -19.5t-61 -95.5l-334 -1168q-9 -33 -25.5 -33z"/>
    <glyph glyph-name="nacute" unicode="ń" horiz-adv-x="1008" d="M764 141q0 -39 34 -39t124 93q3 3 11 3t20 -13t12 -20t-2 -9q-161 -183 -285 -183q-56 0 -56 84q0 39 11 80l125 445q30 106 30 148t-30 42q-86 0 -244.5 -231t-280.5 -539q-11 -29 -70 -29t-50 33l176 619q6 21 6 39q0 47 -32 47t-107 -86q-3 -3 -11 -3t-20 12.5t-12 19 t2 8.5q154 190 268 190q57 0 57 -90q0 -42 -29 -138l-69 -241l8 -4q246 473 449 473q106 0 106 -125q0 -61 -28 -160l-103 -364q-10 -34 -10 -62zM660 1005q-25 0 -25 19t13 37l248 339q6 9 26 9t42 -27t22 -36t-3 -12l-274 -303q-24 -26 -49 -26z"/>
    <glyph glyph-name="Ncommaaccent" unicode="Ņ" horiz-adv-x="1539" d="M898 -260q0 -66 -66 -115t-143 -49q-102 0 -102 66q0 49 51 49q20 0 50 -30t42 -30q57 1 57 71t-108 120v8l69 93q44 -21 97 -69t53 -114zM1206.5 -29q-16.5 0 -31.5 29l-539 1117q-9 20 -25.5 20t-23.5 -31l-262 -920q-8 -27 -8 -45q0 -72 133 -72q8 0 8 -21t-11 -38 t-17 -17q-86 7 -200.5 7t-200.5 -7q-8 0 -8 20t11 38t17 18q90 0 138 21t69 96l264 928q14 50 14 98t-48 65q-30 10 -96 10q-8 0 -8 21t11 38t17 17q48 -5 130.5 -5t111 -4.5t46.5 -41.5l490 -1024q14 -28 30 -28t23 30l257 882q7 24 7 44q0 71 -149 71q-7 0 -7 20t12 38 t18 18q47 -5 193 -5t193 5q7 0 7 -21t-11 -38t-17 -17q-78 0 -117 -19.5t-61 -95.5l-334 -1168q-9 -33 -25.5 -33z"/>
    <glyph glyph-name="ncommaaccent" unicode="ņ" horiz-adv-x="1008" d="M575 -260q0 -66 -66 -115t-143 -49q-102 0 -102 66q0 49 51 49q20 0 50 -30t42 -30q57 1 57 71t-108 120v8l69 93q44 -21 97 -69t53 -114zM764 141q0 -39 34 -39t124 93q3 3 11 3t20 -13t12 -20t-2 -9q-161 -183 -285 -183q-56 0 -56 84q0 39 11 80l125 445 q30 106 30 148t-30 42q-86 0 -244.5 -231t-280.5 -539q-11 -29 -70 -29t-50 33l176 619q6 21 6 39q0 47 -32 47t-107 -86q-3 -3 -11 -3t-20 12.5t-12 19t2 8.5q154 190 268 190q57 0 57 -90q0 -42 -29 -138l-69 -241l8 -4q246 473 449 473q106 0 106 -125q0 -61 -28 -160 l-103 -364q-10 -34 -10 -62z"/>
    <glyph glyph-name="Ncaron" unicode="Ň" horiz-adv-x="1539" d="M1091.5 1615q11.5 0 34.5 11l260 130q4 2 9.5 2t12.5 -11t-3 -20l-304 -233q-26 -20 -46.5 -20t-35.5 20l-182 233q-4 9 10 21q14 13 21 8l195 -130q17 -11 28.5 -11zM1206.5 -29q-16.5 0 -31.5 29l-539 1117q-9 20 -25.5 20t-23.5 -31l-262 -920q-8 -27 -8 -45 q0 -72 133 -72q8 0 8 -21t-11 -38t-17 -17q-86 7 -200.5 7t-200.5 -7q-8 0 -8 20t11 38t17 18q90 0 138 21t69 96l264 928q14 50 14 98t-48 65q-30 10 -96 10q-8 0 -8 21t11 38t17 17q48 -5 130.5 -5t111 -4.5t46.5 -41.5l490 -1024q14 -28 30 -28t23 30l257 882q7 24 7 44 q0 71 -149 71q-7 0 -7 20t12 38t18 18q47 -5 193 -5t193 5q7 0 7 -21t-11 -38t-17 -17q-78 0 -117 -19.5t-61 -95.5l-334 -1168q-9 -33 -25.5 -33z"/>
    <glyph glyph-name="ncaron" unicode="ň" horiz-adv-x="1008" d="M764 141q0 -39 34 -39t124 93q3 3 11 3t20 -13t12 -20t-2 -9q-161 -183 -285 -183q-56 0 -56 84q0 39 11 80l125 445q30 106 30 148t-30 42q-86 0 -244.5 -231t-280.5 -539q-11 -29 -70 -29t-50 33l176 619q6 21 6 39q0 47 -32 47t-107 -86q-3 -3 -11 -3t-20 12.5t-12 19 t2 8.5q154 190 268 190q57 0 57 -90q0 -42 -29 -138l-69 -241l8 -4q246 473 449 473q106 0 106 -125q0 -61 -28 -160l-103 -364q-10 -34 -10 -62zM673.5 1023q-22.5 0 -37.5 41l-125 352q6 23 29 23q5 0 12 -1l123 -215q17 -30 25.5 -30t34.5 26l211 224q27 -2 31 -13t5 -18 l-260 -354q-26 -35 -48.5 -35z"/>
    <glyph glyph-name="napostrophe" unicode="ŉ" horiz-adv-x="1008" d="M764 141q0 -39 34 -39t124 93q3 3 11 3t20 -13t12 -20t-2 -9q-161 -183 -285 -183q-56 0 -56 84q0 39 11 80l125 445q30 106 30 148t-30 42q-86 0 -244 -231t-281 -539q-11 -29 -70 -29t-50 33l176 619q6 21 6 39q0 47 -32 47t-107 -86q-3 -3 -11 -3t-20 12t-12 20 q0 6 2 8q154 190 268 190q57 0 57 -90q0 -42 -29 -138l-69 -241l8 -4q246 473 449 473q106 0 106 -125q0 -61 -28 -160l-103 -364q-10 -34 -10 -62zM568 1352q0 -60 -57 -152t-137 -154t-124 -84q-43 -23 -49 -23t-11 9t-5 13t2 6q224 173 224 268q0 33 -24 43 q-70 31 -70 82q1 52 41 86t88 35q48 0 85 -34q37 -35 37 -95z"/>
    <glyph glyph-name="Eng" unicode="Ŋ" horiz-adv-x="1539" d="M1216.5 260q15.5 0 24.5 30l257 882q7 24 7 44q0 71 -149 71q-7 0 -7 20t12 38t18 18q47 -5 193 -5t193 5q7 0 7 -21t-11 -38t-17 -17q-78 0 -117 -19.5t-61 -95.5l-334 -1168q-42 -145 -97.5 -250.5t-141 -178.5t-251.5 -73q-24 0 -44 21t-20 47t22 41.5t50.5 15.5 t61 -26t46.5 -25q73 0 150.5 91.5t112.5 208.5l26 87q10 33 10 52t-22 68l-499 1034q-10 20 -25.5 20t-23.5 -31l-262 -920q-8 -28 -8 -45q0 -72 133 -72q8 0 8 -21t-11 -38t-17 -17q-86 7 -200.5 7t-200.5 -7q-8 0 -8 20t11 38t17 18q90 0 138 21t69 96l264 928 q14 49 14 97.5t-48 65.5q-30 10 -96 10q-8 0 -8 21t11 38t17 17l242 -9q27 0 46 -42l490 -1024q13 -28 28.5 -28z"/>
    <glyph glyph-name="eng" unicode="ŋ" horiz-adv-x="1008" d="M209 -540q-70 0 -70 72q0 30 25.5 46.5t56.5 16.5t59 -27t52 -27q70 0 121.5 62t71.5 137l233 842q30 108 30 149t-30 41q-86 0 -250 -239.5t-275 -530.5q-11 -29 -66 -29t-55 26q0 4 1 7l176 619q6 21 6 39q0 47 -31.5 47t-107.5 -86q-3 -3 -13 -3t-20 14t-10 19t2 7 q154 190 268 190q57 0 57 -90q0 -37 -29 -138l-69 -241l8 -4q246 473 449 473q106 0 106 -125q0 -59 -28 -160l-122 -438q-80 -287 -154.5 -419t-168.5 -191t-223 -59z"/>
    <glyph glyph-name="Omacron" unicode="Ō" horiz-adv-x="1478" d="M1449 1646q27 0 12.5 -44t-41.5 -44h-590q-27 0 -14.5 44t38.5 44h595zM1371 906q-1 172 -97 290t-248 118t-310 -133q-156 -133 -246 -329t-90 -386t100.5 -305t226.5 -115q211 0 361.5 148t226.5 344t76 368zM1534 886q0 -350 -275 -631.5t-587 -281.5q-177 0 -316 112 t-139 356q0 361 276.5 652.5t585.5 291.5q219 0 337 -144.5t118 -354.5z"/>
    <glyph glyph-name="omacron" unicode="ō" horiz-adv-x="838" d="M707 588q0 180 -129 180q-117 0 -241 -190t-124 -350t133 -160q109 0 235 186.5t126 333.5zM819 537q0 -213 -137 -388.5t-344 -175.5q-123 0 -182.5 91.5t-59.5 240.5q0 195 151 371t331 176q120 0 180.5 -85t60.5 -230zM838 1104h-446q-7 0 -7 17.5t12 47t23 29.5h451 q6 0 6 -15t-13.5 -47t-25.5 -32z"/>
    <glyph glyph-name="Obreve" unicode="Ŏ" horiz-adv-x="1478" d="M1371 906q0 172 -96.5 289.5t-248.5 118t-309.5 -132.5t-247 -329t-89.5 -386t100.5 -305t226.5 -115q211 0 361.5 148t226.5 344t76 368zM1534 886q0 -350 -275 -631.5t-587 -281.5q-177 0 -316 112t-139 356q0 361 276.5 652.5t585.5 291.5q219 0 337 -144.5 t118 -354.5zM1196 1583q-252 0 -252 189q0 42 10 86q13 8 23 8t20 -8q5 -166 197 -166t256 166q11 8 23 8t22 -8q-47 -275 -299 -275z"/>
    <glyph glyph-name="obreve" unicode="ŏ" horiz-adv-x="838" d="M707 588q0 180 -129 180q-117 0 -241 -190.5t-124 -350t133 -159.5q109 0 235 186.5t126 333.5zM819 537q0 -213 -137 -388.5t-344 -175.5q-123 0 -182.5 91.5t-59.5 240.5q0 195 151 371t331 176q120 0 180.5 -85t60.5 -230zM694 1080q-252 0 -252 189q0 42 10 86 q13 8 23 8t20 -8q5 -166 197 -166t256 166q11 8 23 8t22 -8q-47 -275 -299 -275z"/>
    <glyph glyph-name="Ohungarumlaut" unicode="Ő" horiz-adv-x="1478" d="M1371 906q0 172 -96.5 289.5t-248.5 118t-309.5 -132.5t-247 -329t-89.5 -386t100.5 -305t226.5 -115q211 0 361.5 148t226.5 344t76 368zM1534 886q0 -350 -275 -631.5t-587 -281.5q-177 0 -316 112t-139 356q0 361 276.5 652.5t585.5 291.5q219 0 337 -144.5 t118 -354.5zM1251 1479q-15 0 -26.5 7t-11.5 22t28 31l361 215q3 3 10 3t20.5 -6.5t22.5 -34t9 -40.5t-8 -16l-371 -172q-19 -9 -34 -9zM871 1479q-15 0 -26.5 7t-11.5 22t28 31l361 215q3 3 10 3t20.5 -6.5t22.5 -34t9 -40.5t-8 -16l-371 -172q-19 -9 -34 -9z"/>
    <glyph glyph-name="ohungarumlaut" unicode="ő" horiz-adv-x="838" d="M690 1009q-25 0 -25 19t13 37l248 339q6 9 26 9t42 -27t22 -36t-3 -12l-274 -303q-24 -26 -49 -26zM333 1009q-25 0 -25 19t13 37l248 339q6 9 26 9t42 -27t22 -36t-3 -12l-274 -303q-24 -26 -49 -26zM707 588q0 180 -129 180q-117 0 -241 -190.5t-124 -350t133 -159.5 q109 0 235 186.5t126 333.5zM819 537q0 -213 -137 -388.5t-344 -175.5q-123 0 -182.5 91.5t-59.5 240.5q0 195 151 371t331 176q120 0 180.5 -85t60.5 -230z"/>
    <glyph glyph-name="OE" unicode="Œ" horiz-adv-x="2063" d="M1356 1199q0 81 -179 95q-52 4 -138 4q-181 0 -334.5 -129.5t-239 -319t-85.5 -375.5t96.5 -299.5t219.5 -113.5q184 0 224 8q123 23 150 117l282 986q4 13 4 27zM1114.5 0q-223.5 0 -441.5 -13q-220 0 -338 129t-118 346t125.5 427.5t308 342.5t412.5 132 q242 -10 393.5 -10t694.5 4q62 0 62 -22q0 -7 -3 -16l-88 -310q-5 -14 -42.5 -14t-37.5 14q12 42 12 79q0 98 -79 153q-50 35 -114 38q-213 9 -304 9q-26 0 -35 -30l-158 -546q-11 -37 27 -37h193q83 0 106 22.5t35 65.5l27 100q4 15 38 15t34 -15q-90 -266 -122 -428 q-5 -15 -38 -15t-29 16l25 90q8 27 8 38q0 42 -104 42h-199q-33 0 -40 -26l-80 -281q-27 -93 -27 -139q0 -99 113 -99l242 7q252 9 328 275q5 14 43.5 14t38.5 -14l-94 -325q-8 -27 -27 -27l-287 3q-237 5 -460.5 5z"/>
    <glyph glyph-name="oe" unicode="œ" horiz-adv-x="1169" d="M666 588q0 180 -106 180t-226.5 -191t-120.5 -346q0 -76 30.5 -119.5t82.5 -43.5q98 0 219 188t121 332zM1053 711q0 61 -55.5 61t-107.5 -55q-96 -101 -157 -297q131 27 225.5 107.5t94.5 183.5zM1196 737q0 -137 -166 -245t-315 -136q-15 -75 -15 -118q0 -166 111 -166 q63 0 124 44t82.5 64t26.5 20q24 0 24 -27q0 -5 -3 -9q-155 -191 -295 -191t-182 117q-126 -117 -253 -117t-183 92.5t-56 239.5q0 194 147 370.5t307 176.5t211 -182q152 182 304 182q131 0 131 -115z"/>
    <glyph glyph-name="Racute" unicode="Ŕ" horiz-adv-x="1358" d="M831 1480q-15 0 -26.5 7t-11.5 22t28 31l355 211q4 3 10.5 3t20 -6.5t22.5 -34t9 -40.5t-8 -16l-365 -168q-19 -9 -34 -9zM1199 1066q0 102 -84.5 166t-252.5 64q-94 0 -117.5 -7.5t-28.5 -23.5l-162 -567q-1 -4 -1 -13.5t17 -13.5q69 -13 117 -13q210 0 361 109t151 299 zM1361 1083q0 -130 -99 -261.5t-332 -196.5q-18 -5 -18 -20.5t5 -31.5q85 -277 229 -453q86 -105 197 -105q9 0 9 -10q0 -24 -21 -26q-41 -3 -116.5 -3t-140 23.5t-129 101t-89.5 144.5l-92 242q-20 51 -44 80t-73 29t-85 5t-41 -18l-112 -397q-7 -25 -7 -43q0 -74 161 -74 q7 0 7 -21.5t-10.5 -38t-16.5 -16.5q-87 7 -257.5 7t-256.5 -7q-8 0 -8 20t11 38t17 18q103 0 149.5 25t65.5 92l283 986q5 17 5 43q0 67 -162 67q-8 0 -8 21t11 38t17 17q100 -3 243 -3l331 3q163 0 270 -72.5t107 -202.5z"/>
    <glyph glyph-name="racute" unicode="ŕ" horiz-adv-x="754" d="M739 852q93 0 93 -80q0 -36 -28 -62t-61 -26t-50 14.5t-47 14.5q-60 0 -204.5 -237t-205.5 -472q-8 -31 -65.5 -31t-57.5 25q0 2 1 6l165 623q7 26 7 35q0 43 -24 43t-115 -91q-3 -3 -13.5 -3t-18.5 13.5t-8 19t2 7.5q123 134 176 167.5t96 33.5q54 0 54 -82 q0 -16 -34 -143l-45 -168l10 -2q209 395 373 395zM510 1005q-25 0 -25 19t13 37l248 339q6 9 26 9t42 -27t22 -36t-3 -12l-274 -303q-24 -26 -49 -26z"/>
    <glyph glyph-name="Rcommaaccent" unicode="Ŗ" horiz-adv-x="1358" d="M903 -260q0 -66 -66 -115t-143 -49q-102 0 -102 66q0 49 51 49q20 0 50 -30t42 -30q57 1 57 71t-108 120v8l69 93q44 -21 97 -69t53 -114zM1199 1066q0 102 -84.5 166t-252.5 64q-94 0 -117.5 -7.5t-28.5 -23.5l-162 -567q-1 -4 -1 -13.5t17 -13.5q69 -13 117 -13 q210 0 361 109t151 299zM1361 1083q0 -130 -99 -261.5t-332 -196.5q-18 -5 -18 -20.5t5 -31.5q85 -277 229 -453q86 -105 197 -105q9 0 9 -10q0 -24 -21 -26q-41 -3 -116.5 -3t-140 23.5t-129 101t-89.5 144.5l-92 242q-20 51 -44 80t-73 29t-85 5t-41 -18l-112 -397 q-7 -25 -7 -43q0 -74 161 -74q7 0 7 -21.5t-10.5 -38t-16.5 -16.5q-87 7 -257.5 7t-256.5 -7q-8 0 -8 20t11 38t17 18q103 0 149.5 25t65.5 92l283 986q5 17 5 43q0 67 -162 67q-8 0 -8 21t11 38t17 17q100 -3 243 -3l331 3q163 0 270 -72.5t107 -202.5z"/>
    <glyph glyph-name="rcommaaccent" unicode="ŗ" horiz-adv-x="754" d="M739 852q93 0 93 -80q0 -36 -28 -62t-61 -26t-50 14.5t-47 14.5q-60 0 -204.5 -237t-205.5 -472q-6 -24 -41 -29l-42 -55q-18 -23 10 -45q76 -61 76 -131.5t-66 -119t-143 -48.5q-102 0 -102 66q0 49 51 49q20 0 50 -30t42 -30q57 1 57 67.5t-91 114.5q-21 11 -8 30 l102 135q-18 6 -18 20q0 2 1 6l165 623q7 26 7 35q0 43 -24 43t-115 -91q-3 -3 -13.5 -3t-18.5 13.5t-8 19t2 7.5q123 134 176 167.5t96 33.5q54 0 54 -82q0 -16 -34 -143l-45 -168l10 -2q209 395 373 395z"/>
    <glyph glyph-name="Rcaron" unicode="Ř" horiz-adv-x="1358" d="M945.5 1615q11.5 0 34.5 11l260 130q4 2 9.5 2t12 -11t-2.5 -20l-304 -233q-26 -20 -46.5 -20t-35.5 20l-182 233q-4 9 9.5 21.5t21.5 7.5l195 -130q17 -11 28.5 -11zM1199 1066q0 102 -84.5 166t-252.5 64q-94 0 -117.5 -7.5t-28.5 -23.5l-162 -567q-1 -4 -1 -13.5 t17 -13.5q69 -13 117 -13q210 0 361 109t151 299zM1361 1083q0 -130 -99 -261.5t-332 -196.5q-18 -5 -18 -20.5t5 -31.5q85 -277 229 -453q86 -105 197 -105q9 0 9 -10q0 -24 -21 -26q-41 -3 -116.5 -3t-140 23.5t-129 101t-89.5 144.5l-92 242q-20 51 -44 80t-73 29t-85 5 t-41 -18l-112 -397q-7 -25 -7 -43q0 -74 161 -74q7 0 7 -21.5t-10.5 -38t-16.5 -16.5q-87 7 -257.5 7t-256.5 -7q-8 0 -8 20t11 38t17 18q103 0 149.5 25t65.5 92l283 986q5 17 5 43q0 67 -162 67q-8 0 -8 21t11 38t17 17q100 -3 243 -3l331 3q163 0 270 -72.5t107 -202.5z "/>
    <glyph glyph-name="rcaron" unicode="ř" horiz-adv-x="754" d="M739 852q93 0 93 -80q0 -36 -28 -62t-61 -26t-50 14.5t-47 14.5q-60 0 -204.5 -237t-205.5 -472q-8 -31 -65.5 -31t-57.5 25q0 2 1 6l165 623q7 26 7 35q0 43 -24 43t-115 -91q-3 -3 -13.5 -3t-18.5 13.5t-8 19t2 7.5q123 134 176 167.5t96 33.5q54 0 54 -82 q0 -16 -34 -143l-45 -168l10 -2q209 395 373 395zM574.5 1023q-22.5 0 -37.5 41l-125 352q6 23 29 23q5 0 12 -1l123 -215q17 -30 25.5 -30t34.5 26l211 224q27 -2 31 -13t5 -18l-260 -354q-26 -35 -48.5 -35z"/>
    <glyph glyph-name="Sacute" unicode="Ś" horiz-adv-x="1042" d="M796 1480q-15 0 -26.5 7t-11.5 22t28 31l355 211q4 3 10.5 3t20 -6.5t22.5 -34t9 -40.5t-8 -16l-365 -168q-19 -9 -34 -9zM991 504q0 -201 -161.5 -366t-365.5 -165q-115 0 -178.5 20t-169.5 80v72q11 173 35 220q8 16 38.5 16t31.5 -7q-7 -38 -7 -67q0 -129 85 -194 t211 -65t218.5 106.5t92.5 230.5q0 156 -153 222l-178 76q-152 65 -152 251t154 318.5t347 132.5q107 0 189 -20t105 -20q-2 -97 -35 -264q-5 -19 -37.5 -19t-34.5 17l-1 56q-18 183 -224 183q-131 0 -222 -95t-91 -227q0 -106 130 -163l242 -103q131 -56 131 -226z"/>
    <glyph glyph-name="sacute" unicode="ś" horiz-adv-x="524" d="M543 740q0 -32 -19 -50t-37 -18q-52 0 -71.5 58t-81.5 58q-35 0 -57.5 -38t-22.5 -72q0 -70 97.5 -211t97.5 -242t-87.5 -176.5t-203.5 -75.5q-54 0 -94.5 35.5t-40.5 72.5t14.5 59t40.5 22q66 0 92.5 -53.5t85.5 -53.5q82 0 82 121q0 64 -90 190t-90 228.5t65 180 t189 77.5q52 0 91.5 -40t39.5 -72zM360 1005q-25 0 -25 19t13 37l248 339q6 9 26 9t42 -27t22 -36t-3 -12l-274 -303q-24 -26 -49 -26z"/>
    <glyph glyph-name="Scircumflex" unicode="Ŝ" horiz-adv-x="1042" d="M600 1494q0 6 4 11l304 233q26 20 46.5 20t35.5 -20l182 -233q2 -2 2 -7t-10 -14.5t-15 -9.5t-8 2l-195 130q-17 12 -28.5 12t-34.5 -12l-260 -130l-7 -2q-16 0 -16 20zM991 504q0 -201 -161.5 -366t-365.5 -165q-115 0 -178.5 20t-169.5 80v72q11 173 35 220 q8 16 38.5 16t31.5 -7q-7 -38 -7 -67q0 -129 85 -194t211 -65t218.5 106.5t92.5 230.5q0 156 -153 222l-178 76q-152 65 -152 251t154 318.5t347 132.5q107 0 189 -20t105 -20q-2 -97 -35 -264q-5 -19 -37.5 -19t-34.5 17l-1 56q-18 183 -224 183q-131 0 -222 -95t-91 -227 q0 -106 130 -163l242 -103q131 -56 131 -226z"/>
    <glyph glyph-name="scircumflex" unicode="ŝ" horiz-adv-x="524" d="M543 740q0 -32 -19 -50t-37 -18q-52 0 -71.5 58t-81.5 58q-35 0 -57.5 -38t-22.5 -72q0 -70 97.5 -211t97.5 -242t-87.5 -176.5t-203.5 -75.5q-54 0 -94.5 35.5t-40.5 72.5t14.5 59t40.5 22q66 0 92.5 -53.5t85.5 -53.5q82 0 82 121q0 64 -90 190t-90 228.5t65 180 t189 77.5q52 0 91.5 -40t39.5 -72zM466.5 1273q-8.5 0 -34.5 -26l-211 -224q-3 -3 -9 -3q-30 0 -30 27q0 3 2 7l260 354q26 35 48.5 35t37.5 -41l125 -352l-1 -9q-6 -15 -21.5 -16.5t-18.5 3.5l-123 215q-16 30 -24.5 30z"/>
    <glyph glyph-name="Scedilla" unicode="Ş" horiz-adv-x="1042" d="M991 504q0 -201 -152 -357t-330 -172l-42 -55q-18 -23 10 -45q76 -61 76 -131t-66 -119t-143 -49q-102 0 -102 66q0 49 51 49q20 0 50 -30t42 -30q57 1 57 67t-91 115q-21 11 -8 30l98 130q-97 2 -158 21t-167 79v72q11 173 35 220q8 16 38.5 16t31.5 -7q-7 -38 -7 -67 q0 -129 85 -194t211 -65t218.5 106.5t92.5 230.5q0 156 -153 222l-178 76q-152 65 -152 251t154 318.5t347 132.5q107 0 189 -20t105 -20q-2 -97 -35 -264q-5 -19 -38.5 -19t-33.5 17l-1 56q-18 183 -224 183q-131 0 -222 -95t-91 -227q0 -106 130 -163l242 -103 q131 -56 131 -226z"/>
    <glyph glyph-name="scedilla" unicode="ş" horiz-adv-x="524" d="M543 740q0 -32 -19 -50t-37 -18q-52 0 -71.5 58t-81.5 58q-35 0 -57.5 -38t-22.5 -72q0 -70 97.5 -211t97.5 -242t-81 -171.5t-178 -79.5l-42 -54q-18 -23 10 -45q76 -61 76 -131.5t-66 -119t-143 -48.5q-102 0 -102 66q0 49 51 49q20 0 50 -30t42 -30q57 1 57 67.5 t-91 114.5q-21 11 -8 30l101 134q-33 7 -67 37t-34.5 67t14 59t40.5 22q66 0 92.5 -53.5t85.5 -53.5q82 0 82 121q0 64 -90 190t-90 228.5t65 180t189 77.5q52 0 91.5 -40t39.5 -72z"/>
    <glyph glyph-name="Scaron" unicode="Š" horiz-adv-x="1042" d="M935.5 1615q11.5 0 34.5 11l260 130q4 2 9.5 2t12.5 -11t-3 -20l-304 -233q-26 -20 -46.5 -20t-35.5 20l-182 233q-4 9 10 21q14 13 21 8l195 -130q17 -11 28.5 -11zM991 504q0 -201 -161.5 -366t-365.5 -165q-115 0 -178.5 20t-169.5 80v72q11 173 35 220q8 16 38.5 16 t31.5 -7q-7 -38 -7 -67q0 -129 85 -194t211 -65t218.5 106.5t92.5 230.5q0 156 -153 222l-178 76q-152 65 -152 251t154 318.5t347 132.5q107 0 189 -20t105 -20q-2 -97 -35 -264q-5 -19 -37.5 -19t-34.5 17l-1 56q-18 183 -224 183q-131 0 -222 -95t-91 -227 q0 -106 130 -163l242 -103q131 -56 131 -226z"/>
    <glyph glyph-name="scaron" unicode="š" horiz-adv-x="524" d="M543 740q0 -32 -19 -50t-37 -18q-52 0 -71.5 58t-81.5 58q-35 0 -57.5 -38t-22.5 -72q0 -70 97.5 -211t97.5 -242t-87.5 -176.5t-203.5 -75.5q-54 0 -94.5 35.5t-40.5 72.5t14.5 59t40.5 22q66 0 92.5 -53.5t85.5 -53.5q82 0 82 121q0 64 -90 190t-90 228.5t65 180 t189 77.5q52 0 91.5 -40t39.5 -72zM430.5 1023q-22.5 0 -37.5 41l-125 352q6 23 29 23q5 0 12 -1l123 -215q17 -30 25.5 -30t34.5 26l211 224q27 -2 31 -13t5 -18l-260 -354q-26 -35 -48.5 -35z"/>
    <glyph glyph-name="Tcommaaccent" unicode="Ţ" horiz-adv-x="1275" d="M1405.5 992q-39.5 0 -36.5 14q15 70 15 98q0 178 -196 178h-134q-41 0 -52 -37l-303 -1059q-5 -17 -5 -37q0 -80 157 -80q7 0 7 -21.5t-10.5 -38t-16.5 -16.5q-71 6 -198 7l-59 -77q-18 -23 10 -45q76 -61 76 -131.5t-66 -119t-143 -48.5q-102 0 -102 66q0 49 51 49 q20 0 50 -30t42 -30q57 0 57 66.5t-91 115.5q-21 11 -8 30l116 154q-176 0 -262 -7q-8 0 -8 21t11 38t17 17q116 0 165.5 28t66.5 89l301 1054q5 18 5 23q0 19 -37 19h-138q-255 0 -334 -276q-4 -14 -40 -14t-38 14l92 321q9 31 78 31l491 -4l538 4q72 0 72 -20l-97 -332 q-4 -14 -43.5 -14z"/>
    <glyph glyph-name="tcommaaccent" unicode="ţ" horiz-adv-x="604" d="M122 64.5q0 55.5 8 83.5l168 582h-156q-12 0 -12 27.5t22 31.5l167 29l103 203q6 12 38 12t32 -19q0 -2 -1 -6l-49 -200h224q8 0 8 -20.5t-11 -39t-18 -18.5h-224l-145 -505q-12 -42 -12 -71q0 -52 35 -52q63 0 223 199q2 3 12 3t19.5 -17.5t3.5 -26.5 q-116 -162 -187.5 -220t-140.5 -66l-41 -54q-18 -23 10 -45q76 -61 76 -131.5t-66 -119t-143 -48.5q-102 0 -102 66q0 49 51 49q20 0 50 -30t42 -30q57 1 57 67.5t-91 114.5q-21 11 -8 30l105 139q-47 27 -47 82.5z"/>
    <glyph glyph-name="Tcaron" unicode="Ť" horiz-adv-x="1275" d="M1017.5 1615q11.5 0 34.5 11l260 130q4 2 9.5 2t12 -11t-2.5 -20l-304 -233q-26 -20 -46.5 -20t-35.5 20l-182 233q-4 9 9.5 21.5t21.5 7.5l195 -130q17 -11 28.5 -11zM1405.5 992q-39.5 0 -36.5 14q15 70 15 98q0 178 -196 178h-134q-41 0 -52 -37l-303 -1059 q-5 -17 -5 -37q0 -80 157 -80q7 0 7 -21.5t-10.5 -38t-16.5 -16.5q-88 7 -264.5 7t-262.5 -7q-8 0 -8 21t11 38t17 17q116 0 165.5 28t66.5 89l301 1054q5 18 5 23q0 19 -37 19h-138q-255 0 -334 -276q-4 -14 -40 -14t-38 14l92 321q9 31 78 31l491 -4l538 4q72 0 72 -20 l-97 -332q-4 -14 -43.5 -14z"/>
    <glyph glyph-name="tcaron" unicode="ť" horiz-adv-x="604" d="M754 1342q43 0 43 -19q0 -134 -135 -328q-23 -35 -49 -35t-26 25q0 12 10 30q64 115 64 232l-3 57q0 38 96 38zM264 154q0 -52 35 -52q63 0 223 199q2 3 12 3t20 -18t3 -26q-117 -162 -193 -224t-156 -63q-40 1 -63 31t-23 73t8 71l168 582h-156q-12 0 -12 28t22 31 l167 29l103 203q6 12 38 12t32 -19q0 -2 -1 -6l-49 -200h224q8 0 8 -20t-11 -40q-11 -18 -18 -18h-224l-145 -505q-12 -42 -12 -71z"/>
    <glyph glyph-name="Tbar" unicode="Ŧ" horiz-adv-x="1275" d="M1405.5 992q-39.5 0 -36.5 14q15 70 15 98q0 178 -196 178h-134q-41 0 -52 -37l-149 -520h267q5 0 5 -20t-15 -53.5t-22 -33.5h-265l-124 -432q-5 -17 -5 -37q0 -80 157 -80q7 0 7 -21.5t-10.5 -38t-16.5 -16.5q-88 7 -264.5 7t-262.5 -7q-8 0 -8 21t11 38t17 17 q116 0 165.5 28t66.5 89l123 432h-255q-6 0 -6 22.5t14 53.5t23 31h255l147 515q5 18 5 23q0 19 -37 19h-138q-255 0 -334 -276q-4 -14 -40 -14t-38 14l92 321q9 31 78 31l491 -4l538 4q72 0 72 -20l-97 -332q-4 -14 -43.5 -14z"/>
    <glyph glyph-name="tbar" unicode="ŧ" horiz-adv-x="604" d="M264 154q0 -52 35 -52q63 0 223 199q2 3 12 3t20 -18t3 -26q-116 -162 -192.5 -224.5t-156.5 -62.5q-40 0 -63 30.5t-23 73.5t8 71l109 376h-157q-8 0 -8 20t11.5 39t19.5 19h156l37 128h-156q-12 0 -12 28t22 31l167 29l103 203q6 12 38 12t32 -19q0 -3 -1 -6l-49 -200 h224q8 0 8 -20t-10 -39t-19 -19h-224l-37 -128h214q8 0 8 -18.5t-11.5 -39t-21.5 -20.5h-211l-86 -299q-12 -42 -12 -71z"/>
    <glyph glyph-name="Utilde" unicode="Ũ" horiz-adv-x="1482" d="M688 -27q-206 0 -299.5 69.5t-93.5 220.5q0 102 49 276l181 633q8 29 8 46q0 44 -35.5 56.5t-105.5 12.5q-9 0 -9 22.5t10.5 38t16.5 15.5q48 -5 245 -5t243 5q7 0 7 -21.5t-11 -38t-17 -16.5q-127 0 -159 -31t-47 -84l-140 -485q-89 -316 -89 -419t71 -161t197 -58 q200 0 329 104t195 334l197 685q6 22 6 41q0 74 -138 74q-7 0 -7 21t11 38t17 17q70 -5 228.5 -5t204.5 5q8 0 8 -21t-11 -38t-17 -17q-88 0 -132.5 -22t-64.5 -93l-80 -282q-110 -387 -183 -544t-226 -265t-359 -108zM1256 1553q-45 0 -156 47t-151 47q-84 0 -102 -98 q-2 -10 -28.5 -10t-24.5 10q42 211 194 211q54 0 159 -46.5t145 -46.5t70 33.5t34 67.5q0 10 27 10t26 -10q-20 -85 -69.5 -150t-123.5 -65z"/>
    <glyph glyph-name="utilde" unicode="ũ" horiz-adv-x="991" d="M756 141q0 -39 34 -39t125 93q3 3 12 3t23 -15t6 -27q-164 -183 -284 -183q-58 0 -58 90q0 36 11 74l82 287q-244 -308 -334.5 -379.5t-146.5 -71.5q-84 0 -84 99q0 38 20 108l127 445q6 21 6 41q0 45 -28.5 45t-53.5 -28q-54 -61 -67.5 -61t-22 14.5t-8.5 19t2 6.5 q154 190 268 190q55 0 55 -82q0 -47 -25 -134l-87 -302q-41 -142 -41 -187t28 -45q44 0 159 122t228 317q58 100 121 288q8 23 65.5 23t57.5 -21q0 -2 -1 -5l-177 -623q-12 -42 -12 -62zM800 1028q-45 0 -156 47t-151 47q-84 0 -102 -98q-2 -10 -28.5 -10t-24.5 10 q42 211 194 211q54 0 159 -46.5t145 -46.5t70 33.5t34 67.5q0 10 27 10t26 -10q-20 -85 -69.5 -150t-123.5 -65z"/>
    <glyph glyph-name="Umacron" unicode="Ū" horiz-adv-x="1482" d="M1461 1646q27 0 12.5 -44t-41.5 -44h-590q-27 0 -14.5 44t38.5 44h595zM688 -27q-206 0 -299.5 69.5t-93.5 220.5q0 102 49 276l181 633q8 29 8 46q0 44 -35.5 56.5t-105.5 12.5q-9 0 -9 22.5t10.5 38t16.5 15.5q48 -5 245 -5t243 5q7 0 7 -21.5t-11 -38t-17 -16.5 q-127 0 -159 -31t-47 -84l-140 -485q-89 -316 -89 -419t71 -161t197 -58q200 0 329 104t195 334l197 685q6 22 6 41q0 74 -138 74q-7 0 -7 21t11 38t17 17q70 -5 228.5 -5t204.5 5q8 0 8 -21t-11 -38t-17 -17q-88 0 -132.5 -22t-64.5 -93l-80 -282q-110 -387 -183 -544 t-226 -265t-359 -108z"/>
    <glyph glyph-name="umacron" unicode="ū" horiz-adv-x="991" d="M756 141q0 -39 34 -39t125 93q3 3 12 3t23 -15t6 -27q-164 -183 -284 -183q-58 0 -58 90q0 36 11 74l82 287q-244 -308 -334.5 -379.5t-146.5 -71.5q-84 0 -84 99q0 38 20 108l127 445q6 21 6 41q0 45 -28.5 45t-53.5 -28q-54 -61 -67.5 -61t-22 14.5t-8.5 19t2 6.5 q154 190 268 190q55 0 55 -82q0 -47 -25 -134l-87 -302q-41 -142 -41 -187t28 -45q44 0 159 122t228 317q58 100 121 288q8 23 65.5 23t57.5 -21q0 -2 -1 -5l-177 -623q-12 -42 -12 -62zM858 1104h-446q-7 0 -7 17.5t12 47t23 29.5h451q6 0 6 -15t-13.5 -47t-25.5 -32z"/>
    <glyph glyph-name="Ubreve" unicode="Ŭ" horiz-adv-x="1482" d="M688 -27q-206 0 -299.5 69.5t-93.5 220.5q0 102 49 276l181 633q8 29 8 46q0 44 -35.5 56.5t-105.5 12.5q-9 0 -9 22.5t10.5 38t16.5 15.5q48 -5 245 -5t243 5q7 0 7 -21.5t-11 -38t-17 -16.5q-127 0 -159 -31t-47 -84l-140 -485q-89 -316 -89 -419t71 -161t197 -58 q200 0 329 104t195 334l197 685q6 22 6 41q0 74 -138 74q-7 0 -7 21t11 38t17 17q70 -5 228.5 -5t204.5 5q8 0 8 -21t-11 -38t-17 -17q-88 0 -132.5 -22t-64.5 -93l-80 -282q-110 -387 -183 -544t-226 -265t-359 -108zM1162 1583q-252 0 -252 189q0 42 10 86q13 8 23 8 t20 -8q5 -166 197 -166t256 166q11 8 23 8t22 -8q-47 -275 -299 -275z"/>
    <glyph glyph-name="ubreve" unicode="ŭ" horiz-adv-x="991" d="M756 141q0 -39 34 -39t125 93q3 3 12 3t23 -15t6 -27q-164 -183 -284 -183q-58 0 -58 90q0 36 11 74l82 287q-244 -308 -334.5 -379.5t-146.5 -71.5q-84 0 -84 99q0 38 20 108l127 445q6 21 6 41q0 45 -28.5 45t-53.5 -28q-54 -61 -67.5 -61t-22 14.5t-8.5 19t2 6.5 q154 190 268 190q55 0 55 -82q0 -47 -25 -134l-87 -302q-41 -142 -41 -187t28 -45q44 0 159 122t228 317q58 100 121 288q8 23 65.5 23t57.5 -21q0 -2 -1 -5l-177 -623q-12 -42 -12 -62zM706 1080q-252 0 -252 189q0 42 10 86q13 8 23 8t20 -8q5 -166 197 -166t256 166 q11 8 23 8t22 -8q-47 -275 -299 -275z"/>
    <glyph glyph-name="Uring" unicode="Ů" horiz-adv-x="1482" d="M688 -27q-206 0 -299.5 69.5t-93.5 220.5q0 102 49 276l181 633q8 29 8 46q0 44 -35.5 56.5t-105.5 12.5q-9 0 -9 22.5t10.5 38t16.5 15.5q48 -5 245 -5t243 5q7 0 7 -21.5t-11 -38t-17 -16.5q-127 0 -159 -31t-47 -84l-140 -485q-89 -316 -89 -419t71 -161t197 -58 q200 0 329 104t195 334l197 685q6 22 6 41q0 74 -138 74q-7 0 -7 21t11 38t17 17q70 -5 228.5 -5t204.5 5q8 0 8 -21t-11 -38t-17 -17q-88 0 -132.5 -22t-64.5 -93l-80 -282q-110 -387 -183 -544t-226 -265t-359 -108zM1144 1552q64 0 93 60q15 30 15 67q0 74 -49 109 l-23 12q-17 6 -36 6q-62 0 -93 -58q-16 -31 -16 -69q0 -73 50 -108q26 -19 59 -19zM1144 1484q-101 0 -153 62t-52 144t64 132.5t153 50.5t148 -72l20 -28l14 -32l9 -38q1 -12 1 -24q0 -94 -73 -151l-30 -20q-46 -24 -101 -24z"/>
    <glyph glyph-name="uring" unicode="ů" horiz-adv-x="991" d="M756 141q0 -39 34 -39t125 93q3 3 12 3t23 -15t6 -27q-164 -183 -284 -183q-58 0 -58 90q0 36 11 74l82 287q-244 -308 -334.5 -379.5t-146.5 -71.5q-84 0 -84 99q0 38 20 108l127 445q6 21 6 41q0 45 -28.5 45t-53.5 -28q-54 -61 -67.5 -61t-22 14.5t-8.5 19t2 6.5 q154 190 268 190q55 0 55 -82q0 -47 -25 -134l-87 -302q-41 -142 -41 -187t28 -45q44 0 159 122t228 317q58 100 121 288q8 23 65.5 23t57.5 -21q0 -2 -1 -5l-177 -623q-12 -42 -12 -62zM664 1012q64 0 93 60q15 30 15 67q0 74 -49 109l-23 12q-17 6 -36 6q-62 0 -93 -58 q-16 -31 -16 -69q0 -73 50 -108q26 -19 59 -19zM664 944q-101 0 -153 62t-52 144t64 132.5t153 50.5t148 -72l20 -28l14 -32l9 -38q1 -12 1 -24q0 -94 -73 -151l-30 -20q-46 -24 -101 -24z"/>
    <glyph glyph-name="Uhungarumlaut" unicode="Ű" horiz-adv-x="1482" d="M688 -27q-206 0 -299.5 69.5t-93.5 220.5q0 102 49 276l181 633q8 29 8 46q0 44 -35.5 56.5t-105.5 12.5q-9 0 -9 22.5t10.5 38t16.5 15.5q48 -5 245 -5t243 5q7 0 7 -21.5t-11 -38t-17 -16.5q-127 0 -159 -31t-47 -84l-140 -485q-89 -316 -89 -419t71 -161t197 -58 q200 0 329 104t195 334l197 685q6 22 6 41q0 74 -138 74q-7 0 -7 21t11 38t17 17q70 -5 228.5 -5t204.5 5q8 0 8 -21t-11 -38t-17 -17q-88 0 -132.5 -22t-64.5 -93l-80 -282q-110 -387 -183 -544t-226 -265t-359 -108zM1232 1479q-15 0 -26.5 7t-11.5 22t28 31l361 215 q3 3 10 3t20.5 -6.5t22.5 -34t9 -40.5t-8 -16l-371 -172q-19 -9 -34 -9zM852 1479q-15 0 -26.5 7t-11.5 22t28 31l361 215q3 3 10 3t20.5 -6.5t22.5 -34t9 -40.5t-8 -16l-371 -172q-19 -9 -34 -9z"/>
    <glyph glyph-name="uhungarumlaut" unicode="ű" horiz-adv-x="991" d="M747 1009q-25 0 -25 19t13 37l248 339q6 9 26 9t42 -27t22 -36t-3 -12l-274 -303q-24 -26 -49 -26zM390 1009q-25 0 -25 19t13 37l248 339q6 9 26 9t42 -27t22 -36t-3 -12l-274 -303q-24 -26 -49 -26zM756 141q0 -39 34 -39t125 93q3 3 12 3t23 -15t6 -27 q-164 -183 -284 -183q-58 0 -58 90q0 36 11 74l82 287q-244 -308 -334.5 -379.5t-146.5 -71.5q-84 0 -84 99q0 38 20 108l127 445q6 21 6 41q0 45 -28.5 45t-53.5 -28q-54 -61 -67.5 -61t-22 14.5t-8.5 19t2 6.5q154 190 268 190q55 0 55 -82q0 -47 -25 -134l-87 -302 q-41 -142 -41 -187t28 -45q44 0 159 122t228 317q58 100 121 288q8 23 65.5 23t57.5 -21q0 -2 -1 -5l-177 -623q-12 -42 -12 -62z"/>
    <glyph glyph-name="Uogonek" unicode="Ų" horiz-adv-x="1482" d="M628 -274.5q0 -127.5 127 -127.5q46 0 111 29q15 -3 15 -17q0 -6 -1 -8q-74 -90 -207 -90q-179 0 -179 178q0 136 223 284q-26 -1 -52 -1q-183 0 -276.5 69.5t-93.5 220.5q0 102 49 276l181 633q8 29 8 46q0 44 -35.5 56.5t-105.5 12.5q-9 0 -9 22.5t10.5 38t16.5 15.5 q48 -5 245 -5t243 5q7 0 7 -21.5t-11 -38t-17 -16.5q-127 0 -159 -31t-47 -84l-140 -485q-89 -316 -89 -419t71 -161t197 -58q200 0 329 104t195 334l197 685q6 22 6 41q0 74 -138 74q-7 0 -7 21t11 38t17 17q70 -5 228.5 -5t204.5 5q8 0 8 -21t-11 -38t-17 -17 q-88 0 -132.5 -22t-64.5 -93l-80 -282q-110 -387 -183 -544t-226 -265q-96 -68 -223 -93q-196 -135 -196 -262.5z"/>
    <glyph glyph-name="uogonek" unicode="ų" horiz-adv-x="991" d="M756 141q0 -39 34 -39t125 93q3 3 12 3t23 -15t6 -27q-148 -166 -261 -181q-177 -128 -177 -247q0 -130 127 -130q46 0 111 29q15 -3 15 -17q0 -6 -1 -8q-74 -90 -207 -90q-179 0 -179 178q0 143 248 301q-18 22 -18 65t11 81l82 287q-244 -308 -334.5 -379.5 t-146.5 -71.5q-84 0 -84 99q0 38 20 108l127 445q6 21 6 41q0 45 -28.5 45t-53.5 -28q-54 -61 -67.5 -61t-22 14.5t-8.5 19t2 6.5q154 190 268 190q55 0 55 -82q0 -47 -25 -134l-87 -302q-41 -142 -41 -187t28 -45q44 0 159 122t228 317q58 100 121 288q8 23 65.5 23 t57.5 -21q0 -2 -1 -5l-177 -623q-12 -42 -12 -62z"/>
    <glyph glyph-name="Wcircumflex" unicode="Ŵ" horiz-adv-x="1944" d="M999 1494q0 6 4 11l304 233q26 20 46.5 20t35.5 -20l182 -233q2 -2 2 -7t-10 -14.5t-15 -9.5t-8 2l-195 130q-17 12 -28.5 12t-34.5 -12l-260 -130l-7 -2q-16 0 -16 20zM1190.5 -36q-12.5 0 -21.5 42l-107 505q-4 25 -11 25t-24 -25l-362 -524q-15 -23 -29 -23t-21 42 l-247 1166q-15 73 -45.5 94t-100.5 21q-7 0 -7 19.5t11 38t17 18.5q46 -5 208.5 -5t235.5 5q8 0 8 -19.5t-11 -38t-17 -18.5q-161 0 -161 -78q0 -19 4 -37l199 -920q7 -26 21 -26t32 24l240 340q24 34 24 62t-4 48l-100 472q-16 77 -39 96t-88 19q-8 0 -8 19.5t11 38 t17 18.5q46 -5 205 -5t221 5q8 0 8 -21t-10.5 -37t-17.5 -18q-161 0 -161 -78q0 -18 4 -37l70 -325q6 -32 13 -32t26 32l206 316q33 49 33 83q0 41 -105 41q-8 0 -8 19.5t11 38t17 18.5q47 -5 205.5 -5t222.5 5q8 0 8 -21t-10.5 -37t-17.5 -18q-151 0 -213 -86l-317 -438 q-30 -41 -30 -71t3 -45l85 -395q6 -27 20 -27t33 25q186 244 617 913q33 54 33 83q0 41 -105 41q-8 0 -8 19.5t11 38t17 18.5q47 -5 213 -5t215 5q8 0 8 -21t-11 -38t-17 -17q-148 0 -213 -86q-156 -201 -373 -515l-484 -699q-16 -23 -28.5 -23z"/>
    <glyph glyph-name="wcircumflex" unicode="ŵ" horiz-adv-x="1239" d="M1247 705q0 -117 -78.5 -300.5t-220.5 -307.5t-274 -124q-112 0 -112 124q0 10 2 28q-164 -152 -306 -152q-57 0 -84.5 38t-27.5 73.5t6 56.5l137 484q6 21 6 37q0 49 -30.5 49t-108.5 -86q-3 -3 -9.5 -3t-20 14t-13.5 19t2 7q154 190 270 190q55 0 55 -84 q0 -45 -28 -143l-119 -418q-10 -35 -10 -60q0 -71 81 -71q48 0 102 46t96 100.5t68 146.5l126 448q10 35 66 35t56 -26q0 -5 -1 -9l-168 -610q-10 -36 -10 -60q0 -71 81.5 -71t209.5 162.5t128 345.5q0 119 -37 194q0 74 70 74q47 0 71.5 -45t24.5 -102zM891.5 1273 q-8.5 0 -34.5 -26l-211 -224q-3 -3 -9 -3q-30 0 -30 27q0 3 2 7l260 354q26 35 48.5 35t37.5 -41l125 -352l-1 -9q-6 -15 -21.5 -16.5t-18.5 3.5l-123 215q-16 30 -24.5 30z"/>
    <glyph glyph-name="Ycircumflex" unicode="Ŷ" horiz-adv-x="1228" d="M715 1494q0 6 4 11l304 233q26 20 46.5 20t35.5 -20l182 -233q2 -2 2 -7t-10 -14.5t-15 -9.5t-8 2l-195 130q-17 12 -28.5 12t-34.5 -12l-260 -130l-7 -2q-16 0 -16 20zM633 126q0 -57 140 -57q8 0 8 -21t-11 -38t-17 -17q-87 7 -238.5 7t-237.5 -7q-7 0 -7 21t11 38 t17 17q94 0 136.5 20t64.5 97l76 266q27 94 27 128.5t-23 108.5l-151 483q-24 78 -64.5 96.5t-92.5 18.5q-7 0 -7 21t11 38t17 17q46 -5 216 -5t218 5q7 0 7 -21t-11 -38t-17 -17q-97 0 -120 -20.5t-23 -43.5t9 -51l151 -483q6 -18 16 -18t24 15l445 477q50 54 50 84 q0 40 -100 40q-7 0 -7 21.5t11 38t18 16.5q66 -5 192.5 -5t201.5 5q7 0 7 -20.5t-11 -38t-18 -17.5q-92 0 -143.5 -28.5t-211.5 -199.5l-381 -406q-57 -61 -87 -166l-86 -301q-9 -32 -9 -60z"/>
    <glyph glyph-name="ycircumflex" unicode="ŷ" horiz-adv-x="793" d="M-113 -459q0 88 75 88q41 0 61 -34.5t59 -34.5q65 0 139 92.5t105.5 204.5t31.5 309t-34 374t-82 177t-113 -131q-4 -7 -18.5 -5.5t-23.5 8.5t-5 15q104 248 221 248q85 0 129.5 -183t44.5 -442q0 -87 -8 -188h10q74 130 131.5 322.5t57.5 270t-19 152.5q0 68 72 68 t72 -64q0 -74 -44 -254.5t-155.5 -401.5t-161 -303.5t-177 -233t-253.5 -150.5q-52 0 -83.5 30.5t-31.5 65.5zM572.5 1273q-8.5 0 -34.5 -26l-211 -224q-3 -3 -9 -3q-30 0 -30 27q0 3 2 7l260 354q26 35 48.5 35t37.5 -41l125 -352l-1 -9q-6 -15 -21.5 -16.5t-18.5 3.5 l-123 215q-16 30 -24.5 30z"/>
    <glyph glyph-name="Ydieresis" unicode="Ÿ" horiz-adv-x="1228" d="M1293 1625q0 -58 -33.5 -91.5t-78.5 -33.5q-87 0 -87 89q0 52 34.5 89t79.5 37q85 -1 85 -90zM894 1625q0 -58 -34 -91.5t-79 -33.5q-87 0 -87 89q0 52 35 89t80 37q85 -1 85 -90zM633 126q0 -57 140 -57q8 0 8 -21t-11 -38t-17 -17q-87 7 -238.5 7t-237.5 -7q-7 0 -7 21 t11 38t17 17q94 0 136.5 20t64.5 97l76 266q27 94 27 128.5t-23 108.5l-151 483q-24 78 -64.5 96.5t-92.5 18.5q-7 0 -7 21t11 38t17 17q46 -5 216 -5t218 5q7 0 7 -21t-11 -38t-17 -17q-97 0 -120 -20.5t-23 -43.5t9 -51l151 -483q6 -18 16 -18t24 15l445 477q50 54 50 84 q0 40 -100 40q-7 0 -7 21.5t11 38t18 16.5q66 -5 192.5 -5t201.5 5q7 0 7 -20.5t-11 -38t-18 -17.5q-92 0 -143.5 -28.5t-211.5 -199.5l-381 -406q-57 -61 -87 -166l-86 -301q-9 -32 -9 -60z"/>
    <glyph glyph-name="Zacute" unicode="Ź" horiz-adv-x="1199" d="M850 1480q-15 0 -26.5 7t-11.5 22t28 31l355 211q4 3 10.5 3t20 -6.5t22.5 -34t9 -40.5t-8 -16l-365 -168q-19 -9 -34 -9zM317 0h-352q-20 0 -20 20t11 31l1236 1216q9 9 9 15.5t-20 6.5h-572q-89 0 -209 -164q-64 -87 -98 -151q-6 -12 -27 -5t-16 19q72 170 133 357 q7 22 28 22q4 0 8 -1l28 -4q82 -12 254.5 -12t332.5 4l374 8q17 0 17 -15t-16 -31l-1217 -1205q-8 -8 -8 -25t22 -17q429 0 645 13q120 7 288 270q5 8 27 1t17 -17q-85 -161 -144 -343q-9 -29 -24 -26l-52 12q-91 21 -655 21z"/>
    <glyph glyph-name="zacute" unicode="ź" horiz-adv-x="891" d="M684 41q84 0 84 88q0 22 -27.5 46.5t-27.5 55.5q0 64 69 64q40 0 63 -33.5t23 -71.5q0 -106 -79 -177.5t-156 -71.5t-211.5 62.5t-173.5 62.5q-62 0 -142 -89q-4 -6 -21 -6t-34.5 23t-17.5 28.5t3 8.5l564 628q9 10 9 18q0 16 -40 28q-132 40 -231.5 40t-99.5 -57 q0 -13 19 -38t19 -54q0 -64 -61 -64q-78 0 -78 80q0 68 78.5 149t204.5 81q62 0 152 -28t138.5 -28t71.5 25l41 45q5 5 20.5 5t24.5 -14.5t9 -20.5t-3 -9l-591 -655l2 -8l43 -3q61 -4 189.5 -57t166.5 -53zM480 1005q-25 0 -25 19t13 37l248 339q6 9 26 9t42 -27t22 -36 t-3 -12l-274 -303q-24 -26 -49 -26z"/>
    <glyph glyph-name="Zdotaccent" unicode="Ż" horiz-adv-x="1199" d="M317 0h-352q-20 0 -20 20t11 31l1236 1216q9 9 9 15.5t-20 6.5h-572q-89 0 -209 -164q-64 -87 -98 -151q-6 -12 -27 -5t-16 19q72 170 133 357q7 22 28 22q4 0 8 -1l28 -4q82 -12 254.5 -12t332.5 4l374 8q17 0 17 -15t-16 -31l-1217 -1205q-8 -8 -8 -25t22 -17 q429 0 645 13q120 7 288 270q5 8 27 1t17 -17q-85 -161 -144 -343q-9 -29 -24 -26l-52 12q-91 21 -655 21zM1056 1700q0 -58 -33.5 -91.5t-78.5 -33.5q-87 0 -87 90q0 52 35 88.5t79 36.5q85 -1 85 -90z"/>
    <glyph glyph-name="zdotaccent" unicode="ż" horiz-adv-x="891" d="M684 41q84 0 84 88q0 22 -27.5 46.5t-27.5 55.5q0 64 69 64q40 0 63 -33.5t23 -71.5q0 -106 -79 -177.5t-156 -71.5t-211.5 62.5t-173.5 62.5q-62 0 -142 -89q-4 -6 -21 -6t-34.5 23t-17.5 28.5t3 8.5l564 628q9 10 9 18q0 16 -40 28q-132 40 -231.5 40t-99.5 -57 q0 -13 19 -38t19 -54q0 -64 -61 -64q-78 0 -78 80q0 68 78.5 149t204.5 81q62 0 152 -28t138.5 -28t71.5 25l41 45q5 5 20.5 5t24.5 -14.5t9 -20.5t-3 -9l-591 -655l2 -8l43 -3q61 -4 189.5 -57t166.5 -53zM667 1175q0 -58 -33.5 -91.5t-78.5 -33.5q-87 0 -87 90 q0 52 35 88.5t79 36.5q85 -1 85 -90z"/>
    <glyph glyph-name="Zcaron" unicode="Ž" horiz-adv-x="1199" d="M940.5 1615q11.5 0 34.5 11l260 130q4 2 9.5 2t12.5 -11t-3 -20l-304 -233q-26 -20 -46.5 -20t-35.5 20l-182 233q-4 9 10 21q14 13 21 8l195 -130q17 -11 28.5 -11zM317 0h-352q-20 0 -20 20t11 31l1236 1216q9 9 9 15.5t-20 6.5h-572q-89 0 -209 -164q-64 -87 -98 -151 q-6 -12 -27 -5t-16 19q72 170 133 357q7 22 28 22q4 0 8 -1l28 -4q82 -12 254.5 -12t332.5 4l374 8q17 0 17 -15t-16 -31l-1217 -1205q-8 -8 -8 -25t22 -17q429 0 645 13q120 7 288 270q5 8 27 1t17 -17q-85 -161 -144 -343q-9 -29 -24 -26l-52 12q-91 21 -655 21z"/>
    <glyph glyph-name="zcaron" unicode="ž" horiz-adv-x="891" d="M684 41q84 0 84 88q0 22 -27.5 46.5t-27.5 55.5q0 64 69 64q40 0 63 -33.5t23 -71.5q0 -106 -79 -177.5t-156 -71.5t-211.5 62.5t-173.5 62.5q-62 0 -142 -89q-4 -6 -21 -6t-34.5 23t-17.5 28.5t3 8.5l564 628q9 10 9 18q0 16 -40 28q-132 40 -231.5 40t-99.5 -57 q0 -13 19 -38t19 -54q0 -64 -61 -64q-78 0 -78 80q0 68 78.5 149t204.5 81q62 0 152 -28t138.5 -28t71.5 25l41 45q5 5 20.5 5t24.5 -14.5t9 -20.5t-3 -9l-591 -655l2 -8l43 -3q61 -4 189.5 -57t166.5 -53zM593.5 1023q-22.5 0 -37.5 41l-125 352q6 23 29 23q5 0 12 -1 l123 -215q17 -30 25.5 -30t34.5 26l211 224q27 -2 31 -13t5 -18l-260 -354q-26 -35 -48.5 -35z"/>
    <glyph glyph-name="longs" unicode="ſ" horiz-adv-x="496" d="M-154 -551q-64 0 -107.5 36.5t-43.5 68.5t20 55.5t43 23.5q58 0 86 -50t66 -50t81 55.5t54 114.5l213 1104q83 429 198 543t287 114q86 0 137.5 -47.5t51.5 -118.5q0 -96 -66 -96q-24 0 -50 18q-25 18 -25 54q0 121 -103 121q-90 0 -147.5 -79t-82.5 -154.5t-79 -354.5 l-178 -918q-22 -115 -59.5 -214.5t-110 -162.5t-185.5 -63z"/>
    <glyph glyph-name="uni0180" unicode="ƀ" horiz-adv-x="852" d="M707 597q0 157 -84 157q-96 0 -213.5 -160t-150 -262.5t-32.5 -168.5q0 -118 99 -118q142 0 261.5 197.5t119.5 354.5zM850 659q0 -253 -180 -469.5t-428 -216.5q-145 0 -145 160q0 39 12 92l202 867h-223q-7 0 -7 17t12 39t22 22h214l7 30q16 69 16 99q0 79 -78 79 q-15 0 -15 26t15 26q55 0 136.5 27.5t95.5 27.5t12 -13l-69 -302h239q7 0 7 -15.5t-13 -39t-23 -23.5h-228l-114 -494l21 -6q198 260 346 260q166 0 166 -193z"/>
    <glyph glyph-name="uni0181" unicode="Ɓ" horiz-adv-x="1217" d="M1005 422q0 134 -92 203.5t-250 69.5q-110 0 -127 -59l-102 -359q-21 -72 -21 -110q0 -110 141 -110q206 0 328.5 94.5t122.5 270.5zM1117 1074q0 231 -339 231q-50 0 -71 -75l-124 -435q-2 -10 -2 -12q0 -30 95 -30q199 0 320 92.5t121 228.5zM1257 1095 q0 -158 -87 -245q-88 -86 -261 -117q-11 -2 -11 -7.5t11 -9.5q248 -83 248 -326q0 -162 -136 -279.5t-471 -117.5l-266 7q-136 0 -255 -7q-8 0 -8 20t11 38t17 18q106 0 151 23q44 24 64 94l284 988q3 10 3 19q0 35 -48 63t-127.5 28t-130.5 -28t-56 -57t21.5 -64t26.5 -72 t-24.5 -61.5t-60.5 -24.5t-51 29.5t-15 63t21 87t74 107.5t117 73.5t194 19.5l164 -3l248 4q172 0 262.5 -76.5t90.5 -186.5z"/>
    <glyph glyph-name="uni0182" unicode="Ƃ" horiz-adv-x="1217" d="M1005 422q0 134 -92 203.5t-250 69.5q-110 0 -127 -59l-102 -359q-21 -72 -21 -110q0 -110 141 -110q206 0 328.5 94.5t122.5 270.5zM1205.5 1015q-39.5 0 -36.5 14q15 70 15 98q0 159 -196 168l-210 9q-49 0 -71 -74l-124 -435q-2 -7 -2 -12q0 -30 108.5 -30 t223.5 -38.5t179.5 -119.5t64.5 -205q0 -162 -136 -279.5t-471 -117.5l-266 7q-136 0 -255 -7q-8 0 -8 20t11 38t17 18q106 0 151 23q44 24 64 94l283 986q5 17 5 37q0 47 -42 60t-120 13q-8 0 -8 21t11 38t17 17q160 -4 242 -4l615 4q72 0 72 -20l-90 -309 q-4 -14 -43.5 -14z"/>
    <glyph glyph-name="uni0183" unicode="ƃ" horiz-adv-x="852" d="M707 597q0 157 -84 157q-96 0 -213.5 -160t-150 -262.5t-32.5 -168.5q0 -118 99 -118q142 0 262 197q119 198 119 355zM918 1036q-33 0 -30 15q8 38 8 69q0 149 -182 156l-204 8q-34 0 -43 -35l-150 -651l21 -6q198 260 346 260q166 0 166 -193q0 -253 -180 -469.5 t-428 -216.5q-145 0 -145 160q0 40 12 92l255 1097q5 22 24 22h184l382 5q63 0 60 -16l-60 -282q-3 -15 -36 -15z"/>
    <glyph glyph-name="uni0184" unicode="Ƅ" horiz-adv-x="1217" d="M1005 422q0 134 -92 204t-250 69q-110 0 -127 -59l-102 -359q-21 -72 -21 -110q0 -110 141 -110q206 1 328 95t123 270zM1157 390q0 -162 -136 -280t-471 -117l-266 7q-136 0 -255 -7q-8 0 -8 20t11 38t17 18q106 0 151 23q44 24 64 94l233 811q8 27 8 49q0 88 -145 88 q-8 0 -8 21t11 38t17 17q110 0 282 60q26 9 44 9t18 -19q0 -6 -28 -86t-47 -148l-66 -231q-2 -7 -2 -12q1 -30 109 -30q108 -1 223 -39t179 -119t65 -205z"/>
    <glyph glyph-name="uni0185" unicode="ƅ" horiz-adv-x="852" d="M707 597q0 157 -84 157q-96 0 -213.5 -160t-150 -262.5t-32.5 -168.5q0 -118 99 -118q142 0 261.5 197.5t119.5 354.5zM850 659q0 -253 -180 -469.5t-428 -216.5q-145 0 -145 160q0 40 12 92l164 707q16 69 16 99q0 79 -78 79q-15 0 -15 26t15 26q55 0 137 27.5t94.5 27 t12.5 -10t-2 -16.5l-136 -592l21 -6q198 260 346 260q166 0 166 -193z"/>
    <glyph glyph-name="uni0186" unicode="Ɔ" horiz-adv-x="1374" d="M1311 900q0 -355 -290.5 -641t-643.5 -286q-147 0 -238.5 21.5t-185.5 36.5q15 158 59 308q8 17 39.5 17t30.5 -12q-8 -60 -8 -78q0 -222 318 -222t537 273t219 582q0 181 -104.5 296t-272.5 115q-301 0 -460 -174l-70 -95q-7 -11 -36 -11t-29 20t71 132t96 140 q34 5 82 17q174 46 389 46t356 -130t141 -355z"/>
    <glyph glyph-name="uni0187" unicode="Ƈ" horiz-adv-x="1476" d="M1350 308q0 -20 -71 -132t-96 -140q-34 -5 -82 -17q-174 -46 -389 -46t-356 130t-141 355q0 355 290.5 641t624.5 286q173 0 298 -29l43 -10q50 90 85 122q117 108 240 108q47 0 74 -24t27 -54t-26 -53.5t-65 -23.5t-70.5 36.5t-54.5 36.5q-48 0 -75 -39.5t-47 -116.5 t-31.5 -183t-15.5 -136q-6 -18 -37 -18t-31 13q5 40 5 62q0 238 -346 238q-273 0 -499 -264t-226 -591q0 -176 102 -293.5t276 -117.5t292 55t166 116q16 20 71 98q7 10 36 10.5t29 -19.5z"/>
    <glyph glyph-name="uni0188" unicode="ƈ" horiz-adv-x="674" d="M301 -27q-92 0 -147.5 79.5t-55.5 203.5q0 203 143.5 399.5t315.5 196.5q43 0 80 -14q67 137 141.5 179.5t163.5 42.5q36 0 58 -24.5t17.5 -52.5t-27 -42t-52.5 -14t-58 31.5t-46 31.5q-70 0 -108 -216l-6 -32q-4 -24 -26 -44t-50 -21q-26 0 -36 19q-9 57 -15 66 q-20 26 -89 26q-90 0 -180 -161.5t-90 -292.5t37 -201t99 -70t100 21.5t81 60.5q5 4 18 0.5t16.5 -15t-1.5 -17.5q-140 -140 -283 -140z"/>
    <glyph glyph-name="uni0189" unicode="Ɖ" horiz-adv-x="1514" d="M1404 880q0 187 -126 302t-363 115q-121 0 -161.5 -24t-60.5 -92l-130 -448q-7 -23 20 -23h230q18 0 18 -25t-15 -38t-23 -13h-232q-27 0 -34 -27l-88 -309q-19 -70 -19 -127t44.5 -87.5t156.5 -30.5q306 0 544.5 264.5t238.5 562.5zM1566 904q0 -327 -266.5 -619 t-627.5 -292l-412 7q-106 0 -231 -7q-8 0 -8 20t11 38t17 18q94 0 144 22t71 95l122 423q7 25 -18 25h-195q-14 0 -14 27t14 38t22 11h195q23 0 31 23l126 439q5 23 5 37q0 73 -162 73q-8 0 -8 21t11 38t17 17q133 -4 225 -4l382 4q247 0 398 -119t151 -335z"/>
    <glyph glyph-name="uni018A" unicode="Ɗ" horiz-adv-x="1514" d="M1404 880q0 182 -123.5 299t-365.5 117q-95 0 -128 -7q-66 -14 -94 -110l-254 -881q-23 -78 -23 -121q0 -124 205 -124q306 0 544.5 264.5t238.5 562.5zM1566 904q0 -327 -266.5 -619t-627.5 -292q-272 7 -391 7t-252 -7q-8 0 -8 20t11 38t17 18q92 0 130 15 q63 25 85 102l284 988q3 9 3 18q0 36 -48 64t-127.5 28t-133.5 -28t-54 -57t24.5 -64t24.5 -72t-24.5 -61.5t-60.5 -24.5t-51 29.5t-15 63t21 87t74 107.5t117 73.5t194 19.5l176 -3l349 4q247 0 398 -119t151 -335z"/>
    <glyph glyph-name="uni018B" unicode="Ƌ" horiz-adv-x="1299" d="M328 318q0 -134 92 -204t250 -69q110 0 127 59l102 359q21 74 21 110q0 110 -141 110q-207 -1 -329 -95t-122 -270zM1488 1335q0 -21 -11 -38t-17 -17q-114 0 -156 -28t-59 -87l-282 -986q-6 -21 -6 -34q0 -83 157 -83q7 0 7 -22t-11 -38t-18 -16q-86 7 -230 7l-201 -7 q-141 0 -259 46q-226 89 -226 318q0 162 136 280t471 117l196 -6l143 498q12 42 -29 41l-305 -10q-262 -9 -334 -262q-5 -18 -43 -18t-33 18l94 329q17 19 40 19l738 -5l230 5q8 0 8 -21z"/>
    </font>
</defs>
</svg>
