<?xml version="1.0" encoding="UTF-8"?>
<svg xmlns="http://www.w3.org/2000/svg">
<metadata>
Created by FontPrep 20130207 at Tue Apr 30 08:46:36 2019
 By michaelhawkins
Copyright (c) 1998-2018 by Peter S. Baker
</metadata>
<defs>
<font id="a4a3a01371cff8e72df79cb557f6a57d" horiz-adv-x="1024">
  <font-face font-family="Junicode-Bold" font-weight="600" font-stretch="normal" units-per-em="2048" panose-1="0 0 7 0 0 0 0 0 0 0" ascent="1485" descent="-563" x-height="854" cap-height="1364" bbox="-1782 -840 3342 2080" underline-thickness="69" underline-position="-167" unicode-range="U+000D-1034A"/>
<missing-glyph horiz-adv-x="1024" d="M68 -131v1638h864v-1638h-864zM535 86q0 39 -29 83t-80 44t-80 -20q-49 -37 -49 -107q0 -37 20 -68q37 -49 85 -49t77 17q56 32 56 100zM354 1194q293 0 291 -199q0 -88 -115 -151l-106 -56q-115 -61 -115 -144t76 -218q8 -8 27 -5t18 17q-20 70 -20 122t73 93l166 88 q82 43 81 196t-116 294q-115 131 -243 131q-84 0 -84 -82q-1 -86 67 -86z"/>
    <glyph glyph-name="IJ" unicode="IJ" horiz-adv-x="1449" d="M602 -280q0 64 42 93t106 29q65 0 120 -57q25 -27 37 -61q33 25 57 81q25 88 25 449v899q0 117 -170 117q-14 0 -14 47t14 47q47 -5 294 -5t294 5q14 0 14 -47t-14 -47q-172 0 -172 -117v-524q0 -106 -10 -434q0 -228 -80 -361t-207 -205q-86 -47 -172 -49q-52 0 -108 38 t-56 102zM61 40q0 46 15 46q162 0 162 117v950q0 117 -162 117q-14 0 -14 47t14 47q48 -6 284 -6t283 6q14 0 14 -47t-14 -47q-162 0 -162 -117v-950q0 -117 158 -117q14 0 14 -46t-14 -46q-133 6 -286 6t-277 -6q-15 0 -15 46z"/>
    <glyph glyph-name="ij" unicode="ij" horiz-adv-x="1024" d="M891 682v-543q0 -186 -11 -268q-52 -360 -315 -418q-37 -8 -85 -8t-106 43q-43 35 -43 89t52 83q86 45 137 -37q43 -74 80 -72q45 0 55 91q4 43 6 129v786q0 125 -92 125q-14 0 -14 37t14 37q51 0 151 49t118 63t32 15q29 0 29 -27q-8 -92 -8 -174zM897 1188 q0 -72 -60 -113q-39 -27 -86 -26q-74 0 -116 55q-29 36 -29 94t57 98q39 29 101 29t97 -47q36 -47 36 -90zM401 1186q0 -72 -59 -113q-39 -27 -86 -24q-76 0 -117 57q-27 37 -26 80q0 70 57 110q39 29 86 27q78 0 119 -57q26 -39 26 -80zM278 0q-134 0 -219 -8q-14 0 -15 38 t15 38q104 0 105 75v414q0 125 -92 125q-16 0 -16 37t16 37q49 0 149 49q101 49 117 63t35 15q29 0 26 -27q-6 -88 -6 -174v-539q0 -76 103 -75q14 0 14 -38t-14 -38q-84 8 -218 8z"/>
    <glyph glyph-name="uni01C4" unicode="DŽ" horiz-adv-x="2883" d="M1962 1798q2 0 2 -2l268 -123q43 -19 74 0l266 123l5 2q22 -9 30 -43q0 -4 -4 -8l-282 -250q-51 -44 -101 0l-282 250q-10 10 2 30q12 21 22 21zM1776 1368q1 0 121 -16h508l381 6q66 0 65 -33q0 -25 -24 -57l-834 -1143q-6 -10 -6 -19q0 -20 33 -20q412 0 591 12 q53 4 140 152q41 70 51 104q2 6 28 7t38 -11q14 -12 14 -20q-45 -173 -45 -312q0 -47 -17 -47q-24 1 -116 15t-543 14h-449q-70 0 -69 49q0 27 16 47l873 1141q10 12 10 20q0 16 -41 17h-512q-43 0 -72 -27q-39 -31 -83 -139t-48 -133q0 -10 -20 -11t-41 5t-21 18 q31 236 31 334q0 47 41 47zM481 272q0 -150 86 -186q39 -14 131 -14q216 0 366 170t150 475q0 213 -152 388t-425 175h-80q-76 0 -76 -80v-928zM61 40q0 46 15 46q162 0 162 117v952q0 109 -172 111q-14 0 -14 46t14 46q143 -6 238 -6l415 6q330 0 549 -169t219 -464 q-1 -339 -199 -535t-522 -196l-456 6q-104 0 -234 -6q-15 0 -15 46z"/>
    <glyph glyph-name="uni01C5" unicode="Dž" horiz-adv-x="2336" d="M1960 1020q-33 0 -49 31l-229 411q-2 2 -2 12t19 22t25 11q6 0 11 -6l182 -213q33 -39 43 -39t43 39l182 213q12 12 34 -4q22 -17 22 -25t-2 -10l-230 -411q-16 -31 -49 -31zM2306 16q0 -41 -39 -41q-9 1 -79 13t-109 12h-442q-41 0 -41 37q0 12 8 31l356 659q8 16 8 27 q0 20 -28 20h-111q-63 0 -125 -129l-45 -102q-4 -8 -20 -8q-17 0 -31 10t-16 24q29 252 30 256q6 43 31 45q158 -20 211 -20h348q45 0 45 -33q0 -18 -8 -33l-358 -665q-4 -6 -5 -15q0 -25 29 -24h109q131 0 225 205q7 18 53 8q31 -11 31 -29l-25 -188q-2 -35 -2 -60z M481 272q0 -150 86 -186q39 -14 131 -14q216 0 366 170t150 475q0 213 -152 388t-425 175h-80q-76 0 -76 -80v-928zM61 40q0 46 15 46q162 0 162 117v952q0 109 -172 111q-14 0 -14 46t14 46q143 -6 238 -6l415 6q330 0 549 -169t219 -464q-1 -339 -199 -535t-522 -196 l-456 6q-104 0 -234 -6q-15 0 -15 46z"/>
    <glyph glyph-name="uni01C6" unicode="dž" horiz-adv-x="1804" d="M1429 1020q-33 0 -49 31l-229 411q-2 2 -2 12t19 22q20 12 26 11q6 0 10 -6l182 -213q33 -39 43 -39t43 39l182 213q12 12 34 -4q22 -17 22 -25t-2 -10l-230 -411q-16 -31 -49 -31zM1775 16q0 -41 -39 -41q-10 1 -80 13t-108 12h-442q-41 0 -41 37q0 12 8 31l356 659 q8 16 8 27q0 20 -28 20h-111q-63 0 -125 -129l-45 -102q-4 -8 -20 -8t-30 10t-17 24q29 252 30 256q6 43 31 45q158 -20 211 -20h348q45 0 45 -33q0 -18 -8 -33l-358 -665q-4 -6 -5 -15q0 -25 29 -24h109q131 0 225 205q7 18 53 8q31 -11 31 -29l-25 -188q-2 -35 -2 -60z M674 141v553q0 43 -4 52t-34 28t-95 19q-133 0 -197 -144q-39 -88 -37 -205q0 -193 78 -303q59 -82 145 -81t129 53q15 18 15 28zM723 -35q-10 0 -10 45v29q0 23 -11 22q-12 0 -28 -14q-94 -70 -195 -70q-244 0 -354 175q-72 110 -72 276t121 293q147 150 393 149 q49 0 78 -3t29 22v272q0 125 -92 125q-16 0 -16 38t16 36q48 0 150 50t117 64t30 13q31 0 30 -33q-6 -70 -6 -168v-1030q0 -90 10 -117q14 -41 54 -41q12 0 32 6q16 4 27 -30q8 -39 -4 -43q-29 -12 -156 -35q-102 -27 -131 -31h-12z"/>
    <glyph glyph-name="uni01C7" unicode="LJ" horiz-adv-x="2076" d="M1229 -280q-1 64 41 93t107 29t120 -57q25 -27 37 -61q33 25 57 81q25 88 25 449v899q0 117 -170 117q-14 0 -14 47t14 47q47 -5 294 -5t294 5q14 0 14 -47t-14 -47q-172 0 -172 -117v-524q0 -106 -10 -434q0 -228 -80 -361t-207 -205q-86 -47 -172 -49q-51 0 -107 38 t-57 102zM61 40q0 46 15 46q162 0 162 127v940q0 117 -172 117q-15 0 -15 47t15 47q46 -5 284 -5t287 5q13 0 13 -47t-13 -47q-156 0 -156 -117v-903q0 -111 68 -154q35 -18 74 -18l331 12q76 2 144 82q82 104 82 219q0 18 50 18t50 -18v-334q0 -43 -14 -53q-8 -10 -103 -10 l-791 6q-90 0 -296 -6q-15 0 -15 46z"/>
    <glyph glyph-name="uni01C8" unicode="Lj" horiz-adv-x="1857" d="M1727 682v-543q0 -186 -11 -268q-52 -360 -315 -418q-37 -8 -85 -8t-106 43q-43 35 -43 89t52 83q86 45 137 -37q43 -74 80 -72q45 0 55 91q4 43 6 129v786q0 125 -92 125q-14 0 -14 37t14 37q51 0 151 49t118 63t32 15q29 0 29 -27q-8 -92 -8 -174zM1733 1188 q0 -72 -60 -113q-39 -27 -86 -26q-74 0 -116 55q-29 36 -29 94t57 98q39 29 101 29t97 -47q36 -47 36 -90zM61 40q0 46 15 46q162 0 162 127v940q0 117 -172 117q-15 0 -15 47t15 47q46 -5 284 -5t287 5q13 0 13 -47t-13 -47q-156 0 -156 -117v-903q0 -111 68 -154 q35 -18 74 -18l331 12q76 2 144 82q82 104 82 219q0 18 50 18t50 -18v-334q0 -43 -14 -53q-8 -10 -103 -10l-791 6q-90 0 -296 -6q-15 0 -15 46z"/>
    <glyph glyph-name="uni01C9" unicode="lj" horiz-adv-x="1021" d="M891 682v-543q0 -186 -11 -268q-52 -360 -315 -418q-37 -8 -85 -8t-106 43q-43 35 -43 89t52 83q86 45 137 -37q43 -74 80 -72q45 0 55 91q4 43 6 129v786q0 125 -92 125q-14 0 -14 37t14 37q51 0 151 49t118 63t32 15q29 0 29 -27q-8 -92 -8 -174zM897 1188 q0 -72 -60 -113q-39 -27 -86 -26q-74 0 -116 55q-29 36 -29 94t57 98q39 29 101 29t97 -47q36 -47 36 -90zM278 0q-134 0 -219 -8q-14 0 -15 38t15 38q104 0 105 67v1026q0 125 -92 125q-16 0 -16 37t16 37q50 0 150 50t116 64t31 13q31 0 30 -33q-6 -76 -6 -168v-1143 q0 -76 103 -75q14 0 14 -38t-14 -38q-84 8 -218 8z"/>
    <glyph glyph-name="uni01CA" unicode="NJ" horiz-adv-x="2199" d="M1352 -280q0 64 42 93t106 29q65 0 120 -57q25 -27 37 -61q33 25 57 81q25 88 25 449v899q0 117 -170 117q-14 0 -14 47t14 47q47 -5 294 -5t294 5q14 0 14 -47t-14 -47q-172 0 -172 -117v-524q0 -106 -10 -434q0 -228 -80 -361t-207 -205q-86 -47 -172 -49 q-52 0 -108 38t-56 102zM1032 1364q244 -10 391 0q15 0 15 -47t-15 -47q-135 0 -135 -119v-1075q0 -96 -29 -96t-75 57l-824 977q-12 16 -21 16t-11 -22v-805q0 -117 151 -117q15 0 15 -47t-15 -45q-92 6 -197 6t-216 -6q-14 -2 -14 45t14 47q160 0 157 117v952 q0 115 -172 115q-12 0 -12 47t12 47q49 -4 155 -5t120 -3q59 -8 100 -58l711 -866q10 -14 24 -14q25 0 25 31v702q0 119 -154 119q-14 0 -14 47t14 47z"/>
    <glyph glyph-name="uni01CB" unicode="Nj" horiz-adv-x="1980" d="M1850 682v-543q0 -186 -11 -268q-52 -360 -315 -418q-37 -8 -85 -8t-106 43q-43 35 -43 89t52 83q86 45 137 -37q43 -74 80 -72q45 0 55 91q4 43 6 129v786q0 125 -92 125q-14 0 -14 37t14 37q51 0 151 49q99 49 117 63t33 15q29 0 29 -27q-8 -92 -8 -174zM1856 1188 q0 -72 -60 -113q-39 -27 -86 -26q-74 0 -116 55q-29 36 -29 94t57 98q38 29 100 29t98 -47t36 -90zM1032 1364q244 -10 391 0q15 0 15 -47t-15 -47q-135 0 -135 -119v-1075q0 -96 -29 -96t-75 57l-824 977q-12 16 -21 16t-11 -22v-805q0 -117 151 -117q15 0 15 -47t-15 -45 q-92 6 -197 6t-216 -6q-14 -2 -14 45t14 47q160 0 157 117v952q0 115 -172 115q-12 0 -12 47t12 47q49 -4 155 -5t120 -3q59 -8 100 -58l711 -866q10 -14 24 -14q25 0 25 31v702q0 119 -154 119q-14 0 -14 47t14 47z"/>
    <glyph glyph-name="uni01CC" unicode="nj" horiz-adv-x="1585" d="M1454 682v-543q0 -186 -11 -268q-52 -360 -315 -418q-37 -8 -85 -8t-106 43q-43 35 -43 89t52 83q86 45 137 -37q43 -74 80 -72q45 0 55 91q4 43 6 129v786q0 125 -92 125q-14 0 -14 37t14 37q51 0 151 49q99 49 117 63t33 15q29 0 29 -27q-8 -92 -8 -174zM1460 1188 q0 -72 -60 -113q-39 -27 -86 -26q-74 0 -116 55q-29 36 -29 94t57 98q38 29 100 29t98 -47t36 -90zM858 0q-104 0 -225 -8q-15 0 -15 38t15 38q100 0 100 61v408q0 150 -57 200q-29 25 -93 25t-127 -53t-63 -117v-449q0 -76 99 -75q14 0 15 -38t-15 -38q-84 8 -218 8 t-217 -8q-14 0 -14 38t14 38q106 0 107 75v406q0 133 -92 133q-16 0 -16 37t16 37q49 0 149 49q101 49 117 63t31 15q29 0 30 -27l-6 -68q-1 -18 9 -19t18 9q67 86 233 92q188 0 275 -186q37 -74 35 -219v-330q0 -68 106 -67q16 0 16 -38t-16 -38q-107 8 -211 8z"/>
    <glyph glyph-name="uni01F1" unicode="DZ" horiz-adv-x="2883" d="M1776 1368q1 0 121 -16h508l381 6q66 0 65 -33q0 -25 -24 -57l-834 -1143q-6 -10 -6 -19q0 -20 33 -20q412 0 591 12q53 4 140 152q41 70 51 104q2 6 28 7t38 -11q14 -12 14 -20q-45 -173 -45 -312q0 -47 -17 -47q-24 1 -116 15t-543 14h-449q-70 0 -69 49q0 27 16 47 l873 1141q10 12 10 20q0 16 -41 17h-512q-43 0 -72 -27q-39 -31 -83 -139t-48 -133q0 -10 -20 -11t-41 5t-21 18q31 236 31 334q0 47 41 47zM481 272q0 -150 86 -186q39 -14 131 -14q216 0 366 170t150 475q0 213 -152 388t-425 175h-80q-76 0 -76 -80v-928zM61 40 q0 46 15 46q162 0 162 117v952q0 109 -172 111q-14 0 -14 46t14 46q143 -6 238 -6l415 6q330 0 549 -169t219 -464q-1 -339 -199 -535t-522 -196l-456 6q-104 0 -234 -6q-15 0 -15 46z"/>
    <glyph glyph-name="uni01F2" unicode="Dz" horiz-adv-x="2336" d="M2306 16q0 -41 -39 -41q-9 1 -79 13t-109 12h-442q-41 0 -41 37q0 12 8 31l356 659q8 16 8 27q0 20 -28 20h-111q-63 0 -125 -129l-45 -102q-4 -8 -20 -8q-17 0 -31 10t-16 24q29 252 30 256q6 43 31 45q158 -20 211 -20h348q45 0 45 -33q0 -18 -8 -33l-358 -665 q-4 -6 -5 -15q0 -25 29 -24h109q131 0 225 205q7 18 53 8q31 -11 31 -29l-25 -188q-2 -35 -2 -60zM481 272q0 -150 86 -186q39 -14 131 -14q216 0 366 170t150 475q0 213 -152 388t-425 175h-80q-76 0 -76 -80v-928zM61 40q0 46 15 46q162 0 162 117v952q0 109 -172 111 q-14 0 -14 46t14 46q143 -6 238 -6l415 6q330 0 549 -169t219 -464q-1 -339 -199 -535t-522 -196l-456 6q-104 0 -234 -6q-15 0 -15 46z"/>
    <glyph glyph-name="uni01F3" unicode="dz" horiz-adv-x="1804" d="M1775 16q0 -41 -39 -41q-10 1 -80 13t-108 12h-442q-41 0 -41 37q0 12 8 31l356 659q8 16 8 27q0 20 -28 20h-111q-63 0 -125 -129l-45 -102q-4 -8 -20 -8t-30 10t-17 24q29 252 30 256q6 43 31 45q158 -20 211 -20h348q45 0 45 -33q0 -18 -8 -33l-358 -665q-4 -6 -5 -15 q0 -25 29 -24h109q131 0 225 205q7 18 53 8q31 -11 31 -29l-25 -188q-2 -35 -2 -60zM674 141v553q0 43 -4 52t-34 28t-95 19q-133 0 -197 -144q-39 -88 -37 -205q0 -193 78 -303q59 -82 145 -81t129 53q15 18 15 28zM723 -35q-10 0 -10 45v29q0 23 -11 22q-12 0 -28 -14 q-94 -70 -195 -70q-244 0 -354 175q-72 110 -72 276t121 293q147 150 393 149q49 0 78 -3t29 22v272q0 125 -92 125q-16 0 -16 38t16 36q48 0 150 50t117 64t30 13q31 0 30 -33q-6 -70 -6 -168v-1030q0 -90 10 -117q14 -41 54 -41q12 0 32 6q16 4 27 -30q8 -39 -4 -43 q-29 -12 -156 -35q-102 -27 -131 -31h-12z"/>
    <glyph glyph-name="ellipsis" unicode="..." horiz-adv-x="2048" d="M1182 108q0 -72 -68 -110q-36 -23 -96 -23t-105 44q-45 45 -45 107t41 107t118 45t122 -57q33 -41 33 -113zM500 108q0 -72 -68 -110q-36 -23 -96 -23t-105 44q-45 45 -45 107t41 107t118 45t122 -57q33 -41 33 -113zM1866 108q0 -72 -68 -110q-36 -23 -96 -23t-105 44 q-45 45 -45 107t41 107t118 45t122 -57q33 -41 33 -113z"/>
    <glyph glyph-name="uniE1A6" unicode="ſb" horiz-adv-x="1609" d="M918 297q0 -109 61 -174.5t145 -65.5q162 0 162 371q0 154 -62.5 248t-160.5 94q-72 0 -109 -37t-36 -86v-350zM164 143v527q0 35 -31 35h-61q-14 0 -14.5 36.5t14.5 36.5q92 0 92 113q0 281 152.5 438.5t357.5 157.5q123 0 183.5 -58.5t60.5 -142.5v-446q0 -29 16 -29 q8 0 18 8q74 51 168 51q176 0 298 -121.5t122 -318.5t-110.5 -325t-331.5 -128q-57 0 -122 27t-114 27q-12 0 -53 -33l-21 -16q-4 -2 -24 -2t-50 24q-32 24 -32 31q6 39 6 244v882q0 129 -29.5 171t-100.5 42t-118 -87t-47 -283v-861q0 -76 96 -75q16 0 16.5 -38t-16.5 -38 q-82 8 -217 8t-217 -8q-14 0 -14 38t14 38q109 -1 109 75z"/>
    <glyph glyph-name="uniE1A8" unicode="ſi" horiz-adv-x="1087" d="M729 143v414q0 125 -92 125q-16 0 -16 37t16 37q49 0 149 49t116 63t36 15q29 0 27 -27q-6 -84 -7 -174v-539q0 -76 103 -75q14 0 14 -38t-14 -38q-84 8 -218 8t-218 -8q-14 0 -15.5 38t15.5 38q104 -1 104 75zM164 143v527q0 35 -31 35h-61q-16 0 -16.5 36.5t16.5 36.5 q47 0 69.5 36t22.5 77q0 285 153.5 440.5t356.5 155.5q145 0 204.5 -41.5t59.5 -97.5t-40 -90.5t-75 -34.5q-76 0 -130 75.5t-115 75.5q-90 0 -137.5 -89t-47.5 -236v-906q0 -76 133 -75q16 0 16.5 -38t-16.5 -38q-80 8 -233.5 8t-237.5 -8q-14 0 -14 38t14 38 q109 -1 109 75z"/>
    <glyph glyph-name="uniE1A9" unicode="ſk" horiz-adv-x="1597" d="M164 143v527q0 35 -31 35h-61q-14 0 -14.5 36.5t14.5 36.5q92 0 92 113q0 281 152.5 438.5t357.5 157.5q121 0 182.5 -53.5t61.5 -147.5v-758q0 -37 20 -36q45 0 80 38l156 170q76 84 -54 84q-16 0 -15 36t15 36q61 -6 211 -6t211 6q14 0 14 -36t-14 -36q-92 0 -151 -47 q-18 -14 -31 -24l-209 -189q-23 -20 0 -45l330 -358q49 -53 125 -53q14 0 15 -38t-15 -38q-82 8 -232.5 8t-232.5 -8q-14 0 -14.5 38t14.5 38q115 0 53 69l-201 232q-27 31 -63 30q-12 0 -12 -34v-222q0 -76 110 -75q14 0 14 -38t-14 -38q-82 8 -218 8t-218 -8q-14 0 -14 38 t14 38q96 0 96 75v1018q0 145 -33.5 179t-100.5 34t-114 -87t-47 -283v-861q0 -76 96 -75q16 0 16.5 -38t-16.5 -38q-82 8 -217 8t-217 -8q-14 0 -14 38t14 38q109 -1 109 75z"/>
    <glyph glyph-name="uniE1AA" unicode="ſl" horiz-adv-x="1048" d="M164 143v527q0 35 -31 35h-61q-14 0 -14.5 36.5t14.5 36.5q92 0 92 113q0 281 153.5 438.5t356.5 157.5q115 0 179.5 -55.5t64.5 -145.5v-1143q0 -76 102 -75q14 0 14 -38t-14 -38q-82 8 -208 8t-208 -8q-14 0 -14 38t14 38q84 0 84 75v1018q0 213 -129 213 q-70 0 -118 -87t-48 -283v-861q0 -76 96 -75q16 0 16.5 -38t-16.5 -38q-82 8 -217 8t-217 -8q-14 0 -14 38t14 38q109 -1 109 75z"/>
    <glyph glyph-name="uniE1AB" unicode="ſſ" horiz-adv-x="1085" d="M164 143v527q0 35 -31 35h-61q-14 0 -14.5 36.5t14.5 36.5q47 0 69.5 33t22.5 80q0 281 149.5 432.5t323.5 151.5t254 -99q135 111 290 111t197.5 -51.5t42.5 -96.5t-39 -80.5t-73 -35.5q-88 0 -123 51l-53 78q-14 23 -50 22q-70 0 -117.5 -91t-47.5 -294v-846 q0 -76 135 -75q14 0 14 -38t-14 -38q-82 8 -223.5 8t-223.5 -8q-14 0 -14 38t14 38q82 0 82 75v527q0 35 -29 35h-61q-14 0 -14 36.5t14 36.5q43 0 66.5 32t23.5 81q0 197 76 332q-70 98 -109 124.5t-102.5 26.5t-111.5 -90t-48 -280v-861q0 -76 101 -75q14 0 15 -38 t-15 -38q-82 8 -219.5 8t-219.5 -8q-14 0 -14 38t14 38q109 -1 109 75z"/>
    <glyph glyph-name="uniE1AC" unicode="ſſi" horiz-adv-x="1609" d="M1249 143v414q0 125 -92 125q-16 0 -15 37t15 37q49 0 151 49t116 63q15 14 34 15q29 0 27 -27q-6 -84 -6 -174v-539q0 -76 102 -75q14 0 15 -38t-15 -38q-84 8 -218 8t-218 -8q-14 0 -14.5 38t14.5 38q104 -1 104 75zM1198 1487q262 0 262 -148q0 -45 -39 -80.5 t-73 -35.5q-66 0 -109 51l-55 65q-29 35 -84 35q-90 0 -136 -88t-46 -231v-912q0 -76 135 -75q14 0 14 -38t-14 -38q-82 8 -223.5 8t-223.5 -8q-14 0 -14 38t14 38q82 0 82 75v527q0 35 -29 35h-61q-14 0 -14 36.5t14 36.5q43 0 66.5 32t23.5 81q0 197 76 332 q-70 98 -109 124.5t-102.5 26.5t-111.5 -90t-48 -280v-861q0 -76 101 -75q14 0 15 -38t-15 -38q-82 8 -219.5 8t-219.5 -8q-14 0 -14 38t14 38q109 -1 109 75v527q0 35 -31 35h-61q-14 0 -14.5 36.5t14.5 36.5q47 0 69.5 33t22.5 80q0 281 149.5 432.5t323.5 151.5t254 -99 q135 111 307 111z"/>
    <glyph glyph-name="uniE1AD" unicode="ſſl" horiz-adv-x="1572" d="M164 143v527q0 35 -31 35h-61q-14 0 -14.5 36.5t14.5 36.5q47 0 69.5 33t22.5 80q0 281 149.5 432.5t323.5 151.5t254 -99q137 111 305 111q117 0 181.5 -56.5t64.5 -144.5v-1143q0 -76 100 -75q14 0 15.5 -38t-15.5 -38q-94 8 -203.5 8t-212.5 -8q-14 0 -14 38t14 38 q84 0 84 75v1018q0 213 -129 213q-70 0 -118 -90t-48 -280v-861q0 -76 99 -75q14 0 14 -38t-14 -38q-94 8 -214 8t-222 -8q-14 0 -14.5 38t14.5 38q109 0 108 75v527q0 35 -31 35h-59q-14 0 -15 36.5t15 36.5q92 0 90 113q0 203 76 336q-68 96 -107 121.5t-102 25.5 t-111.5 -90t-48.5 -280v-861q0 -76 101 -75q14 0 15 -38t-15 -38q-82 8 -219.5 8t-219.5 -8q-14 0 -14 38t14 38q109 -1 109 75z"/>
    <glyph glyph-name="uniEBA1" unicode="ſh" horiz-adv-x="1617" d="M1487 143q0 -78 119 -75q14 0 15 -38t-15 -38q-94 8 -222.5 8t-228.5 -8q-14 0 -14 38t14 38q102 0 102 75v412q0 86 -50 146.5t-113 60.5t-119.5 -33t-56.5 -102v-484q0 -76 102 -75q14 0 14 -38t-14 -38q-94 8 -209 8t-215 -8q-14 0 -14 38t14 38q92 0 92 75v1018 q0 133 -31.5 173t-100.5 40t-116 -87t-47 -283v-861q0 -76 96 -75q16 0 16.5 -38t-16.5 -38q-82 8 -217 8t-217 -8q-14 0 -14 38t14 38q109 0 109 75v527q0 35 -31 35h-61q-14 0 -14.5 36.5t14.5 36.5q92 0 92 113q0 281 152.5 438.5t357.5 157.5q125 0 184.5 -54.5 t59.5 -146.5v-465q0 -37 32 -12q80 61 198 61t189.5 -44t110.5 -120.5t39 -148.5v-414z"/>
    <glyph glyph-name="uniFB00" unicode="ff" horiz-adv-x="1155" d="M602 1356q-113 0 -161 -90t-48 -289v-96q0 -31 31 -31h281q33 0 32 82q1 143 62 258q-57 166 -197 166zM1470 1348q0 -52 -37.5 -88.5t-74.5 -36.5q-88 0 -123 51l-49 74q-16 27 -53 26q-74 0 -120 -89t-46 -281v-123q0 -31 30 -31h170q14 0 14.5 -52.5t-14.5 -52.5h-170 q-31 0 -30 -30v-572q0 -76 133 -75q14 0 14 -38t-14 -38q-82 8 -236 8t-235 -8q-14 0 -14.5 38t14.5 38q109 0 108 75v568q0 35 -30 34h-283q-31 0 -31 -30v-572q0 -76 133 -75q14 0 14.5 -38t-14.5 -38q-82 8 -236 8t-235 -8q-14 0 -14 38t14 38q109 0 109 75v568 q0 35 -31 34h-61q-14 0 -14.5 37t14.5 37q92 0 92 113q0 139 76.5 270t193.5 197.5t240 66.5q158 0 229 -96l12 -16q156 133 332 133q113 0 168 -43.5t55 -95.5z"/>
    <glyph glyph-name="uniFB01" unicode="fi" horiz-adv-x="1087" d="M166 143v568q0 35 -31 34h-63q-16 0 -16.5 37t16.5 37q45 0 68.5 34t23.5 79q0 145 65.5 273t184 205t282.5 77q113 0 177.5 -43.5t64.5 -95.5t-38 -89t-75 -36q-78 0 -131 75.5t-102 75.5q-102 0 -149.5 -89t-47.5 -281v-123q0 -31 31 -31h256q145 0 196.5 16.5 t59.5 16.5q29 0 29 -31q-8 -90 -9 -178v-531q0 -76 103 -75q14 0 14 -38t-14 -38q-82 8 -218 8t-218 -8q-14 0 -15.5 38t15.5 38q104 0 102 75v535q0 68 -53 67h-248q-31 0 -31 -30v-572q0 -76 133 -75q14 0 14.5 -38t-14.5 -38q-82 8 -236 8t-235 -8q-14 0 -14 38t14 38 q109 -1 109 75z"/>
    <glyph glyph-name="uniFB02" unicode="fl" horiz-adv-x="1087" d="M164 135v574q0 37 -37 36h-55q-16 0 -16.5 37t16.5 37q43 0 67.5 32t24.5 81q0 145 64.5 271t183 205t244.5 79t190 -47q35 16 54.5 31.5t33.5 15.5q31 0 31 -33q-6 -113 -7 -168v-1143q0 -76 103 -75q14 0 14 -38t-14 -38q-113 8 -227 8t-209 -8q-16 0 -16.5 38t16.5 38 q104 0 104 75v566q0 37 -37 36h-262q-37 0 -37 -36v-574q0 -68 133 -67q16 0 16.5 -38t-16.5 -38q-96 8 -233 8t-238 -8q-14 0 -14 38t14 38q109 -1 109 67zM393 887q0 -37 37 -37h266q33 0 33 35v276q0 113 -46 163t-118 50t-122 -85t-50 -240v-162z"/>
    <glyph glyph-name="uniFB03" unicode="ffi" horiz-adv-x="1660" d="M393 881q0 -31 31 -31h281q33 0 32 82q0 143 62 258q-57 166 -197 166q-113 0 -161 -90t-48 -289v-96zM164 143v568q0 35 -31 34h-61q-14 0 -14.5 37t14.5 37q92 0 92 113q0 139 76.5 270t193.5 197.5t240 66.5q158 0 229 -96l12 -16q150 133 353 133q113 0 177 -43.5 t64 -95.5t-37.5 -88.5t-72.5 -36.5q-78 0 -132.5 75.5t-103.5 75.5q-102 0 -149 -89t-47 -281v-123q0 -31 30 -31h258q147 0 196.5 16.5t57.5 16.5q29 0 29 -31q-8 -90 -8 -178v-531q0 -76 102 -75q14 0 14.5 -38t-14.5 -38q-82 8 -218 8t-218 -8q-14 0 -14 38t14 38 q104 0 104 75v535q0 68 -55 67h-248q-31 0 -30 -30v-572q0 -76 133 -75q14 0 14 -38t-14 -38q-82 8 -236 8t-235 -8q-14 0 -14.5 38t14.5 38q109 0 108 75v568q0 35 -30 34h-283q-31 0 -31 -30v-572q0 -76 133 -75q14 0 14.5 -38t-14.5 -38q-82 8 -236 8t-235 -8 q-14 0 -14 38t14 38q109 -1 109 75z"/>
    <glyph glyph-name="uniFB04" unicode="ffl" horiz-adv-x="1660" d="M967 881q0 -31 30 -31h269q35 0 34 33v278q0 213 -167 213q-74 0 -120 -89t-46 -281v-123zM393 881q0 -31 31 -31h281q33 0 32 82q0 143 62 258q-57 166 -197 166q-113 0 -161 -90t-48 -289v-96zM164 143v568q0 35 -31 34h-61q-14 0 -14.5 37t14.5 37q92 0 92 113 q0 139 76.5 270t193.5 197.5t240 66.5q158 0 229 -96l12 -16q156 133 332 133q106 0 172 -47q41 23 57.5 35t28.5 12q31 0 31 -33q-6 -86 -6 -168v-1143q0 -78 102 -75q14 0 14.5 -38t-14.5 -38q-94 8 -215 8t-221 -8q-14 0 -14 38t14 38q104 0 104 75v570q0 33 -36 32h-267 q-31 0 -30 -30v-572q0 -76 133 -75q14 0 14 -38t-14 -38q-82 8 -236 8t-235 -8q-14 0 -14.5 38t14.5 38q109 0 108 75v568q0 35 -30 34h-283q-31 0 -31 -30v-572q0 -76 133 -75q14 0 14.5 -38t-14.5 -38q-82 8 -236 8t-235 -8q-14 0 -14 38t14 38q109 -1 109 75z"/>
    <glyph glyph-name="f_eth" unicode="fð" horiz-adv-x="1656" d="M164 135v574q0 37 -37 36h-55q-16 0 -16.5 37t16.5 37q47 0 69.5 34t22.5 79q0 127 61.5 267t155.5 214t209 74q72 0 127 -34t55 -79t-26.5 -77.5t-80.5 -32.5t-82 55t-65 55q-51 0 -88 -88t-37 -237v-162q0 -37 37 -37h143q14 0 14.5 -52.5t-14.5 -52.5h-143 q-37 0 -37 -36v-574q0 -68 133 -67q16 0 16.5 -38t-16.5 -38q-80 8 -233.5 8t-237.5 -8q-14 0 -14 38t14 38q109 -1 109 67zM649 449q0 150 105 268q137 154 360 153q-76 76 -199 156q-16 10 -30.5 10t-32.5 -14l-184 -145q-14 -10 -61.5 63.5t-47.5 83.5t8 6 q63 -33 90.5 -33t40.5 13l72 57q18 14 18 24t-83 52q-18 8 5 58t42 42q66 -31 100 -48t47.5 -17t38.5 18l295 229q12 10 62 -53t61 -80q0 -10 -6 -8l-117 25q-14 2 -33 -9l-184 -147q-18 -14 -18.5 -24.5t22.5 -22.5q334 -197 448.5 -362t112.5 -293q0 -221 -124 -348.5 t-332 -126.5t-342 128.5t-134 344.5zM1124 793q-76 0 -149.5 -94.5t-73.5 -264.5t82 -284q61 -88 149 -88.5t142.5 113t53.5 273.5t-73 263q-55 82 -131 82z"/>
    <glyph glyph-name="f_f_udieresis" unicode="ffü" horiz-adv-x="2183" d="M602 1356q-113 0 -161 -90t-48 -289v-96q0 -31 31 -31h281q33 0 33 102t59 242q-57 162 -195 162zM1511 307q0 -123 52 -182q29 -33 95 -33t126 49t61 99v415q0 102 -84 103q-16 0 -15 36.5t15 36.5q111 -1 183 11t86 12q55 0 53 -37q-8 -131 -8 -155v-406q0 -90 10 -117 q14 -41 53 -41q12 0 33 6q18 4 27 -32q6 -39 -3 -40.5t-71 -13.5t-96 -19t-75 -21q-42 -14 -54 -13q-12 0 -15 45v47q0 23 -11 23t-28 -14q-93 -88 -233 -88t-182 34q-147 119 -148 297v332q0 102 -84 104h-201q-31 0 -30 -30v-572q0 -76 133 -75q14 0 14 -38t-14 -38 q-82 8 -236 8t-235 -8q-14 0 -14.5 38t14.5 38q109 0 108 75v568q0 35 -30 34h-283q-31 0 -31 -30v-572q0 -76 133 -75q14 0 14.5 -38t-14.5 -38q-82 8 -236 8t-235 -8q-14 0 -14 38t14 38q109 0 109 75v568q0 35 -31 34h-61q-14 0 -14.5 37t14.5 37q92 0 92 113 q0 139 76.5 270t193.5 197.5t240 66.5q158 0 229 -96q0 -2 2 -2q109 119 258 119q76 0 136.5 -42t60.5 -92t-27.5 -82t-85.5 -32t-86 67.5t-69 67.5q-51 0 -88 -88t-37 -237v-168q0 -31 30 -31h170l306 4q49 0 47 -43q-6 -141 -9 -162v-342zM1620 1180q0 -80 -59 -115 q-29 -16 -66 -16q-86 0 -117 61q-12 25 -12 59q0 74 57 111q33 20 72 20q68 0 104 -55q21 -30 21 -65zM1970 1180q0 -80 -59 -115q-29 -16 -66 -16q-84 0 -116 61q-12 25 -13 59q0 74 58 111q33 20 71 20q68 0 105 -55q20 -28 20 -65z"/>
    <glyph glyph-name="f_j" unicode="fj" horiz-adv-x="1087" d="M958 139q0 -186 -12 -268q-52 -361 -315 -418q-37 -8 -86 -8t-97 39t-50 93q-1 54 51 83q88 45 139 -37q43 -74 80 -72q47 0 55 91q4 53 4 129v907q0 68 -55 67h-248q-31 0 -31 -30v-572q0 -76 133 -75q14 0 14.5 -38t-14.5 -38q-80 8 -230.5 8t-240.5 -8q-14 0 -14 38 t14 38q109 0 109 75v568q0 35 -31 34h-61q-16 0 -16.5 37t16.5 37q47 0 75 41q16 27 17 72q0 145 65.5 272t184 205t258.5 78t204 -45q62 -45 62 -94.5t-36 -85t-77 -39.5q-72 0 -112 51l-45 57q-35 43 -103.5 43t-120 -78.5t-51.5 -248.5v-166q0 -31 31 -31h258 q150 0 238 29q12 4 16 4q29 0 29 -41q-6 -94 -7 -164v-539z"/>
    <glyph glyph-name="f_odieresis" unicode="fö" horiz-adv-x="1613" d="M1405 1180q0 -80 -62 -115q-29 -16 -63 -16q-84 0 -117 61q-12 25 -12 59q0 74 55 111q33 20 74 20q68 0 102 -55q23 -28 23 -65zM1055 1180q0 -80 -62 -115q-29 -16 -63 -16q-86 0 -117 61q-12 25 -12 59q0 74 55 111q33 20 74 20q68 0 102 -55q23 -30 23 -65zM784 1353 q0 -114 -112 -114q-58 0 -85.5 67.5t-68.5 67.5q-51 0 -88 -88t-37 -237v-162q0 -37 37 -37h526q66 20 144 20q217 0 350 -157q102 -123 102 -287q0 -209 -120 -330t-318 -120q-196 1 -330 127q-134 127 -135 309q0 182 111 309q12 12 22 24h-352q-37 0 -37 -36v-574 q0 -68 133 -67q16 0 16.5 -38t-16.5 -38q-80 8 -233.5 8t-237.5 -8q-14 0 -14 38t14 38q109 0 109 67v574q0 37 -37 36h-55q-16 0 -16.5 37t16.5 37q47 0 69.5 34t22.5 79q0 127 61.5 267t155.5 214t209 74q76 0 135 -42t59 -92zM1100 61q94 0 146 107q52 108 52 272 t-71 273q-53 82 -130 81t-135 -108q-58 -106 -60 -278t73 -275q51 -72 125 -72z"/>
    <glyph glyph-name="f_thorn" unicode="fþ" horiz-adv-x="1636" d="M1315 457q0 322 -178 321q-104 0 -166 -90q-12 -25 -13 -63v-525q0 -18 21 -18h8q131 16 211 113q117 141 117 262zM584 745h-154q-37 0 -37 -36v-574q0 -68 133 -67q16 0 16.5 -38t-16.5 -38q-96 8 -234 8t-237 -8q-14 0 -14 38t14 38q109 0 109 67v574q0 37 -37 36h-55 q-16 0 -16.5 37t16.5 37q43 0 67.5 32t24.5 81q0 145 64.5 271t183 205t244.5 79t190 -47q35 16 54.5 31.5t33.5 15.5q31 0 31 -33q-6 -111 -7 -168v-461q0 -29 14.5 -22.5t18.5 8.5q65 59 207 59t246 -77q125 -94 125 -285q0 -264 -242 -416q-100 -63 -344 -104 q-25 -4 -25 -33v-348q0 -80 -81 -107l-175 -57q-29 -10 -50 33t1 59l62 43q14 10 14 31v1552q0 99 -43 155t-118 57t-125 -84t-50 -240v-162q0 -37 37 -37h154q16 0 16 -52.5t-16 -52.5z"/>
    <glyph glyph-name="f_udieresis" unicode="fü" horiz-adv-x="1609" d="M784 1353q0 -114 -112 -114q-58 0 -85.5 67.5t-68.5 67.5q-51 0 -88 -88t-37 -237v-162q0 -37 37 -37h164l177 2q177 2 175 -41q-6 -141 -8 -162v-342q0 -123 51 -182q29 -33 95 -33t127 49t63 99v415q0 102 -84 103q-16 0 -16 36.5t16 36.5q112 -1 182 11t84 12 q55 0 53 -37q-8 -131 -8 -155v-406q0 -90 10 -117q14 -41 54 -41q12 0 32 6q18 4 27 -32q6 -38 -2 -41q-8 -2 -90 -17t-137 -32t-69 -17t-13 45v47q0 23 -12.5 23t-26.5 -14q-96 -88 -236 -88t-182 34q-147 119 -145 297v332q0 104 -84 104h-197q-37 0 -37 -36v-574 q0 -68 133 -67q16 0 16.5 -38t-16.5 -38q-80 8 -233.5 8t-237.5 -8q-14 0 -14 38t14 38q109 0 109 67v574q0 37 -37 36h-55q-16 0 -16.5 37t16.5 37q47 0 69.5 34t22.5 79q0 127 61.5 267t155.5 214t209 74q76 0 135 -42t59 -92zM922 1049q-122 0 -129 120q0 74 57 111 q33 20 72 20q68 0 104 -55q21 -30 21 -65q0 -80 -60 -115q-29 -16 -65 -16zM1397 1180q0 -80 -60 -115q-29 -16 -65 -16q-84 0 -117 61q-12 25 -12 59q0 74 57 111q33 20 72 20q68 0 104 -55q21 -28 21 -65z"/>
    <glyph glyph-name=".notdef" horiz-adv-x="1024" d="M68 -131v1638h864v-1638h-864zM535 86q0 39 -29 83t-80 44t-80 -20q-49 -37 -49 -107q0 -37 20 -68q37 -49 85 -49t77 17q56 32 56 100zM354 1194q293 0 291 -199q0 -88 -115 -151l-106 -56q-115 -61 -115 -144t76 -218q8 -8 27 -5t18 17q-20 70 -20 122t73 93l166 88 q82 43 81 196t-116 294q-115 131 -243 131q-84 0 -84 -82q-1 -86 67 -86z"/>
    <glyph glyph-name="uni0000" horiz-adv-x="1024" d="M68 -131v1638h864v-1638h-864zM535 86q0 39 -29 83t-80 44t-80 -20q-49 -37 -49 -107q0 -37 20 -68q37 -49 85 -49t77 17q56 32 56 100zM354 1194q293 0 291 -199q0 -88 -115 -151l-106 -56q-115 -61 -115 -144t76 -218q8 -8 27 -5t18 17q-20 70 -20 122t73 93l166 88 q82 43 81 196t-116 294q-115 131 -243 131q-84 0 -84 -82q-1 -86 67 -86z"/>
    <glyph glyph-name="uni000D" unicode="&#xD;" horiz-adv-x="557"/>
    <glyph glyph-name="space" unicode=" " horiz-adv-x="557"/>
    <glyph glyph-name="exclam" unicode="!" horiz-adv-x="518" d="M401 1280q0 -119 -69 -594q-12 -90 -21 -246q0 -20 -50 -20t-52 20q-2 102 -41 438t-39 369q0 72 41.5 112t101.5 40t94.5 -35t34.5 -84zM418 120q0 -64 -44 -104.5t-111.5 -40.5t-113 43t-45.5 104.5t41 109t118 47.5t116 -47.5t39 -111.5z"/>
    <glyph glyph-name="quotedbl" unicode="&#34;" horiz-adv-x="755" d="M348 1374q0 -16 -36 -206t-36 -224q0 -14 -60 -14t-60 14q0 61 -36 231t-36 197q0 108 132 108t132 -106zM676 1374q0 -16 -36 -206t-36 -224q0 -14 -60 -14t-60 14q0 61 -36 231t-36 197q0 108 132 108t132 -106z"/>
    <glyph glyph-name="numbersign" unicode="#" horiz-adv-x="1013" d="M645 803h-180l-76 -289h180zM993 934v-131h-213l-78 -289h181v-133h-215l-99 -371h-135l98 371h-180l-98 -371h-135l100 371h-194v133h229l76 289h-195v131h230l84 315h135l-84 -315h180l84 315h135l-84 -315h178z"/>
    <glyph glyph-name="dollar" unicode="$" horiz-adv-x="1028" d="M737 301q0 160 -174 231v-458q174 43 174 227zM297 1046q0 -150 141 -206v405q-141 -49 -141 -199zM936 408q0 -190 -104.5 -301t-268.5 -123v-134q0 -16 -62.5 -15t-62.5 15v136q-152 20 -280 90q-53 147 -54 282q0 10 2 17q2 25 46.5 25.5t46.5 -19.5 q8 -109 78.5 -187.5t160.5 -105.5v492q-178 66 -259 154.5t-81 260.5q0 104 89 209t251 125v137q0 16 62.5 15.5t62.5 -15.5v-137q92 -4 142.5 -16.5t64.5 -12.5t29 3q45 -131 45 -271q0 -12 -42 -18t-46 8q-25 111 -82.5 160t-110.5 59v-444q250 -76 311.5 -178t61.5 -211z "/>
    <glyph glyph-name="percent" unicode="%" horiz-adv-x="1820" d="M1315 406q0 -338 139 -338t139 338t-141 337q-137 1 -137 -337zM1800 401q0 -157 -78 -276q-96 -145 -263 -145t-269 145q-82 119 -82 276t74 275q96 156 272 156t272 -156q74 -118 74 -275zM1432 1370l-875 -1452q-8 -12 -56 19t-42 43l872 1447q5 11 57 -17t44 -40z M442 635q142 0 142 338t-142 338q-137 0 -137 -338t137 -338zM791 968q0 -157 -78 -276q-95 -145 -263 -145t-270 145q-82 119 -82 276t72 275q96 156 272 156t275 -156q74 -118 74 -275z"/>
    <glyph glyph-name="ampersand" unicode="&amp;" horiz-adv-x="1701" d="M258 414q0 -136 88 -230t238 -94t319 189q-197 297 -432 456q-213 -127 -213 -321zM676 1102q0 172 -125 172q-119 0 -119 -164q0 -100 164 -203q80 78 80 195zM221 1055q-1 143 103 230t233 87q168 0 264 -123q47 -59 49 -153q0 -139 -180 -246q197 -139 361 -373 q168 238 168 283q0 59 -125 59q-16 0 -16.5 50.5t16.5 50.5q84 -6 272 -8t242 8q14 0 14 -50.5t-14 -50.5q-139 0 -213 -59q-59 -55 -129 -162t-154 -215q166 -248 348 -248q131 0 197 66q3 4 13 4t28 -16t8 -35q-96 -127 -262 -168q-59 -14 -121 -15q-203 0 -365 228 q-224 -225 -466 -227t-363 151q-90 115 -90 250q2 242 346 420q-164 119 -164 262z"/>
    <glyph glyph-name="quotesingle" unicode="'" horiz-adv-x="419" d="M344 1374q0 -16 -36 -206t-36 -224q0 -14 -60 -14t-60 14q0 61 -36 231t-36 197q0 108 132 108t132 -106z"/>
    <glyph glyph-name="parenleft" unicode="(" horiz-adv-x="673" d="M653 1483q0 -30 -30 -60q-285 -287 -285 -841t285 -832q27 -27 26 -59q0 -45 -43 -45q-35 0 -63 24q-121 113 -181 187q-240 299 -239 731q0 258 141 553q92 199 279 364q27 25 63 25q47 0 47 -47z"/>
    <glyph glyph-name="parenright" unicode=")" horiz-adv-x="673" d="M553 588q0 -256 -141 -553q-92 -197 -279 -365q-27 -25 -63 -24q-43 0 -43 41q0 31 26 57q172 174 246 479q41 172 39 365q0 371 -141 641q-61 117 -144 196q-25 27 -24 60q0 45 39 45t65 -25q117 -109 172 -176q248 -303 248 -741z"/>
    <glyph glyph-name="asterisk" unicode="*" horiz-adv-x="827" d="M356 641v274l-235 -137l-55 96l235 138l-235 135l55 96l235 -135v272h111v-272l235 135l56 -96l-236 -135l236 -138l-56 -96l-235 137v-274h-111z"/>
    <glyph glyph-name="plus" unicode="+" horiz-adv-x="1062" d="M944 362h-319v-362h-181v362h-321v148h321v326h181v-326h319v-148z"/>
    <glyph glyph-name="comma" unicode="," horiz-adv-x="518" d="M453 49q0 -133 -94.5 -248.5t-213.5 -173.5q-23 -10 -36 9.5t0 33.5q137 162 137 267q0 20 -33 31.5t-77 57.5t-44 106.5t48 98t116 37.5t132.5 -61.5t64.5 -157.5z"/>
    <glyph glyph-name="hyphen" unicode="-" horiz-adv-x="825" d="M698 610q20 0 20.5 -65.5t-22.5 -65.5h-571q-18 0 -18.5 65.5t18.5 65.5h573z"/>
    <glyph glyph-name="period" unicode="." horiz-adv-x="518" d="M418 118q0 -64 -45 -104.5t-109.5 -39.5t-112 44t-47.5 106.5t41 109t118 45.5t116 -48.5t39 -112.5z"/>
    <glyph glyph-name="slash" unicode="/" horiz-adv-x="714" d="M733 1423l-612 -1441q-4 -8 -33 -8t-67 22t-35 37v6l610 1440q2 6 32 7q30 2 66 -20q38 -22 39 -34v-9z"/>
    <glyph glyph-name="zero" unicode="0" horiz-adv-x="954" d="M481 1243q-200 0 -200 -563q0 -258 28 -383q51 -221 166 -221q197 0 197 495v62q0 274 -40 442t-151 168zM924 657q0 -217 -70 -387q-117 -286 -381 -286t-377 290q-63 168 -63 396t78 401q117 260 373 261t370 -283q70 -175 70 -392z"/>
    <glyph glyph-name="one" unicode="1" horiz-adv-x="954" d="M614 283q0 -127 36 -170t126 -45q14 0 14.5 -38t-14.5 -38q-80 8 -284 8t-283 -8q-14 0 -14 38t14 38q109 0 143 48t35 165v806q0 66 -20 58q-104 -35 -162 -64q-20 -10 -30.5 22t7.5 38q131 55 348 213q27 20 48 20q43 0 43 -53q-6 -72 -7 -160v-878z"/>
    <glyph glyph-name="two" unicode="2" horiz-adv-x="954" d="M473 0h-80q-162 0 -342 -8q-53 0 -53 47q0 20 20 41q160 160 316 371q256 346 254 528q-4 205 -172 205q-150 0 -242 -164q-12 -23 -47 2q-27 16 -18 33q82 158 210 231q84 47 177 47q164 0 256 -103t92 -241q0 -190 -275 -500q-59 -66 -290 -296h296q115 1 161 21t75 77 q10 20 51 5t35 -30l-98 -235q-16 -39 -80 -39q-135 8 -246 8z"/>
    <glyph glyph-name="three" unicode="3" horiz-adv-x="954" d="M856 426q0 -174 -125 -301q-143 -147 -360 -148q-143 1 -229 47t-83 119q0 96 121 97q45 0 92 -56l52 -59q45 -47 100 -47q100 0 154 133q34 87 34 205t-74 188t-171 70q-59 0 -107 -17q-29 -1 -29 53t23 54q154 0 232 75t78 172t-56 152q-39 41 -96 41q-122 0 -224 -155 q-14 -20 -45 4t-20 41q94 141 177 189q84 48 198 49t202 -89t88 -211q0 -170 -172 -272q240 -72 240 -334z"/>
    <glyph glyph-name="four" unicode="4" horiz-adv-x="954" d="M768 156q0 -88 102 -88q14 0 14.5 -38t-14.5 -38q-80 8 -233 8t-238 -8q-14 0 -14 38t14 38q141 0 142 88v215h-461q-86 0 -86 57q0 49 51 123l289 383q188 250 237 330l95 149q14 16 45 17q86 0 84 -54q0 -8 -4 -16l-617 -815q-8 -12 -8 -23q0 -18 18 -18h357v428 q-1 22 113 22t114 -22v-428h123q14 0 14 -67t-14 -66h-123v-215z"/>
    <glyph glyph-name="five" unicode="5" horiz-adv-x="954" d="M850 496q0 -186 -117 -328q-150 -182 -399 -184q-146 0 -212 44t-66 99t32 80q33 25 88 25t98 -54q74 -86 144 -86q106 -2 180 109q61 90 61 196q0 154 -104 238q-84 68 -211 67q-66 0 -110 -12t-54 -12q-37 0 -33 33q43 279 97 551q10 55 69 55h502q6 1 6 -19t-6 -57 q-16 -113 -35 -111h-415q-35 0 -37 -14q-23 -92 -31 -190q0 -16 14 -15q41 6 72 7q231 0 358 -125q109 -111 109 -297z"/>
    <glyph glyph-name="six" unicode="6" horiz-adv-x="954" d="M682 357q0 91 -59 189t-151 97q-92 0 -163 -78q-8 -41 -8 -92q0 -385 197 -385q106 0 155 113q29 65 29 156zM901 398q0 -158 -108 -275q-125 -137 -320 -139q-225 0 -336 186q-76 129 -74 305q0 256 179 502q205 283 520 407q2 0 11 1t17 -20t8.5 -31.5t-5.5 -12.5 q-240 -131 -371 -387q-61 -121 -92 -248q83 107 219 111q162 0 264 -131q88 -110 88 -268z"/>
    <glyph glyph-name="seven" unicode="7" horiz-adv-x="954" d="M312 -23q-86 0 -134 25q-4 4 -4 18l549 1121h-297q-115 0 -175 -31t-91 -98q-6 -16 -50 -16t-40 22l51 242q8 39 18 48t37 9h682q55 0 55 -33q0 -8 -4 -20l-503 -1264q-8 -23 -94 -23z"/>
    <glyph glyph-name="eight" unicode="8" horiz-adv-x="954" d="M672 281q0 166 -246 315q-129 -76 -129 -244q0 -116 60 -196t150.5 -80t137.5 90q27 52 27 115zM633 981q0 137 -68 207q-45 45 -123 45t-123 -80q-25 -45 -24 -100q0 -135 229 -273q109 64 109 201zM889 348q0 -158 -121 -262q-123 -102 -292 -102t-289 94 q-119 94 -119 264t254 320q-217 133 -218 327q0 145 106 245t278 99q171 0 274 -98q86 -84 84 -217q0 -180 -211 -301q254 -152 254 -369z"/>
    <glyph glyph-name="nine" unicode="9" horiz-adv-x="954" d="M653 852q0 375 -200 375q-106 0 -150 -133q-18 -60 -18 -150t56 -179t148 -90t152 58q12 45 12 119zM893 854q0 -305 -236 -571q-176 -199 -442 -324q-18 -8 -38 33t-5 51q203 113 305 258q86 119 148 326q-47 -47 -109 -69t-100 -23q-166 1 -263 113t-98 245 q0 188 116 314q115 126 317 126t315 -166q90 -135 90 -313z"/>
    <glyph glyph-name="colon" unicode=":" horiz-adv-x="591" d="M483 108q0 -62 -43 -98.5t-105.5 -36.5t-105.5 41t-43 100.5t39 103.5t111 44t109.5 -46t37.5 -108zM483 698q0 -62 -43 -98.5t-105.5 -36.5t-105.5 41t-43 100.5t39 103.5t111 44t109.5 -46t37.5 -108z"/>
    <glyph glyph-name="semicolon" unicode=";" horiz-adv-x="591" d="M455 707q0 -61 -42 -102.5t-104.5 -41.5t-107.5 41t-45 103.5t42 105.5t110.5 43t107.5 -44t39 -105zM526 49q0 -137 -94 -251.5t-213 -170.5q-23 -10 -36 9.5t-1 33.5q137 162 137 267q0 20 -32.5 31.5t-76.5 57.5t-44 106.5t48 98t115.5 37.5t132 -61.5t64.5 -157.5z "/>
    <glyph glyph-name="less" unicode="&lt;" horiz-adv-x="1024" d="M344 422l604 -260v-185l-870 379v129l870 381v-184z"/>
    <glyph glyph-name="equal" unicode="=" horiz-adv-x="997" d="M897 268h-829v142h829v-142zM897 575h-829v142h829v-142z"/>
    <glyph glyph-name="greater" unicode="&gt;" horiz-adv-x="1024" d="M946 356l-870 -379v185l604 260l-604 260v184l870 -381v-129z"/>
    <glyph glyph-name="question" unicode="?" horiz-adv-x="749" d="M492 120q0 -64 -44.5 -104.5t-112 -40.5t-112.5 43t-45 104.5t41 109t118 47.5t116 -47.5t39 -111.5zM694 936q0 -178 -102 -229l-166 -82q-72 -37 -72 -58q-2 -53 17 -127q-2 -25 -54 -24q-16 0 -20 6q-80 147 -80 226t40 113t77 52l104 53q125 63 125 113q0 57 -43 97 t-162 50l-79 7q-31 2 -68 35.5t-37 83.5t36 80t85 30q94 0 181 -60.5t152.5 -158.5t65.5 -207z"/>
    <glyph glyph-name="at" unicode="@" horiz-adv-x="1595" d="M883 967q-80 0 -166 -159t-88 -290q0 -70 30 -69q53 0 166 131q61 72 99 192l43 148q-20 47 -84 47zM780 -33q-238 0 -424 115q-285 174 -284 520q0 297 188 508q246 274 641 274q281 0 453 -154t172 -382q0 -174 -115 -309q-158 -186 -436 -187q-102 0 -130 37t5 129 l-10 6q-152 -166 -250 -166q-113 0 -113 126t82 276q82 148 203 215q70 39 134 39t95 -31l21 51q12 33 73 15q49 -14 43 -39l-141 -478q-8 -30 -8 -66t22 -36q162 0 279 116t117 298t-138 318t-383 136t-417 -174q-205 -205 -205 -520q0 -180 96 -321q156 -227 494 -228 q158 0 323 72q19 7 31 -17t-4 -34q-176 -109 -414 -109z"/>
    <glyph glyph-name="A" unicode="A" horiz-adv-x="1400" d="M634 1083q-11 0 -18 -16l-157 -432l-4 -17q0 -10 20 -12h293q29 0 29 23q0 6 -4 14l-144 424q-4 16 -15 16zM1399 86q14 0 14 -46t-14 -46q-115 6 -265.5 6t-275.5 -6q-14 0 -14 46t14 46q96 0 96 66q0 20 -10 51l-100 297q-6 23 -33 22h-375q-20 0 -30 -28l-109 -293 q-8 -25 -10 -41q0 -74 147 -74q12 0 12 -46t-12 -46q-84 6 -233.5 6t-227.5 -6q-14 0 -14 46t14 46q152 0 201 131l371 969q12 31 12 38t-14.5 21.5t-14.5 22.5q0 14 34 25.5t103.5 53.5t90.5 42q33 0 44 -47.5t52 -163.5l344 -975q41 -117 203 -117z"/>
    <glyph glyph-name="B" unicode="B" horiz-adv-x="1298" d="M481 250q0 -174 150 -174q278 10 278 295q0 139 -93 220t-310 83q-25 -2 -25 -35v-389zM481 797q0 -20 17 -25q18 -4 55 -4q145 0 216 67.5t71 187.5t-86 188.5t-254 68.5q-18 0 -19 -18v-465zM62 40q0 46 14 46q84 0 123 37t39 80v952q0 109 -172 111q-14 0 -14 46 t14 46q143 -6 166 -6l407 6q217 0 330.5 -92t113.5 -248q0 -86 -51 -158t-129 -108q-18 -10 -18 -17.5t20 -15.5q117 -39 196 -135.5t79 -212.5q0 -152 -114 -264.5t-423 -112.5l-176 3q-176 3 -391 -3q-14 0 -14 46z"/>
    <glyph glyph-name="C" unicode="C" horiz-adv-x="1347" d="M55 656q0 304 205 516t535 212q129 0 338 -43q55 -10 106 -12q33 -90 41 -325q0 -18 -46 -21.5t-48 12.5q-10 111 -89.5 206t-297.5 95t-344.5 -168t-126.5 -444t140 -446t316 -170q342 0 441 276q6 18 51 8t45 -30q-4 -57 -42 -153.5t-62 -131.5q-47 -6 -89 -21 q-154 -43 -358 -43q-293 0 -504 189.5t-211 493.5z"/>
    <glyph glyph-name="D" unicode="D" horiz-adv-x="1566" d="M481 272q0 -150 86 -186q39 -14 131 -14q217 0 366.5 170t149.5 475q0 213 -152.5 388t-424.5 175h-80q-76 0 -76 -80v-928zM61 40q0 46 15 46q162 0 162 117v952q0 109 -172 111q-14 0 -14 46t14 46q143 -6 166 -6l487 6q330 0 549 -169t219 -464q0 -338 -198.5 -534.5 t-522.5 -196.5l-280 3q-279 3 -410 -3q-15 0 -15 46z"/>
    <glyph glyph-name="E" unicode="E" horiz-adv-x="1249" d="M61 40q0 46 15 46q162 0 162 117v952q0 109 -172 111q-14 0 -14 46t14 46q143 -6 299 -6l706 6q57 0 57 -51v-306q0 -17 -50 -17t-50 17q0 129 -98 205q-61 47 -125 49l-297 11q-27 0 -27 -41v-508q0 -29 29 -31h135q123 0 123 92v99q0 14 52 14t52 -14q-6 -68 -6 -232 t6 -225q0 -14 -52 -15.5t-52 15.5v86q0 88 -123 88h-135q-29 0 -29 -31v-342q0 -78 74 -115q39 -20 82 -20l223 4q158 2 205 137q18 49 18 117q0 16 51.5 16t51.5 -16v-287q0 -63 -119 -63l-694 6q-162 0 -297 -6q-15 0 -15 46z"/>
    <glyph glyph-name="F" unicode="F" horiz-adv-x="1189" d="M1128 1307v-306q0 -17 -50 -17t-50 17q0 113 -71.5 181.5t-151.5 72.5q-215 10 -297 11q-27 0 -27 -41v-469q0 -31 29 -31h135q92 0 92 90v137q0 15 52.5 15t52.5 -15q-6 -68 -6 -275.5t6 -277.5q0 -13 -52.5 -13t-52.5 13v144q0 88 -92 90h-135q-29 0 -29 -31v-399 q0 -117 154 -117q13 0 13 -46t-13 -46q-94 6 -274.5 6t-284.5 -6q-15 0 -15 46t15 46q162 0 162 117v952q0 109 -172 111q-14 0 -14 46t14 46q143 -6 179 -6l824 6q59 0 59 -51z"/>
    <glyph glyph-name="G" unicode="G" horiz-adv-x="1441" d="M1118 563q213 0 273 6q13 0 13 -46t-13 -46q-109 0 -109 -76v-241q0 -45 43 -45q14 0 14 -40t-14 -40q-49 0 -235.5 -31t-319.5 -31q-262 0 -463 154q-252 199 -252 520q0 266 152 463q213 274 588 274q131 0 317 -36q70 -18 127 -19q29 -59 39 -274l2 -51 q0 -18 -45 -21.5t-49 12.5q-18 209 -211 275q-80 26 -187 26q-207 0 -333.5 -167.5t-126.5 -423.5q0 -324 150.5 -480.5t305.5 -156.5q111 0 182.5 24.5t71.5 67.5v241q0 76 -112 76h-80q-14 0 -14 46t14 46q59 -6 272 -6z"/>
    <glyph glyph-name="H" unicode="H" horiz-adv-x="1685" d="M1432 203q0 -117 159 -117q15 0 15 -46t-15 -46q-127 6 -279.5 6t-285.5 -6q-14 0 -14 46t14 46q162 0 162 117v415q0 35 -35 35h-637q-35 0 -35 -35v-415q0 -117 158 -117q14 0 14 -46t-14 -46q-133 6 -286 6t-277 -6q-15 0 -15 46t15 46q162 0 162 117v950 q0 117 -162 117q-14 0 -14 47t14 47q47 -5 283.5 -5t283.5 5q15 0 15 -47t-15 -47q-162 0 -162 -117v-371q0 -34 35 -34h637q35 0 35 34v371q0 117 -160 117q-14 0 -14 47t14 47q45 -6 283 -6t284 6q15 0 15 -47t-15 -47q-163 0 -163 -117v-950z"/>
    <glyph glyph-name="I" unicode="I" horiz-adv-x="733" d="M61 40q0 46 15 46q162 0 162 117v950q0 117 -162 117q-14 0 -14 47t14 47q47 -6 283.5 -6t283.5 6q14 0 14 -47t-14 -47q-162 0 -162 -117v-950q0 -117 158 -117q14 0 14 -46t-14 -46q-133 6 -286 6t-277 -6q-15 0 -15 46z"/>
    <glyph glyph-name="J" unicode="J" horiz-adv-x="716" d="M-131 -280q0 64 41.5 93t106.5 29t120 -57q25 -27 37 -61q33 25 57 81q25 88 25 449v899q0 117 -170 117q-14 0 -14 47t14 47q47 -5 294 -5t294 5q14 0 14 -47t-14 -47q-172 0 -172 -117v-524q0 -106 -10 -434q0 -228 -80 -361t-207 -205q-86 -47 -172 -49 q-51 0 -107.5 38t-56.5 102z"/>
    <glyph glyph-name="K" unicode="K" horiz-adv-x="1380" d="M1382 86q15 0 15 -46t-15 -46q-133 6 -285.5 6t-291.5 -6q-14 0 -14 46t14 46q84 0 84 39q0 27 -41 78l-258 321q-63 74 -86 74t-23 -29v-366q0 -117 156 -117q13 0 13 -46t-13 -46q-133 6 -285 6t-276 -6q-15 0 -15 46t15 46q162 0 162 117v950q0 117 -172 117 q-15 0 -15 47t15 47q47 -6 287.5 -6t287.5 6q14 0 14 -47t-14 -47q-160 0 -160 -117v-356q0 -27 17 -27q29 0 75 55l277 330q53 63 53 89t-61 26q-13 0 -13 47t13 47q49 -5 198.5 -5t196.5 5q14 0 14 -47t-14 -47q-88 0 -131 -20.5t-82 -63.5l-338 -393q-14 -18 -14 -34.5 t14 -33.5l459 -535q78 -90 178 -102q23 -2 59 -2z"/>
    <glyph glyph-name="L" unicode="L" horiz-adv-x="1357" d="M61 40q0 46 15 46q162 0 162 127v940q0 117 -172 117q-15 0 -15 47t15 47q47 -5 284.5 -5t286.5 5q13 0 13 -47t-13 -47q-156 0 -156 -117v-903q0 -111 68 -154q35 -18 74 -18l331 12q76 2 144 82q82 104 82 219q0 18 50 18t50 -18v-334q0 -43 -14 -53q-8 -10 -103 -10 l-441 3q-440 3 -646 -3q-15 0 -15 46z"/>
    <glyph glyph-name="M" unicode="M" horiz-adv-x="1814" d="M1769 86q15 0 15 -46t-15 -46q-127 6 -267 6t-281 -6q-15 0 -15 46t15 46q153 0 153 123l-6 668q0 20 -7 20t-15 -16l-451 -877q-12 -22 -32.5 -22t-28.5 22l-459 965q-10 20 -16.5 20t-10.5 -26l-49 -756v-33q0 -88 170 -88q13 0 13 -46t-13 -46q-133 6 -249.5 6 t-178.5 -6q-14 0 -14 46t14 46q147 0 152 125l61 905v45q0 109 -174 109q-12 0 -12 47t12 47q82 -6 174 -6h96q66 0 119 -88l438 -914q10 -20 24.5 -20t26.5 22l469 918q43 82 111 82h53q104 0 164 6q14 0 14 -47t-14 -47q-104 0 -131 -44t-27 -102l11 -915q2 -123 161 -123 z"/>
    <glyph glyph-name="N" unicode="N" horiz-adv-x="1480" d="M1032 1364q244 -10 391 0q14 0 14.5 -47t-14.5 -47q-135 0 -135 -119v-1075q0 -96 -29 -96t-75 57l-824 977q-12 16 -21 16t-11 -22v-805q0 -117 151 -117q14 0 14.5 -47t-14.5 -45q-92 6 -197 6t-216 -6q-14 -2 -14.5 45t14.5 47q160 0 157 117v952q0 115 -172 115 q-12 0 -12 47t12 47q49 -4 155 -5t120 -3q59 -8 100 -58l711 -866q10 -14 24 -14q25 0 25 31v702q0 119 -154 119q-14 0 -14 47t14 47z"/>
    <glyph glyph-name="O" unicode="O" horiz-adv-x="1523" d="M1157 649q0 256 -125 438q-141 211 -294 210t-265 -130q-145 -165 -145 -455t153 -483q129 -162 275 -161q264 0 356 278q45 131 45 303zM1430 664q0 -219 -146 -418q-203 -272 -543 -273q-225 0 -405 123q-281 195 -281 572q0 252 176 473q195 244 514 243 q246 0 426 -153q259 -225 259 -567z"/>
    <glyph glyph-name="P" unicode="P" horiz-adv-x="1212" d="M924 969q0 121 -82 205q-98 104 -279 104q-66 0 -74 -10t-8 -19v-532q0 -31 31 -37q37 -4 80 -4q250 0 311 172q21 53 21 121zM1180 962q0 -184 -172 -284q-139 -82 -355 -82q-90 0 -131 3t-41 -30v-366q0 -117 168 -117q14 0 14.5 -46t-14.5 -46q-127 6 -281 6t-288 -6 q-12 0 -12 46t12 46q158 0 158 117v952q0 109 -170 111q-14 0 -14.5 46t14.5 46q143 -6 286 -6l305 6q217 0 369 -106t152 -290z"/>
    <glyph glyph-name="Q" unicode="Q" horiz-adv-x="1488" d="M1157 641q0 252 -121 446q-129 211 -297 209q-197 0 -313 -192q-98 -162 -98 -387q0 -307 153 -498q127 -156 275 -153q254 0 350 264q51 137 51 311zM1430 659q0 -215 -148 -421q-70 -98 -190 -179q-23 -14 -23 -26.5t23 -28.5q258 -170 540 -252l31 -8q35 -11 20 -59 q-16 -49 -43 -43q-401 76 -987 299l-153 59q-33 12 -160 90t-207 231.5t-78 340.5q0 262 178 477q205 246 512 245q260 0 426 -153q259 -240 259 -572z"/>
    <glyph glyph-name="R" unicode="R" horiz-adv-x="1419" d="M958 969q0 135 -111 222t-284 87q-61 0 -71.5 -8t-10.5 -33v-524q0 -33 25 -39q47 -8 86 -8q264 0 340 165q26 62 26 138zM1212 969q0 -252 -282 -336q-37 -8 -6 -47q131 -223 325 -424q94 -100 181 -117q28 -4 26 -36t-24 -29l-93 -5q-156 0 -237 56q-141 88 -262 260 l-131 186q-63 76 -83 92t-59 19h-67q-18 0 -19 -21v-364q0 -117 156 -117q14 0 13 -46t-13 -46q-133 6 -281 6t-280 -6q-14 0 -15.5 46t15.5 46q162 0 162 117v952q0 109 -172 111q-14 0 -14.5 46t14.5 46q143 -6 288 -6l305 6q338 0 482 -174q71 -90 71 -215z"/>
    <glyph glyph-name="S" unicode="S" horiz-adv-x="1075" d="M981 403q0 -180 -115 -305t-311 -125q-143 0 -248 35l-143 64q-53 162 -53 313q0 25 47 26t51 -20q10 -117 90 -207q104 -119 272 -116q73 0 137 64t62 175q0 207 -268 277q-397 100 -398 448q0 141 129 258q104 94 291 94q120 0 194 -16t83 -16l35 2h2q37 -119 49 -271 q2 -27 -44 -33t-52 13q-63 237 -273 237q-106 0 -166 -83q-41 -55 -41 -142q0 -180 248 -241q422 -101 422 -431z"/>
    <glyph glyph-name="T" unicode="T" horiz-adv-x="1298" d="M772 203q0 -117 172 -117q12 0 12 -46t-12 -46q-86 6 -293 6t-303 -6q-14 0 -13 46t13 46q180 0 180 117v1034q0 29 -26 29h-144q-86 0 -154.5 -73t-68.5 -185q0 -16 -50 -16.5t-50 16.5v299q0 35 14 41q25 10 98 10q188 -6 495.5 -6t520.5 6q85 0 95 -14t10 -37v-299 q0 -16 -51.5 -16.5t-51.5 16.5q0 129 -77.5 193.5t-153.5 64.5h-127q-33 0 -35 -29v-1034z"/>
    <glyph glyph-name="U" unicode="U" horiz-adv-x="1511" d="M1020 1364q275 -8 457 0q14 0 14 -47t-14 -47q-154 0 -154 -117v-272q0 -276 -12 -416q-32 -496 -539 -492q-156 0 -266 41q-158 61 -219 187q-51 106 -64 344v608q0 117 -155 117q-14 0 -14.5 47t14.5 47q343 -9 573 0q14 0 14 -47t-14 -47q-174 0 -172 -117v-467 l10 -280q2 -125 56 -203q90 -135 269 -135t283 104q90 92 91 324v657q0 117 -158 117q-14 0 -14 47t14 47z"/>
    <glyph glyph-name="V" unicode="V" horiz-adv-x="1357" d="M645 -39q-33 0 -49 45l-424 1147q-41 117 -141 117q-14 0 -14.5 47t14.5 47q45 -4 243 -5t244 5q12 0 12 -47t-12 -47q-125 0 -125 -64q0 -23 13 -53l280 -774q8 -21 26 -21t25 25l295 764q10 31 10 51q-4 72 -98 72q-14 0 -14 47t14 47q47 -4 210 -5t210 5q14 0 14 -47 t-14 -47q-147 0 -182 -84l-484 -1180q-20 -45 -53 -45z"/>
    <glyph glyph-name="W" unicode="W" horiz-adv-x="2011" d="M1272 -39q-28 0 -58 64l-204 456q-8 18 -15 19q-8 0 -16 -21l-217 -473q-20 -45 -49 -45t-58 64l-505 1128q-51 117 -144 117q-14 0 -14 47t14 47q47 -4 224 -5t227 5q14 0 14 -47t-14 -47q-70 0 -72 -45q4 -41 21 -72l350 -778q8 -15 21 -17t22 17l121 264q6 14 6 22.5 t-6 24.5l-236 522q-29 61 -82 62q-14 0 -14 47t14 47q47 -4 206 -5t206 5q14 0 14 -47t-14 -47q-70 0 -70 -41q0 -33 21 -76l73 -162q8 -18 20 -18t23 24l70 150q27 55 25 84q0 39 -54 39q-14 0 -13 47t13 47q49 -4 180 -5t181 5q14 0 14 -47t-14 -47q-145 0 -185 -84 l-157 -348q-16 -39 -6 -64l182 -397q8 -19 21 -19t20 17l352 772q20 45 21 74q0 49 -66 49q-14 0 -14 47t14 47q45 -4 187 -5t190 5q14 0 14 -47t-14 -47q-143 2 -182 -84l-537 -1180q-23 -45 -51 -45z"/>
    <glyph glyph-name="X" unicode="X" horiz-adv-x="1380" d="M1368 86q14 0 15 -46t-15 -46q-80 6 -263 6t-280 -6q-14 0 -14 46t14 46q109 0 109 47q0 29 -37 76l-242 317q-24 33 -49 0l-170 -227q-66 -88 -67 -143q-2 -70 100 -70q14 0 13 -46t-13 -46q-78 6 -268 6t-234 -6q-12 0 -12 46t12 46q152 0 221 86l367 459q12 15 12 31 t-12 32l-356 500q-53 76 -179 76q-14 0 -14 47t14 47q47 -4 290 -5t292 5q14 0 14 -47t-14 -47q-125 0 -125 -56q0 -23 29 -61l196 -274q22 -31 43 0l216 268q35 43 34 70q0 53 -82 53q-14 0 -14 47t14 47q47 -4 221 -5t222 5q14 0 14 -47t-14 -47q-117 0 -209 -84 q-33 -31 -84 -94l-252 -310q-28 -35 -6 -69l346 -510q82 -117 217 -117z"/>
    <glyph glyph-name="Y" unicode="Y" horiz-adv-x="1323" d="M758 203q0 -117 147 -117q12 0 13.5 -46t-13.5 -46q-66 6 -266.5 6t-271.5 -6q-14 0 -14.5 46t14.5 46q147 0 147 117v291q0 68 -9 92.5t-56 97.5l-297 469q-51 82 -103 104q-29 12 -61 13q-14 0 -15.5 47t15.5 47q47 -4 261 -5t265 5q14 0 14 -47t-14 -47 q-111 0 -111 -53q0 -31 21 -64l254 -403q21 -34 43 2l266 395q23 35 25 59q0 63 -107 64q-14 0 -14 47t14 47q45 -4 225 -5t230 5q14 0 14 -47t-14 -47q-109 0 -178 -68l-33 -35l-338 -481q-39 -55 -46 -81t-7 -105v-297z"/>
    <glyph glyph-name="Z" unicode="Z" horiz-adv-x="1316" d="M209 1368q1 0 121 -16h508l381 6q66 0 65 -33q0 -25 -24 -57l-834 -1143q-6 -10 -6 -19q0 -20 33 -20q412 0 591 12q53 4 140 152q41 70 51 104q1 6 27 7t40 -11t13 -20q-45 -173 -45 -312q0 -47 -17 -47q-25 1 -117 15t-542 14h-449q-70 0 -69 49q0 27 16 47l873 1141 q10 12 10 20q0 16 -41 17h-512q-43 0 -72 -27q-39 -31 -83 -139t-48 -133q0 -10 -20 -11t-41 5t-21 18q31 236 31 334q0 47 41 47z"/>
    <glyph glyph-name="bracketleft" unicode="[" horiz-adv-x="796" d="M754 -354h-437q-23 0 -22 22v1843q0 18 20 19h439q20 0 20 -48t-20 -48h-226q-20 0 -20 -23v-1640q0 -29 14 -29h232q20 0 20 -48t-20 -48z"/>
    <glyph glyph-name="backslash" unicode="\" horiz-adv-x="714" d="M731 31q10 -25 -67 -49q-63 -19 -70 0l-608 1443q-12 29 57 58q31 12 55 11t27 -13z"/>
    <glyph glyph-name="bracketright" unicode="]" horiz-adv-x="796" d="M504 -332q0 -23 -23 -22h-434q-20 0 -20 48t20 48h232q14 0 14 25v1644q0 23 -19 23h-227q-20 0 -20 48t20 48h436q20 0 21 -19v-1843z"/>
    <glyph glyph-name="asciicircum" unicode="^" horiz-adv-x="1093" d="M1044 535h-219l-276 577l-279 -577h-221l422 837h154z"/>
    <glyph glyph-name="underscore" unicode="_" horiz-adv-x="1024" d="M1024 -266h-1024v121h1024v-121z"/>
    <glyph glyph-name="grave" unicode="`" horiz-adv-x="567" d="M469 1073q0 -53 -43 -53q-35 0 -68 49l-170 250q-4 8 -4 14q0 33 50 60t78 27t32 -13l117 -293q8 -23 8 -41z"/>
    <glyph glyph-name="a" unicode="a" horiz-adv-x="858" d="M461 193v182q0 23 -15 22q-6 0 -12 -2q-141 -72 -141 -189.5t72 -117.5q96 1 96 105zM676 -25q-92 0 -162 82q-14 18 -23 18.5t-26 -16.5q-82 -82 -203 -82t-174 84q-27 43 -25 101q0 121 211 231l152 72q35 20 35 47v190q0 72 -105 72q-80 0 -116 -51q-8 -15 -10 -63 q-5 -152 -96 -152t-91 78q0 68 43 127t78 82q121 76 249 75.5t202 -50.5t75 -113v-508q0 -115 68 -113q31 -2 71 35q8 8 24.5 -7.5t12.5 -25.5q-57 -113 -190 -113z"/>
    <glyph glyph-name="b" unicode="b" horiz-adv-x="1048" d="M727 428q0 158 -63.5 249t-148.5 92t-121 -36t-36 -86v-350q0 -117 63.5 -178t143.5 -62q162 0 162 371zM561 870q176 0 298 -122t122 -318.5t-112 -324.5t-332 -128q-57 0 -120.5 27t-113.5 27q-16 0 -55 -33l-19 -16q-4 -2 -24.5 -2t-51 23t-30.5 32q6 31 6 244v882 q0 125 -94 125q-16 0 -16.5 38t16.5 36q49 0 151.5 49t118.5 63.5t33 14.5q27 0 29 -25l-9 -176v-446q0 -29 17 -29q8 0 18 8q74 51 168 51z"/>
    <glyph glyph-name="c" unicode="c" horiz-adv-x="878" d="M805 726q0 -38 -32.5 -71.5t-66.5 -33.5t-53 28l-39 66q-39 59 -116.5 59t-140.5 -97t-62.5 -235.5t84.5 -227.5t188.5 -89t182.5 55q16 12 47 -30q27 -43 8 -54l-82 -53q-117 -66 -261 -66t-255 99q-139 123 -140 302t105 316q135 176 350 176q135 0 223 -45 q39 -20 54 -45q6 -16 6 -54z"/>
    <glyph glyph-name="d" unicode="d" horiz-adv-x="1034" d="M674 141v553q0 43 -4 52t-34 28t-95 19q-133 0 -197 -144q-39 -88 -37 -205q0 -193 78 -303q59 -82 145 -81t129 53q15 18 15 28zM723 -35q-10 0 -10 45v29q0 23 -11 22q-12 0 -28 -14q-94 -70 -195 -70q-244 0 -354 175q-72 111 -72 276.5t121 292.5q147 150 393 149 q49 0 78 -3t29 22v272q0 125 -92 125q-16 0 -16.5 38t16.5 36q49 0 150.5 50t116.5 63.5t30 13.5q31 0 30 -33q-6 -70 -6 -168v-1030q0 -90 10 -117q14 -41 54 -41q12 0 32 6q16 4 27 -30q8 -39 -4 -43q-29 -12 -156 -35q-102 -27 -131 -31h-12z"/>
    <glyph glyph-name="e" unicode="e" horiz-adv-x="874" d="M309 653q0 -27 37 -26h203q37 0 37 24q0 68 -56 113q-35 29 -67 27q-63 0 -113 -43q-41 -40 -41 -95zM809 612q0 -76 -90 -75h-385q-37 0 -37 -27q0 -238 113 -334q61 -53 147 -53t170 55q20 10 48 -26t16 -46q-47 -49 -135 -89t-212 -40t-231 109q-143 143 -145 350 q0 166 114 300t286 134q171 0 275 -118q66 -91 66 -140z"/>
    <glyph glyph-name="f" unicode="f" horiz-adv-x="581" d="M594 850q14 0 14 -52t-14 -53h-164q-37 0 -37 -36v-574q0 -68 133 -67q16 0 16.5 -38t-16.5 -38q-80 8 -233 8t-238 -8q-14 0 -14 38t14 38q109 0 109 67v574q0 37 -37 36h-55q-16 0 -16.5 37t16.5 37q47 0 69.5 33t22.5 80q0 145 67 278q33 66 78 111q158 166 365 166 q123 0 184 -60q39 -37 39 -88t-53 -92q-31 -25 -60 -24q-100 0 -147 90q-29 57 -78 61q-57 0 -96 -53q-70 -96 -70 -272v-162q0 -37 37 -37h164z"/>
    <glyph glyph-name="g" unicode="g" horiz-adv-x="946" d="M811 -242q0 131 -236 131h-213q-20 0 -40 -14q-63 -45 -63.5 -122t63 -135t182.5 -58q252 0 299 141q8 26 8 57zM592 522q0 176 -72 242q-31 29 -74 29q-72 0 -118 -86q-39 -70 -39 -174.5t52 -171t120 -66.5q88 0 119 119q12 49 12 108zM981 -139q0 -164 -147 -283 q-172 -137 -422 -137q-299 0 -371 147q-20 41 -21 93q0 82 103 165q35 29 64.5 43.5t29.5 20.5t-16 14q-133 55 -133 174q0 76 145 138q16 6 16 12t-18 18q-154 96 -154 262q0 141 111 241.5t274 100.5q111 0 199.5 -36t114.5 -37h192q16 0 16.5 -57.5t-16.5 -57.5h-92 q-31 0 -31 -29v-78q0 -170 -111 -264t-284 -94q-49 0 -83.5 3t-45.5 -3q-37 -31 -37 -60.5t36 -46.5t91 -18h254q129 0 193 -20q143 -47 143 -211z"/>
    <glyph glyph-name="h" unicode="h" horiz-adv-x="1091" d="M853.5 0q-145.5 0 -224.5 -8q-16 0 -16.5 38t16.5 38q104 0 104 63v424q0 76 -47 141.5t-129 65.5t-135 -64q-29 -35 -29 -71v-484q0 -76 103 -75q14 0 15 -38t-15 -38q-84 8 -222.5 8t-222.5 -8q-14 0 -14 38t14 38q113 0 113 69v1024q0 125 -92 125q-16 0 -16.5 38 t16.5 36q49 0 149.5 50t116.5 63.5t33 13.5q27 0 28 -27q-2 -86 -6 -174v-465q0 -23 9 -22.5t24 10.5q82 61 211 61q180 0 270 -137q55 -84 56 -176v-414q6 -76 116 -75q16 0 16 -38t-16 -38q-80 8 -225.5 8z"/>
    <glyph glyph-name="i" unicode="i" horiz-adv-x="522" d="M401 1186q0 -72 -59 -113q-39 -27 -86 -24q-76 0 -117 57q-27 37 -26 80q0 70 57 110q39 29 86 27q78 0 119 -57q26 -39 26 -80zM278 0q-134 0 -219 -8q-14 0 -15 38t15 38q104 0 105 75v414q0 125 -92 125q-16 0 -16.5 37t16.5 37q49 0 149 49t116.5 63t35.5 15 q29 0 26 -27q-6 -88 -6 -174v-539q0 -76 103 -75q14 0 14 -38t-14 -38q-84 8 -218 8z"/>
    <glyph glyph-name="j" unicode="j" horiz-adv-x="497" d="M367 682v-543q0 -186 -11 -268q-52 -360 -315 -418q-37 -8 -85 -8t-106 43q-43 35 -43 89t52 83q86 45 137 -37q43 -74 80 -72q45 0 55 91q4 43 6 129v786q0 125 -92 125q-14 0 -14 37t14 37q51 0 151 49t117.5 63t32.5 15q29 0 29 -27q-8 -92 -8 -174zM373 1188 q0 -72 -60 -113q-39 -27 -86 -26q-74 0 -116 55q-29 37 -29 94.5t57 97.5q39 29 100.5 29t97.5 -47t36 -90z"/>
    <glyph glyph-name="k" unicode="k" horiz-adv-x="1071" d="M849.5 0q-149.5 0 -233.5 -8q-14 0 -15 38t15 38q74 0 74 28q0 16 -26 49l-195 224q-25 31 -59 30q-16 0 -17 -34v-222q0 -76 109 -75q14 0 14 -38t-14 -38q-84 8 -226.5 8t-226.5 -8q-14 0 -14 38t14 38q115 0 115 71v1022q-8 119 -92 125q-16 0 -16.5 37t16.5 37 q49 0 149.5 50t116.5 63.5t33 13.5q27 0 28 -27q-6 -86 -6 -174v-758q0 -37 21 -36q43 0 80 38l153 170q33 37 33 54q0 31 -84 30q-16 0 -16 36t16 36q59 -6 207.5 -6t212.5 6q14 0 14 -36t-14 -36q-104 0 -182 -71l-209 -189q-21 -21 0 -45l329 -358q47 -53 125 -53 q16 0 16 -38t-16 -38q-80 8 -229.5 8z"/>
    <glyph glyph-name="l" unicode="l" horiz-adv-x="522" d="M278 0q-134 0 -219 -8q-14 0 -15 38t15 38q104 0 105 67v1026q0 125 -92 125q-16 0 -16.5 37t16.5 37q49 0 149.5 50t116.5 63.5t31 13.5q31 0 30 -33q-6 -76 -6 -168v-1143q0 -76 103 -75q14 0 14 -38t-14 -38q-84 8 -218 8z"/>
    <glyph glyph-name="m" unicode="m" horiz-adv-x="1628" d="M1369 0q-138 0 -218 -8q-16 0 -16 38t16 38q100 0 100 67v475q0 152 -151 152q-70 0 -117 -58.5t-47 -134.5v-430q0 -72 104 -71q16 0 16.5 -38t-16.5 -38q-80 8 -215 8t-219 -8q-14 0 -14 38t14 38q100 0 101 63v434q0 133 -45 174q-27 23 -87.5 23t-105.5 -33 q-76 -57 -76 -125v-471q0 -66 99 -65q14 0 15 -38t-15 -38q-84 8 -220.5 8t-220.5 -8q-14 0 -14 38t14 38q113 0 113 69v414q0 131 -92 131q-16 0 -16.5 37t16.5 37q49 0 149 49t116.5 63t33.5 15q29 0 28 -25l-6 -70q0 -18 8 -20q8 0 19 10q82 92 221 92t213 -127 q8 -16 17 -16t26 18q80 84 186 113q43 12 84 12q127 0 205 -69q109 -96 109 -248v-414q0 -72 106 -71q16 0 16 -38t-16 -38q-80 8 -218 8z"/>
    <glyph glyph-name="n" unicode="n" horiz-adv-x="1085" d="M858.5 0q-104.5 0 -225.5 -8q-14 0 -14.5 38t14.5 38q100 0 100 61v408q0 150 -57 200q-29 25 -93 25t-127 -53t-63 -117v-449q0 -76 99 -75q14 0 15 -38t-15 -38q-84 8 -217.5 8t-217.5 -8q-14 0 -14 38t14 38q106 0 107 75v406q0 133 -92 133q-16 0 -16.5 37t16.5 37 q49 0 149 49t116.5 63t31.5 15q29 0 30 -27l-6 -68q0 -18 9.5 -19t17.5 9q67 86 233 92q188 0 275 -186q37 -74 35 -219v-330q0 -68 106 -67q16 0 16 -38t-16 -38q-106 8 -210.5 8z"/>
    <glyph glyph-name="o" unicode="o" horiz-adv-x="1030" d="M516 61q94 0 146.5 107t52.5 271.5t-72 273.5q-53 82 -130 81t-135 -108t-58.5 -278.5t71.5 -274.5q51 -72 125 -72zM969 426q0 -209 -121 -330t-317.5 -120t-330.5 127t-134 308.5t110 309.5q131 150 344 149.5t346 -157.5q103 -123 103 -287z"/>
    <glyph glyph-name="p" unicode="p" horiz-adv-x="1007" d="M725 401q0 369 -214 369q-79 0 -132 -84q-12 -18 -12 -70v-438q6 -119 178 -119q88 0 143 140q37 91 37 202zM958 475q0 -348 -200 -452q-88 -45 -205 -45.5t-154 18.5q-8 4 -14 4q-18 0 -18 -27v-370q0 -86 141 -86q14 0 14 -38t-14 -38q-84 8 -239.5 8t-235.5 -8 q-16 0 -16.5 38t16.5 38q102 0 104 84v948q0 133 -92 133q-14 0 -14 37t14 37q55 0 151.5 50t113.5 63t37 13.5t24 -20.5l-4 -47q0 -25 13 -25t35 26q41 48 144 54q150 0 242 -65q157 -115 157 -330z"/>
    <glyph glyph-name="q" unicode="q" horiz-adv-x="978" d="M664 180v463q0 23 -9 35q-68 92 -147 92q-209 0 -209 -350q0 -154 49 -257t139 -104q121 0 158 58q19 26 19 63zM780.5 -551q-155.5 0 -239.5 -8q-14 0 -14.5 38t14.5 38q123 0 123 86v391q-61 -16 -150 -17q-449 0 -448 504q0 172 114 285q109 104 275 104t256 -53 q6 -4 14 -6l109 53q35 16 62.5 -23.5t12 -53t-15.5 -171.5v-1015q0 -84 123 -84q16 0 16 -38t-16 -38q-80 8 -235.5 8z"/>
    <glyph glyph-name="r" unicode="r" horiz-adv-x="753" d="M756 744q0 -51 -34 -81.5t-77 -30t-80 37.5t-71.5 37t-67.5 -56.5t-33 -128.5v-379q0 -76 103 -75q14 0 15 -38t-15 -38q-84 8 -218 8t-219 -8q-14 0 -15 38t15 38q104 0 105 75v406q0 133 -92 133q-16 0 -16.5 37t16.5 37q51 0 150 50t115.5 63t37.5 13.5t24 -20.5 l-6 -74q0 -23 13.5 -22.5t35.5 25.5q68 80 168 79q70 0 108 -37.5t38 -88.5z"/>
    <glyph glyph-name="s" unicode="s" horiz-adv-x="747" d="M115 276q37 0 39 -16q4 -53 68.5 -128t156.5 -75q49 0 86 38t37 79q0 121 -174 167q-271 72 -265 271q0 115 96.5 187t223.5 71.5t221 -36.5q39 -104 39 -191q0 -18 -32 -18t-33 10q-18 51 -69.5 102.5t-124 51t-110.5 -51.5q-23 -31 -22 -63q0 -100 164 -141.5 t220 -109.5t58 -165q0 -133 -102.5 -208t-246.5 -74t-239 61q-29 68 -28 221q0 18 37 18z"/>
    <glyph glyph-name="t" unicode="t" horiz-adv-x="669" d="M154 233v482q0 31 -31 30h-55q-16 0 -16.5 37t16.5 37q61 0 132 58.5t93 126.5q4 12 45 1t47 -30v-94q0 -31 31 -31h215q14 0 14 -52.5t-14 -52.5h-215q-31 0 -31 -30v-416q0 -121 31 -156q69 -78 217 13q10 8 36.5 -24t16.5 -42q-109 -113 -274 -113q-258 2 -258 256z "/>
    <glyph glyph-name="u" unicode="u" horiz-adv-x="1026" d="M981 98q12 0 31.5 5t25.5 -20t6 -37.5t-7 -14.5t-89.5 -16.5t-137 -32t-68 -17.5t-13.5 45v47q0 23 -12 23t-27 -14q-92 -88 -232.5 -88.5t-183.5 34.5q-147 119 -147 297v346q0 102 -84 103q-14 0 -14 36.5t14 36.5q113 0 183.5 11.5t90.5 11.5q45 0 45 -43 q-6 -98 -6 -162v-342q0 -123 50 -182q29 -33 95 -33t127.5 49t61.5 99v415q0 102 -84 103q-16 0 -16 36.5t16 36.5q111 0 183 11.5t85 11.5q53 0 54 -37q-8 -94 -8 -155v-406q0 -90 10 -117q14 -41 51 -41z"/>
    <glyph glyph-name="v" unicode="v" horiz-adv-x="923" d="M-2 820q0 36 14 36q63 -6 206 -6t206 6q14 0 14 -36t-14 -36q-70 0 -70 -45q0 -18 2 -26l146 -457q4 -14 11 -14t15 14l156 451q4 12 4 24q0 53 -90 53q-14 0 -14 36t14 36q59 -6 165.5 -6t170.5 6q14 0 14 -36t-14 -36q-98 0 -125 -71l-258 -674q-27 -61 -79 -61.5 t-73 51.5l-286 684q-31 72 -101 71q-14 0 -14 36z"/>
    <glyph glyph-name="w" unicode="w" horiz-adv-x="1456" d="M-2 820q0 36 14 36q63 -6 206 -6t206 6q14 0 14 -36t-14 -36q-70 0 -70 -45q0 -18 6 -39l142 -444q4 -14 12 -14t14 14l123 358q4 12 4 22.5t-4 22.5l-22 54q-31 72 -88 71q-16 0 -16.5 36t16.5 36q59 -6 199.5 -6t199.5 6q16 0 16 -36t-16 -36q-70 0 -70 -47 q0 -14 7 -37l141 -444q4 -14 12 -14t14 14l156 451q4 12 4 24q0 53 -90 53q-14 0 -14 36t14 36q63 -6 169.5 -6t166.5 6q14 0 14 -36t-14 -36q-98 0 -125 -71l-258 -674q-23 -61 -76 -61.5t-76 51.5l-178 426q-4 12 -12 13t-14 -13l-160 -416q-25 -61 -76 -61.5t-76 51.5 l-286 684q-31 72 -101 71q-14 0 -14 36z"/>
    <glyph glyph-name="x" unicode="x" horiz-adv-x="948" d="M946 68q16 0 16.5 -38t-16.5 -38q-80 8 -224.5 8t-223.5 -8q-16 0 -16.5 38t16.5 38q82 0 82 24q0 10 -31 55l-105 152q-6 8 -16 8t-18 -10l-111 -133q-47 -55 -47 -74q0 -25 59 -22q16 0 16.5 -38t-16.5 -38q-80 8 -163 8t-162 -8q-16 0 -16.5 38t16.5 38q100 0 155 67 l205 250q10 12 10 24.5t-6 24.5l-221 281q-53 70 -113 69q-14 0 -15 36t15 36q63 -6 215 -6t211 6q16 0 16.5 -36t-16.5 -36q-61 0 -61 -28q0 -18 25 -54l75 -106q6 -10 17.5 -10t19.5 10l72 90q33 43 33 66q0 33 -72 32q-16 0 -16 36t16 36q59 -6 164.5 -6t169.5 6 q14 0 14 -36t-14 -36q-63 0 -119 -65l-182 -217q-21 -25 0 -47l227 -301q63 -86 135 -86z"/>
    <glyph glyph-name="y" unicode="y" horiz-adv-x="882" d="M129 -553q-49 0 -82 37t-33 74q0 61 60 92q31 14 65 14q104 0 121 39l78 182q6 18 6 35t-6 35l-270 758q-27 72 -107 71q-14 0 -14 36t14 36q63 -6 206.5 -6t207.5 6q14 0 14 -36t-14 -36q-80 0 -80 -47q0 -14 8 -37l152 -424q6 -20 17 -20t22 23l165 421q4 12 5 23 q0 61 -121 61q-16 0 -16.5 36t16.5 36q59 -6 184 -6t184 6q16 0 16.5 -36t-16.5 -36q-92 0 -125 -59l-448 -1124q-41 -106 -127 -142q-33 -12 -82 -12z"/>
    <glyph glyph-name="z" unicode="z" horiz-adv-x="768" d="M739 16q0 -41 -39 -41q-10 0 -79.5 12.5t-108.5 12.5h-442q-41 0 -41 37q0 12 8 31l356 659q8 16 8 27q0 20 -28 20h-111q-63 0 -125 -129l-45 -102q-4 -8 -20 -8t-30.5 10t-16.5 24q29 252 30 256q6 43 31 45q158 -20 211 -20h348q45 0 45 -33q0 -18 -8 -33l-358 -665 q-4 -6 -5 -15q0 -25 29 -24h109q131 0 225 205q7 18 53 8q31 -11 31 -29l-25 -188q-2 -35 -2 -60z"/>
    <glyph glyph-name="braceleft" unicode="{" horiz-adv-x="782" d="M715 -319q-176 0 -240 10q-139 25 -188 125q-37 72 -37 190v424q0 115 -76 143q-31 12 -78 13q-14 0 -14 30.5t14 30.5q117 0 144 78q10 29 10 72v325q0 219 82 297q61 59 205 70q53 4 176 4q14 0 14 -38t-12 -38q-133 0 -185 -37q-70 -47 -69 -196v-234q0 -143 -17 -200 q-25 -84 -110 -134q90 -55 115 -153q12 -55 12 -158v-266q0 -164 43 -223t209 -60q16 0 16 -37.5t-14 -37.5z"/>
    <glyph glyph-name="bar" unicode="|" horiz-adv-x="534" d="M197 -334v1768h194v-1768h-194z"/>
    <glyph glyph-name="braceright" unicode="}" horiz-adv-x="782" d="M80 -319q-16 0 -16.5 37.5t16.5 37.5q135 0 184 35q68 49 68 248v266q0 147 31 209t98 102q-90 53 -115 150q-12 53 -12 184v234q0 152 -76 200q-51 33 -178 33q-16 0 -16.5 38t16.5 38q195 0 266 -16q117 -27 157 -116t40 -239v-325q0 -113 78 -140q31 -10 75 -10 q16 0 16.5 -30.5t-14.5 -30.5q-113 0 -141 -74q-12 -33 -12 -82v-424q0 -203 -119 -278q-74 -47 -346 -47z"/>
    <glyph glyph-name="asciitilde" unicode="~" horiz-adv-x="741" d="M260 573q50 0 142 -43t128 -47h11q45 0 88 36t51 42l10 2q23 -2 41 -24l6 -13l-2 -8l-78 -88q-84 -86 -176 -84q-51 0 -142 43t-117 45t-34 4q-45 0 -112 -55l-17 -14v-2q-4 -4 -12 -5q-40 17 -45 50q0 2 4 4l64 71q84 86 190 86z"/>
    <glyph glyph-name="uni00A0" unicode=" " horiz-adv-x="557"/>
    <glyph glyph-name="exclamdown" unicode="¡" horiz-adv-x="518" d="M135 -438q0 119 70 594q14 90 20 245q0 20 50.5 20.5t52.5 -20.5q2 -102 41 -439t39 -368q0 -72 -42 -111.5t-102 -39.5t-94.5 35t-34.5 84zM119 722q0 64 45 104t111.5 40t111.5 -43t45 -105.5t-41 -109.5t-116.5 -47t-115.5 48.5t-40 112.5z"/>
    <glyph glyph-name="cent" unicode="¢" horiz-adv-x="878" d="M295 680q0 -119 72 -213l96 551q-78 -25 -125 -129q-43 -90 -43 -209zM457 219h-21l-33 -190q0 -18 -57 -4q-53 8 -51 20l33 199q-131 49 -203 172q-59 98 -59 217q0 173 114 321t299 164l35 193q0 6 23 7t55.5 -9.5t32.5 -18.5l-31 -174q143 -10 205 -86q6 -16 6 -56 t-33 -72q-34 -32 -66 -32t-53 29q-6 8 -39 68q-10 18 -39 37l-110 -625q47 -20 78 -21q127 0 207 64q22 12 48 -31t7 -53l-82 -53q-117 -66 -266 -66z"/>
    <glyph glyph-name="sterling" unicode="£" horiz-adv-x="1261" d="M160 115q0 -45 37 -63t71 -17q121 -1 189 110q-88 49 -172 49t-115 -47q-10 -16 -10 -32zM688 489q0 -162 -74 -307q117 -41 236 -41t223 70q63 43 78 43q39 0 39 -31q0 -14 -10 -35q-53 -135 -168 -194q-68 -35 -146 -35q-135 0 -315 129q-117 -129 -283 -129 q-117 0 -172 74q-29 37 -28 80q0 74 69 116q113 73 350 -8q45 169 -45 420h-239q-17 0 -17 48t17 50h203q-50 123 -50 269t122 254q122 109 302 108q66 0 172 -35q154 -47 156 -106q0 -86 -16 -189q-10 -66 -48 -65q-43 0 -73 115q-12 47 -13 49q-47 160 -188 159 q-201 0 -201 -219q0 -88 84 -340h289q16 0 16 -49t-16 -49h-268q14 -74 14 -152z"/>
    <glyph glyph-name="currency" unicode="¤" horiz-adv-x="1024" d="M825 668q0 129 -91 220t-221 91t-222 -92l-29 -33q-61 -84 -61 -200t91 -206q91 -92 221 -92t220 93q92 90 92 219zM946 667q0 -144 -88 -261l78 -78l2 -6q-4 -23 -45 -58l-25 -18l-12 -4q-2 0 -4 2l-78 78q-119 -88 -262 -88t-260 90l-80 -80l-6 -2q-20 4 -52 42t-26 44 l80 80q-88 115 -88 260t88 260l-80 80l-2 8q4 20 42 51t44 25l80 -80q119 90 261 90t261 -88l78 78l6 2q20 -4 57 -45l19 -25l4 -12l-2 -4l-78 -78q88 -119 88 -263z"/>
    <glyph glyph-name="yen" unicode="¥" horiz-adv-x="1419" d="M176 514q-14 0 -14 67t14 74h352q-16 33 -47 78l-55 88h-250q-14 0 -14 71t14 71h160l-174 274q-54 85 -96 105t-80 20q-14 0 -17 49l4 33q4 18 13 18q59 -6 280 -6t285 6q14 0 14 -51l-2 -33q-4 -16 -12 -16q-113 0 -119 -57l2 -23l12 -29l281 -450q22 -35 45 2l287 424 q25 37 24 65q0 68 -112 68q-14 0 -17 49l4 33q4 18 13 18q59 -6 243 -6t244 6q14 0 17 -49l-5 -33q-8 -18 -12 -18q-115 0 -190 -72q-39 -37 -117 -147l-123 -180h182q14 0 17 -70l-4 -45l-6 -23q-2 -4 -7 -4h-280l-60 -86q-37 -53 -47 -80h387q14 0 17 -67l-4 -47l-6 -23 q-2 -4 -7 -4h-397v-297q0 -86 59 -111q35 -14 99 -14q14 0 14 -50t-14 -50q-84 8 -289 8t-289 -8q-14 0 -14 50t14 50q102 0 130 30t28 95v297h-375z"/>
    <glyph glyph-name="brokenbar" unicode="¦" horiz-adv-x="534" d="M391 109h-194v579h194v-579zM391 795h-194v577h194v-577z"/>
    <glyph glyph-name="section" unicode="§" horiz-adv-x="954" d="M727 421q0 101 -215 216q-92 51 -197 121q-73 -68 -73 -154t147 -172t275 -170q63 58 63 159zM915 481q0 -172 -178 -270q127 -123 127 -261t-120 -246t-289 -107q-84 0 -197 43q-176 63 -176 157q0 43 47 77t78 34t69 -60l58 -84q57 -84 142 -84t134 68q49 67 49 149 t-122 171q-51 36 -200 118t-210 160q-70 84 -70 194t99 210q37 37 82 61q-104 106 -104 240q0 133 111 231q112 98 265 98q84 0 172 -37q135 -59 143 -131q0 -45 -40 -78q-39 -32 -71 -32t-61 49l-43 72q-43 73 -122 73t-123 -57t-43 -117q0 -88 118 -170q32 -20 178 -101 t211 -157q86 -94 86 -213z"/>
    <glyph glyph-name="dieresis" unicode="¨" horiz-adv-x="776" d="M215 1049q-122 0 -129 120q0 74 57 111q33 20 72 20q68 0 104 -55q23 -30 23 -65q0 -80 -61 -115q-29 -16 -66 -16zM565 1049q-118 0 -129 120q0 74 58 111q33 20 71 20q68 0 105 -55q20 -28 20 -65q0 -80 -59 -115q-29 -16 -66 -16z"/>
    <glyph glyph-name="copyright" unicode="©" horiz-adv-x="1609" d="M430 737q0 170 110 284t285 112q65 -1 133 -15t107 -14q16 -37 22 -162v-14q0 -10 -28 -13q-23 6 -23 9q-14 154 -196 161h-17q-127 0 -194 -112q-53 -86 -54 -205q0 -195 113 -291q63 -51 133 -51q186 0 236 149q2 7 23 7t28 -21q-2 -37 -35 -108l-16 -39l-4 -4 q-33 -6 -85 -21t-153 -14q-164 0 -272 102t-113 248v12zM1430 748q0 217 -132 382q-190 236 -482 236t-486 -229q-137 -170 -137 -388q0 -217 132 -383q186 -233 486 -237q217 0 382 132t216 329q21 76 21 158zM1532 748q0 -244 -148 -439q-59 -76 -135 -133 q-195 -150 -438.5 -149.5t-428.5 142.5t-257 355q-35 109 -35 224q0 244 142 430t356 256q109 35 223 34q244 0 429 -142t257 -355q35 -108 35 -223z"/>
    <glyph glyph-name="ordfeminine" unicode="ª" horiz-adv-x="530" d="M285 938v113q0 14 -9 16l-8 -2q-86 -45 -86 -118t43 -73t56 39q4 13 4 25zM155 805q-79 0 -108 65q-8 23 -8 50q0 76 137 147l88 41q20 10 21 29v118q-7 41 -61 42t-74 -29q-6 -8 -8 -39q-5 -94 -60 -94q-51 4 -55 47q0 49 43 100q14 18 32 31q74 45 159 45t126 -35 t41 -66v-315q0 -53 29 -68l14 -2q18 0 43 23l6 2q10 -2 17 -16v-7q-41 -70 -109 -70t-109 50q-10 12 -14 12l-8 -4q-2 -2 -8 -6q-55 -51 -134 -51z"/>
    <glyph glyph-name="guillemotleft" unicode="«" horiz-adv-x="866" d="M430 436q0 19 16 37l318 361q12 14 31.5 -3.5t15.5 -27.5l-168 -334q-8 -18 -8 -30.5t4 -22.5l172 -348q6 -14 -15.5 -29.5t-31.5 -1.5l-318 362q-16 18 -16 37zM76 436q0 19 16 37l318 361q12 14 31.5 -3.5t13.5 -27.5l-166 -334q-8 -18 -8 -30.5t6 -22.5l168 -348 q6 -14 -14.5 -29.5t-30.5 -1.5l-318 362q-16 18 -16 37z"/>
    <glyph glyph-name="logicalnot" unicode="¬" horiz-adv-x="1363" d="M1180 0v483h-1180v174h1366v-657h-186z"/>
    <glyph glyph-name="registered" unicode="®" horiz-adv-x="1609" d="M954 922q0 74 -58 118t-153 47q-37 0 -43 -8q-2 -8 -2 -12v-283q0 -18 13 -20q25 -6 47 -6q170 0 192 127q4 17 4 37zM664 1124q60 0 129 6q178 0 254 -86q45 -50 45 -122q0 -121 -152 -181q-13 -4 -6 -22q18 -68 176 -230q55 -57 96 -63q14 -2 14 -19t-14 -18h-63 q-59 0 -122 36t-142 150q-89 138 -125 140h-9q-2 0 -24 1t-23 -11v-195q0 -49 41 -57q16 -2 41 -4q10 0 10 -26t-8 -26q-35 4 -148.5 4t-152.5 -4q-8 0 -10 25q0 25 8 24q88 0 88 64v510q0 53 -65 57q-12 0 -27 2q-6 0 -6 24.5t6 24.5q129 -4 189 -4zM1430 748 q0 217 -132 382q-190 236 -482 236t-486 -229q-137 -170 -137 -388q0 -217 132 -383q186 -233 486 -237q217 0 382 132t216 329q21 76 21 158zM1532 748q0 -244 -148 -439q-59 -76 -135 -133q-195 -150 -438.5 -149.5t-428.5 142.5t-257 355q-35 109 -35 224q0 244 142 430 t356 256q109 35 223 34q244 0 429 -142t257 -355q35 -108 35 -223z"/>
    <glyph glyph-name="macron" unicode="¯" horiz-adv-x="606" d="M528 1239q27 0 27 -55t-31 -56h-446q-23 0 -23 56t23 55h450z"/>
    <glyph glyph-name="degree" unicode="°" horiz-adv-x="710" d="M485 1047q0 96 -63 139q-31 20 -66 20q-68 0 -104 -61q-25 -41 -25 -98q0 -96 64 -140q31 -20 65 -20q70 0 105 61q24 42 24 99zM82 1055q0 119 85 187t199 68t189 -76q76 -78 76 -201t-103 -197q-74 -54 -186 -54t-186 77t-74 196z"/>
    <glyph glyph-name="plusminus" unicode="±" horiz-adv-x="1062" d="M924 -6h-781v147h781v-147zM924 629h-299v-342h-181v342h-301v147h301v305h181v-305h299v-147z"/>
    <glyph glyph-name="uni00B2" unicode="²" horiz-adv-x="624" d="M270 520q-100 0 -211 -6q-33 0 -32 31q0 12 12 24q98 98 194 230q158 215 157 335t-105 119q-92 0 -150 -102q-7 -14 -27 -1t-14 24q49 98 131 143q51 29 111 29q102 0 158 -64t57 -149q0 -119 -170 -310q-37 -41 -180 -184h184q71 0 99 13t46 48q6 12 32 3t22 -19 l-62 -145q-10 -25 -49 -25q-84 4 -154 6h-49z"/>
    <glyph glyph-name="uni00B3" unicode="³" horiz-adv-x="954" d="M530 784q0 -110 -82 -194t-219 -84q-88 0 -140 29t-52 73q0 59 76 62q29 0 57 -35l31 -37q29 -29 61 -31q63 0 96 84q20 53 20 126t-44 117t-94 44t-78 -10q-16 0 -18 34t14 31q94 -1 143 47t48 107t-30 89t-73 30q-63 0 -129 -97q-7 -13 -27 3t-14 26q59 86 109 118 t122 31t127 -57t55 -131q0 -106 -106 -168q147 -43 147 -207z"/>
    <glyph glyph-name="acute" unicode="´" horiz-adv-x="567" d="M186 1020q-43 0 -43 53q0 20 9 41l120 301q6 15 33 17t78 -33t49 -56q0 -6 -2 -12l-176 -262q-31 -49 -68 -49z"/>
    <glyph glyph-name="uni00B5" unicode="µ" horiz-adv-x="1071" d="M745 57q0 23 -12 23q-18 -6 -26 -14q-84 -76 -199 -86q-26 -2 -68 -2t-100 22l-6 -76l8 -284v-2q0 -58 -46 -94t-95 -36q-76 0 -109 62q-14 26 -14 58t24 243t25 408v376q0 92 -66 103h-18q-14 0 -14 37l2 22q4 12 12 14q98 -1 176 11t98 12q45 0 45 -43v-16 q-6 -78 -6 -146v-342q0 -99 41 -157t101 -58q96 0 152 52t57 96v415q0 82 -58 99l-24 4h-2q-14 0 -17 37l4 22q4 12 13 14q111 -1 183 11t85 12q47 0 53 -37v-29q-8 -86 -8 -126v-406q0 -90 10 -117q14 -41 53 -41q12 0 33 6l8 -2q16 -8 21 -45v-18q-2 -8 -12 -11t-123 -26 l-27 -6q-102 -27 -131 -31h-12q-10 4 -11 45v47z"/>
    <glyph glyph-name="paragraph" unicode="¶" horiz-adv-x="1116" d="M653 145q0 -78 70 -77q74 0 74 75v1065q0 74 -66 74q-78 0 -78 -74v-1063zM1081 1282q-119 0 -118 -74v-1063q0 -78 118 -77q16 0 16.5 -38t-16.5 -38q-80 8 -194 8h-307q-129 0 -209 -8q-16 0 -16.5 38t16.5 38q116 -1 116 75v414q0 23 -24 23q-213 0 -330 109.5 t-117 282.5t129 279.5t318 106.5l285 -3q284 -3 333 3q16 0 16.5 -38t-16.5 -38z"/>
    <glyph glyph-name="periodcentered" unicode="·" horiz-adv-x="591" d="M492 512q0 -78 -64 -121q-38 -27 -98 -27t-107 45q-47 44 -47 106q0 61 42 109t129 48t128 -84q17 -35 17 -76z"/>
    <glyph glyph-name="cedilla" unicode="¸" horiz-adv-x="776" d="M618 -324q0 -86 -81 -138t-193 -52t-137 61q-6 12 -6 29q0 43 37 62q12 6 36 6t67 -38q44 -38 65 -38q53 0 53 51q0 78 -142 141q-20 8 -20 19q0 4 6 12l141 209h109l-78 -106q-8 -12 -8 -20t27 -24q124 -65 124 -174z"/>
    <glyph glyph-name="uni00B9" unicode="¹" horiz-adv-x="665" d="M408 1378q10 0 12 -12v-6q-2 -18 -2 -107v-555q0 -80 18.5 -98t79.5 -18q8 0 8 -29l-2 -25q-4 -6 -6 -6q-40 4 -196 4t-195 -4q-8 0 -8 30t8 30q72 0 92.5 24.5t20.5 91.5v510q0 29 -21 29l-94 -27q-20 7 -20 28q-1 21 6 24q193 63 284 112q5 4 15 4z"/>
    <glyph glyph-name="ordmasculine" unicode="º" horiz-adv-x="622" d="M442 1098q0 102 -55 172q-35 43 -74 41q-55 0 -94 -74l-18 -39q-18 -55 -19 -119q0 -117 56 -182q33 -39 75 -39q63 0 101 80q28 58 28 160zM586 1083q0 -145 -92 -221q-70 -57 -185 -57t-191 84q-76 83 -77 197q0 114 81 193q82 79 198 79t191 -83t75 -192z"/>
    <glyph glyph-name="guillemotright" unicode="»" horiz-adv-x="866" d="M250 430.5q0 11.5 -6 24.5l-168 348q-6 14 14.5 28.5t30.5 2.5l317 -365q33 -37 0 -74l-317 -358q-12 -14 -31.5 2t-13.5 29l166 333q8 18 8 29.5zM793 469q34 -38 0 -74l-318 -358q-12 -14 -31.5 2t-13.5 29l166 333q14 32 4 54l-170 348q-6 14 14.5 28.5t30.5 2.5z"/>
    <glyph glyph-name="onequarter" unicode="¼" horiz-adv-x="1507" d="M1044 1300l-454 -1300h-127l455 1300h126zM1370 96q0 -55 64 -53q8 0 9 -23.5t-9 -23.5q-49 4 -144.5 4t-148.5 -4q-8 0 -8 23.5t8 23.5q88 0 88 53v133h-285q-53 0 -53 37q0 31 31 76l180 238q117 154 147 202l58 95q8 10 26 10q53 0 53 -33q0 -6 -2 -10l-383 -506 q-6 -6 -6 -16t13 -11h221v267q0 14 70.5 14t70.5 -14v-267h76q8 0 9 -41t-9 -41h-76v-133zM401 700q0 -80 22.5 -106.5t78.5 -26.5q8 0 9 -23.5t-9 -23.5q-49 4 -175 4t-175 -4q-8 0 -9.5 23.5t9.5 23.5q68 0 88 30t20 101v500q0 41 -12 37q-66 -23 -101 -41 q-12 -6 -18 14.5t4 24.5q81 35 157 89t89 54q27 0 25 -38t-3 -93v-545z"/>
    <glyph glyph-name="onehalf" unicode="½" horiz-adv-x="1507" d="M1044 1300l-454 -1300h-127l455 1300h126zM401 700q0 -80 22.5 -106.5t78.5 -26.5q8 0 9 -23.5t-9 -23.5q-49 4 -175 4t-175 -4q-8 0 -9.5 23.5t9.5 23.5q68 0 88 30t20 101v500q0 41 -12 37q-66 -23 -101 -41q-12 -6 -18 14.5t4 24.5q81 35 157 89t89 54q27 0 25 -38 t-3 -93v-545zM1190 0h-49q-100 0 -211 -4q-33 0 -33 29q0 12 10 24q98 98 197 230q158 215 157 335t-106 119q-92 0 -149 -100q-6 -14 -31 0q-16 10 -10 20q49 98 131 144q51 29 108 28q102 0 158 -63t57 -150q0 -119 -170 -309q-37 -41 -180 -182h184q72 0 101 12t47 47 q6 12 32 3t21 -17l-61 -148q-10 -25 -50 -22q-84 4 -153 4z"/>
    <glyph glyph-name="threequarters" unicode="¾" horiz-adv-x="1507" d="M1044 1300l-454 -1300h-127l455 1300h126zM1370 96q0 -55 64 -53q8 0 9 -23.5t-9 -23.5q-49 4 -144.5 4t-148.5 -4q-8 0 -8 23.5t8 23.5q88 0 88 53v133h-285q-53 0 -53 37q0 31 31 76l180 238q117 154 147 202l58 95q8 10 26 10q53 0 53 -33q0 -6 -2 -10l-383 -506 q-6 -6 -6 -16t13 -11h221v267q0 14 70.5 14t70.5 -14v-267h76q8 0 9 -41t-9 -41h-76v-133zM530 788q0 -110 -82 -194t-219 -82q-88 0 -140 28t-52 74q0 59 76 60q29 -2 57 -35l31 -37q29 -29 61 -29q63 0 96 82q20 53 20 127t-44 117t-94 43t-78 -10q-16 0 -18 34t14 33 q94 1 143 47t48 106t-30 90t-73 30q-63 0 -129 -96q-7 -12 -27 2t-14 24q59 86 109 118t122 32t127 -56t55 -131q0 -106 -106 -170q147 -43 147 -207z"/>
    <glyph glyph-name="questiondown" unicode="¿" horiz-adv-x="749" d="M377 706q0 64 44 104t110.5 40t112.5 -44t46 -105.5t-41 -107.5t-117.5 -46t-115.5 47.5t-39 111.5zM174 -113q0 178 102 232l166 82q72 37 72 57q2 53 -18 127q4 27 55 25q16 0 18 -9q80 -147 80 -228t-39 -111.5t-75 -49.5l-105 -55q-127 -63 -127 -111q0 -57 43 -98 t164 -49l78 -6q31 -2 68.5 -37t37.5 -84t-35.5 -80t-87.5 -31q-94 0 -181 61.5t-151.5 158.5t-64.5 206z"/>
    <glyph glyph-name="Agrave" unicode="À" horiz-adv-x="1400" d="M840 1522q0 -47 -51 -47q-23 0 -54 14l-274 125q-19 10 -19 34t22 60q39 66 73 66q6 0 12 -5l252 -190q39 -30 39 -57zM634 1083q-11 0 -18 -16l-157 -432l-4 -17q0 -10 20 -12h293q29 0 29 23q0 6 -4 14l-144 424q-4 16 -15 16zM1399 86q14 0 14 -46t-14 -46 q-115 6 -265 6t-276 -6q-14 0 -14 46t14 46q96 0 96 66q0 20 -10 51l-100 297q-6 23 -33 22h-375q-20 0 -30 -28l-109 -293q-8 -25 -10 -41q0 -74 147 -74q12 0 12 -46t-12 -46q-84 6 -234 6t-227 -6q-14 0 -14 46t14 46q152 0 201 131l371 969q12 31 12 38q-1 8 -15 22 t-14 22q0 14 34 26t104 53q70 42 90 42q33 1 44 -47t52 -164l344 -975q41 -117 203 -117z"/>
    <glyph glyph-name="Aacute" unicode="Á" horiz-adv-x="1400" d="M583 1475q-19 0 -35 11t-17 38q0 27 39 55l260 199q6 6 14 6q24 0 56 -52t32 -78q0 -25 -10 -30l-289 -135q-31 -14 -50 -14zM634 1083q-11 0 -18 -16l-157 -432l-4 -17q0 -10 20 -12h293q29 0 29 23q0 6 -4 14l-144 424q-4 16 -15 16zM1399 86q14 0 14 -46t-14 -46 q-115 6 -265 6t-276 -6q-14 0 -14 46t14 46q96 0 96 66q0 20 -10 51l-100 297q-6 23 -33 22h-375q-20 0 -30 -28l-109 -293q-8 -25 -10 -41q0 -74 147 -74q12 0 12 -46t-12 -46q-84 6 -234 6t-227 -6q-14 0 -14 46t14 46q152 0 201 131l371 969q12 31 12 38q-1 8 -15 22 t-14 22q0 14 34 26t104 53q70 42 90 42q33 1 44 -47t52 -164l344 -975q41 -117 203 -117z"/>
    <glyph glyph-name="Acircumflex" unicode="Â" horiz-adv-x="1400" d="M1030 1512q0 -8 -9 -22q-9 -15 -19 -15h-2l-269 124q-39 17 -73 0l-267 -124h-2q-22 9 -33 41q0 4 5 8l282 252q51 44 101 0l282 -252q4 -4 4 -12zM634 1083q-11 0 -18 -16l-157 -432l-4 -17q0 -10 20 -12h293q29 0 29 23q0 6 -4 14l-144 424q-4 16 -15 16zM1399 86 q14 0 14 -46t-14 -46q-115 6 -265 6t-276 -6q-14 0 -14 46t14 46q96 0 96 66q0 20 -10 51l-100 297q-6 23 -33 22h-375q-20 0 -30 -28l-109 -293q-8 -25 -10 -41q0 -74 147 -74q12 0 12 -46t-12 -46q-84 6 -234 6t-227 -6q-14 0 -14 46t14 46q152 0 201 131l371 969 q12 31 12 38q-1 8 -15 22t-14 22q0 14 34 26t104 53q70 42 90 42q33 1 44 -47t52 -164l344 -975q41 -117 203 -117z"/>
    <glyph glyph-name="Atilde" unicode="Ã" horiz-adv-x="1400" d="M547 1612q-63 0 -111 -59q-2 -2 -9 -2t-24 16t-12 27q106 160 220 159q49 1 129 -29t112 -30q63 0 123 61q2 2 8 2t27 -17t10 -28q-111 -164 -219 -163q-41 -1 -131 31t-123 32zM634 1083q-11 0 -18 -16l-157 -432l-4 -17q0 -10 20 -12h293q29 0 29 23q0 6 -4 14 l-144 424q-4 16 -15 16zM1399 86q14 0 14 -46t-14 -46q-115 6 -265 6t-276 -6q-14 0 -14 46t14 46q96 0 96 66q0 20 -10 51l-100 297q-6 23 -33 22h-375q-20 0 -30 -28l-109 -293q-8 -25 -10 -41q0 -74 147 -74q12 0 12 -46t-12 -46q-84 6 -234 6t-227 -6q-14 0 -14 46 t14 46q152 0 201 131l371 969q12 31 12 38q-1 8 -15 22t-14 22q0 14 34 26t104 53q70 42 90 42q33 1 44 -47t52 -164l344 -975q41 -117 203 -117z"/>
    <glyph glyph-name="Adieresis" unicode="Ä" horiz-adv-x="1400" d="M600 1632q0 -80 -59 -114q-29 -18 -66 -19q-84 0 -117 66q-12 25 -12 57q0 74 57 111q33 20 72 18q68 0 105 -53q20 -31 20 -66zM1030 1632q0 -80 -59 -114q-29 -18 -66 -19q-84 0 -117 66q-12 25 -12 57q0 74 58 111q33 20 71 18q68 0 105 -53q20 -29 20 -66zM634 1083 q-11 0 -18 -16l-157 -432l-4 -17q0 -10 20 -12h293q29 0 29 23q0 6 -4 14l-144 424q-4 16 -15 16zM1399 86q14 0 14 -46t-14 -46q-115 6 -265 6t-276 -6q-14 0 -14 46t14 46q96 0 96 66q0 20 -10 51l-100 297q-6 23 -33 22h-375q-20 0 -30 -28l-109 -293q-8 -25 -10 -41 q0 -74 147 -74q12 0 12 -46t-12 -46q-84 6 -234 6t-227 -6q-14 0 -14 46t14 46q152 0 201 131l371 969q12 31 12 38q-1 8 -15 22t-14 22q0 14 34 26t104 53q70 42 90 42q33 1 44 -47t52 -164l344 -975q41 -117 203 -117z"/>
    <glyph glyph-name="Aring" unicode="Å" horiz-adv-x="1400" d="M635 1083q-10 0 -19 -16l-157 -426q-4 -10 -4 -16q0 -16 26 -19h287q29 0 29 17q0 10 -4 20l-144 424q-4 16 -14 16zM588 1534q0 -132 104 -133q58 0 84 65q12 30 12 76t-27 84t-74 36t-73 -38t-26 -90zM1399 86q14 0 14 -46t-14 -46q-133 6 -270.5 6t-270.5 -6 q-14 0 -14 46t14 46q94 0 96 66q0 23 -10 51l-100 297q-8 23 -33 22h-375q-20 0 -30 -28l-109 -293q-14 -43 -6 -68q27 -47 143 -47q12 0 12 -46t-12 -46q-139 6 -230 6t-231 -6q-14 0 -14 46t14 46q152 0 201 131l426 1116q-69 24 -105 80.5t-36 132.5t66.5 134.5 t168.5 58.5t160 -63t64 -146q0 -63 -34.5 -114.5t-84.5 -72.5q22 -79 53 -165l344 -975q23 -63 107 -97q47 -20 96 -20z"/>
    <glyph glyph-name="AE" unicode="Æ" horiz-adv-x="1847" d="M831 713v497q0 16 -10 19q-10 0 -20 -19l-287 -497q-4 -6 -4 -13q0 -16 16 -16h275q30 0 30 29zM1460 860q-18 -264 0 -422q0 -12 -48 -12t-48 12q0 158 -78 162h-180q-29 0 -29 -33v-295q0 -195 129 -194l244 8q217 6 217 250q0 16 51 16t51 -16v-287q0 -27 -12 -41 t-88 -14l-729 6q-156 0 -262 -6q-14 0 -14 46t14 46q153 0 153 109v374q0 31 -28 31h-334q-27 0 -37 -18l-207 -396q-12 -27 -12 -45q0 -55 139 -55q15 0 15 -46t-15 -46q-117 6 -241 6t-224 -6q-14 0 -14 46t14 46q89 0 129 36t72 91l571 967q18 29 19 47q0 39 -84 39 q-14 0 -14 46t14 46q141 -6 379 -6l612 6q72 0 87 -5t16 -40v-303q0 -17 -50.5 -17t-50.5 17q0 252 -229 258l-250 4q-31 0 -31 -43v-516q0 -29 29 -29h180q78 0 78 176q0 14 48 14t48 -14z"/>
    <glyph glyph-name="Ccedilla" unicode="Ç" horiz-adv-x="1347" d="M530 -436q0 67 72 67q25 0 68 -37.5t65 -37.5q53 0 53 51q0 78 -143 141q-18 8 -18 19q0 4 6 12l131 194q-289 2 -499 191.5t-210 492.5t205 515t535 212q129 0 338 -43q55 -10 106 -12q33 -90 41 -325q0 -18 -46 -21.5t-48 12.5q-10 111 -89.5 206t-297.5 95 t-344.5 -168t-126.5 -444t140 -446t316 -170q342 0 441 276q6 18 51 8t45 -30q-4 -57 -42 -153.5t-62 -131.5q-47 -6 -125 -30t-220 -32l-67 -94q-10 -14 -10 -20t28 -23q123 -65 123 -174q0 -86 -81 -137t-179 -53q-151 0 -156 90z"/>
    <glyph glyph-name="Egrave" unicode="È" horiz-adv-x="1249" d="M854 1522q0 -47 -51 -47q-23 0 -54 14l-274 125q-19 10 -19 34t22 60q39 66 73 66q6 0 12 -5l252 -190q39 -30 39 -57zM61 40q0 46 15 46q162 0 162 117v952q0 109 -172 111q-14 0 -14 46t14 46q143 -6 299 -6l706 6q57 0 57 -51v-306q0 -17 -50 -17t-50 17 q0 129 -98 205q-61 47 -125 49l-297 11q-27 0 -27 -41v-508q0 -29 29 -31h135q123 0 123 92v99q0 14 52 14t52 -14q-6 -68 -6 -232t6 -225q0 -14 -52 -16t-52 16v86q0 88 -123 88h-135q-29 0 -29 -31v-342q0 -78 74 -115q39 -20 82 -20l223 4q158 2 205 137q18 49 18 117 q-1 16 51 16t52 -16v-287q0 -63 -119 -63l-694 6q-162 0 -297 -6q-15 0 -15 46z"/>
    <glyph glyph-name="Eacute" unicode="É" horiz-adv-x="1249" d="M517 1475q-19 0 -35 11t-17 38q0 27 39 55l260 199q6 6 14 6q24 0 56 -52t32 -78q0 -25 -10 -30l-289 -135q-31 -14 -50 -14zM61 40q0 46 15 46q162 0 162 117v952q0 109 -172 111q-14 0 -14 46t14 46q143 -6 299 -6l706 6q57 0 57 -51v-306q0 -17 -50 -17t-50 17 q0 129 -98 205q-61 47 -125 49l-297 11q-27 0 -27 -41v-508q0 -29 29 -31h135q123 0 123 92v99q0 14 52 14t52 -14q-6 -68 -6 -232t6 -225q0 -14 -52 -16t-52 16v86q0 88 -123 88h-135q-29 0 -29 -31v-342q0 -78 74 -115q39 -20 82 -20l223 4q158 2 205 137q18 49 18 117 q-1 16 51 16t52 -16v-287q0 -63 -119 -63l-694 6q-162 0 -297 -6q-15 0 -15 46z"/>
    <glyph glyph-name="Ecircumflex" unicode="Ê" horiz-adv-x="1249" d="M975 1512q0 -8 -9 -22q-9 -15 -19 -15h-2l-269 124q-39 17 -73 0l-267 -124h-2q-22 9 -33 41q0 4 5 8l282 252q51 44 101 0l282 -252q4 -4 4 -12zM61 40q0 46 15 46q162 0 162 117v952q0 109 -172 111q-14 0 -14 46t14 46q143 -6 299 -6l706 6q57 0 57 -51v-306 q0 -17 -50 -17t-50 17q0 129 -98 205q-61 47 -125 49l-297 11q-27 0 -27 -41v-508q0 -29 29 -31h135q123 0 123 92v99q0 14 52 14t52 -14q-6 -68 -6 -232t6 -225q0 -14 -52 -16t-52 16v86q0 88 -123 88h-135q-29 0 -29 -31v-342q0 -78 74 -115q39 -20 82 -20l223 4 q158 2 205 137q18 49 18 117q-1 16 51 16t52 -16v-287q0 -63 -119 -63l-694 6q-162 0 -297 -6q-15 0 -15 46z"/>
    <glyph glyph-name="Edieresis" unicode="Ë" horiz-adv-x="1249" d="M526 1632q0 -80 -59 -114q-29 -18 -66 -19q-84 0 -117 66q-12 25 -12 57q0 74 57 111q33 20 72 18q68 0 105 -53q20 -31 20 -66zM956 1632q0 -80 -59 -114q-29 -18 -66 -19q-84 0 -117 66q-12 25 -12 57q0 74 58 111q33 20 71 18q68 0 105 -53q20 -29 20 -66zM61 40 q0 46 15 46q162 0 162 117v952q0 109 -172 111q-14 0 -14 46t14 46q143 -6 299 -6l706 6q57 0 57 -51v-306q0 -17 -50 -17t-50 17q0 129 -98 205q-61 47 -125 49l-297 11q-27 0 -27 -41v-508q0 -29 29 -31h135q123 0 123 92v99q0 14 52 14t52 -14q-6 -68 -6 -232t6 -225 q0 -14 -52 -16t-52 16v86q0 88 -123 88h-135q-29 0 -29 -31v-342q0 -78 74 -115q39 -20 82 -20l223 4q158 2 205 137q18 49 18 117q-1 16 51 16t52 -16v-287q0 -63 -119 -63l-694 6q-162 0 -297 -6q-15 0 -15 46z"/>
    <glyph glyph-name="Igrave" unicode="Ì" horiz-adv-x="733" d="M496 1522q0 -47 -51 -47q-23 0 -54 14l-274 125q-19 10 -19 34t22 60q39 66 73 66q6 0 12 -5l252 -190q39 -30 39 -57zM61 40q0 46 15 46q162 0 162 117v950q0 117 -162 117q-14 0 -14 47t14 47q48 -6 284 -6t283 6q14 0 14 -47t-14 -47q-162 0 -162 -117v-950 q0 -117 158 -117q14 0 14 -46t-14 -46q-133 6 -286 6t-277 -6q-15 0 -15 46z"/>
    <glyph glyph-name="Iacute" unicode="Í" horiz-adv-x="733" d="M257 1475q-19 0 -35 11t-17 38q0 27 39 55l260 199q6 6 14 6q24 0 56 -52t32 -78q0 -25 -10 -30l-289 -135q-31 -14 -50 -14zM61 40q0 46 15 46q162 0 162 117v950q0 117 -162 117q-14 0 -14 47t14 47q48 -6 284 -6t283 6q14 0 14 -47t-14 -47q-162 0 -162 -117v-950 q0 -117 158 -117q14 0 14 -46t-14 -46q-133 6 -286 6t-277 -6q-15 0 -15 46z"/>
    <glyph glyph-name="Icircumflex" unicode="Î" horiz-adv-x="733" d="M694 1512q0 -8 -9 -22q-9 -15 -19 -15h-2l-269 124q-39 17 -73 0l-267 -124h-2q-22 9 -33 41q0 4 5 8l282 252q51 44 101 0l282 -252q4 -4 4 -12zM61 40q0 46 15 46q162 0 162 117v950q0 117 -162 117q-14 0 -14 47t14 47q48 -6 284 -6t283 6q14 0 14 -47t-14 -47 q-162 0 -162 -117v-950q0 -117 158 -117q14 0 14 -46t-14 -46q-133 6 -286 6t-277 -6q-15 0 -15 46z"/>
    <glyph glyph-name="Idieresis" unicode="Ï" horiz-adv-x="733" d="M276 1632q0 -80 -59 -114q-29 -18 -66 -19q-84 0 -117 66q-12 25 -12 57q0 74 57 111q33 20 72 18q68 0 105 -53q20 -31 20 -66zM706 1632q0 -80 -59 -114q-29 -18 -66 -19q-84 0 -117 66q-12 25 -12 57q0 74 58 111q33 20 71 18q68 0 105 -53q20 -29 20 -66zM61 40 q0 46 15 46q162 0 162 117v950q0 117 -162 117q-14 0 -14 47t14 47q48 -6 284 -6t283 6q14 0 14 -47t-14 -47q-162 0 -162 -117v-950q0 -117 158 -117q14 0 14 -46t-14 -46q-133 6 -286 6t-277 -6q-15 0 -15 46z"/>
    <glyph glyph-name="Eth" unicode="Ð" horiz-adv-x="1566" d="M1214 717q0 176 -98 323q-164 240 -479 240h-80q-76 0 -76 -80v-452q0 -29 27 -29h229q12 0 13.5 -47t-13.5 -47h-229q-27 0 -27 -31v-322q0 -150 86 -186q39 -16 131 -14q213 0 353 151q163 181 163 494zM1487 716q0 -328 -200 -527q-200 -198 -521 -195l-426 6 q-166 0 -264 -6q-14 0 -15.5 46t15.5 46q162 0 162 117v391q0 31 -29 31h-180q-14 0 -14.5 47t14.5 47h180q29 0 29 29v407q0 109 -172 111q-14 0 -14.5 46t14.5 46q143 -6 286 -6l367 6q303 0 510 -139q258 -175 258 -503z"/>
    <glyph glyph-name="Ntilde" unicode="Ñ" horiz-adv-x="1480" d="M580 1612q-63 0 -111 -59q-2 -2 -9 -2t-24 16t-12 27q106 160 220 159q49 1 129 -29t112 -30q63 0 123 61q2 2 8 2t27 -17t10 -28q-111 -164 -219 -163q-41 -1 -131 31t-123 32zM1032 1364q244 -10 391 0q15 0 15 -47t-15 -47q-135 0 -135 -119v-1075q0 -96 -29 -96 t-75 57l-824 977q-12 16 -21 16t-11 -22v-805q0 -117 151 -117q15 0 15 -47t-15 -45q-92 6 -197 6t-216 -6q-14 -2 -14 45t14 47q160 0 157 117v952q0 115 -172 115q-12 0 -12 47t12 47q49 -4 155 -5t120 -3q59 -8 100 -58l711 -866q10 -14 24 -14q25 0 25 31v702 q0 119 -154 119q-14 0 -14 47t14 47z"/>
    <glyph glyph-name="Ograve" unicode="Ò" horiz-adv-x="1523" d="M889 1522q0 -47 -51 -47q-23 0 -54 14l-274 125q-19 10 -19 34q-1 24 21 60q39 66 74 66q6 0 12 -5l252 -190q39 -30 39 -57zM1157 649q0 256 -125 438q-141 211 -294 210t-265 -130q-145 -165 -145 -455t153 -483q129 -162 275 -161q264 0 356 278q45 131 45 303z M1430 664q0 -219 -146 -418q-203 -272 -543 -273q-225 0 -405 123q-281 195 -281 572q0 252 176 473q195 244 514 243q246 0 426 -153q259 -225 259 -567z"/>
    <glyph glyph-name="Oacute" unicode="Ó" horiz-adv-x="1523" d="M646 1475q-20 0 -36 11t-16 38t39 55l260 199q6 6 14 6q24 0 56 -52t32 -78q0 -25 -10 -30l-289 -135q-31 -14 -50 -14zM1157 649q0 256 -125 438q-141 211 -294 210t-265 -130q-145 -165 -145 -455t153 -483q129 -162 275 -161q264 0 356 278q45 131 45 303zM1430 664 q0 -219 -146 -418q-203 -272 -543 -273q-225 0 -405 123q-281 195 -281 572q0 252 176 473q195 244 514 243q246 0 426 -153q259 -225 259 -567z"/>
    <glyph glyph-name="Ocircumflex" unicode="Ô" horiz-adv-x="1523" d="M1075 1512q0 -8 -9 -22q-9 -15 -19 -15h-2l-269 124q-39 17 -73 0l-267 -124h-2q-22 9 -33 41q0 4 5 8l282 252q51 44 101 0l282 -252q4 -4 4 -12zM1157 649q0 256 -125 438q-141 211 -294 210t-265 -130q-145 -165 -145 -455t153 -483q129 -162 275 -161q264 0 356 278 q45 131 45 303zM1430 664q0 -219 -146 -418q-203 -272 -543 -273q-225 0 -405 123q-281 195 -281 572q0 252 176 473q195 244 514 243q246 0 426 -153q259 -225 259 -567z"/>
    <glyph glyph-name="Otilde" unicode="Õ" horiz-adv-x="1523" d="M588 1612q-63 0 -111 -59q-2 -2 -9 -2t-24 16t-12 27q106 160 220 159q49 1 129 -29t112 -30q63 0 123 61q2 2 8 2t27 -17t10 -28q-111 -164 -219 -163q-41 -1 -131 31t-123 32zM1157 649q0 256 -125 438q-141 211 -294 210t-265 -130q-145 -165 -145 -455t153 -483 q129 -162 275 -161q264 0 356 278q45 131 45 303zM1430 664q0 -219 -146 -418q-203 -272 -543 -273q-225 0 -405 123q-281 195 -281 572q0 252 176 473q195 244 514 243q246 0 426 -153q259 -225 259 -567z"/>
    <glyph glyph-name="Odieresis" unicode="Ö" horiz-adv-x="1523" d="M637 1632q0 -80 -59 -114q-29 -18 -66 -19q-84 0 -117 66q-12 25 -12 57q0 74 57 111q33 20 72 18q68 0 105 -53q20 -31 20 -66zM1067 1632q0 -80 -59 -114q-29 -18 -66 -19q-84 0 -117 66q-12 25 -12 57q0 74 58 111q33 20 71 18q68 0 105 -53q20 -29 20 -66zM1157 649 q0 256 -125 438q-141 211 -294 210t-265 -130q-145 -165 -145 -455t153 -483q129 -162 275 -161q264 0 356 278q45 131 45 303zM1430 664q0 -219 -146 -418q-203 -272 -543 -273q-225 0 -405 123q-281 195 -281 572q0 252 176 473q195 244 514 243q246 0 426 -153 q259 -225 259 -567z"/>
    <glyph glyph-name="multiply" unicode="×" horiz-adv-x="784" d="M778 98l-137 -137l-244 242l-241 -242l-138 137l242 244l-242 242l138 137l241 -242l244 242l137 -137l-243 -242z"/>
    <glyph glyph-name="Oslash" unicode="Ø" horiz-adv-x="1523" d="M416 330l571 819q-121 150 -248 147q-154 0 -266 -129q-145 -167 -144 -419t87 -418zM756 68q264 0 356 278q43 128 44 322t-87 358l-571 -817q121 -141 258 -141zM172 -30q0 11 2 16l109 151q-227 190 -228 531q0 252 176 473q195 244 514 243q190 0 342 -94l97 137 q2 5 22 5t57 -31q39 -31 37 -39t-4 -10l-100 -146q233 -217 234 -542q0 -219 -146 -418q-203 -272 -543 -273q-188 0 -346 86l-106 -151q-4 -6 -22 -7q-19 -1 -57 29t-38 40z"/>
    <glyph glyph-name="Ugrave" unicode="Ù" horiz-adv-x="1511" d="M961 1522q0 -47 -51 -47q-23 0 -54 14l-274 125q-19 10 -19 34q-1 24 21 60q39 66 74 66q6 0 12 -5l252 -190q39 -30 39 -57zM1020 1364q275 -8 457 0q14 0 14 -47t-14 -47q-154 0 -154 -117v-272q0 -276 -12 -416q-32 -496 -539 -492q-156 0 -266 41q-158 61 -219 187 q-51 106 -64 344v608q0 117 -155 117q-14 0 -14 47t14 47q343 -9 573 0q14 0 14 -47t-14 -47q-174 0 -172 -117v-467l10 -280q2 -125 56 -203q90 -135 269 -135t283 104q90 92 91 324v657q0 117 -158 117q-14 0 -14 47t14 47z"/>
    <glyph glyph-name="Uacute" unicode="Ú" horiz-adv-x="1511" d="M722 1475q-20 0 -36 11t-16 38t39 55l260 199q6 6 14 6q24 0 56 -52t32 -78q0 -25 -10 -30l-289 -135q-31 -14 -50 -14zM1020 1364q275 -8 457 0q14 0 14 -47t-14 -47q-154 0 -154 -117v-272q0 -276 -12 -416q-32 -496 -539 -492q-156 0 -266 41q-158 61 -219 187 q-51 106 -64 344v608q0 117 -155 117q-14 0 -14 47t14 47q343 -9 573 0q14 0 14 -47t-14 -47q-174 0 -172 -117v-467l10 -280q2 -125 56 -203q90 -135 269 -135t283 104q90 92 91 324v657q0 117 -158 117q-14 0 -14 47t14 47z"/>
    <glyph glyph-name="Ucircumflex" unicode="Û" horiz-adv-x="1511" d="M1145 1512q0 -8 -9 -22q-9 -15 -19 -15h-2l-269 124q-39 17 -73 0l-267 -124h-2q-22 9 -33 41q0 4 5 8l282 252q51 44 101 0l282 -252q4 -4 4 -12zM1020 1364q275 -8 457 0q14 0 14 -47t-14 -47q-154 0 -154 -117v-272q0 -276 -12 -416q-32 -496 -539 -492 q-156 0 -266 41q-158 61 -219 187q-51 106 -64 344v608q0 117 -155 117q-14 0 -14 47t14 47q343 -9 573 0q14 0 14 -47t-14 -47q-174 0 -172 -117v-467l10 -280q2 -125 56 -203q90 -135 269 -135t283 104q90 92 91 324v657q0 117 -158 117q-14 0 -14 47t14 47z"/>
    <glyph glyph-name="Udieresis" unicode="Ü" horiz-adv-x="1511" d="M731 1632q0 -80 -59 -114q-29 -18 -66 -19q-84 0 -117 66q-12 25 -12 57q0 74 57 111q33 20 72 18q68 0 105 -53q20 -31 20 -66zM1161 1632q0 -80 -59 -114q-29 -18 -66 -19q-84 0 -117 66q-12 25 -12 57q0 74 58 111q33 20 71 18q68 0 105 -53q20 -29 20 -66zM1020 1364 q275 -8 457 0q14 0 14 -47t-14 -47q-154 0 -154 -117v-272q0 -276 -12 -416q-32 -496 -539 -492q-156 0 -266 41q-158 61 -219 187q-51 106 -64 344v608q0 117 -155 117q-14 0 -14 47t14 47q343 -9 573 0q14 0 14 -47t-14 -47q-174 0 -172 -117v-467l10 -280q2 -125 56 -203 q90 -135 269 -135t283 104q90 92 91 324v657q0 117 -158 117q-14 0 -14 47t14 47z"/>
    <glyph glyph-name="Yacute" unicode="Ý" horiz-adv-x="1323" d="M652 1475q-20 0 -36 11t-16 38t39 55l260 199q6 6 14 6q24 0 56 -52t32 -78q0 -25 -10 -30l-289 -135q-31 -14 -50 -14zM758 203q0 -117 147 -117q11 0 13 -46t-13 -46q-67 6 -267 6t-271 -6q-15 0 -15 46t15 46q147 0 147 117v291q0 68 -9 92t-56 98l-297 469 q-51 82 -103 104q-29 12 -61 13q-14 0 -16 47t16 47q47 -4 261 -5t265 5q14 0 14 -47t-14 -47q-111 0 -111 -53q0 -31 21 -64l254 -403q21 -34 43 2l266 395q23 35 25 59q0 63 -107 64q-14 0 -14 47t14 47q45 -4 225 -5t230 5q14 0 14 -47t-14 -47q-109 0 -178 -68l-33 -35 l-338 -481q-39 -55 -46 -81t-7 -105v-297z"/>
    <glyph glyph-name="Thorn" unicode="Þ" horiz-adv-x="1224" d="M862 727q0 283 -153 444q-27 30 -49 16q-8 -5 -72 -63t-135 -94q-23 -12 -23 -47v-864q0 -37 29 -37q6 0 14 2q203 57 307 272q82 166 82 371zM1135 727q0 -215 -142 -410q-131 -184 -334 -274q-92 -41 -190 -55q-37 -6 -37 -39v-193q0 -72 -141 -174l-146 -98 q-6 -4 -12 -4q-39 0 -76 61q-14 23 -14 35t4 16q82 72 111 108t28 91v1301q0 135 -159 137q-14 0 -14.5 46t14.5 46q176 0 325 59q20 8 41 9q41 0 43 -35l-6 -197q0 -23 16 -22q10 0 24 5t124 97t194 92q43 0 78 -22q158 -123 226 -322q43 -125 43 -258z"/>
    <glyph glyph-name="germandbls" unicode="ß" horiz-adv-x="1150" d="M1124 258q0 -143 -108 -223q-80 -59 -196 -59t-202 61q-29 72 -28 180q0 19 38 19t38 -17q0 -47 56 -104t116 -58q94 0 94 123t-137 201q-236 131 -236 293q0 127 164 244q121 86 119 221q0 88 -51 170t-144 82q-131 0 -205 -191q-49 -127 -49 -307v-750q0 -76 133 -75 q16 0 16 -38t-16 -38q-80 8 -233 8t-238 -8q-14 0 -14 38t14 38q109 0 109 75v527q0 35 -31 35h-61q-16 0 -16.5 36.5t16.5 36.5q92 0 92 113q0 276 150 436t348 160t309 -105q88 -86 88 -210t-197 -265q-114 -80 -114 -170t139 -165q237 -128 237 -314z"/>
    <glyph glyph-name="agrave" unicode="à" horiz-adv-x="858" d="M461 1073q0 -53 -43 -53q-35 0 -68 49l-170 250q-4 8 -4 14q0 33 50 60t78 27t32 -13l117 -293q8 -23 8 -41zM461 193v182q0 23 -15 22q-6 0 -12 -2q-141 -71 -141 -189t72 -118q96 1 96 105zM676 -25q-92 0 -162 82q-14 19 -23 19t-26 -17q-82 -82 -203 -82t-174 84 q-27 43 -25 101q0 121 211 231l152 72q35 20 35 47v190q0 72 -105 72q-80 0 -116 -51q-8 -15 -10 -63q-5 -152 -96 -152t-91 78q0 68 43 127t78 82q121 75 249 75t202 -50t75 -113v-508q0 -115 68 -113q31 -2 71 35q9 9 25 -7t12 -26q-57 -113 -190 -113z"/>
    <glyph glyph-name="aacute" unicode="á" horiz-adv-x="858" d="M391 1020q-43 0 -43 53q0 20 9 41l120 301q6 15 33 17t78 -33t49 -56q0 -6 -2 -12l-176 -262q-31 -49 -68 -49zM461 193v182q0 23 -15 22q-6 0 -12 -2q-141 -71 -141 -189t72 -118q96 1 96 105zM676 -25q-92 0 -162 82q-14 19 -23 19t-26 -17q-82 -82 -203 -82t-174 84 q-27 43 -25 101q0 121 211 231l152 72q35 20 35 47v190q0 72 -105 72q-80 0 -116 -51q-8 -15 -10 -63q-5 -152 -96 -152t-91 78q0 68 43 127t78 82q121 75 249 75t202 -50t75 -113v-508q0 -115 68 -113q31 -2 71 35q9 9 25 -7t12 -26q-57 -113 -190 -113z"/>
    <glyph glyph-name="acircumflex" unicode="â" horiz-adv-x="858" d="M662 1051q0 -7 -18 -19t-27 -12q-8 0 -11 4l-182 213q-25 29 -43 29t-43 -29l-182 -213q-4 -4 -12 -4t-26 11t-17 19q0 8 2 13l229 412q16 31 49 31t49 -31l230 -412q2 -4 2 -12zM461 193v182q0 23 -15 22q-6 0 -12 -2q-141 -71 -141 -189t72 -118q96 1 96 105zM676 -25 q-92 0 -162 82q-14 19 -23 19t-26 -17q-82 -82 -203 -82t-174 84q-27 43 -25 101q0 121 211 231l152 72q35 20 35 47v190q0 72 -105 72q-80 0 -116 -51q-8 -15 -10 -63q-5 -152 -96 -152t-91 78q0 68 43 127t78 82q121 75 249 75t202 -50t75 -113v-508q0 -115 68 -113 q31 -2 71 35q9 9 25 -7t12 -26q-57 -113 -190 -113z"/>
    <glyph glyph-name="atilde" unicode="ã" horiz-adv-x="858" d="M250 1112q-63 0 -111 -59q-2 -2 -9 -2t-24 16t-12 27q106 160 220 159q49 1 129 -29t112 -30q63 0 123 61q2 2 8 2t27 -17t10 -28q-111 -164 -219 -163q-41 -1 -131 31t-123 32zM461 193v182q0 23 -15 22q-6 0 -12 -2q-141 -71 -141 -189t72 -118q96 1 96 105zM676 -25 q-92 0 -162 82q-14 19 -23 19t-26 -17q-82 -82 -203 -82t-174 84q-27 43 -25 101q0 121 211 231l152 72q35 20 35 47v190q0 72 -105 72q-80 0 -116 -51q-8 -15 -10 -63q-5 -152 -96 -152t-91 78q0 68 43 127t78 82q121 75 249 75t202 -50t75 -113v-508q0 -115 68 -113 q31 -2 71 35q9 9 25 -7t12 -26q-57 -113 -190 -113z"/>
    <glyph glyph-name="adieresis" unicode="ä" horiz-adv-x="858" d="M217 1049q-122 0 -129 120q0 74 57 111q33 20 72 20q68 0 104 -55q23 -30 23 -65q0 -80 -61 -115q-29 -16 -66 -16zM567 1049q-118 0 -129 120q0 74 58 111q33 20 71 20q68 0 105 -55q20 -28 20 -65q0 -80 -59 -115q-29 -16 -66 -16zM461 193v182q0 23 -15 22 q-6 0 -12 -2q-141 -71 -141 -189t72 -118q96 1 96 105zM676 -25q-92 0 -162 82q-14 19 -23 19t-26 -17q-82 -82 -203 -82t-174 84q-27 43 -25 101q0 121 211 231l152 72q35 20 35 47v190q0 72 -105 72q-80 0 -116 -51q-8 -15 -10 -63q-5 -152 -96 -152t-91 78q0 68 43 127 t78 82q121 75 249 75t202 -50t75 -113v-508q0 -115 68 -113q31 -2 71 35q9 9 25 -7t12 -26q-57 -113 -190 -113z"/>
    <glyph glyph-name="aring" unicode="å" horiz-adv-x="858" d="M525 1245q0 78 -54 123q-23 18 -55 21q-63 0 -96 -76q-12 -29 -12 -68q0 -86 53 -123q25 -16 55 -16q68 0 96 68q13 32 13 71zM662 1245q0 -113 -103 -184q-57 -41 -143 -41q-127 0 -196 88q-50 59 -50 146q0 86 71 150t187 64t187 -88q47 -59 47 -135zM461 193v182 q0 23 -15 22q-6 0 -12 -2q-141 -71 -141 -189t72 -118q96 1 96 105zM676 -25q-92 0 -162 82q-14 19 -23 19t-26 -17q-82 -82 -203 -82t-174 84q-27 43 -25 101q0 121 211 231l152 72q35 20 35 47v190q0 72 -105 72q-80 0 -116 -51q-8 -15 -10 -63q-5 -152 -96 -152t-91 78 q0 68 43 127t78 82q121 75 249 75t202 -50t75 -113v-508q0 -115 68 -113q31 -2 71 35q9 9 25 -7t12 -26q-57 -113 -190 -113z"/>
    <glyph glyph-name="ae" unicode="æ" horiz-adv-x="1236" d="M297 190q0 -61 45 -88q18 -10 39 -10q45 0 98 68q26 37 13.5 70.5t-23.5 136.5q-2 23 -14 22q-8 0 -19 -6q-139 -78 -139 -193zM975 718.5q0 23.5 -36 46.5t-73 23q-59 0 -111 -67t-55 -115q0 -16 15 -16l243 98q17 7 17 30.5zM544 115q-9 0 -34 -23q-59 -68 -108.5 -85 t-104.5 -17q-152 0 -207 88q-23 37 -22 84q0 154 159 219l207 90q35 14 35 59v148q0 111 -98 110q-66 0 -111 -61q-8 -12 -8 -49v-41q0 -76 -45 -111q-25 -18 -60 -18q-88 0 -88 80q0 66 43.5 123t73.5 77q137 82 245.5 82t180.5 -57q27 -25 39 -25t35 21q78 61 180 61 q182 0 277 -88q39 -41 38 -65q0 -27 -57 -51l-387 -162q-41 -16 -41 -92t53 -162q74 -117 195 -117q80 0 160 47q14 8 22 19q14 12 41 -9q27 -26 19 -36q-147 -176 -361 -177q-104 0 -197 68q-29 20 -47 45t-27 25z"/>
    <glyph glyph-name="ccedilla" unicode="ç" horiz-adv-x="878" d="M575 -338q0 -86 -81 -137q-80 -51 -192 -52t-136 60q-6 12 -6 29q0 43 35 61q11 6 35 6t68 -38t67 -37q53 0 53 51q0 78 -144 141q-20 8 -18 18q0 4 4 13l139 205q-104 16 -192 94q-139 123 -140 302t105 316q135 176 350 176q135 0 223 -45q39 -20 54 -45q6 -16 6 -54 t-33 -72q-32 -34 -66 -34t-53 29l-39 66q-38 59 -116 59t-141 -97t-63 -235t85 -228q85 -89 189 -89t182 55q16 12 47 -30q27 -43 8 -54l-82 -53q-96 -55 -217 -63l-74 -101q-8 -12 -8 -19t29 -24q122 -65 122 -174z"/>
    <glyph glyph-name="egrave" unicode="è" horiz-adv-x="874" d="M541 1073q0 -53 -43 -53q-35 0 -68 49l-170 250q-4 8 -4 14q0 33 50 60t78 27t32 -13l117 -293q8 -23 8 -41zM309 653q0 -27 37 -26h203q37 0 37 24q0 68 -56 113q-35 29 -67 27q-63 0 -113 -43q-41 -40 -41 -95zM809 612q0 -76 -90 -75h-385q-37 0 -37 -27 q0 -238 113 -334q61 -53 147 -53t170 55q20 10 48 -26t16 -46q-47 -49 -135 -89t-212 -40t-231 109q-143 143 -145 350q0 166 114 300t286 134q171 0 275 -118q66 -91 66 -140z"/>
    <glyph glyph-name="eacute" unicode="é" horiz-adv-x="874" d="M452 1020q-43 0 -43 53q0 20 9 41l120 301q6 15 33 17t78 -33t49 -56q0 -6 -2 -12l-176 -262q-31 -49 -68 -49zM309 653q0 -27 37 -26h203q37 0 37 24q0 68 -56 113q-35 29 -67 27q-63 0 -113 -43q-41 -40 -41 -95zM809 612q0 -76 -90 -75h-385q-37 0 -37 -27 q0 -238 113 -334q61 -53 147 -53t170 55q20 10 48 -26t16 -46q-47 -49 -135 -89t-212 -40t-231 109q-143 143 -145 350q0 166 114 300t286 134q171 0 275 -118q66 -91 66 -140z"/>
    <glyph glyph-name="ecircumflex" unicode="ê" horiz-adv-x="874" d="M742 1051q0 -7 -18 -19t-27 -12q-8 0 -11 4l-182 213q-25 29 -43 29t-43 -29l-182 -213q-4 -4 -12 -4t-26 11t-17 19q0 8 2 13l229 412q16 31 49 31t49 -31l230 -412q2 -4 2 -12zM309 653q0 -27 37 -26h203q37 0 37 24q0 68 -56 113q-35 29 -67 27q-63 0 -113 -43 q-41 -40 -41 -95zM809 612q0 -76 -90 -75h-385q-37 0 -37 -27q0 -238 113 -334q61 -53 147 -53t170 55q20 10 48 -26t16 -46q-47 -49 -135 -89t-212 -40t-231 109q-143 143 -145 350q0 166 114 300t286 134q171 0 275 -118q66 -91 66 -140z"/>
    <glyph glyph-name="edieresis" unicode="ë" horiz-adv-x="874" d="M287 1049q-122 0 -129 120q0 74 57 111q33 20 72 20q68 0 104 -55q23 -30 23 -65q0 -80 -61 -115q-29 -16 -66 -16zM637 1049q-118 0 -129 120q0 74 58 111q33 20 71 20q68 0 105 -55q20 -28 20 -65q0 -80 -59 -115q-29 -16 -66 -16zM309 653q0 -27 37 -26h203 q37 0 37 24q0 68 -56 113q-35 29 -67 27q-63 0 -113 -43q-41 -40 -41 -95zM809 612q0 -76 -90 -75h-385q-37 0 -37 -27q0 -238 113 -334q61 -53 147 -53t170 55q20 10 48 -26t16 -46q-47 -49 -135 -89t-212 -40t-231 109q-143 143 -145 350q0 166 114 300t286 134 q171 0 275 -118q66 -91 66 -140z"/>
    <glyph glyph-name="igrave" unicode="ì" horiz-adv-x="522" d="M377 1073q0 -53 -43 -53q-35 0 -68 49l-170 250q-4 8 -4 14q0 33 50 60t78 27t32 -13l117 -293q8 -23 8 -41zM393 143q0 -76 103 -75q14 0 15 -38t-15 -38q-84 8 -218 8t-219 -8q-14 0 -15 38t15 38q104 0 105 75v414q0 125 -92 125q-16 0 -16 37t16 37q49 0 149 49 q101 49 117 63t35 15q29 0 26 -27q-6 -84 -6 -174v-539z"/>
    <glyph glyph-name="iacute" unicode="í" horiz-adv-x="522" d="M211 1020q-43 0 -43 53q0 20 9 41l120 301q6 15 33 17t78 -33t49 -56q0 -6 -2 -12l-176 -262q-31 -49 -68 -49zM393 143q0 -76 103 -75q14 0 15 -38t-15 -38q-84 8 -218 8t-219 -8q-14 0 -15 38t15 38q104 0 105 75v414q0 125 -92 125q-16 0 -16 37t16 37q49 0 149 49 q101 49 117 63t35 15q29 0 26 -27q-6 -84 -6 -174v-539z"/>
    <glyph glyph-name="icircumflex" unicode="î" horiz-adv-x="522" d="M561 1051q-1 -7 -19 -19t-26 -12t-11 4l-182 213q-25 29 -43 29t-43 -29l-182 -213q-4 -4 -12 -4q-7 0 -25 11t-18 19t2 13l229 412q16 31 49 31t49 -31l230 -412q2 -4 2 -12zM393 143q0 -76 103 -75q14 0 15 -38t-15 -38q-84 8 -218 8t-219 -8q-14 0 -15 38t15 38 q104 0 105 75v414q0 125 -92 125q-16 0 -16 37t16 37q49 0 149 49q101 49 117 63t35 15q29 0 26 -27q-6 -84 -6 -174v-539z"/>
    <glyph glyph-name="idieresis" unicode="ï" horiz-adv-x="522" d="M86 1049q-122 0 -129 120q0 74 57 111q33 20 72 20q68 0 104 -55q23 -30 23 -65q0 -80 -61 -115q-29 -16 -66 -16zM436 1049q-118 0 -129 120q0 74 58 111q33 20 71 20q68 0 105 -55q20 -28 20 -65q0 -80 -59 -115q-29 -16 -66 -16zM393 143q0 -76 103 -75q14 0 15 -38 t-15 -38q-84 8 -218 8t-219 -8q-14 0 -15 38t15 38q104 0 105 75v414q0 125 -92 125q-16 0 -16 37t16 37q49 0 149 49q101 49 117 63t35 15q29 0 26 -27q-6 -84 -6 -174v-539z"/>
    <glyph glyph-name="eth" unicode="ð" horiz-adv-x="1073" d="M66 449q0 150 104 268q137 154 362 153q-76 76 -200 156q-16 10 -30.5 10t-33.5 -14l-200 -158q-12 -8 -59.5 65t-49.5 85q0 8 8 4q63 -33 91 -33t42 12l88 70q18 14 18.5 22.5t-18.5 18.5q-129 68 -180 88q-18 6 6 59q20 43 39 37q152 -61 201 -87.5t62 -26.5t38 18 l295 229q14 10 64.5 -53t58.5 -80q0 -8 -6 -8l-117 25q-20 0 -31 -9l-186 -147q-18 -14 -18 -23.5t22 -23.5q334 -197 448.5 -362t114.5 -293q0 -222 -125 -349t-331.5 -126t-341.5 127t-135 346zM745 448q0 160 -73 263q-55 82 -131 82t-150 -95t-73 -264.5t81 -283.5 q61 -88 149.5 -88.5t142.5 113t54 273.5z"/>
    <glyph glyph-name="ntilde" unicode="ñ" horiz-adv-x="1085" d="M391 1112q-63 0 -111 -59q-2 -2 -9 -2t-24 16t-12 27q106 160 220 159q49 1 129 -29t112 -30q63 0 123 61q2 2 8 2t27 -17t10 -28q-111 -164 -219 -163q-41 -1 -131 31t-123 32zM858 0q-104 0 -225 -8q-15 0 -15 38t15 38q100 0 100 61v408q0 150 -57 200q-29 25 -93 25 t-127 -53t-63 -117v-449q0 -76 99 -75q14 0 15 -38t-15 -38q-84 8 -218 8t-217 -8q-14 0 -14 38t14 38q106 0 107 75v406q0 133 -92 133q-16 0 -16 37t16 37q49 0 149 49q101 49 117 63t31 15q29 0 30 -27l-6 -68q-1 -18 9 -19t18 9q67 86 233 92q188 0 275 -186 q37 -74 35 -219v-330q0 -68 106 -67q16 0 16 -38t-16 -38q-107 8 -211 8z"/>
    <glyph glyph-name="ograve" unicode="ò" horiz-adv-x="1030" d="M588 1073q0 -53 -43 -53q-35 0 -68 49l-170 250q-4 8 -4 14q1 33 51 60t78 27t31 -13l117 -293q8 -23 8 -41zM516 61q94 0 146 107q52 108 53 272q0 164 -72 273q-53 82 -130 81t-135 -108q-58 -106 -58 -278t71 -275q51 -72 125 -72zM969 426q0 -209 -121 -330 q-122 -121 -318 -120t-330 127q-134 127 -134 309t110 309q131 149 344 149t346 -157q103 -123 103 -287z"/>
    <glyph glyph-name="oacute" unicode="ó" horiz-adv-x="1030" d="M483 1020q-43 0 -43 53q0 20 9 41l120 301q6 15 33 17t78 -33t49 -56q0 -6 -2 -12l-176 -262q-31 -49 -68 -49zM516 61q94 0 146 107q52 108 53 272q0 164 -72 273q-53 82 -130 81t-135 -108q-58 -106 -58 -278t71 -275q51 -72 125 -72zM969 426q0 -209 -121 -330 q-122 -121 -318 -120t-330 127q-134 127 -134 309t110 309q131 149 344 149t346 -157q103 -123 103 -287z"/>
    <glyph glyph-name="ocircumflex" unicode="ô" horiz-adv-x="1030" d="M793 1051q-1 -7 -19 -19t-26 -12t-11 4l-182 213q-25 29 -43 29t-43 -29l-182 -213q-4 -4 -12 -4q-7 0 -25 11t-18 19t2 13l229 412q16 31 49 31t49 -31l230 -412q2 -4 2 -12zM516 61q94 0 146 107q52 108 53 272q0 164 -72 273q-53 82 -130 81t-135 -108 q-58 -106 -58 -278t71 -275q51 -72 125 -72zM969 426q0 -209 -121 -330q-122 -121 -318 -120t-330 127q-134 127 -134 309t110 309q131 149 344 149t346 -157q103 -123 103 -287z"/>
    <glyph glyph-name="otilde" unicode="õ" horiz-adv-x="1030" d="M356 1112q-63 0 -111 -59q-2 -2 -9 -2t-24 16t-12 27q106 160 220 159q49 1 129 -29t112 -30q63 0 123 61q2 2 8 2t27 -17t10 -28q-111 -164 -219 -163q-41 -1 -131 31t-123 32zM516 61q94 0 146 107q52 108 53 272q0 164 -72 273q-53 82 -130 81t-135 -108 q-58 -106 -58 -278t71 -275q51 -72 125 -72zM969 426q0 -209 -121 -330q-122 -121 -318 -120t-330 127q-134 127 -134 309t110 309q131 149 344 149t346 -157q103 -123 103 -287z"/>
    <glyph glyph-name="odieresis" unicode="ö" horiz-adv-x="1030" d="M342 1049q-122 0 -129 120q0 74 57 111q33 20 72 20q68 0 104 -55q23 -30 23 -65q0 -80 -61 -115q-29 -16 -66 -16zM692 1049q-118 0 -129 120q0 74 58 111q33 20 71 20q68 0 105 -55q20 -28 20 -65q0 -80 -59 -115q-29 -16 -66 -16zM516 61q94 0 146 107q52 108 53 272 q0 164 -72 273q-53 82 -130 81t-135 -108q-58 -106 -58 -278t71 -275q51 -72 125 -72zM969 426q0 -209 -121 -330q-122 -121 -318 -120t-330 127q-134 127 -134 309t110 309q131 149 344 149t346 -157q103 -123 103 -287z"/>
    <glyph glyph-name="divide" unicode="÷" horiz-adv-x="1048" d="M659 125q0 -74 -61 -107l-29 -12q-18 -4 -39 -4q-63 0 -101 39t-38 92t37 90t102.5 37t104.5 -51q24 -37 24 -84zM971 383h-889v158h889v-158zM659 786q0 -72 -61 -104q-30 -16 -82 -17t-90 42q-35 35 -35 88t37 90t102.5 37t97.5 -44t31 -92z"/>
    <glyph glyph-name="oslash" unicode="ø" horiz-adv-x="1030" d="M715 389q0 117 -17 186l-313 -434q2 -4 6 -8q51 -72 135 -72q84 -1 136 105t53 223zM342 238l320 444q-8 16 -19 31q-53 82 -130 81t-135 -108q-58 -106 -58 -238t22 -210zM206 -94q-11 0 -36 18q-33 27 -23 41l80 113q-161 134 -161 346q0 170 110 297q131 150 340 149 q135 0 238 -59l77 107q5 8 17 8t44 -21t15 -41l-80 -110q141 -127 141 -332q1 -205 -120 -326t-330 -119q-119 0 -215 50l-82 -115q-4 -6 -15 -6z"/>
    <glyph glyph-name="ugrave" unicode="ù" horiz-adv-x="1026" d="M594 1073q0 -53 -43 -53q-35 0 -68 49l-170 250q-4 8 -4 14q1 33 51 60t78 27t31 -13l117 -293q8 -23 8 -41zM981 98q11 0 31 5t26 -20t6 -37t-7 -15q-7 -2 -90 -17t-137 -32t-68 -17t-13 45v47q0 23 -12 23t-27 -14q-92 -88 -232 -88t-184 34q-147 119 -147 297v346 q0 102 -84 103q-14 0 -14 36t14 37q113 -1 183 11t91 12q45 0 45 -43q-6 -98 -6 -162v-342q0 -123 50 -182q29 -33 95 -33q65 0 127 49t62 99v415q0 102 -84 103q-16 0 -16 36t16 37q111 -1 183 11t85 12q53 0 54 -37q-8 -94 -8 -155v-406q0 -90 10 -117q14 -41 51 -41z"/>
    <glyph glyph-name="uacute" unicode="ú" horiz-adv-x="1026" d="M469 1020q-43 0 -43 53q0 20 9 41l120 301q6 15 33 17t78 -33t49 -56q0 -6 -2 -12l-176 -262q-31 -49 -68 -49zM981 98q11 0 31 5t26 -20t6 -37t-7 -15q-7 -2 -90 -17t-137 -32t-68 -17t-13 45v47q0 23 -12 23t-27 -14q-92 -88 -232 -88t-184 34q-147 119 -147 297v346 q0 102 -84 103q-14 0 -14 36t14 37q113 -1 183 11t91 12q45 0 45 -43q-6 -98 -6 -162v-342q0 -123 50 -182q29 -33 95 -33q65 0 127 49t62 99v415q0 102 -84 103q-16 0 -16 36t16 37q111 -1 183 11t85 12q53 0 54 -37q-8 -94 -8 -155v-406q0 -90 10 -117q14 -41 51 -41z"/>
    <glyph glyph-name="ucircumflex" unicode="û" horiz-adv-x="1026" d="M783 1051q-1 -7 -19 -19t-26 -12t-11 4l-182 213q-25 29 -43 29t-43 -29l-182 -213q-4 -4 -12 -4q-7 0 -25 11t-18 19t2 13l229 412q16 31 49 31t49 -31l230 -412q2 -4 2 -12zM981 98q11 0 31 5t26 -20t6 -37t-7 -15q-7 -2 -90 -17t-137 -32t-68 -17t-13 45v47 q0 23 -12 23t-27 -14q-92 -88 -232 -88t-184 34q-147 119 -147 297v346q0 102 -84 103q-14 0 -14 36t14 37q113 -1 183 11t91 12q45 0 45 -43q-6 -98 -6 -162v-342q0 -123 50 -182q29 -33 95 -33q65 0 127 49t62 99v415q0 102 -84 103q-16 0 -16 36t16 37q111 -1 183 11 t85 12q53 0 54 -37q-8 -94 -8 -155v-406q0 -90 10 -117q14 -41 51 -41z"/>
    <glyph glyph-name="udieresis" unicode="ü" horiz-adv-x="1026" d="M319 1049q-122 0 -129 120q0 74 57 111q33 20 72 20q68 0 104 -55q23 -30 23 -65q0 -80 -61 -115q-29 -16 -66 -16zM669 1049q-118 0 -129 120q0 74 58 111q33 20 71 20q68 0 105 -55q20 -28 20 -65q0 -80 -59 -115q-29 -16 -66 -16zM981 98q11 0 31 5t26 -20t6 -37 t-7 -15q-7 -2 -90 -17t-137 -32t-68 -17t-13 45v47q0 23 -12 23t-27 -14q-92 -88 -232 -88t-184 34q-147 119 -147 297v346q0 102 -84 103q-14 0 -14 36t14 37q113 -1 183 11t91 12q45 0 45 -43q-6 -98 -6 -162v-342q0 -123 50 -182q29 -33 95 -33q65 0 127 49t62 99v415 q0 102 -84 103q-16 0 -16 36t16 37q111 -1 183 11t85 12q53 0 54 -37q-8 -94 -8 -155v-406q0 -90 10 -117q14 -41 51 -41z"/>
    <glyph glyph-name="yacute" unicode="ý" horiz-adv-x="882" d="M436 1020q-43 0 -43 53q0 20 9 41l120 301q6 15 33 17t78 -33t49 -56q0 -6 -2 -12l-176 -262q-31 -49 -68 -49zM129 -553q-49 0 -82 37t-33 74q0 61 60 92q31 14 65 14q104 0 121 39l78 182q6 18 6 35t-6 35l-270 758q-27 72 -107 71q-14 0 -14 36t14 36q63 -6 207 -6 t207 6q14 0 14 -36t-14 -36q-80 0 -80 -47q0 -14 8 -37l152 -424q6 -20 17 -20t22 23l165 421q4 12 5 23q0 61 -121 61q-17 0 -17 36t17 36q59 -6 184 -6t184 6q17 0 17 -36t-17 -36q-92 0 -125 -59l-448 -1124q-41 -106 -127 -142q-33 -12 -82 -12z"/>
    <glyph glyph-name="thorn" unicode="þ" horiz-adv-x="1044" d="M723 457q0 322 -178 321q-104 0 -166 -90q-12 -25 -12 -63v-525q0 -18 18 -18h10q131 16 211 113q117 141 117 262zM977 508q0 -264 -242 -416q-104 -66 -344 -104q-25 -4 -24 -33v-348q0 -80 -82 -107l-174 -57q-29 -6 -54 39q-18 39 4 53l62 43q14 8 14 31v1544 q0 133 -92 133q-14 0 -14 37t14 37q43 0 147 49t122 63q17 14 32 15q29 0 29 -29q-8 -131 -8 -229v-404q0 -23 14 -22q8 0 18 8q69 59 209 59t244 -77q125 -95 125 -285z"/>
    <glyph glyph-name="ydieresis" unicode="ÿ" horiz-adv-x="882" d="M283 1049q-122 0 -129 120q0 74 57 111q33 20 72 20q68 0 104 -55q23 -30 23 -65q0 -80 -61 -115q-29 -16 -66 -16zM633 1049q-118 0 -129 120q0 74 58 111q33 20 71 20q68 0 105 -55q20 -28 20 -65q0 -80 -59 -115q-29 -16 -66 -16zM129 -553q-49 0 -82 37t-33 74 q0 61 60 92q31 14 65 14q104 0 121 39l78 182q6 18 6 35t-6 35l-270 758q-27 72 -107 71q-14 0 -14 36t14 36q63 -6 207 -6t207 6q14 0 14 -36t-14 -36q-80 0 -80 -47q0 -14 8 -37l152 -424q6 -20 17 -20t22 23l165 421q4 12 5 23q0 61 -121 61q-17 0 -17 36t17 36 q59 -6 184 -6t184 6q17 0 17 -36t-17 -36q-92 0 -125 -59l-448 -1124q-41 -106 -127 -142q-33 -12 -82 -12z"/>
    <glyph glyph-name="Amacron" unicode="Ā" horiz-adv-x="1400" d="M1012 1661q26 1 24 -53t-28 -54h-590q-25 0 -26 54t26 53h594zM634 1083q-11 0 -18 -16l-157 -432l-4 -17q0 -10 20 -12h293q29 0 29 23q0 6 -4 14l-144 424q-4 16 -15 16zM1399 86q14 0 14 -46t-14 -46q-115 6 -265 6t-276 -6q-14 0 -14 46t14 46q96 0 96 66 q0 20 -10 51l-100 297q-6 23 -33 22h-375q-20 0 -30 -28l-109 -293q-8 -25 -10 -41q0 -74 147 -74q12 0 12 -46t-12 -46q-84 6 -234 6t-227 -6q-14 0 -14 46t14 46q152 0 201 131l371 969q12 31 12 38q-1 8 -15 22t-14 22q0 14 34 26t104 53q70 42 90 42q33 1 44 -47 t52 -164l344 -975q41 -117 203 -117z"/>
    <glyph glyph-name="amacron" unicode="ā" horiz-adv-x="858" d="M645 1239q27 0 27 -55t-31 -56h-446q-23 0 -23 55.5t23 55.5h450zM461 193v182q0 23 -15 22q-6 0 -12 -2q-141 -72 -141 -189.5t72 -117.5q96 1 96 105zM676 -25q-92 0 -162 82q-14 18 -23 18.5t-26 -16.5q-82 -82 -203 -82t-174 84q-27 43 -25 101q0 121 211 231l152 72 q35 20 35 47v190q0 72 -105 72q-80 0 -116 -51q-8 -15 -10 -63q-5 -152 -96 -152t-91 78q0 68 43 127t78 82q121 76 249 75.5t202 -50.5t75 -113v-508q0 -115 68 -113q31 -2 71 35q8 8 24.5 -7.5t12.5 -25.5q-57 -113 -190 -113z"/>
    <glyph glyph-name="Abreve" unicode="Ă" horiz-adv-x="1400" d="M971 1792q0 -307 -289 -307t-289 307q0 8 29 8t33 -8q39 -172 227 -172t227 172q2 8 32 8t30 -8zM634 1083q-11 0 -18 -16l-157 -432l-4 -17q0 -10 20 -12h293q29 0 29 23q0 6 -4 14l-144 424q-4 16 -15 16zM1399 86q14 0 14 -46t-14 -46q-115 6 -265 6t-276 -6 q-14 0 -14 46t14 46q96 0 96 66q0 20 -10 51l-100 297q-6 23 -33 22h-375q-20 0 -30 -28l-109 -293q-8 -25 -10 -41q0 -74 147 -74q12 0 12 -46t-12 -46q-84 6 -234 6t-227 -6q-14 0 -14 46t14 46q152 0 201 131l371 969q12 31 12 38q-1 8 -15 22t-14 22q0 14 34 26t104 53 q70 42 90 42q33 1 44 -47t52 -164l344 -975q41 -117 203 -117z"/>
    <glyph glyph-name="abreve" unicode="ă" horiz-adv-x="858" d="M688 1327q0 -307 -289 -307t-289 307q0 8 29 8t33 -8q39 -172 227 -172t227 172q2 8 32 8t30 -8zM461 193v182q0 23 -15 22q-6 0 -12 -2q-141 -71 -141 -189t72 -118q96 1 96 105zM676 -25q-92 0 -162 82q-14 19 -23 19t-26 -17q-82 -82 -203 -82t-174 84q-27 43 -25 101 q0 121 211 231l152 72q35 20 35 47v190q0 72 -105 72q-80 0 -116 -51q-8 -15 -10 -63q-5 -152 -96 -152t-91 78q0 68 43 127t78 82q121 75 249 75t202 -50t75 -113v-508q0 -115 68 -113q31 -2 71 35q9 9 25 -7t12 -26q-57 -113 -190 -113z"/>
    <glyph glyph-name="Aogonek" unicode="Ą" horiz-adv-x="1400" d="M1399 86q14 0 14 -46t-14 -46q-98 6 -223 6q-123 -141 -123 -246q0 -121 123 -121q61 0 102 31q20 -6 20 -39q-76 -113 -217 -112q-205 0 -204 184q0 141 180 303q-106 0 -199 -6q-14 0 -14 46t14 46q96 0 96 66q0 20 -10 51l-100 297q-6 23 -33 22h-375q-20 0 -30 -28 l-109 -293q-8 -25 -10 -41q0 -74 147 -74q12 0 12 -46t-12 -46q-84 6 -234 6t-227 -6q-14 0 -14 46t14 46q152 0 201 131l371 969q12 31 12 38t-14.5 21.5t-14.5 22.5q0 14 34 25.5t103.5 53.5t90.5 42q33 0 44 -47.5t52 -163.5l344 -975q41 -117 203 -117zM634 1083 q-11 0 -18 -16l-157 -432l-4 -17q0 -10 20 -12h293q29 0 29 23q0 6 -4 14l-144 424q-4 16 -15 16z"/>
    <glyph glyph-name="aogonek" unicode="ą" horiz-adv-x="858" d="M262 -23q-121 0 -174 84q-27 43 -25 101q0 121 211 231l152 72q35 20 35 47v190q0 72 -105 72q-80 0 -116 -51q-8 -15 -10 -63q-5 -152 -96 -152t-91 78q0 68 43 127t78 82q121 75 249 75t202 -50t75 -113v-508q0 -115 68 -113q31 -2 71 35q9 8 25 -7t12 -26 q-57 -113 -188 -113q-102 -127 -105 -221q0 -121 123 -121q61 0 105 31q20 -6 18 -39q-76 -113 -217 -112q-205 0 -205 184q1 141 183 303q-36 20 -58 48t-31 28t-26 -17q-82 -82 -203 -82zM461 193v182q0 23 -15 22q-6 0 -12 -2q-141 -71 -141 -189t72 -118q96 1 96 105z "/>
    <glyph glyph-name="Cacute" unicode="Ć" horiz-adv-x="1347" d="M736 1475q-20 0 -36 11t-16 38t39 55l260 199q6 6 14 6q24 0 56 -52t32 -78q0 -25 -10 -30l-289 -135q-31 -14 -50 -14zM55 656q0 304 205 516t535 212q129 0 338 -43q55 -10 106 -12q33 -90 41 -325q0 -18 -46 -22t-48 13q-10 111 -66 177q-103 124 -321 124 q-219 0 -345 -168t-126 -444t140 -446t316 -170q342 0 441 276q6 18 51 8t45 -30q-4 -58 -42 -154t-62 -131q-47 -6 -89 -21q-154 -43 -358 -43q-293 -1 -504 189t-211 494z"/>
    <glyph glyph-name="cacute" unicode="ć" horiz-adv-x="878" d="M501 1020q-43 0 -43 53q0 20 9 41l120 301q6 15 33 17t78 -33t49 -56q0 -6 -2 -12l-176 -262q-31 -49 -68 -49zM805 726q-1 -38 -33 -72t-66 -33q-34 0 -53 28l-39 66q-38 59 -116 59t-141 -97t-63 -235t85 -228q85 -89 189 -89t182 55q16 12 47 -30q27 -43 8 -54 l-82 -53q-117 -66 -261 -66t-255 99q-139 123 -140 302t105 316q135 176 350 176q135 0 223 -45q39 -20 54 -45q6 -16 6 -54z"/>
    <glyph glyph-name="Ccircumflex" unicode="Ĉ" horiz-adv-x="1347" d="M1167 1512q0 -8 -9 -22q-9 -15 -19 -15h-2l-269 124q-39 17 -73 0l-267 -124h-2q-22 9 -33 41q0 4 5 8l282 252q51 44 101 0l282 -252q4 -4 4 -12zM55 656q0 304 205 516t535 212q129 0 338 -43q55 -10 106 -12q33 -90 41 -325q0 -18 -46 -22t-48 13q-10 111 -66 177 q-103 124 -321 124q-219 0 -345 -168t-126 -444t140 -446t316 -170q342 0 441 276q6 18 51 8t45 -30q-4 -58 -42 -154t-62 -131q-47 -6 -89 -21q-154 -43 -358 -43q-293 -1 -504 189t-211 494z"/>
    <glyph glyph-name="ccircumflex" unicode="ĉ" horiz-adv-x="878" d="M774 1051q0 -7 -18 -19t-27 -12q-8 0 -11 4l-182 213q-25 29 -43 29t-43 -29l-182 -213q-4 -4 -12 -4t-26 11t-17 19q0 8 2 13l229 412q16 31 49 31t49 -31l230 -412q2 -4 2 -12zM805 726q-1 -38 -33 -72t-66 -33q-34 0 -53 28l-39 66q-38 59 -116 59t-141 -97t-63 -235 t85 -228q85 -89 189 -89t182 55q16 12 47 -30q27 -43 8 -54l-82 -53q-117 -66 -261 -66t-255 99q-139 123 -140 302t105 316q135 176 350 176q135 0 223 -45q39 -20 54 -45q6 -16 6 -54z"/>
    <glyph glyph-name="Cdotaccent" unicode="Ċ" horiz-adv-x="1347" d="M668 1702q0 57 41 98t98 41t99 -41t42 -98t-41 -98t-99 -41t-99 41t-41 98zM55 656q0 304 205 516t535 212q129 0 338 -43q55 -10 106 -12q33 -90 41 -325q0 -18 -46 -22t-48 13q-10 111 -66 177q-103 124 -321 124q-219 0 -345 -168t-126 -444t140 -446t316 -170 q342 0 441 276q6 18 51 8t45 -30q-4 -58 -42 -154t-62 -131q-47 -6 -89 -21q-154 -43 -358 -43q-293 -1 -504 189t-211 494z"/>
    <glyph glyph-name="cdotaccent" unicode="ċ" horiz-adv-x="878" d="M371 1188q0 57 41 98t98 41t99 -41t42 -98t-41 -98t-99 -41t-99 41t-41 98zM805 726q-1 -38 -33 -72t-66 -33q-34 0 -53 28l-39 66q-38 59 -116 59t-141 -97t-63 -235t85 -228q85 -89 189 -89t182 55q16 12 47 -30q27 -43 8 -54l-82 -53q-117 -66 -261 -66t-255 99 q-139 123 -140 302t105 316q135 176 350 176q135 0 223 -45q39 -20 54 -45q6 -16 6 -54z"/>
    <glyph glyph-name="Ccaron" unicode="Č" horiz-adv-x="1347" d="M506 1798q2 0 2 -2l268 -123q43 -19 74 0l266 123l5 2q22 -9 30 -43q0 -4 -4 -8l-282 -250q-51 -44 -101 0l-282 250q-10 10 2 30q12 21 22 21zM55 656q0 304 205 516t535 212q129 0 338 -43q55 -10 106 -12q33 -90 41 -325q0 -18 -46 -22t-48 13q-10 111 -66 177 q-103 124 -321 124q-219 0 -345 -168t-126 -444t140 -446t316 -170q342 0 441 276q6 18 51 8t45 -30q-4 -58 -42 -154t-62 -131q-47 -6 -89 -21q-154 -43 -358 -43q-293 -1 -504 189t-211 494z"/>
    <glyph glyph-name="ccaron" unicode="č" horiz-adv-x="878" d="M522 1020q-33 0 -49 31l-229 411q-2 2 -2 12t19 22t25 11q6 0 11 -6l182 -213q33 -39 43 -39t43 39l182 213q12 12 34 -4q22 -17 22 -25t-2 -10l-230 -411q-16 -31 -49 -31zM805 726q-1 -38 -33 -72t-66 -33q-34 0 -53 28l-39 66q-38 59 -116 59t-141 -97t-63 -235 t85 -228q85 -89 189 -89t182 55q16 12 47 -30q27 -43 8 -54l-82 -53q-117 -66 -261 -66t-255 99q-139 123 -140 302t105 316q135 176 350 176q135 0 223 -45q39 -20 54 -45q6 -16 6 -54z"/>
    <glyph glyph-name="Dcaron" unicode="Ď" horiz-adv-x="1566" d="M385 1798q2 0 2 -2l268 -123q43 -19 74 0l266 123l5 2q22 -9 30 -43q0 -4 -4 -8l-282 -250q-51 -44 -101 0l-282 250q-10 10 2 30q12 21 22 21zM481 272q0 -150 86 -186q39 -14 131 -14q216 0 366 170t150 475q0 213 -152 388t-425 175h-80q-76 0 -76 -80v-928zM61 40 q0 46 15 46q162 0 162 117v952q0 109 -172 111q-14 0 -14 46t14 46q143 -6 238 -6l415 6q330 0 549 -169t219 -464q-1 -339 -199 -535t-522 -196l-456 6q-104 0 -234 -6q-15 0 -15 46z"/>
    <glyph glyph-name="dcaron" unicode="ď" horiz-adv-x="1034" d="M1046 1491q125 0 125 -47q0 -143 -94 -283q-39 -53 -67 -53t-29 35q1 20 19 65q18 46 18 112t-14 105t-13 43q0 23 55 23zM674 141v553q0 43 -4 52t-34 28t-95 19q-133 0 -197 -144q-39 -88 -37 -205q0 -193 78 -303q59 -82 145 -81t129 53q15 18 15 28zM723 -35 q-10 0 -10 45v29q0 23 -11 22q-12 0 -28 -14q-94 -70 -195 -70q-244 0 -354 175q-72 110 -72 276t121 293q147 150 393 149q49 0 78 -3t29 22v272q0 125 -92 125q-16 0 -16 38t16 36q48 0 150 50t117 64t30 13q31 0 30 -33q-6 -70 -6 -168v-1030q0 -90 10 -117 q14 -41 54 -41q12 0 32 6q16 4 27 -30q8 -39 -4 -43q-29 -12 -156 -35q-102 -27 -131 -31h-12z"/>
    <glyph glyph-name="Dcroat" unicode="Đ" horiz-adv-x="1566" d="M1214 717q0 176 -98 323q-164 240 -479 240h-80q-76 0 -76 -80v-452q0 -29 27 -29h229q11 0 13 -47t-13 -47h-229q-27 0 -27 -31v-322q0 -150 86 -186q39 -16 131 -14q213 0 353 151q163 181 163 494zM1487 716q0 -328 -200 -527q-200 -198 -521 -195l-426 6 q-166 0 -264 -6q-14 0 -16 46t16 46q162 0 162 117v391q0 31 -29 31h-180q-15 0 -15 47t15 47h180q29 0 29 29v407q0 109 -172 111q-14 0 -14 46t14 46q143 -6 286 -6l367 6q303 0 510 -139q258 -175 258 -503z"/>
    <glyph glyph-name="dcroat" unicode="đ" horiz-adv-x="1034" d="M674 141v553q0 43 -4 52t-34 28t-95 19q-129 0 -197 -131q-49 -94 -49 -218q0 -180 80 -292q65 -90 153 -90t131 51q15 18 15 28zM903 1200q0 -37 37 -37h133q16 0 16.5 -52t-16.5 -52h-133q-37 0 -37 -37v-766q0 -90 10 -117q14 -41 54 -41q12 0 32 6q18 4 26.5 -32.5 t-3.5 -40.5q-70 -14 -181 -41t-120 -24q-8 3 -8 44v29q0 23 -11 22q-8 0 -28 -14q-94 -70 -195 -70q-231 0 -340 168q-73 113 -73 281t120 295q143 150 381 149q45 0 99 -6q8 2 8 25v133q0 37 -37 37h-156q-14 0 -14 52t14 52h156q37 0 37 17q-10 106 -92 106 q-16 0 -16.5 37t16.5 37q48 0 150 50t117 64t30 13q31 0 30 -33l-6 -168v-86z"/>
    <glyph glyph-name="Emacron" unicode="Ē" horiz-adv-x="1249" d="M936 1661q26 1 24 -53t-28 -54h-590q-25 0 -26 54t26 53h594zM61 40q0 46 15 46q162 0 162 117v952q0 109 -172 111q-14 0 -14 46t14 46q143 -6 299 -6l706 6q57 0 57 -51v-306q0 -17 -50 -17t-50 17q0 129 -98 205q-61 47 -125 49l-297 11q-27 0 -27 -41v-508 q0 -29 29 -31h135q123 0 123 92v99q0 14 52 14t52 -14q-6 -68 -6 -232t6 -225q0 -14 -52 -16t-52 16v86q0 88 -123 88h-135q-29 0 -29 -31v-342q0 -78 74 -115q39 -20 82 -20l223 4q158 2 205 137q18 49 18 117q-1 16 51 16t52 -16v-287q0 -63 -119 -63l-694 6 q-162 0 -297 -6q-15 0 -15 46z"/>
    <glyph glyph-name="emacron" unicode="ē" horiz-adv-x="874" d="M686 1239q27 0 27 -55t-31 -56h-446q-23 0 -23 56t23 55h450zM309 653q0 -27 37 -26h203q37 0 37 24q0 68 -56 113q-35 29 -67 27q-63 0 -113 -43q-41 -40 -41 -95zM809 612q0 -76 -90 -75h-385q-37 0 -37 -27q0 -238 113 -334q61 -53 147 -53t170 55q20 10 48 -26 t16 -46q-47 -49 -135 -89t-212 -40t-231 109q-143 143 -145 350q0 166 114 300t286 134q171 0 275 -118q66 -91 66 -140z"/>
    <glyph glyph-name="Ebreve" unicode="Ĕ" horiz-adv-x="1249" d="M938 1792q0 -307 -289 -307t-289 307q0 8 29 8t33 -8q39 -172 227 -172t227 172q2 8 32 8t30 -8zM61 40q0 46 15 46q162 0 162 117v952q0 109 -172 111q-14 0 -14 46t14 46q143 -6 299 -6l706 6q57 0 57 -51v-306q0 -17 -50 -17t-50 17q0 129 -98 205q-61 47 -125 49 l-297 11q-27 0 -27 -41v-508q0 -29 29 -31h135q123 0 123 92v99q0 14 52 14t52 -14q-6 -68 -6 -232t6 -225q0 -14 -52 -16t-52 16v86q0 88 -123 88h-135q-29 0 -29 -31v-342q0 -78 74 -115q39 -20 82 -20l223 4q158 2 205 137q18 49 18 117q-1 16 51 16t52 -16v-287 q0 -63 -119 -63l-694 6q-162 0 -297 -6q-15 0 -15 46z"/>
    <glyph glyph-name="ebreve" unicode="ĕ" horiz-adv-x="874" d="M750 1327q0 -307 -289 -307t-289 307q0 8 29 8t33 -8q39 -172 227 -172t227 172q2 8 32 8t30 -8zM309 653q0 -27 37 -26h203q37 0 37 24q0 68 -56 113q-35 29 -67 27q-63 0 -113 -43q-41 -40 -41 -95zM809 612q0 -76 -90 -75h-385q-37 0 -37 -27q0 -238 113 -334 q61 -53 147 -53t170 55q20 10 48 -26t16 -46q-47 -49 -135 -89t-212 -40t-231 109q-143 143 -145 350q0 166 114 300t286 134q171 0 275 -118q66 -91 66 -140z"/>
    <glyph glyph-name="Edotaccent" unicode="Ė" horiz-adv-x="1249" d="M516 1702q0 57 41 98t98 41t99 -41t42 -98t-41 -98t-99 -41t-99 41t-41 98zM61 40q0 46 15 46q162 0 162 117v952q0 109 -172 111q-14 0 -14 46t14 46q143 -6 299 -6l706 6q57 0 57 -51v-306q0 -17 -50 -17t-50 17q0 129 -98 205q-61 47 -125 49l-297 11q-27 0 -27 -41 v-508q0 -29 29 -31h135q123 0 123 92v99q0 14 52 14t52 -14q-6 -68 -6 -232t6 -225q0 -14 -52 -16t-52 16v86q0 88 -123 88h-135q-29 0 -29 -31v-342q0 -78 74 -115q39 -20 82 -20l223 4q158 2 205 137q18 49 18 117q-1 16 51 16t52 -16v-287q0 -63 -119 -63l-694 6 q-162 0 -297 -6q-15 0 -15 46z"/>
    <glyph glyph-name="edotaccent" unicode="ė" horiz-adv-x="874" d="M322 1188q0 57 41 98t98 41t99 -41t42 -98t-41 -98t-99 -41t-99 41t-41 98zM309 653q0 -27 37 -26h203q37 0 37 24q0 68 -56 113q-35 29 -67 27q-63 0 -113 -43q-41 -40 -41 -95zM809 612q0 -76 -90 -75h-385q-37 0 -37 -27q0 -238 113 -334q61 -53 147 -53t170 55 q20 10 48 -26t16 -46q-47 -49 -135 -89t-212 -40t-231 109q-143 143 -145 350q0 166 114 300t286 134q171 0 275 -118q66 -91 66 -140z"/>
    <glyph glyph-name="Eogonek" unicode="Ę" horiz-adv-x="1249" d="M76 86q162 0 162 117v952q0 109 -172 111q-14 0 -14.5 46t14.5 46q143 -6 182 -6l823 6q57 0 57 -51v-306q0 -16 -50 -17t-50 17q0 129 -98 205q-61 47 -125 49l-297 11q-27 0 -27 -41v-508q0 -29 29 -31h135q123 0 123 92v99q0 14 52 14t52 -14q-6 -68 -6 -232t6 -225 q0 -14 -52 -15.5t-52 15.5v86q0 88 -123 88h-135q-29 0 -29 -31v-342q0 -78 74 -115q39 -20 82 -20l223 4q158 2 205 137q18 49 18 117q0 16 51.5 16t51.5 -16v-287q0 -63 -119 -63h-66q-119 -137 -118 -240q0 -121 123 -121q61 0 104 31q20 -6 18 -39q-76 -113 -217 -112 q-205 0 -204 184q0 139 176 297l-336 3q-336 3 -471 -3q-14 0 -15.5 46t15.5 46z"/>
    <glyph glyph-name="eogonek" unicode="ę" horiz-adv-x="874" d="M809 614q0 -78 -90 -77h-385q-37 0 -37 -27q0 -240 87 -313.5t173 -73.5t170 55q20 10 49 -26.5t15 -45.5q-121 -78 -184.5 -183t-63.5 -169q0 -121 123 -121q61 0 102 31q20 -6 20 -39q-76 -113 -217 -112q-88 0 -146 45.5t-58 123.5q0 147 165 281q29 23 -10 19 q-31 -4 -67 -5q-111 0 -249 110t-138 349q0 172 117.5 303t273.5 131q104 0 184 -39.5t123 -108.5t43 -108zM586 651q0 57 -41 98.5t-93 41.5t-97.5 -39t-45.5 -99q0 -27 37 -26h203q37 -1 37 24z"/>
    <glyph glyph-name="Ecaron" unicode="Ě" horiz-adv-x="1249" d="M350 1798q2 0 2 -2l268 -123q43 -19 74 0l266 123l5 2q22 -9 30 -43q0 -4 -4 -8l-282 -250q-51 -44 -101 0l-282 250q-10 10 2 30q12 21 22 21zM61 40q0 46 15 46q162 0 162 117v952q0 109 -172 111q-14 0 -14 46t14 46q143 -6 299 -6l706 6q57 0 57 -51v-306 q0 -17 -50 -17t-50 17q0 129 -98 205q-61 47 -125 49l-297 11q-27 0 -27 -41v-508q0 -29 29 -31h135q123 0 123 92v99q0 14 52 14t52 -14q-6 -68 -6 -232t6 -225q0 -14 -52 -16t-52 16v86q0 88 -123 88h-135q-29 0 -29 -31v-342q0 -78 74 -115q39 -20 82 -20l223 4 q158 2 205 137q18 49 18 117q-1 16 51 16t52 -16v-287q0 -63 -119 -63l-694 6q-162 0 -297 -6q-15 0 -15 46z"/>
    <glyph glyph-name="ecaron" unicode="ě" horiz-adv-x="874" d="M461 1020q-33 0 -49 31l-229 411q-2 2 -2 12t19 22q20 12 26 11q6 0 10 -6l182 -213q33 -39 43 -39t43 39l182 213q12 12 34 -4q22 -17 22 -25t-2 -10l-230 -411q-16 -31 -49 -31zM309 653q0 -27 37 -26h203q37 0 37 24q0 68 -56 113q-35 29 -67 27q-63 0 -113 -43 q-41 -40 -41 -95zM809 612q0 -76 -90 -75h-385q-37 0 -37 -27q0 -238 113 -334q61 -53 147 -53t170 55q20 10 48 -26t16 -46q-47 -49 -135 -89t-212 -40t-231 109q-143 143 -145 350q0 166 114 300t286 134q171 0 275 -118q66 -91 66 -140z"/>
    <glyph glyph-name="Gcircumflex" unicode="Ĝ" horiz-adv-x="1441" d="M1134 1512q0 -8 -9 -22q-9 -15 -19 -15h-2l-269 124q-39 17 -73 0l-267 -124h-2q-22 9 -33 41q0 4 5 8l282 252q51 44 101 0l282 -252q4 -4 4 -12zM1118 563q213 0 273 6q13 0 13 -46t-13 -46q-109 0 -109 -76v-241q0 -45 43 -45q14 0 14 -40t-14 -40q-49 0 -235 -31 t-320 -31q-262 0 -463 154q-252 199 -252 520q0 266 152 463q213 274 588 274q131 0 317 -36q70 -18 127 -19q29 -59 39 -274l2 -51q0 -18 -45 -22t-49 13q-18 209 -211 275q-80 26 -187 26q-208 0 -334 -168t-126 -423q0 -325 150 -481t306 -156q110 0 182 24t72 68v241 q0 76 -112 76h-80q-14 0 -14 46t14 46q59 -6 272 -6z"/>
    <glyph glyph-name="gcircumflex" unicode="ĝ" horiz-adv-x="946" d="M723 1051q-1 -7 -19 -19t-26 -12t-11 4l-182 213q-25 29 -43 29t-43 -29l-182 -213q-4 -4 -12 -4q-7 0 -25 11t-18 19t2 13l229 412q16 31 49 31t49 -31l230 -412q2 -4 2 -12zM811 -242q0 131 -236 131h-213q-20 0 -40 -14q-64 -45 -64 -122t64 -135t182 -58 q252 0 299 141q8 26 8 57zM592 522q0 176 -72 242q-31 29 -74 29q-72 0 -118 -86q-39 -71 -39 -175t52 -170t120 -67q88 0 119 119q12 49 12 108zM981 -139q0 -164 -147 -283q-172 -137 -422 -137q-299 0 -371 147q-20 41 -21 93q0 82 103 165q35 30 65 44t29 20q0 6 -16 14 q-133 55 -133 174q0 76 145 138q16 6 16 12t-18 18q-154 96 -154 262q0 142 111 242t274 100q112 0 200 -36t114 -37h192q16 1 16 -57t-16 -58h-92q-31 0 -31 -29v-78q0 -170 -111 -264t-284 -94q-50 0 -84 3t-45 -3q-37 -31 -37 -61t36 -46q36 -17 91 -18h254 q129 0 193 -20q143 -47 143 -211z"/>
    <glyph glyph-name="Gbreve" unicode="Ğ" horiz-adv-x="1441" d="M1086 1792q0 -307 -289 -307t-289 307q0 8 29 8t33 -8q39 -172 227 -172t227 172q2 8 32 8t30 -8zM1118 563q213 0 273 6q13 0 13 -46t-13 -46q-109 0 -109 -76v-241q0 -45 43 -45q14 0 14 -40t-14 -40q-49 0 -235 -31t-320 -31q-262 0 -463 154q-252 199 -252 520 q0 266 152 463q213 274 588 274q131 0 317 -36q70 -18 127 -19q29 -59 39 -274l2 -51q0 -18 -45 -22t-49 13q-18 209 -211 275q-80 26 -187 26q-208 0 -334 -168t-126 -423q0 -325 150 -481t306 -156q110 0 182 24t72 68v241q0 76 -112 76h-80q-14 0 -14 46t14 46 q59 -6 272 -6z"/>
    <glyph glyph-name="gbreve" unicode="ğ" horiz-adv-x="946" d="M731 1327q0 -307 -289 -307t-289 307q0 8 29 8t33 -8q39 -172 227 -172t227 172q2 8 32 8t30 -8zM811 -242q0 131 -236 131h-213q-20 0 -40 -14q-64 -45 -64 -122t64 -135t182 -58q252 0 299 141q8 26 8 57zM592 522q0 176 -72 242q-31 29 -74 29q-72 0 -118 -86 q-39 -71 -39 -175t52 -170t120 -67q88 0 119 119q12 49 12 108zM981 -139q0 -164 -147 -283q-172 -137 -422 -137q-299 0 -371 147q-20 41 -21 93q0 82 103 165q35 30 65 44t29 20q0 6 -16 14q-133 55 -133 174q0 76 145 138q16 6 16 12t-18 18q-154 96 -154 262 q0 142 111 242t274 100q112 0 200 -36t114 -37h192q16 1 16 -57t-16 -58h-92q-31 0 -31 -29v-78q0 -170 -111 -264t-284 -94q-50 0 -84 3t-45 -3q-37 -31 -37 -61t36 -46q36 -17 91 -18h254q129 0 193 -20q143 -47 143 -211z"/>
    <glyph glyph-name="Gdotaccent" unicode="Ġ" horiz-adv-x="1441" d="M672 1653q0 57 41 98t98 41t99 -41t42 -98t-41 -98t-99 -41t-99 41t-41 98zM1118 563q213 0 273 6q13 0 13 -46t-13 -46q-109 0 -109 -76v-241q0 -45 43 -45q14 0 14 -40t-14 -40q-49 0 -235 -31t-320 -31q-262 0 -463 154q-252 199 -252 520q0 266 152 463 q213 274 588 274q131 0 317 -36q70 -18 127 -19q29 -59 39 -274l2 -51q0 -18 -45 -22t-49 13q-18 209 -211 275q-80 26 -187 26q-208 0 -334 -168t-126 -423q0 -325 150 -481t306 -156q110 0 182 24t72 68v241q0 76 -112 76h-80q-14 0 -14 46t14 46q59 -6 272 -6z"/>
    <glyph glyph-name="gdotaccent" unicode="ġ" horiz-adv-x="946" d="M301 1188q0 57 41 98t98 41t99 -41t42 -98t-41 -98t-99 -41t-99 41t-41 98zM811 -242q0 131 -236 131h-213q-20 0 -40 -14q-64 -45 -64 -122t64 -135t182 -58q252 0 299 141q8 26 8 57zM592 522q0 176 -72 242q-31 29 -74 29q-72 0 -118 -86q-39 -71 -39 -175t52 -170 t120 -67q88 0 119 119q12 49 12 108zM981 -139q0 -164 -147 -283q-172 -137 -422 -137q-299 0 -371 147q-20 41 -21 93q0 82 103 165q35 30 65 44t29 20q0 6 -16 14q-133 55 -133 174q0 76 145 138q16 6 16 12t-18 18q-154 96 -154 262q0 142 111 242t274 100q112 0 200 -36 t114 -37h192q16 1 16 -57t-16 -58h-92q-31 0 -31 -29v-78q0 -170 -111 -264t-284 -94q-50 0 -84 3t-45 -3q-37 -31 -37 -61t36 -46q36 -17 91 -18h254q129 0 193 -20q143 -47 143 -211z"/>
    <glyph glyph-name="Gcommaaccent" unicode="Ģ" horiz-adv-x="1441" d="M530 -436q0 67 72 67q25 0 68 -38t65 -37q53 0 53 51q0 78 -143 141q-20 8 -18 19q0 4 6 12l131 194q-258 0 -457 154q-254 199 -252 520q0 266 152 463q213 274 588 274q131 0 317 -36q70 -18 127 -19q29 -59 39 -274l2 -51q0 -18 -45 -22t-49 13q-18 209 -211 275 q-80 27 -187 26q-207 0 -333.5 -167.5t-126.5 -423.5q0 -324 172 -502q129 -135 284 -135q254 0 254 92v241q0 78 -112 76h-80q-14 0 -14.5 46t14.5 46q59 -6 272 -6t273 6q12 0 13 -46t-13 -46q-109 0 -109 -76v-241q0 -45 43 -45q14 0 14 -40t-14 -40q-49 0 -196.5 -24.5 t-254.5 -33.5l-69 -96q-8 -12 -9 -19t27 -24q123 -65 123 -174q0 -86 -81 -137t-179 -53q-151 0 -156 90z"/>
    <glyph glyph-name="gcommaaccent" unicode="ģ" horiz-adv-x="946" d="M565 1157q0 -53 -43 -83q-42 -30 -104 -29q-62 -1 -113 59t-51 158t82 192q82 95 192 144q2 0 11 1t17 -11t7 -16q0 -5 -2 -7q-65 -59 -91 -125t-26 -104t12 -41q45 -17 77 -51t32 -87zM811 -242q0 131 -236 131h-213q-20 0 -40 -14q-64 -45 -64 -122t64 -135t182 -58 q252 0 299 141q8 26 8 57zM592 522q0 176 -72 242q-31 29 -74 29q-72 0 -118 -86q-39 -71 -39 -175t52 -170t120 -67q88 0 119 119q12 49 12 108zM981 -139q0 -164 -147 -283q-172 -137 -422 -137q-299 0 -371 147q-20 41 -21 93q0 82 103 165q35 30 65 44t29 20q0 6 -16 14 q-133 55 -133 174q0 76 145 138q16 6 16 12t-18 18q-154 96 -154 262q0 142 111 242t274 100q112 0 200 -36t114 -37h192q16 1 16 -57t-16 -58h-92q-31 0 -31 -29v-78q0 -170 -111 -264t-284 -94q-50 0 -84 3t-45 -3q-37 -31 -37 -61t36 -46q36 -17 91 -18h254 q129 0 193 -20q143 -47 143 -211z"/>
    <glyph glyph-name="Hcircumflex" unicode="Ĥ" horiz-adv-x="1685" d="M1163 1512q0 -8 -9 -22q-9 -15 -19 -15h-2l-269 124q-39 17 -73 0l-267 -124h-2q-22 9 -33 41q0 4 5 8l282 252q51 44 101 0l282 -252q4 -4 4 -12zM1432 203q0 -117 159 -117q15 0 15 -46t-15 -46q-127 6 -279 6t-286 -6q-14 0 -14 46t14 46q162 0 162 117v415 q0 35 -35 35h-637q-35 0 -35 -35v-415q0 -117 158 -117q14 0 14 -46t-14 -46q-133 6 -286 6t-277 -6q-15 0 -15 46t15 46q162 0 162 117v950q0 117 -162 117q-14 0 -14 47t14 47q48 -5 284 -5t283 5q15 0 15 -47t-15 -47q-162 0 -162 -117v-371q0 -34 35 -34h637q35 0 35 34 v371q0 117 -160 117q-14 0 -14 47t14 47q45 -6 283 -6t284 6q15 0 15 -47t-15 -47q-163 0 -163 -117v-950z"/>
    <glyph glyph-name="hcircumflex" unicode="ĥ" horiz-adv-x="1091" d="M622 1512q0 -8 -9 -22q-9 -15 -19 -15h-2l-269 124q-39 17 -73 0l-267 -124h-2q-22 9 -33 41q0 4 5 8l282 252q51 44 101 0l282 -252q4 -4 4 -12zM854 0q-146 0 -225 -8q-17 0 -17 38t17 38q104 0 104 63v424q0 75 -47 141t-129 66t-135 -64q-29 -35 -29 -71v-484 q0 -76 103 -75q14 0 15 -38t-15 -38q-84 8 -222 8t-223 -8q-14 0 -14 38t14 38q113 0 113 69v1024q0 125 -92 125q-16 0 -16 38t16 36q50 0 150 50t116 64t33 13q27 0 28 -27q-2 -86 -6 -174v-465q0 -23 9 -23t24 11q82 61 211 61q180 0 270 -137q55 -84 56 -176v-414 q6 -76 116 -75q16 0 16 -38t-16 -38q-79 8 -225 8z"/>
    <glyph glyph-name="Hbar" unicode="Ħ" horiz-adv-x="1685" d="M1188 952h-707v-170q0 -35 35 -34h637q35 0 35 34v170zM1432 203q0 -117 159 -117q14 0 14.5 -46t-14.5 -46q-127 6 -279 6t-286 -6q-14 0 -14 46t14 46q162 0 162 117v415q0 35 -35 35h-637q-35 0 -35 -35v-415q-2 -117 158 -117q14 0 13 -46t-13 -46q-133 6 -286 6 t-277 -6q-14 0 -15.5 46t15.5 46q162 0 162 117v749h-68q-18 0 -18 50.5t18 50.5h68v100q0 117 -162 117q-14 0 -14.5 47t14.5 47q48 -4 284 -5t283 5q14 0 14 -47t-14 -47q-164 0 -162 -117v-100h707v100q0 117 -160 117q-14 0 -14 47t14 47q43 -4 282 -5t285 5 q14 0 14.5 -47t-14.5 -47q-164 0 -163 -117v-100h79q20 0 20.5 -50.5t-22.5 -50.5h-77v-749z"/>
    <glyph glyph-name="hbar" unicode="ħ" horiz-adv-x="1091" d="M164 137v946h-184q-16 0 -16.5 45.5t16.5 45.5h184q-4 113 -92 112q-16 0 -16.5 37t16.5 37q49 0 144 47q94 47 116 63t39 17q31 0 28 -27q-6 -76 -6 -174v-112h176q16 0 16.5 -45.5t-16.5 -45.5h-176v-262q0 -23 9 -23t24 11q82 61 200 61t187.5 -44t109.5 -117.5 t40 -151.5v-414q0 -76 116 -75q16 0 16.5 -38t-16.5 -38q-80 8 -225 8t-225 -8q-16 0 -16.5 38t16.5 38q104 0 104 63v424q0 76 -47 141.5t-129 65.5t-135 -64q-29 -35 -29 -71v-484q0 -76 103 -75q14 0 15 -38t-15 -38q-84 8 -222 8t-223 -8q-14 0 -14 38t14 38 q113 -1 113 69z"/>
    <glyph glyph-name="Itilde" unicode="Ĩ" horiz-adv-x="733" d="M227 1612q-63 0 -111 -59q-2 -2 -9 -2t-24 16t-12 27q106 160 220 159q49 1 129 -29t112 -30q63 0 123 61q2 2 8 2t27 -17t10 -28q-111 -164 -219 -163q-41 -1 -131 31t-123 32zM61 40q0 46 15 46q162 0 162 117v950q0 117 -162 117q-14 0 -14 47t14 47q48 -6 284 -6 t283 6q14 0 14 -47t-14 -47q-162 0 -162 -117v-950q0 -117 158 -117q14 0 14 -46t-14 -46q-133 6 -286 6t-277 -6q-15 0 -15 46z"/>
    <glyph glyph-name="itilde" unicode="ĩ" horiz-adv-x="522" d="M121 1112q-63 0 -111 -59q-2 -2 -9 -2t-24 16t-12 27q106 160 220 159q49 1 129 -29t112 -30q63 0 123 61q2 2 8 2t27 -17t10 -28q-111 -164 -219 -163q-41 -1 -131 31t-123 32zM393 143q0 -76 103 -75q14 0 15 -38t-15 -38q-84 8 -218 8t-219 -8q-14 0 -15 38t15 38 q104 0 105 75v414q0 125 -92 125q-16 0 -16 37t16 37q49 0 149 49q101 49 117 63t35 15q29 0 26 -27q-6 -84 -6 -174v-539z"/>
    <glyph glyph-name="Imacron" unicode="Ī" horiz-adv-x="733" d="M666 1661q26 1 24 -53t-28 -54h-590q-25 0 -26 54t26 53h594zM61 40q0 46 15 46q162 0 162 117v950q0 117 -162 117q-14 0 -14 47t14 47q48 -6 284 -6t283 6q14 0 14 -47t-14 -47q-162 0 -162 -117v-950q0 -117 158 -117q14 0 14 -46t-14 -46q-133 6 -286 6t-277 -6 q-15 0 -15 46z"/>
    <glyph glyph-name="imacron" unicode="ī" horiz-adv-x="522" d="M503 1239q27 0 27 -55t-31 -56h-446q-23 0 -23 56t23 55h450zM393 143q0 -76 103 -75q14 0 15 -38t-15 -38q-84 8 -218 8t-219 -8q-14 0 -15 38t15 38q104 0 105 75v414q0 125 -92 125q-16 0 -16.5 37t16.5 37q49 0 149 49q101 49 117 63t35 15q29 0 26 -27 q-6 -84 -6 -174v-539z"/>
    <glyph glyph-name="Ibreve" unicode="Ĭ" horiz-adv-x="733" d="M647 1792q0 -307 -289 -307t-289 307q0 8 29 8t33 -8q39 -172 227 -172t227 172q2 8 32 8t30 -8zM61 40q0 46 15 46q162 0 162 117v950q0 117 -162 117q-14 0 -14 47t14 47q48 -6 284 -6t283 6q14 0 14 -47t-14 -47q-162 0 -162 -117v-950q0 -117 158 -117q14 0 14 -46 t-14 -46q-133 6 -286 6t-277 -6q-15 0 -15 46z"/>
    <glyph glyph-name="ibreve" unicode="ĭ" horiz-adv-x="522" d="M567 1327q0 -307 -289 -307t-289 307q0 8 29 8t33 -8q39 -172 227 -172t227 172q2 8 32 8t30 -8zM393 143q0 -76 103 -75q14 0 15 -38t-15 -38q-84 8 -218 8t-219 -8q-14 0 -15 38t15 38q104 0 105 75v414q0 125 -92 125q-16 0 -16 37t16 37q49 0 149 49q101 49 117 63 t35 15q29 0 26 -27q-6 -84 -6 -174v-539z"/>
    <glyph glyph-name="Iogonek" unicode="Į" horiz-adv-x="733" d="M639 86q14 0 13 -46t-13 -46q-111 6 -231 6q-123 -141 -123 -246q0 -121 123 -121q61 0 104 31q20 -6 18 -39q-76 -113 -217 -112q-205 0 -204 184q0 141 182 303q-119 0 -215 -6q-14 0 -15.5 46t15.5 46q162 0 162 117v950q0 117 -162 117q-14 0 -14.5 47t14.5 47 q48 -4 284 -5t283 5q14 0 14 -47t-14 -47q-164 0 -162 -117v-950q-2 -117 158 -117z"/>
    <glyph glyph-name="iogonek" unicode="į" horiz-adv-x="522" d="M59 68q104 0 105 75v414q0 125 -92 125q-16 0 -16.5 37t16.5 37q49 0 149 49q101 49 117 63t35 15q29 0 26 -27q-6 -88 -6 -174v-539q0 -76 103 -75q14 0 15 -37t-15 -39q-72 6 -174 8q-123 -141 -123 -246q0 -121 123 -121q61 0 104 31q20 -6 18 -39q-76 -113 -217 -112 q-205 0 -204 184q2 141 182 303q-86 -2 -146 -8q-14 0 -15 38t15 38zM401 1186q0 -72 -59 -113q-39 -27 -86 -24q-76 0 -117 57q-27 37 -26 80q0 70 57 110q39 29 86 27q78 0 119 -57q26 -39 26 -80z"/>
    <glyph glyph-name="Idotaccent" unicode="İ" horiz-adv-x="733" d="M232 1653q0 57 41 98t98 41t99 -41t42 -98t-41 -98t-99 -41t-99 41t-41 98zM61 40q0 46 15 46q162 0 162 117v950q0 117 -162 117q-14 0 -14 47t14 47q48 -6 284 -6t283 6q14 0 14 -47t-14 -47q-162 0 -162 -117v-950q0 -117 158 -117q14 0 14 -46t-14 -46q-133 6 -286 6 t-277 -6q-15 0 -15 46z"/>
    <glyph glyph-name="dotlessi" unicode="ı" horiz-adv-x="522" d="M393 143q0 -76 103 -75q14 0 15 -38t-15 -38q-84 8 -218 8t-219 -8q-14 0 -15 38t15 38q104 0 105 75v414q0 125 -92 125q-16 0 -16.5 37t16.5 37q49 0 149 49q101 49 117 63t35 15q29 0 26 -27q-6 -84 -6 -174v-539z"/>
    <glyph glyph-name="Jcircumflex" unicode="Ĵ" horiz-adv-x="716" d="M694 1512q0 -8 -9 -22q-9 -15 -19 -15h-2l-269 124q-39 17 -73 0l-267 -124h-2q-22 9 -33 41q0 4 5 8l282 252q51 44 101 0l282 -252q4 -4 4 -12zM-131 -280q-1 64 41 93t107 29t120 -57q25 -27 37 -61q33 25 57 81q25 88 25 449v899q0 117 -170 117q-14 0 -14 47t14 47 q47 -5 294 -5t294 5q14 0 14 -47t-14 -47q-172 0 -172 -117v-524q0 -106 -10 -434q0 -228 -80 -361t-207 -205q-86 -47 -172 -49q-51 0 -107 38t-57 102z"/>
    <glyph glyph-name="jcircumflex" unicode="ĵ" horiz-adv-x="497" d="M367 682v-543q0 -186 -11 -268q-52 -360 -315 -418q-37 -8 -85 -8t-106 43q-43 35 -43 89t52 83q86 45 137 -37q43 -74 80 -72q45 0 55 91q4 43 6 129v786q0 125 -92 125q-14 0 -14 37t14 37q51 0 151 49t118 63t32 15q29 0 29 -27q-8 -92 -8 -174zM533 1051 q-1 -7 -19 -19t-26 -12t-11 4l-182 213q-25 29 -43 29t-43 -29l-182 -213q-4 -4 -12 -4q-7 0 -25 11t-18 19t2 13l229 412q16 31 49 31t49 -31l230 -412q2 -4 2 -12z"/>
    <glyph glyph-name="Kcommaaccent" unicode="Ķ" horiz-adv-x="1380" d="M714 -514q-112 0 -138 61q-6 12 -6 29q0 43 37 62q11 6 35 6t69 -37t70 -38t36 17t11 33q0 78 -142 141l-14 7l-6 16l86 123q143 -57 189 -112q46 -56 46 -130t-81 -126q-80 -52 -192 -52zM1382 86q15 0 15 -46t-15 -46q-134 6 -286 6t-291 -6q-14 0 -14 46t14 46 q84 0 84 39q0 27 -41 78l-258 321q-63 74 -86 74t-23 -29v-366q0 -117 156 -117q13 0 13 -46t-13 -46q-133 6 -285 6t-276 -6q-15 0 -15 46t15 46q162 0 162 117v950q0 117 -172 117q-15 0 -15 47t15 47q48 -6 288 -6t287 6q14 0 14 -47t-14 -47q-160 0 -160 -117v-356 q0 -27 17 -27q29 0 75 55l277 330q53 63 53 89t-61 26q-13 0 -13 47t13 47q48 -5 198 -5t197 5q14 0 14 -47t-14 -47q-88 0 -131 -20t-82 -64l-338 -393q-14 -19 -14 -35t14 -33l459 -535q78 -90 178 -102q23 -2 59 -2z"/>
    <glyph glyph-name="kcommaaccent" unicode="ķ" horiz-adv-x="1071" d="M516 -514q-112 0 -137 61q-6 12 -6 29q0 43 37 62q12 6 36 6t68 -37q45 -37 70 -38t36 17t11 33q0 78 -142 141l-14 7l-6 16l86 123q143 -57 189 -112q46 -56 46 -130t-81 -126t-193 -52zM850 0q-150 0 -234 -8q-14 0 -15 38t15 38q74 0 74 28q0 16 -26 49l-195 224 q-25 31 -59 30q-16 0 -17 -34v-222q0 -76 109 -75q14 0 14 -38t-14 -38q-84 8 -226 8t-227 -8q-14 0 -14 38t14 38q115 0 115 71v1022q-8 119 -92 125q-16 0 -16 37t16 37q50 0 150 50t116 64t33 13q27 0 28 -27q-6 -86 -6 -174v-758q0 -37 21 -36q43 0 80 38l153 170 q33 37 33 54q0 31 -84 30q-16 0 -16 36t16 36q60 -6 208 -6t212 6q14 0 14 -36t-14 -36q-104 0 -182 -71l-209 -189q-21 -21 0 -45l329 -358q47 -53 125 -53q16 0 16 -38t-16 -38q-79 8 -229 8z"/>
    <glyph glyph-name="Lacute" unicode="Ĺ" horiz-adv-x="1357" d="M257 1475q-19 0 -35 11t-17 38q0 27 39 55l260 199q6 6 14 6q24 0 56 -52t32 -78q0 -25 -10 -30l-289 -135q-31 -14 -50 -14zM61 40q0 46 15 46q162 0 162 127v940q0 117 -172 117q-15 0 -15 47t15 47q46 -5 284 -5t287 5q13 0 13 -47t-13 -47q-156 0 -156 -117v-903 q0 -111 68 -154q35 -18 74 -18l331 12q76 2 144 82q82 104 82 219q0 18 50 18t50 -18v-334q0 -43 -14 -53q-8 -10 -103 -10l-791 6q-90 0 -296 -6q-15 0 -15 46z"/>
    <glyph glyph-name="lacute" unicode="ĺ" horiz-adv-x="522" d="M126 1512q-20 0 -36 11t-16 38t39 55l260 199q6 6 14 6q24 0 56 -52t32 -78q0 -25 -10 -30l-289 -135q-31 -14 -50 -14zM278 0q-134 0 -219 -8q-14 0 -15 38t15 38q104 0 105 67v1026q0 125 -92 125q-16 0 -16 37t16 37q50 0 150 50t116 64t31 13q31 0 30 -33 q-6 -76 -6 -168v-1143q0 -76 103 -75q14 0 14 -38t-14 -38q-84 8 -218 8z"/>
    <glyph glyph-name="Lcommaaccent" unicode="Ļ" horiz-adv-x="1357" d="M516 -514q-151 0 -156 90q0 43 35 62q12 6 37 6t68 -38t65 -38q53 0 53 51q0 78 -143 141q-20 8 -18 19q0 4 6 12l139 207q-166 2 -243 2t-283 -6q-14 0 -15.5 46t15.5 46q162 0 162 127v940q0 117 -172 117q-14 0 -14.5 47t14.5 47q46 -4 284 -5t287 5q14 0 13 -47 t-13 -47q-156 0 -156 -117v-903q0 -111 68 -154q35 -20 74 -18l331 12q76 2 144 82q82 104 82 219q0 18 50 18.5t50 -18.5v-334q0 -43 -14 -53q-8 -12 -148 -11t-407 5l-76 -104q-8 -12 -10 -19q0 -10 28 -25q125 -66 123 -174q0 -86 -81 -138t-179 -52z"/>
    <glyph glyph-name="lcommaaccent" unicode="ļ" horiz-adv-x="522" d="M-20 -416q0 62 65 70q31 0 75 -38t64 -40q53 0 54 51q0 78 -142 144q-20 8 -20 14t6 14l135 201q-80 0 -158 -8q-14 0 -15 38t15 38q104 0 105 67v1026q0 125 -92 125q-16 0 -16.5 37t16.5 37q50 0 150 50t116 64t31 13q31 0 30 -33q-6 -76 -6 -168v-1143q0 -76 103 -75 q14 0 15 -38t-15 -38q-72 8 -170 8l-72 -96q-8 -12 -8 -20t26 -25q125 -65 125 -174q0 -85 -81 -137q-80 -52 -192 -53t-138 61q-6 12 -6 28z"/>
    <glyph glyph-name="Lcaron" unicode="Ľ" horiz-adv-x="1357" d="M811 1491q125 0 125 -47q0 -143 -94 -283q-40 -53 -68 -53t-28 35q0 20 18 65q18 46 19 112t-13 105t-14 43q0 23 55 23zM61 40q0 46 15 46q162 0 162 127v940q0 117 -172 117q-15 0 -15 47t15 47q46 -5 284 -5t287 5q13 0 13 -47t-13 -47q-156 0 -156 -117v-903 q0 -111 68 -154q35 -18 74 -18l331 12q76 2 144 82q82 104 82 219q0 18 50 18t50 -18v-334q0 -43 -14 -53q-8 -10 -103 -10l-791 6q-90 0 -296 -6q-15 0 -15 46z"/>
    <glyph glyph-name="lcaron" unicode="ľ" horiz-adv-x="522" d="M528 1491q125 0 125 -47q0 -143 -94 -283q-39 -53 -67 -53t-29 35q1 20 19 65q18 46 18 112t-14 105t-13 43q0 23 55 23zM278 0q-134 0 -219 -8q-14 0 -15 38t15 38q104 0 105 67v1026q0 125 -92 125q-16 0 -16 37t16 37q50 0 150 50t116 64t31 13q31 0 30 -33 q-6 -76 -6 -168v-1143q0 -76 103 -75q14 0 14 -38t-14 -38q-84 8 -218 8z"/>
    <glyph glyph-name="Ldot" unicode="Ŀ" horiz-adv-x="1357" d="M1174 731q0 -78 -64 -121q-38 -26 -98 -26t-107 44t-47 106t42 110t129 47q87 0 128 -84q17 -35 17 -76zM61 40q0 46 15 46q162 0 162 127v940q0 117 -172 117q-15 0 -15 47t15 47q46 -5 284 -5t287 5q13 0 13 -47t-13 -47q-156 0 -156 -117v-903q0 -111 68 -154 q35 -18 74 -18l331 12q76 2 144 82q82 104 82 219q0 18 50 18t50 -18v-334q0 -43 -14 -53q-8 -10 -103 -10l-791 6q-90 0 -296 -6q-15 0 -15 46z"/>
    <glyph glyph-name="ldot" unicode="ŀ" horiz-adv-x="866" d="M848 512q0 -78 -64 -121q-38 -27 -98 -27t-107 45q-47 44 -47 106q0 61 42 109t129 48t128 -84q17 -35 17 -76zM278 0q-134 0 -219 -8q-14 0 -15 38t15 38q104 0 105 67v1026q0 125 -92 125q-16 0 -16 37t16 37q50 0 150 50t116 64t31 13q31 0 30 -33q-6 -76 -6 -168 v-1143q0 -76 103 -75q14 0 14 -38t-14 -38q-84 8 -218 8z"/>
    <glyph glyph-name="Lslash" unicode="Ł" horiz-adv-x="1357" d="M76 86q162 0 162 127v270l-179 -110q-20 -12 -51 42t-14 62l244 154v522q0 117 -172 117q-14 0 -14.5 47t14.5 47q46 -4 284 -5t287 5q14 0 13 -47t-13 -47q-156 0 -156 -117v-371l252 158q18 12 51 -40t15 -64l-318 -199v-387q0 -111 48.5 -142.5t93.5 -29.5l331 12 q76 2 126 63.5t75 116t25 121.5q0 18 50 18.5t50 -18.5v-334q0 -43 -14 -53q-25 -12 -103 -10l-411 3q-412 3 -676 -3q-14 0 -15.5 46t15.5 46z"/>
    <glyph glyph-name="lslash" unicode="ł" horiz-adv-x="522" d="M393 143q0 -76 103 -75q14 0 15 -37t-15 -39q-84 8 -217 8t-220 -8q-14 0 -15 38t15 38q104 0 105 75v357l-164 -121q-20 -14 -46 26t-13 54l223 164v538q0 125 -92 125q-16 0 -16.5 37t16.5 37q49 0 149.5 49t116.5 63t31 15q31 0 30 -33l-6 -168v-493l187 137 q18 16 53 -33q12 -19 12 -31t-6 -16l-246 -182v-525z"/>
    <glyph glyph-name="Nacute" unicode="Ń" horiz-adv-x="1480" d="M677 1475q-19 0 -35 11t-17 38q0 27 39 55l260 199q6 6 14 6q24 0 56 -52t32 -78q0 -25 -10 -30l-289 -135q-31 -14 -50 -14zM1032 1364q244 -10 391 0q15 0 15 -47t-15 -47q-135 0 -135 -119v-1075q0 -96 -29 -96t-75 57l-824 977q-12 16 -21 16t-11 -22v-805 q0 -117 151 -117q15 0 15 -47t-15 -45q-92 6 -197 6t-216 -6q-14 -2 -14 45t14 47q160 0 157 117v952q0 115 -172 115q-12 0 -12 47t12 47q49 -4 155 -5t120 -3q59 -8 100 -58l711 -866q10 -14 24 -14q25 0 25 31v702q0 119 -154 119q-14 0 -14 47t14 47z"/>
    <glyph glyph-name="nacute" unicode="ń" horiz-adv-x="1085" d="M561 1020q-43 0 -43 53q0 20 9 41l120 301q6 15 33 17t78 -33t49 -56q0 -6 -2 -12l-176 -262q-31 -49 -68 -49zM858 0q-104 0 -225 -8q-15 0 -15 38t15 38q100 0 100 61v408q0 150 -57 200q-29 25 -93 25t-127 -53t-63 -117v-449q0 -76 99 -75q14 0 15 -38t-15 -38 q-84 8 -218 8t-217 -8q-14 0 -14 38t14 38q106 0 107 75v406q0 133 -92 133q-16 0 -16 37t16 37q49 0 149 49q101 49 117 63t31 15q29 0 30 -27l-6 -68q-1 -18 9 -19t18 9q67 86 233 92q188 0 275 -186q37 -74 35 -219v-330q0 -68 106 -67q16 0 16 -38t-16 -38 q-107 8 -211 8z"/>
    <glyph glyph-name="Ncommaaccent" unicode="Ņ" horiz-adv-x="1480" d="M768 -514q-112 0 -137 61q-6 12 -6 29q0 43 37 62q12 6 36 6t68 -37q45 -37 70 -38t36 17t11 33q0 78 -142 141l-14 7l-6 16l86 123q143 -57 189 -112q46 -56 46 -130t-81 -126t-193 -52zM1032 1364q244 -10 391 0q15 0 15 -47t-15 -47q-135 0 -135 -119v-1075 q0 -96 -29 -96t-75 57l-824 977q-12 16 -21 16t-11 -22v-805q0 -117 151 -117q15 0 15 -47t-15 -45q-92 6 -197 6t-216 -6q-14 -2 -14 45t14 47q160 0 157 117v952q0 115 -172 115q-12 0 -12 47t12 47q49 -4 155 -5t120 -3q59 -8 100 -58l711 -866q10 -14 24 -14q25 0 25 31 v702q0 119 -154 119q-14 0 -14 47t14 47z"/>
    <glyph glyph-name="ncommaaccent" unicode="ņ" horiz-adv-x="1085" d="M510 -514q-112 0 -137 61q-6 12 -6 29q0 43 37 62q12 6 36 6t68 -37q45 -37 70 -38t36 17t11 33q0 78 -142 141l-14 7l-6 16l86 123q143 -57 189 -112q46 -56 46 -130t-81 -126t-193 -52zM858 0q-104 0 -225 -8q-15 0 -15 38t15 38q100 0 100 61v408q0 150 -57 200 q-29 25 -93 25t-127 -53t-63 -117v-449q0 -76 99 -75q14 0 15 -38t-15 -38q-84 8 -218 8t-217 -8q-14 0 -14 38t14 38q106 0 107 75v406q0 133 -92 133q-16 0 -16 37t16 37q49 0 149 49q101 49 117 63t31 15q29 0 30 -27l-6 -68q-1 -18 9 -19t18 9q67 86 233 92 q188 0 275 -186q37 -74 35 -219v-330q0 -68 106 -67q16 0 16 -38t-16 -38q-107 8 -211 8z"/>
    <glyph glyph-name="Ncaron" unicode="Ň" horiz-adv-x="1480" d="M434 1798q2 0 2 -2l268 -123q43 -19 74 0l266 123l5 2q22 -9 30 -43q0 -4 -4 -8l-282 -250q-51 -44 -101 0l-282 250q-10 10 2 30q12 21 22 21zM1032 1364q244 -10 391 0q15 0 15 -47t-15 -47q-135 0 -135 -119v-1075q0 -96 -29 -96t-75 57l-824 977q-12 16 -21 16 t-11 -22v-805q0 -117 151 -117q15 0 15 -47t-15 -45q-92 6 -197 6t-216 -6q-14 -2 -14 45t14 47q160 0 157 117v952q0 115 -172 115q-12 0 -12 47t12 47q49 -4 155 -5t120 -3q59 -8 100 -58l711 -866q10 -14 24 -14q25 0 25 31v702q0 119 -154 119q-14 0 -14 47t14 47z"/>
    <glyph glyph-name="ncaron" unicode="ň" horiz-adv-x="1085" d="M610 1020q-33 0 -49 31l-229 411q-2 2 -2 12t19 22t25 11q6 0 11 -6l182 -213q33 -39 43 -39t43 39l182 213q12 12 34 -4q22 -17 22 -25t-2 -10l-230 -411q-16 -31 -49 -31zM858 0q-104 0 -225 -8q-15 0 -15 38t15 38q100 0 100 61v408q0 150 -57 200q-29 25 -93 25 t-127 -53t-63 -117v-449q0 -76 99 -75q14 0 15 -38t-15 -38q-84 8 -218 8t-217 -8q-14 0 -14 38t14 38q106 0 107 75v406q0 133 -92 133q-16 0 -16 37t16 37q49 0 149 49q101 49 117 63t31 15q29 0 30 -27l-6 -68q-1 -18 9 -19t18 9q67 86 233 92q188 0 275 -186 q37 -74 35 -219v-330q0 -68 106 -67q16 0 16 -38t-16 -38q-107 8 -211 8z"/>
    <glyph glyph-name="napostrophe" unicode="ŉ" horiz-adv-x="1085" d="M387 1258q0 -98 -82 -193q-82 -94 -192 -145h-11q-10 0 -17 10t-7 15t2 9q66 59 92 124t25 103q0 38 -13 42q-108 38 -108 139q0 51 44 81t104 30q60 -1 112 -59q51 -58 51 -156zM858 0q-104 0 -225 -8q-15 0 -15 38t15 38q100 0 100 61v408q0 150 -57 200q-29 25 -93 25 t-127 -53t-63 -117v-449q0 -76 99 -75q14 0 15 -38t-15 -38q-84 8 -218 8t-217 -8q-14 0 -14 38t14 38q106 0 107 75v406q0 133 -92 133q-16 0 -16 37t16 37q49 0 149 49q101 49 117 63t31 15q29 0 30 -27l-6 -68q-1 -18 9 -19t18 9q67 86 233 92q188 0 275 -186 q37 -74 35 -219v-330q0 -68 106 -67q16 0 16 -38t-16 -38q-107 8 -211 8z"/>
    <glyph glyph-name="Eng" unicode="Ŋ" horiz-adv-x="1480" d="M1032 1364q244 -10 391 0q14 0 14.5 -47t-14.5 -47q-135 0 -135 -119v-1088l-2 -174q0 -117 -58.5 -213t-124 -145t-177.5 -49q-59 0 -95 33t-36 71q0 100 92 101q59 0 96 -36t51 -36q39 0 91.5 78t52.5 172v178l-818 971q-12 16 -21 16t-11 -22v-805q0 -117 151 -117 q14 0 14.5 -47t-14.5 -45q-104 6 -203 6t-210 -6q-14 -2 -14.5 45t14.5 47q160 0 157 117v952q0 115 -172 115q-12 0 -12 47t12 47q49 -4 155 -5t120 -3q59 -8 100 -58l711 -866q10 -14 24 -14q25 0 25 31v702q0 119 -154 119q-14 0 -14 47t14 47z"/>
    <glyph glyph-name="eng" unicode="ŋ" horiz-adv-x="1085" d="M578 -555q-76 0 -125.5 39t-49.5 86t34 76.5t78 29.5t83 -62.5t76 -62.5t48 57.5t11 162.5v766q0 150 -57 200q-29 25 -93 25t-127 -53t-63 -117v-449q0 -76 99 -75q14 0 15 -38t-15 -38q-84 8 -218 8t-217 -8q-14 0 -14 38t14 38q106 0 107 75v406q0 133 -92 133 q-16 0 -16.5 37t16.5 37q49 0 149 49q101 49 117 63t31 15q29 0 30 -27l-6 -68q0 -18 9.5 -19t17.5 9q67 86 233 92q188 0 275 -186q37 -74 35 -219l2 -326q0 -186 -15.5 -292.5t-70 -209t-140 -147.5t-161.5 -45z"/>
    <glyph glyph-name="Omacron" unicode="Ō" horiz-adv-x="1523" d="M1049 1661q27 1 25 -53t-29 -54h-590q-25 0 -26 54t26 53h594zM1157 649q0 256 -125 438q-141 211 -294 210t-265 -130q-145 -165 -145 -455t153 -483q129 -162 275 -161q264 0 356 278q45 131 45 303zM1430 664q0 -219 -146 -418q-203 -272 -543 -273q-225 0 -405 123 q-281 195 -281 572q0 252 176 473q195 244 514 243q246 0 426 -153q259 -225 259 -567z"/>
    <glyph glyph-name="omacron" unicode="ō" horiz-adv-x="1030" d="M745 1239q27 0 27 -55t-31 -56h-446q-23 0 -23 55.5t23 55.5h450zM516 61q94 0 146.5 107t52.5 271.5t-72 273.5q-53 82 -130 81t-135 -108t-58.5 -278.5t71.5 -274.5q51 -72 125 -72zM969 426q0 -209 -121 -330t-317.5 -120t-330.5 127t-134 308.5t110 309.5 q131 150 344 149.5t346 -157.5q103 -123 103 -287z"/>
    <glyph glyph-name="Obreve" unicode="Ŏ" horiz-adv-x="1523" d="M1026 1792q0 -307 -289 -307t-289 307q0 8 29 8t33 -8q39 -172 227 -172t227 172q2 8 32 8t30 -8zM1157 649q0 256 -125 438q-141 211 -294 210t-265 -130q-145 -165 -145 -455t153 -483q129 -162 275 -161q264 0 356 278q45 131 45 303zM1430 664q0 -219 -146 -418 q-203 -272 -543 -273q-225 0 -405 123q-281 195 -281 572q0 252 176 473q195 244 514 243q246 0 426 -153q259 -225 259 -567z"/>
    <glyph glyph-name="obreve" unicode="ŏ" horiz-adv-x="1030" d="M805 1327q0 -307 -289 -307t-289 307q0 8 29 8t33 -8q39 -172 227 -172t227 172q2 8 32 8t30 -8zM516 61q94 0 146 107q52 108 53 272q0 164 -72 273q-53 82 -130 81t-135 -108q-58 -106 -58 -278t71 -275q51 -72 125 -72zM969 426q0 -209 -121 -330q-122 -121 -318 -120 t-330 127q-134 127 -134 309t110 309q131 149 344 149t346 -157q103 -123 103 -287z"/>
    <glyph glyph-name="Ohungarumlaut" unicode="Ő" horiz-adv-x="1523" d="M473 1475q-19 0 -35 11t-16 38t39 55l260 199q6 6 14 6q24 0 56 -52t32 -78t-12 -30l-287 -135q-31 -14 -51 -14zM883 1475q-20 0 -37 11t-17 37t39 56l260 199q6 6 14 6q25 0 48 -38q43 -72 43 -94t-12 -28l-287 -135q-31 -14 -51 -14zM1157 649q0 256 -125 438 q-141 211 -294 210t-265 -130q-145 -165 -145 -455t153 -483q129 -162 275 -161q264 0 356 278q45 131 45 303zM1430 664q0 -219 -146 -418q-203 -272 -543 -273q-225 0 -405 123q-281 195 -281 572q0 252 176 473q195 244 514 243q246 0 426 -153q259 -225 259 -567z"/>
    <glyph glyph-name="ohungarumlaut" unicode="ő" horiz-adv-x="1030" d="M619 1020q-43 0 -41 53q0 20 8 41l119 301q5 15 33 17t78 -33t50 -56q0 -6 -4 -12l-176 -262q-30 -49 -67 -49zM279 1020q-43 0 -41 53q0 20 8 41l119 301q5 15 33 17t78 -33t51 -56q0 -6 -5 -12l-176 -262q-30 -49 -67 -49zM516 61q94 0 146 107q52 108 53 272 q0 164 -72 273q-53 82 -130 81t-135 -108q-58 -106 -58 -278t71 -275q51 -72 125 -72zM969 426q0 -209 -121 -330q-122 -121 -318 -120t-330 127q-134 127 -134 309t110 309q131 149 344 149t346 -157q103 -123 103 -287z"/>
    <glyph glyph-name="OE" unicode="Œ" horiz-adv-x="2009" d="M997 203v952q0 53 -51 81t-114.5 32t-114.5 4q-156 0 -273.5 -152t-117.5 -424t138 -444t273 -172t197.5 27.5t62.5 95.5zM1888 1307v-306q0 -16 -50 -17t-50 17q0 129 -98 205q-60 45 -114 48t-308 12q-27 0 -27 -41v-508q6 -27 29 -31h137q121 0 121 92v99q0 14 52 14 t52 -14q-6 -68 -6 -232t6 -225q0 -14 -52 -15.5t-52 15.5v86q0 88 -121 88h-137q-29 0 -29 -31v-342q0 -76 74 -115q41 -20 88 -20l217 4q158 4 205 137q18 49 18 117q0 18 51.5 18t51.5 -18v-287q0 -43 -17 -53q-27 -12 -100 -10l-707 6l-403 -10q-276 0 -471 190t-195 468 t189.5 494t480.5 216l410 -6q141 0 651 6q84 0 94 -15q10 -10 10 -36z"/>
    <glyph glyph-name="oe" unicode="œ" horiz-adv-x="1546" d="M702 440q0 164 -71 273q-51 80 -130 80t-136 -107q-57 -106 -57 -278t73 -275q51 -72 123 -72q94 0 149 115q49 100 49 264zM1245 651q-8 82 -65 121q-29 18 -58 19q-133 0 -153 -138q-4 -27 20 -26h234q26 -1 22 24zM1114 -25q-144 0 -266 138q-119 -135 -342 -136 q-184 0 -308 117t-143 279q-2 27 -2 51q0 170 112 296t284 146q29 2 55 4q205 0 330 -139l6 -6q94 109 217 137q33 8 63 8q160 0 271 -114q67 -69 77 -144q0 -76 -90 -75h-411q-10 0 -11 -27q0 -195 70 -295t166 -101q97 -1 194 64l11 2q23 0 39 -30q6 -10 8 -19l-2 -10 q-146 -146 -328 -146z"/>
    <glyph glyph-name="Racute" unicode="Ŕ" horiz-adv-x="1419" d="M587 1475q-19 0 -35 11t-17 38q0 27 39 55l260 199q6 6 14 6q24 0 56 -52t32 -78q0 -25 -10 -30l-289 -135q-31 -14 -50 -14zM958 969q0 135 -111 222t-284 87q-61 0 -71 -8t-11 -33v-524q0 -33 25 -39q47 -8 86 -8q264 0 340 165q26 62 26 138zM1212 969 q0 -252 -282 -336q-37 -8 -6 -47q131 -223 325 -424q94 -100 181 -117q28 -4 26 -36t-24 -29l-93 -5q-156 0 -237 56q-141 88 -262 260l-131 186q-63 76 -83 92t-59 19h-67q-18 0 -19 -21v-364q0 -117 156 -117q14 0 13 -46t-13 -46q-133 6 -281 6t-280 -6q-14 0 -16 46 t16 46q162 0 162 117v952q0 109 -172 111q-14 0 -14 46t14 46q143 -6 288 -6l305 6q338 0 482 -174q71 -90 71 -215z"/>
    <glyph glyph-name="racute" unicode="ŕ" horiz-adv-x="753" d="M399 1020q-43 0 -43 53q0 20 9 41l120 301q6 15 33 17t78 -33t49 -56q0 -6 -2 -12l-176 -262q-31 -49 -68 -49zM756 744q0 -52 -34 -82t-77 -30t-80 38q-37 37 -71 37q-34 -1 -68 -57q-33 -56 -33 -128v-379q0 -76 103 -75q14 0 15 -38t-15 -38q-84 8 -218 8t-219 -8 q-14 0 -15 38t15 38q104 0 105 75v406q0 133 -92 133q-16 0 -16 37t16 37q51 0 150 50q100 50 116 63t37 13t24 -20l-6 -74q-1 -22 13 -22t36 25q68 80 168 79q70 0 108 -38t38 -88z"/>
    <glyph glyph-name="Rcommaaccent" unicode="Ŗ" horiz-adv-x="1419" d="M898 -514q-112 0 -138 61q-6 12 -6 29q0 43 37 62q11 6 35 6t69 -37t70 -38t36 17t11 33q0 78 -142 141l-14 7l-6 16l86 123q143 -57 189 -112q46 -56 46 -130t-81 -126q-80 -52 -192 -52zM958 969q0 135 -111 222t-284 87q-61 0 -71 -8t-11 -33v-524q0 -33 25 -39 q47 -8 86 -8q264 0 340 165q26 62 26 138zM1212 969q0 -252 -282 -336q-37 -8 -6 -47q131 -223 325 -424q94 -100 181 -117q28 -4 26 -36t-24 -29l-93 -5q-156 0 -237 56q-141 88 -262 260l-131 186q-63 76 -83 92t-59 19h-67q-18 0 -19 -21v-364q0 -117 156 -117 q14 0 13 -46t-13 -46q-133 6 -281 6t-280 -6q-14 0 -16 46t16 46q162 0 162 117v952q0 109 -172 111q-14 0 -14 46t14 46q143 -6 288 -6l305 6q338 0 482 -174q71 -90 71 -215z"/>
    <glyph glyph-name="rcommaaccent" unicode="ŗ" horiz-adv-x="753" d="M12 -416q0 63 66 70q31 0 74 -38t65 -40q53 0 53 51q0 78 -143 144q-20 8 -18 16q0 4 6 12l135 201q-117 0 -191 -8q-14 0 -15 38t15 38q104 0 105 75v406q0 133 -92 133q-16 0 -16.5 37t16.5 37q51 0 150 50q100 50 116 63t37 13t24 -20l-6 -74q0 -23 13.5 -22.5 t35.5 25.5q68 80 168 79q70 0 108 -38t38 -88t-34 -82q-34 -30 -77 -30t-80 38q-37 37 -71 37q-34 -1 -68 -57q-33 -56 -33 -128v-379q0 -76 103 -75q14 0 15 -38t-15 -38q-59 6 -140 8l-69 -96q-8 -12 -11 -19q0 -10 29 -26q123 -65 123 -174q0 -85 -80 -137t-192 -53 t-138 61q-6 12 -6 28z"/>
    <glyph glyph-name="Rcaron" unicode="Ř" horiz-adv-x="1419" d="M319 1798q2 0 2 -2l268 -123q43 -19 74 0l266 123l5 2q22 -9 30 -43q0 -4 -4 -8l-282 -250q-51 -44 -101 0l-282 250q-10 10 2 30q12 21 22 21zM958 969q0 135 -111 222t-284 87q-61 0 -71 -8t-11 -33v-524q0 -33 25 -39q47 -8 86 -8q264 0 340 165q26 62 26 138z M1212 969q0 -252 -282 -336q-37 -8 -6 -47q131 -223 325 -424q94 -100 181 -117q28 -4 26 -36t-24 -29l-93 -5q-156 0 -237 56q-141 88 -262 260l-131 186q-63 76 -83 92t-59 19h-67q-18 0 -19 -21v-364q0 -117 156 -117q14 0 13 -46t-13 -46q-133 6 -281 6t-280 -6 q-14 0 -16 46t16 46q162 0 162 117v952q0 109 -172 111q-14 0 -14 46t14 46q143 -6 288 -6l305 6q338 0 482 -174q71 -90 71 -215z"/>
    <glyph glyph-name="rcaron" unicode="ř" horiz-adv-x="753" d="M399 1020q-33 0 -49 31l-229 411q-2 2 -2 12t19 22q20 12 26 11q6 0 10 -6l182 -213q33 -39 43 -39t43 39l182 213q12 12 34 -4q22 -17 22 -25t-2 -10l-230 -411q-16 -31 -49 -31zM756 744q0 -52 -34 -82t-77 -30t-80 38q-37 37 -71 37q-34 -1 -68 -57q-33 -56 -33 -128 v-379q0 -76 103 -75q14 0 15 -38t-15 -38q-84 8 -218 8t-219 -8q-14 0 -15 38t15 38q104 0 105 75v406q0 133 -92 133q-16 0 -16 37t16 37q51 0 150 50q100 50 116 63t37 13t24 -20l-6 -74q-1 -22 13 -22t36 25q68 80 168 79q70 0 108 -38t38 -88z"/>
    <glyph glyph-name="Sacute" unicode="Ś" horiz-adv-x="1075" d="M462 1475q-20 0 -36 11t-16 38t39 55l260 199q6 6 14 6q24 0 56 -52t32 -78q0 -25 -10 -30l-289 -135q-31 -14 -50 -14zM981 403q0 -180 -115 -305t-311 -125q-143 0 -248 35l-143 64q-53 162 -53 313q0 25 47 26t51 -20q10 -117 90 -207q104 -119 272 -116q73 0 137 64 t62 175q0 207 -268 277q-397 100 -398 448q0 141 129 258q104 94 291 94q120 0 194 -16t83 -16l35 2h2q37 -119 49 -271q2 -27 -44 -33t-52 13q-63 237 -273 237q-106 0 -166 -83q-41 -55 -41 -142q0 -180 248 -241q422 -101 422 -431z"/>
    <glyph glyph-name="sacute" unicode="ś" horiz-adv-x="747" d="M376 1020q-43 0 -43 53q0 20 9 41l120 301q6 15 33 17t78 -33t49 -56q0 -6 -2 -12l-176 -262q-31 -49 -68 -49zM115 276q37 0 39 -16q4 -53 68 -128t157 -75q49 0 86 38t37 79q0 121 -174 167q-271 72 -265 271q1 115 97 187q96 71 223 71t221 -36q39 -104 39 -191 q0 -18 -32 -18t-33 10q-18 51 -70 103t-124 50q-72 0 -110 -51q-23 -31 -22 -63q0 -100 164 -142t220 -109q56 -68 58 -165q0 -133 -102 -208t-247 -74q-144 1 -239 61q-29 68 -28 221q0 18 37 18z"/>
    <glyph glyph-name="Scircumflex" unicode="Ŝ" horiz-adv-x="1075" d="M860 1512q0 -8 -9 -22q-9 -15 -19 -15h-2l-269 124q-39 17 -73 0l-267 -124h-2q-22 9 -33 41q0 4 5 8l282 252q51 44 101 0l282 -252q4 -4 4 -12zM981 403q0 -180 -115 -305t-311 -125q-143 0 -248 35l-143 64q-53 162 -53 313q0 25 47 26t51 -20q10 -117 90 -207 q104 -119 272 -116q73 0 137 64t62 175q0 207 -268 277q-397 100 -398 448q0 141 129 258q104 94 291 94q120 0 194 -16t83 -16l35 2h2q37 -119 49 -271q2 -27 -44 -33t-52 13q-63 237 -273 237q-106 0 -166 -83q-41 -55 -41 -142q0 -180 248 -241q422 -101 422 -431z"/>
    <glyph glyph-name="scircumflex" unicode="ŝ" horiz-adv-x="747" d="M668 1051q0 -7 -18 -19t-27 -12q-8 0 -11 4l-182 213q-25 29 -43 29t-43 -29l-182 -213q-4 -4 -12 -4t-26 11t-17 19q0 8 2 13l229 412q16 31 49 31t49 -31l230 -412q2 -4 2 -12zM115 276q37 0 39 -16q4 -53 68 -128t157 -75q49 0 86 38t37 79q0 121 -174 167 q-271 72 -265 271q1 115 97 187q96 71 223 71t221 -36q39 -104 39 -191q0 -18 -32 -18t-33 10q-18 51 -70 103t-124 50q-72 0 -110 -51q-23 -31 -22 -63q0 -100 164 -142t220 -109q56 -68 58 -165q0 -133 -102 -208t-247 -74q-144 1 -239 61q-29 68 -28 221q0 18 37 18z"/>
    <glyph glyph-name="Scedilla" unicode="Ş" horiz-adv-x="1075" d="M674 -334q0 -86 -81 -137t-193 -52t-138 60q-6 12 -6 29q0 43 37 61q12 6 36 6q23 0 67 -38t67 -37q53 0 51 51q0 78 -141 141q-29 12 -15 31l131 194q-102 6 -182 33l-143 64q-53 162 -53 313q0 25 47 26t51 -20q10 -117 90 -207q104 -119 272 -116q73 0 137 64t62 175 q0 207 -268 277q-397 100 -398 448q0 141 129 258q104 94 291 94q120 0 194 -16t83 -16l35 2h2q37 -119 49 -271q2 -27 -44 -33t-52 13q-63 237 -273 237q-106 0 -166 -83q-41 -55 -41 -142q0 -180 248 -241q422 -102 422 -431q1 -180 -107 -298t-276 -130l-68 -92 q-8 -12 -8 -19t29 -24q123 -65 123 -174z"/>
    <glyph glyph-name="scedilla" unicode="ş" horiz-adv-x="747" d="M47 -430q0 56 66 68q31 0 75 -38t66 -38q53 0 51 51q0 78 -141 141q-20 8 -20 14t6 17l133 195q-104 10 -177 57q-29 68 -28 221q0 18 37 18t39 -16q4 -53 68 -128t157 -75q49 0 86 38t37 79q0 121 -174 167q-271 72 -265 271q1 115 97 187q96 71 223 71t221 -36 q39 -104 39 -191q0 -18 -32 -18t-33 10q-18 51 -70 103t-124 50q-72 0 -110 -51q-23 -31 -22 -63q0 -100 164 -142t220 -109q56 -68 58 -165q0 -133 -110 -215q-80 -57 -195 -66l-67 -90q-8 -12 -8 -20t28 -25q123 -65 123 -174q0 -86 -81 -137t-179 -51q-158 0 -158 90z "/>
    <glyph glyph-name="Scaron" unicode="Š" horiz-adv-x="1075" d="M231 1798q2 0 2 -2l268 -123q43 -19 74 0l266 123l5 2q22 -9 30 -43q0 -4 -4 -8l-282 -250q-51 -44 -101 0l-282 250q-10 10 2 30q12 21 22 21zM981 403q0 -180 -115 -305t-311 -125q-143 0 -248 35l-143 64q-53 162 -53 313q0 25 47 26t51 -20q10 -117 90 -207 q104 -119 272 -116q73 0 137 64t62 175q0 207 -268 277q-397 100 -398 448q0 141 129 258q104 94 291 94q120 0 194 -16t83 -16l35 2h2q37 -119 49 -271q2 -27 -44 -33t-52 13q-63 237 -273 237q-106 0 -166 -83q-41 -55 -41 -142q0 -180 248 -241q422 -101 422 -431z"/>
    <glyph glyph-name="scaron" unicode="š" horiz-adv-x="747" d="M387 1020q-33 0 -49 31l-229 411q-2 2 -2 12t19 21.5t25.5 11.5t10.5 -6l182 -213q33 -39 43 -39t43 39l182 213q12 12 34 -4t22 -24.5t-2 -10.5l-230 -411q-16 -31 -49 -31zM115 276q37 0 39 -16q4 -53 68.5 -128t156.5 -75q49 0 86 38t37 79q0 121 -174 167 q-271 72 -265 271q0 115 96.5 187t223.5 71.5t221 -36.5q39 -104 39 -191q0 -18 -32 -18t-33 10q-18 51 -69.5 102.5t-124 51t-110.5 -51.5q-23 -31 -22 -63q0 -100 164 -141.5t220 -109.5t58 -165q0 -133 -102.5 -208t-246.5 -74t-239 61q-29 68 -28 221q0 18 37 18z"/>
    <glyph glyph-name="Tcommaaccent" unicode="Ţ" horiz-adv-x="1298" d="M490 -504q-112 0 -138 62q-6 12 -6 28q0 43 37 62q12 6 36 6q23 0 67 -38t67 -38q53 0 51 51q0 78 -141 142q-21 8 -21 14t7 16l135 199q-129 0 -236 -6q-14 0 -13 46t13 46q180 0 180 117v1034q0 29 -26 29h-144q-86 0 -154.5 -73t-68.5 -185q0 -16 -50 -16.5t-50 16.5 v299q0 35 14 41q25 10 98 10q188 -6 495.5 -6t520.5 6q85 0 95 -14t10 -37v-299q0 -16 -51.5 -16.5t-51.5 16.5q0 129 -77.5 193.5t-153.5 64.5h-127q-33 0 -35 -29v-1034q0 -117 172 -117q12 0 12 -46t-12 -46q-111 6 -252 6l-71 -96q-8 -12 -9 -19q-2 -10 27 -24 q123 -65 125 -174q0 -87 -81 -139t-193 -52z"/>
    <glyph glyph-name="tcommaaccent" unicode="ţ" horiz-adv-x="669" d="M154 233v482q0 31 -31 30h-55q-16 0 -16.5 37t16.5 37q61 1 132 59t93 126q4 12 45 1t47 -30v-94q0 -31 31 -31h215q14 0 14 -52.5t-14 -52.5h-215q-31 0 -31 -30v-416q0 -121 31 -156q69 -78 217 13q10 8 37 -24t16 -42q-94 -98 -231 -110l-68 -91q-8 -12 -8 -20t29 -25 q122 -65 122 -174q0 -86 -81 -137t-179 -51q-155 0 -155 90q0 56 63 68q31 0 75 -38t66 -38q53 0 54 51q0 78 -144 141q-20 8 -18 17q0 4 4 14l133 195q-194 30 -194 251z"/>
    <glyph glyph-name="Tcaron" unicode="Ť" horiz-adv-x="1298" d="M352 1798q2 0 2 -2l268 -123q43 -19 74 0l266 123l5 2q22 -9 30 -43q0 -4 -4 -8l-282 -250q-51 -44 -101 0l-282 250q-10 10 2 30q12 21 22 21zM772 203q0 -117 172 -117q12 0 12 -46t-12 -46q-86 6 -293 6t-303 -6q-14 0 -13 46t13 46q180 0 180 117v1034q0 29 -26 29 h-144q-86 0 -154 -73t-69 -185q0 -16 -50 -16t-50 16v299q0 35 14 41q25 10 98 10q187 -6 495 -6t521 6q85 0 95 -14t10 -37v-299q0 -16 -52 -16t-51 16q1 130 -77 194t-154 64h-127q-33 0 -35 -29v-1034z"/>
    <glyph glyph-name="tcaron" unicode="ť" horiz-adv-x="669" d="M518 1341q125 0 125 -47q0 -143 -94 -283q-39 -53 -67 -53t-29 35q1 20 19 65q18 46 18 112t-14 105t-13 43q0 23 55 23zM154 233v482q0 31 -31 30h-55q-16 0 -16 37t16 37q61 1 132 59t93 126q4 12 45 1t47 -30v-94q0 -31 31 -31h215q14 0 14 -52t-14 -53h-215 q-31 0 -31 -30v-416q0 -121 31 -156q69 -78 217 13q10 8 37 -24t16 -42q-109 -113 -274 -113q-258 2 -258 256z"/>
    <glyph glyph-name="Utilde" unicode="Ũ" horiz-adv-x="1511" d="M643 1612q-63 0 -111 -59q-2 -2 -9 -2t-24 16t-12 27q106 160 220 159q49 1 129 -29t112 -30q63 0 123 61q2 2 8 2t27 -17t10 -28q-111 -164 -219 -163q-41 -1 -131 31t-123 32zM1020 1364q275 -8 457 0q14 0 14 -47t-14 -47q-154 0 -154 -117v-272q0 -276 -12 -416 q-32 -496 -539 -492q-156 0 -266 41q-158 61 -219 187q-51 106 -64 344v608q0 117 -155 117q-14 0 -14 47t14 47q343 -9 573 0q14 0 14 -47t-14 -47q-174 0 -172 -117v-467l10 -280q2 -125 56 -203q90 -135 269 -135t283 104q90 92 91 324v657q0 117 -158 117q-14 0 -14 47 t14 47z"/>
    <glyph glyph-name="utilde" unicode="ũ" horiz-adv-x="1026" d="M344 1112q-63 0 -111 -59q-2 -2 -9 -2t-24 16t-12 27q106 160 220 159q49 1 129 -29t112 -30q63 0 123 61q2 2 8 2t27 -17t10 -28q-111 -164 -219 -163q-41 -1 -131 31t-123 32zM981 98q11 0 31 5t26 -20t6 -37t-7 -15q-7 -2 -90 -17t-137 -32t-68 -17t-13 45v47 q0 23 -12 23t-27 -14q-92 -88 -232 -88t-184 34q-147 119 -147 297v346q0 102 -84 103q-14 0 -14 36t14 37q113 -1 183 11t91 12q45 0 45 -43q-6 -98 -6 -162v-342q0 -123 50 -182q29 -33 95 -33q65 0 127 49t62 99v415q0 102 -84 103q-16 0 -16 36t16 37q111 -1 183 11 t85 12q53 0 54 -37q-8 -94 -8 -155v-406q0 -90 10 -117q14 -41 51 -41z"/>
    <glyph glyph-name="Umacron" unicode="Ū" horiz-adv-x="1511" d="M1131 1661q27 1 25 -53t-29 -54h-590q-25 0 -26 54t26 53h594zM1020 1364q275 -8 457 0q14 0 14 -47t-14 -47q-154 0 -154 -117v-272q0 -276 -12 -416q-32 -496 -539 -492q-156 0 -266 41q-158 61 -219 187q-51 106 -64 344v608q0 117 -155 117q-14 0 -14 47t14 47 q343 -9 573 0q14 0 14 -47t-14 -47q-174 0 -172 -117v-467l10 -280q2 -125 56 -203q90 -135 269 -135t283 104q90 92 91 324v657q0 117 -158 117q-14 0 -14 47t14 47z"/>
    <glyph glyph-name="umacron" unicode="ū" horiz-adv-x="1026" d="M723 1239q27 0 27 -55t-31 -56h-446q-23 0 -23 55.5t23 55.5h450zM981 98q12 0 31.5 5t25.5 -20t6 -37.5t-7 -14.5t-89.5 -16.5t-137 -32t-68 -17.5t-13.5 45v47q0 23 -12 23t-27 -14q-92 -88 -232.5 -88.5t-183.5 34.5q-147 119 -147 297v346q0 102 -84 103 q-14 0 -14 36.5t14 36.5q113 0 183.5 11.5t90.5 11.5q45 0 45 -43q-6 -98 -6 -162v-342q0 -123 50 -182q29 -33 95 -33t127.5 49t61.5 99v415q0 102 -84 103q-16 0 -16 36.5t16 36.5q111 0 183 11.5t85 11.5q53 0 54 -37q-8 -94 -8 -155v-406q0 -90 10 -117q14 -41 51 -41z "/>
    <glyph glyph-name="Ubreve" unicode="Ŭ" horiz-adv-x="1511" d="M1116 1792q0 -307 -289 -307t-289 307q0 8 29 8t33 -8q39 -172 227 -172t227 172q2 8 32 8t30 -8zM1020 1364q275 -8 457 0q14 0 14 -47t-14 -47q-154 0 -154 -117v-272q0 -276 -12 -416q-32 -496 -539 -492q-156 0 -266 41q-158 61 -219 187q-51 106 -64 344v608 q0 117 -155 117q-14 0 -14 47t14 47q343 -9 573 0q14 0 14 -47t-14 -47q-174 0 -172 -117v-467l10 -280q2 -125 56 -203q90 -135 269 -135t283 104q90 92 91 324v657q0 117 -158 117q-14 0 -14 47t14 47z"/>
    <glyph glyph-name="ubreve" unicode="ŭ" horiz-adv-x="1026" d="M766 1327q0 -307 -289 -307t-289 307q0 8 29 8t33 -8q39 -172 227 -172t227 172q2 8 32 8t30 -8zM981 98q11 0 31 5t26 -20t6 -37t-7 -15q-7 -2 -90 -17t-137 -32t-68 -17t-13 45v47q0 23 -12 23t-27 -14q-92 -88 -232 -88t-184 34q-147 119 -147 297v346q0 102 -84 103 q-14 0 -14 36t14 37q113 -1 183 11t91 12q45 0 45 -43q-6 -98 -6 -162v-342q0 -123 50 -182q29 -33 95 -33q65 0 127 49t62 99v415q0 102 -84 103q-16 0 -16 36t16 37q111 -1 183 11t85 12q53 0 54 -37q-8 -94 -8 -155v-406q0 -90 10 -117q14 -41 51 -41z"/>
    <glyph glyph-name="Uring" unicode="Ů" horiz-adv-x="1511" d="M930 1710q0 78 -54 123q-23 18 -55 21q-63 0 -96 -76q-12 -29 -12 -68q0 -86 53 -123q25 -16 55 -16q68 0 96 68q13 32 13 71zM1067 1710q0 -113 -103 -184q-57 -41 -143 -41q-127 0 -196 88q-49 59 -49 146t70 151t186 63q116 0 188 -88q47 -59 47 -135zM1020 1364 q275 -8 457 0q14 0 14 -47t-14 -47q-154 0 -154 -117v-272q0 -276 -12 -416q-32 -496 -539 -492q-156 0 -266 41q-158 61 -219 187q-51 106 -64 344v608q0 117 -155 117q-14 0 -14 47t14 47q343 -9 573 0q14 0 14 -47t-14 -47q-174 0 -172 -117v-467l10 -280q2 -125 56 -203 q90 -135 269 -135t283 104q90 92 91 324v657q0 117 -158 117q-14 0 -14 47t14 47z"/>
    <glyph glyph-name="uring" unicode="ů" horiz-adv-x="1026" d="M582 1245q0 78 -54 123q-23 18 -55 21q-63 0 -96 -76q-12 -29 -12 -68q0 -86 53 -123q25 -16 55 -16q68 0 96 68q13 32 13 71zM719 1245q0 -113 -103 -184q-57 -41 -143 -41q-127 0 -196 88q-49 59 -49 146q0 86 70 150t186 64t188 -88q47 -59 47 -135zM981 98q11 0 31 5 t26 -20t6 -37t-7 -15q-7 -2 -90 -17t-137 -32t-68 -17t-13 45v47q0 23 -12 23t-27 -14q-92 -88 -232 -88t-184 34q-147 119 -147 297v346q0 102 -84 103q-14 0 -14 36t14 37q113 -1 183 11t91 12q45 0 45 -43q-6 -98 -6 -162v-342q0 -123 50 -182q29 -33 95 -33q65 0 127 49 t62 99v415q0 102 -84 103q-16 0 -16 36t16 37q111 -1 183 11t85 12q53 0 54 -37q-8 -94 -8 -155v-406q0 -90 10 -117q14 -41 51 -41z"/>
    <glyph glyph-name="Uhungarumlaut" unicode="Ű" horiz-adv-x="1511" d="M469 1475q-19 0 -35 11t-16 38t39 55l260 199q6 6 14 6q24 0 56 -52t32 -78t-12 -30l-287 -135q-31 -14 -51 -14zM879 1475q-20 0 -37 11t-17 37t39 56l260 199q6 6 14 6q25 0 48 -38q43 -72 43 -94t-12 -28l-287 -135q-31 -14 -51 -14zM1020 1364q275 -8 457 0 q14 0 14 -47t-14 -47q-154 0 -154 -117v-272q0 -276 -12 -416q-32 -496 -539 -492q-156 0 -266 41q-158 61 -219 187q-51 106 -64 344v608q0 117 -155 117q-14 0 -14 47t14 47q343 -9 573 0q14 0 14 -47t-14 -47q-174 0 -172 -117v-467l10 -280q2 -125 56 -203 q90 -135 269 -135t283 104q90 92 91 324v657q0 117 -158 117q-14 0 -14 47t14 47z"/>
    <glyph glyph-name="uhungarumlaut" unicode="ű" horiz-adv-x="1026" d="M625 1020q-43 0 -41 53q0 20 8 41l119 301q5 15 33 17t78 -33t50 -56q0 -6 -4 -12l-176 -262q-30 -49 -67 -49zM285 1020q-43 0 -41 53q0 20 8 41l119 301q5 15 33 17t78 -33t51 -56q0 -6 -5 -12l-176 -262q-30 -49 -67 -49zM981 98q11 0 31 5t26 -20t6 -37t-7 -15 q-7 -2 -90 -17t-137 -32t-68 -17t-13 45v47q0 23 -12 23t-27 -14q-92 -88 -232 -88t-184 34q-147 119 -147 297v346q0 102 -84 103q-14 0 -14 36t14 37q113 -1 183 11t91 12q45 0 45 -43q-6 -98 -6 -162v-342q0 -123 50 -182q29 -33 95 -33q65 0 127 49t62 99v415 q0 102 -84 103q-16 0 -16 36t16 37q111 -1 183 11t85 12q53 0 54 -37q-8 -94 -8 -155v-406q0 -90 10 -117q14 -41 51 -41z"/>
    <glyph glyph-name="Uogonek" unicode="Ų" horiz-adv-x="1511" d="M1020 1364q270 -13 457 0q14 0 14 -47t-14 -47q-154 0 -154 -117v-272q0 -276 -15.5 -469t-152.5 -322q-55 -51 -135 -80q-250 -90 -250 -256q0 -121 123 -121q61 0 102 31q20 -6 21 -39q-76 -113 -217 -112q-109 0 -157 51t-48 133q0 162 188 276q-164 0 -299 51.5 t-197.5 167t-62.5 353.5v608q0 117 -155 117q-14 0 -14.5 47t14.5 47q371 -10 573 0q14 0 14 -47t-14 -47q-174 0 -172 -117v-467q0 -408 78 -513t257 -105t276.5 99t97.5 329v657q0 117 -158 117q-14 0 -14 47t14 47z"/>
    <glyph glyph-name="uogonek" unicode="ų" horiz-adv-x="1026" d="M920 256q0 -90 10 -117q14 -41 51 -41q11 0 31 5t26 -21t6 -38t-7 -13t-105 -21t-155.5 -95t-57.5 -161q0 -121 123 -121q61 0 102 31q20 -6 21 -39q-76 -113 -217 -112q-205 0 -205 184q0 80 54 165t118 130q14 10 14 22v43q0 23 -12 23t-27 -14q-92 -88 -232 -88 t-184 34q-147 119 -147 297v346q0 102 -84 103q-14 0 -14 36.5t14 36.5q113 -1 183 11t91 12q45 0 45 -43q-6 -98 -6 -162v-342q0 -123 50 -182q29 -33 95 -33q65 0 127 49t62 99v415q0 102 -84 103q-16 0 -16 36.5t16 36.5q111 -1 183 11t85 12q53 0 54 -37q-8 -94 -8 -155 v-406z"/>
    <glyph glyph-name="Wcircumflex" unicode="Ŵ" horiz-adv-x="2011" d="M1390 1512q0 -8 -9 -22q-9 -15 -19 -15h-2l-269 124q-39 17 -73 0l-267 -124h-2q-22 9 -33 41q0 4 5 8l282 252q51 44 101 0l282 -252q4 -4 4 -12zM1272 -39q-28 0 -58 64l-204 456q-8 18 -15 19q-8 0 -16 -21l-217 -473q-20 -45 -49 -45t-58 64l-505 1128 q-51 117 -144 117q-14 0 -14 47t14 47q47 -4 224 -5t227 5q14 0 14 -47t-14 -47q-70 0 -72 -45q4 -41 21 -72l350 -778q8 -15 21 -17t22 17l121 264q6 15 6 23t-6 24l-236 522q-29 61 -82 62q-14 0 -14 47t14 47q47 -4 206 -5t206 5q14 0 14 -47t-14 -47q-70 0 -70 -41 q0 -33 21 -76l73 -162q8 -18 20 -18t23 24l70 150q27 55 25 84q0 39 -54 39q-14 0 -13 47t13 47q49 -4 180 -5t181 5q14 0 14 -47t-14 -47q-145 0 -185 -84l-157 -348q-16 -39 -6 -64l182 -397q8 -19 21 -19t20 17l352 772q20 45 21 74q0 49 -66 49q-14 0 -14 47t14 47 q45 -4 187 -5t190 5q14 0 14 -47t-14 -47q-143 2 -182 -84l-537 -1180q-23 -45 -51 -45z"/>
    <glyph glyph-name="wcircumflex" unicode="ŵ" horiz-adv-x="1456" d="M1012 1051q0 -7 -18 -19t-27 -12q-8 0 -11 4l-182 213q-25 29 -43 29t-43 -29l-182 -213q-4 -4 -12 -4t-26 11t-17 19q0 8 2 13l229 412q16 31 49 31t49 -31l230 -412q2 -4 2 -12zM-2 820q0 36 14 36q63 -6 206 -6t206 6q14 0 14 -36t-14 -36q-70 0 -70 -45q0 -18 6 -39 l142 -444q4 -14 12 -14t14 14l123 358q4 12 4 22t-4 23l-22 54q-31 72 -88 71q-17 0 -17 36t17 36q59 -6 199 -6t200 6q16 0 16 -36t-16 -36q-70 0 -70 -47q0 -14 7 -37l141 -444q4 -14 12 -14t14 14l156 451q4 12 4 24q0 53 -90 53q-14 0 -14 36t14 36q64 -6 170 -6t166 6 q14 0 14 -36t-14 -36q-98 0 -125 -71l-258 -674q-23 -61 -76 -61t-76 51l-178 426q-4 12 -12 13t-14 -13l-160 -416q-25 -61 -76 -61t-76 51l-286 684q-31 72 -101 71q-14 0 -14 36z"/>
    <glyph glyph-name="Ycircumflex" unicode="Ŷ" horiz-adv-x="1323" d="M1052 1512q0 -8 -9 -22q-9 -15 -19 -15h-2l-269 124q-39 17 -73 0l-267 -124h-2q-22 9 -33 41q0 4 5 8l282 252q51 44 101 0l282 -252q4 -4 4 -12zM758 203q0 -117 147 -117q11 0 13 -46t-13 -46q-67 6 -267 6t-271 -6q-15 0 -15 46t15 46q147 0 147 117v291q0 68 -9 92 t-56 98l-297 469q-51 82 -103 104q-29 12 -61 13q-14 0 -16 47t16 47q47 -4 261 -5t265 5q14 0 14 -47t-14 -47q-111 0 -111 -53q0 -31 21 -64l254 -403q21 -34 43 2l266 395q23 35 25 59q0 63 -107 64q-14 0 -14 47t14 47q45 -4 225 -5t230 5q14 0 14 -47t-14 -47 q-109 0 -178 -68l-33 -35l-338 -481q-39 -55 -46 -81t-7 -105v-297z"/>
    <glyph glyph-name="ycircumflex" unicode="ŷ" horiz-adv-x="882" d="M748 1051q0 -7 -18 -19t-27 -12q-8 0 -11 4l-182 213q-25 29 -43 29t-43 -29l-182 -213q-4 -4 -12 -4t-26 11t-17 19q0 8 2 13l229 412q16 31 49 31t49 -31l230 -412q2 -4 2 -12zM129 -553q-49 0 -82 37t-33 74q0 61 60 92q31 14 65 14q104 0 121 39l78 182q6 18 6 35 t-6 35l-270 758q-27 72 -107 71q-14 0 -14 36t14 36q63 -6 207 -6t207 6q14 0 14 -36t-14 -36q-80 0 -80 -47q0 -14 8 -37l152 -424q6 -20 17 -20t22 23l165 421q4 12 5 23q0 61 -121 61q-17 0 -17 36t17 36q59 -6 184 -6t184 6q17 0 17 -36t-17 -36q-92 0 -125 -59 l-448 -1124q-41 -106 -127 -142q-33 -12 -82 -12z"/>
    <glyph glyph-name="Ydieresis" unicode="Ÿ" horiz-adv-x="1323" d="M616 1632q0 -80 -59 -114q-29 -18 -66 -19q-84 0 -117 66q-12 25 -12 57q0 74 57 111q33 20 72 18q68 0 105 -53q20 -31 20 -66zM1046 1632q0 -80 -59 -114q-29 -18 -66 -19q-84 0 -117 66q-12 25 -12 57q0 74 58 111q33 20 71 18q68 0 105 -53q20 -29 20 -66zM758 203 q0 -117 147 -117q11 0 13 -46t-13 -46q-67 6 -267 6t-271 -6q-15 0 -15 46t15 46q147 0 147 117v291q0 68 -9 92t-56 98l-297 469q-51 82 -103 104q-29 12 -61 13q-14 0 -16 47t16 47q47 -4 261 -5t265 5q14 0 14 -47t-14 -47q-111 0 -111 -53q0 -31 21 -64l254 -403 q21 -34 43 2l266 395q23 35 25 59q0 63 -107 64q-14 0 -14 47t14 47q45 -4 225 -5t230 5q14 0 14 -47t-14 -47q-109 0 -178 -68l-33 -35l-338 -481q-39 -55 -46 -81t-7 -105v-297z"/>
    <glyph glyph-name="Zacute" unicode="Ź" horiz-adv-x="1316" d="M677 1475q-19 0 -35 11t-17 38q0 27 39 55l260 199q6 6 14 6q24 0 56 -52t32 -78q0 -25 -10 -30l-289 -135q-31 -14 -50 -14zM209 1368q1 0 121 -16h508l381 6q66 0 65 -33q0 -25 -24 -57l-834 -1143q-6 -10 -6 -19q0 -20 33 -20q412 0 591 12q53 4 140 152q41 70 51 104 q1 6 27 7t40 -11t13 -20q-45 -173 -45 -312q0 -47 -17 -47q-25 1 -117 15t-542 14h-449q-70 0 -69 49q0 27 16 47l873 1141q10 12 10 20q0 16 -41 17h-512q-43 0 -72 -27q-39 -31 -83 -139t-48 -133q0 -10 -20 -11t-41 5t-21 18q31 236 31 334q0 47 41 47z"/>
    <glyph glyph-name="zacute" unicode="ź" horiz-adv-x="768" d="M315 1020q-43 0 -43 53q0 20 9 41l120 301q6 15 33 17t78 -33t49 -56q0 -6 -2 -12l-176 -262q-31 -49 -68 -49zM739 16q0 -41 -39 -41q-10 1 -80 13t-108 12h-442q-41 0 -41 37q0 12 8 31l356 659q8 16 8 27q0 20 -28 20h-111q-63 0 -125 -129l-45 -102q-4 -8 -20 -8 t-30 10t-17 24q29 252 30 256q6 43 31 45q158 -20 211 -20h348q45 0 45 -33q0 -18 -8 -33l-358 -665q-4 -6 -5 -15q0 -25 29 -24h109q131 0 225 205q7 18 53 8q31 -11 31 -29l-25 -188q-2 -35 -2 -60z"/>
    <glyph glyph-name="Zdotaccent" unicode="Ż" horiz-adv-x="1316" d="M580 1702q0 57 41 98t98 41t99 -41t42 -98t-41 -98t-99 -41t-99 41t-41 98zM209 1368q1 0 121 -16h508l381 6q66 0 65 -33q0 -25 -24 -57l-834 -1143q-6 -10 -6 -19q0 -20 33 -20q412 0 591 12q53 4 140 152q41 70 51 104q1 6 27 7t40 -11t13 -20q-45 -173 -45 -312 q0 -47 -17 -47q-25 1 -117 15t-542 14h-449q-70 0 -69 49q0 27 16 47l873 1141q10 12 10 20q0 16 -41 17h-512q-43 0 -72 -27q-39 -31 -83 -139t-48 -133q0 -10 -20 -11t-41 5t-21 18q31 236 31 334q0 47 41 47z"/>
    <glyph glyph-name="zdotaccent" unicode="ż" horiz-adv-x="768" d="M230 1188q0 57 41 98t98 41t99 -41t42 -98t-41 -98t-99 -41t-99 41t-41 98zM739 16q0 -41 -39 -41q-10 1 -80 13t-108 12h-442q-41 0 -41 37q0 12 8 31l356 659q8 16 8 27q0 20 -28 20h-111q-63 0 -125 -129l-45 -102q-4 -8 -20 -8t-30 10t-17 24q29 252 30 256 q6 43 31 45q158 -20 211 -20h348q45 0 45 -33q0 -18 -8 -33l-358 -665q-4 -6 -5 -15q0 -25 29 -24h109q131 0 225 205q7 18 53 8q31 -11 31 -29l-25 -188q-2 -35 -2 -60z"/>
    <glyph glyph-name="Zcaron" unicode="Ž" horiz-adv-x="1316" d="M407 1798q2 0 2 -2l268 -123q43 -19 74 0l266 123l5 2q22 -9 30 -43q0 -4 -4 -8l-282 -250q-51 -44 -101 0l-282 250q-10 10 2 30q12 21 22 21zM209 1368q1 0 121 -16h508l381 6q66 0 65 -33q0 -25 -24 -57l-834 -1143q-6 -10 -6 -19q0 -20 33 -20q412 0 591 12 q53 4 140 152q41 70 51 104q1 6 27 7t40 -11t13 -20q-45 -173 -45 -312q0 -47 -17 -47q-25 1 -117 15t-542 14h-449q-70 0 -69 49q0 27 16 47l873 1141q10 12 10 20q0 16 -41 17h-512q-43 0 -72 -27q-39 -31 -83 -139t-48 -133q0 -10 -20 -11t-41 5t-21 18q31 236 31 334 q0 47 41 47z"/>
    <glyph glyph-name="zcaron" unicode="ž" horiz-adv-x="768" d="M393 1020q-33 0 -49 31l-229 411q-2 2 -2 12t19 22q20 12 26 11q6 0 10 -6l182 -213q33 -39 43 -39t43 39l182 213q12 12 34 -4q22 -17 22 -25t-2 -10l-230 -411q-16 -31 -49 -31zM739 16q0 -41 -39 -41q-10 1 -80 13t-108 12h-442q-41 0 -41 37q0 12 8 31l356 659 q8 16 8 27q0 20 -28 20h-111q-63 0 -125 -129l-45 -102q-4 -8 -20 -8t-30 10t-17 24q29 252 30 256q6 43 31 45q158 -20 211 -20h348q45 0 45 -33q0 -18 -8 -33l-358 -665q-4 -6 -5 -15q0 -25 29 -24h109q131 0 225 205q7 18 53 8q31 -11 31 -29l-25 -188q-2 -35 -2 -60z "/>
    <glyph glyph-name="longs" unicode="ſ" horiz-adv-x="561" d="M164 143v527q0 35 -31 35h-61q-16 0 -16.5 36.5t16.5 36.5q47 0 69.5 36t22.5 77q0 285 153.5 440.5t356.5 155.5q106 0 164.5 -41.5t58.5 -97.5t-40 -90.5t-73 -34.5q-96 0 -136 75.5t-89 75.5q-72 0 -119 -89t-47 -236v-906q0 -76 133 -75q16 0 16.5 -38t-16.5 -38 q-80 8 -234 8t-237 -8q-14 0 -14 38t14 38q109 -1 109 75z"/>
    <glyph glyph-name="uni0180" unicode="ƀ" horiz-adv-x="1048" d="M727 428q0 158 -63.5 250t-161.5 92q-72 0 -108 -37t-36 -86v-350q0 -111 61.5 -175.5t145.5 -64.5q162 0 162 371zM981 430q0 -196 -111.5 -324.5t-332.5 -128.5q-57 0 -122 27t-112 27q-16 0 -43.5 -25.5t-51.5 -25.5t-56 23t-29 32q6 33 6 244v753q0 37 -37 37h-147 q-16 0 -16.5 52.5t16.5 52.5h147q33 0 33 20q-10 90 -90 92q-16 0 -16.5 37t16.5 37q47 0 144 45t119 63t40 19q29 0 29 -25q-8 -111 -9 -176v-76q0 -37 37 -36h140q14 0 15 -52.5t-15 -52.5h-140q-37 0 -37 -37v-192q0 -29 17 -29q8 0 18 8q74 51 168 51q176 0 298 -122 t122 -318z"/>
    <glyph glyph-name="uni0186" unicode="Ɔ" horiz-adv-x="1347" d="M604 1384q262 0 459 -149q258 -199 258 -524q0 -270 -154 -467q-213 -270 -587 -271q-129 0 -338 43q-55 10 -107 13q-29 59 -39 274l-2 51q0 18 45 21.5t49 -13.5q18 -209 211 -274q80 -27 187 -27q207 0 334 168t127 424q0 324 -170 502q-129 135 -287 135 q-342 0 -440 -276q-6 -18 -50.5 -8t-44.5 30q4 57 42 153.5t61 133.5q47 6 88 18q154 43 358 43z"/>
    <glyph glyph-name="uni0190" unicode="Ɛ" horiz-adv-x="954" d="M850 928q0 -10 -41 -10t-41 12q0 113 -59.5 182.5t-137.5 69.5q-135 0 -188 -78q-29 -43 -29 -100q0 -123 103 -183q57 -33 211 -33q41 0 41 -61q0 -84 -43 -63q-45 16 -136.5 8t-144.5 -62q-80 -80 -80 -202t50 -195.5t94.5 -95.5t147 -20.5t185.5 69.5q12 10 41 -20.5 t15 -45.5q-123 -125 -277 -123q-203 0 -351.5 127t-148.5 318q0 279 283 332q31 6 33 14q0 8 -37 27q-205 104 -205 276q0 113 89 199t219 86t235 -79q45 -34 55 -34q20 0 30.5 26.5t10.5 51.5q0 14 38 13t38 -13v-393z"/>
    <glyph glyph-name="florin" unicode="ƒ" horiz-adv-x="581" d="M393 139q0 -186 -18.5 -307t-78.5 -216t-142 -133t-152 -38t-119 39t-49 89t34 76.5t78 26.5t82 -62.5t76 -62.5t49 68t11 152v938q0 37 -37 36h-55q-16 0 -16.5 37t16.5 37q49 0 70.5 36t21.5 77q0 127 48 241.5t173 214t289 99.5q109 0 166 -41.5t57 -93.5t-36 -90.5 t-77 -38.5q-102 0 -140 75.5t-90 75.5t-91 -53q-70 -96 -70 -272v-162q0 -37 37 -37h164q14 0 14 -52.5t-14 -52.5h-164q-37 0 -37 -36v-570z"/>
    <glyph glyph-name="uni0195" unicode="ƕ" horiz-adv-x="1673" d="M164 137v1024q0 125 -92 125q-16 0 -16.5 37t16.5 37q49 0 144 47q94 47 116 63t39 17q29 0 28 -27q-6 -76 -6 -174v-465q0 -23 9 -23t24 11q78 61 188 61t180 -32.5t119.5 -113.5t49.5 -167v-246q0 -145 53 -197.5t119 -52.5q111 0 168 97.5t57 277.5q0 229 -213 291 q0 51 56.5 97t125.5 46q135 0 210 -142t75 -290t-53.5 -248t-151 -156.5t-277.5 -56.5t-289.5 90.5t-109.5 237.5v250q0 76 -39 141.5t-129 65.5t-143 -64q-29 -35 -29 -71v-484q0 -76 103 -75q14 0 15 -38t-15 -38q-98 8 -222 8t-223 -8q-14 0 -14 38t14 38q113 -1 113 69z "/>
    <glyph glyph-name="uni019D" unicode="Ɲ" horiz-adv-x="1480" d="M-158 -413q0 103 105 99q45 -2 82 -33q37 -32 49 -38h4q37 2 90 78t51 172v1290q0 115 -172 115q-12 0 -12 47t12 47q63 -4 161 -5t114 -3q61 -8 100 -58l711 -866q10 -14 24 -14q25 0 25 31v702q0 119 -154 119q-14 0 -14 47t14 47q212 -9 391 0q14 0 14.5 -47 t-14.5 -47q-135 0 -135 -119v-1075q0 -96 -29 -96t-75 57l-824 977q-12 16 -21 16t-11 -22v-945l-2 -174q0 -113 -66 -223q-97 -186 -289 -184q-57 0 -93 34t-36 71z"/>
    <glyph glyph-name="uni01BF" unicode="ƿ" horiz-adv-x="903" d="M604 434q0 223 -34 283.5t-88 60.5t-103 -90q-12 -25 -12 -63v-525q2 -20 18 -20q35 0 84 49t92 131t43 174zM378 799q11 0 21 12q51 59 133 59q121 0 211.5 -93t90.5 -300q0 -123 -75 -229.5t-173.5 -174t-194.5 -85.5q-25 -4 -24 -33v-348q0 -80 -82 -107l-174 -57h-15 q-20 -1 -32 27q-23 51 -3 65l62 43q14 8 14 31v940q0 90 -28.5 111.5t-63.5 21.5q-14 0 -14 37t14 37q51 0 149.5 50t115.5 63t32 14q29 0 29 -33l-4 -35q0 -16 11 -16z"/>
    <glyph glyph-name="uni01CD" unicode="Ǎ" horiz-adv-x="1400" d="M385 1798q2 0 2 -2l268 -123q43 -19 74 0l266 123l5 2q22 -9 30 -43q0 -4 -4 -8l-282 -250q-51 -44 -101 0l-282 250q-10 10 2 30q12 21 22 21zM634 1083q-11 0 -18 -16l-157 -432l-4 -17q0 -10 20 -12h293q29 0 29 23q0 6 -4 14l-144 424q-4 16 -15 16zM1399 86 q14 0 14 -46t-14 -46q-115 6 -265 6t-276 -6q-14 0 -14 46t14 46q96 0 96 66q0 20 -10 51l-100 297q-6 23 -33 22h-375q-20 0 -30 -28l-109 -293q-8 -25 -10 -41q0 -74 147 -74q12 0 12 -46t-12 -46q-84 6 -234 6t-227 -6q-14 0 -14 46t14 46q152 0 201 131l371 969 q12 31 12 38q-1 8 -15 22t-14 22q0 14 34 26t104 53q70 42 90 42q33 1 44 -47t52 -164l344 -975q41 -117 203 -117z"/>
    <glyph glyph-name="uni01CE" unicode="ǎ" horiz-adv-x="858" d="M389 1020q-33 0 -49 31l-229 411q-2 2 -2 12t19 22q20 12 26 11q6 0 10 -6l182 -213q33 -39 43 -39t43 39l182 213q12 12 34 -4q22 -17 22 -25t-2 -10l-230 -411q-16 -31 -49 -31zM461 193v182q0 23 -15 22q-6 0 -12 -2q-141 -71 -141 -189t72 -118q96 1 96 105zM676 -25 q-92 0 -162 82q-14 19 -23 19t-26 -17q-82 -82 -203 -82t-174 84q-27 43 -25 101q0 121 211 231l152 72q35 20 35 47v190q0 72 -105 72q-80 0 -116 -51q-8 -15 -10 -63q-5 -152 -96 -152t-91 78q0 68 43 127t78 82q121 75 249 75t202 -50t75 -113v-508q0 -115 68 -113 q31 -2 71 35q9 9 25 -7t12 -26q-57 -113 -190 -113z"/>
    <glyph glyph-name="uni01CF" unicode="Ǐ" horiz-adv-x="733" d="M49 1798q2 0 2 -2l268 -123q43 -19 74 0l266 123l5 2q22 -9 30 -43q0 -4 -4 -8l-282 -250q-51 -44 -101 0l-282 250q-10 10 2 30q12 21 22 21zM61 40q0 46 15 46q162 0 162 117v950q0 117 -162 117q-14 0 -14 47t14 47q48 -6 284 -6t283 6q14 0 14 -47t-14 -47 q-162 0 -162 -117v-950q0 -117 158 -117q14 0 14 -46t-14 -46q-133 6 -286 6t-277 -6q-15 0 -15 46z"/>
    <glyph glyph-name="uni01D0" unicode="ǐ" horiz-adv-x="522" d="M278 1020q-33 0 -49 31l-229 411q-2 2 -2 12t19 22t25 11q6 0 11 -6l182 -213q33 -39 43 -39t43 39l182 213q12 12 34 -4q22 -17 22 -25t-2 -10l-230 -411q-16 -31 -49 -31zM393 143q0 -76 103 -75q14 0 15 -38t-15 -38q-84 8 -218 8t-219 -8q-14 0 -15 38t15 38 q104 0 105 75v414q0 125 -92 125q-16 0 -16 37t16 37q49 0 149 49q101 49 117 63t35 15q29 0 26 -27q-6 -84 -6 -174v-539z"/>
    <glyph glyph-name="uni01D1" unicode="Ǒ" horiz-adv-x="1523" d="M424 1798q2 0 2 -2l268 -123q43 -19 74 0l266 123l5 2q22 -9 30 -43q0 -4 -4 -8l-282 -250q-51 -44 -101 0l-282 250q-10 10 2 30q12 21 22 21zM1157 649q0 256 -125 438q-141 211 -294 210t-265 -130q-145 -165 -145 -455t153 -483q129 -162 275 -161q264 0 356 278 q45 131 45 303zM1430 664q0 -219 -146 -418q-203 -272 -543 -273q-225 0 -405 123q-281 195 -281 572q0 252 176 473q195 244 514 243q246 0 426 -153q259 -225 259 -567z"/>
    <glyph glyph-name="uni01D2" unicode="ǒ" horiz-adv-x="1030" d="M516 1020q-33 0 -49 31l-229 411q-2 2 -2 12t19 22t25 11q6 0 11 -6l182 -213q33 -39 43 -39t43 39l182 213q12 12 34 -4q22 -17 22 -25t-2 -10l-230 -411q-16 -31 -49 -31zM516 61q94 0 146 107q52 108 53 272q0 164 -72 273q-53 82 -130 81t-135 -108 q-58 -106 -58 -278t71 -275q51 -72 125 -72zM969 426q0 -209 -121 -330q-122 -121 -318 -120t-330 127q-134 127 -134 309t110 309q131 149 344 149t346 -157q103 -123 103 -287z"/>
    <glyph glyph-name="uni01D3" unicode="Ǔ" horiz-adv-x="1511" d="M512 1798q2 0 2 -2l268 -123q43 -19 74 0l266 123l5 2q22 -9 30 -43q0 -4 -4 -8l-282 -250q-51 -44 -101 0l-282 250q-10 10 2 30q12 21 22 21zM1020 1364q275 -8 457 0q14 0 14 -47t-14 -47q-154 0 -154 -117v-272q0 -276 -12 -416q-32 -496 -539 -492q-156 0 -266 41 q-158 61 -219 187q-51 106 -64 344v608q0 117 -155 117q-14 0 -14 47t14 47q343 -9 573 0q14 0 14 -47t-14 -47q-174 0 -172 -117v-467l10 -280q2 -125 56 -203q90 -135 269 -135t283 104q90 92 91 324v657q0 117 -158 117q-14 0 -14 47t14 47z"/>
    <glyph glyph-name="uni01D4" unicode="ǔ" horiz-adv-x="1026" d="M487 1020q-33 0 -49 31l-229 411q-2 2 -2 12t19 22q20 12 26 11q6 0 10 -6l182 -213q33 -39 43 -39t43 39l182 213q12 12 34 -4q22 -17 22 -25t-2 -10l-230 -411q-16 -31 -49 -31zM981 98q11 0 31 5t26 -20t6 -37t-7 -15q-7 -2 -90 -17t-137 -32t-68 -17t-13 45v47 q0 23 -12 23t-27 -14q-92 -88 -232 -88t-184 34q-147 119 -147 297v346q0 102 -84 103q-14 0 -14 36t14 37q113 -1 183 11t91 12q45 0 45 -43q-6 -98 -6 -162v-342q0 -123 50 -182q29 -33 95 -33q65 0 127 49t62 99v415q0 102 -84 103q-16 0 -16 36t16 37q111 -1 183 11 t85 12q53 0 54 -37q-8 -94 -8 -155v-406q0 -90 10 -117q14 -41 51 -41z"/>
    <glyph glyph-name="uni01D5" unicode="Ǖ" horiz-adv-x="1511" d="M1117 1946q27 0 25 -54t-29 -53h-590q-25 -1 -26 53t26 54h594zM727 1591q0 -80 -59 -114q-29 -18 -66 -19q-84 0 -117 66q-12 25 -12 57q0 74 57 111q33 20 72 18q68 0 105 -53q20 -31 20 -66zM1157 1591q0 -80 -59 -114q-29 -18 -66 -19q-84 0 -117 66q-12 25 -12 57 q0 74 58 111q33 20 71 18q68 0 105 -53q20 -29 20 -66zM1020 1364q275 -8 457 0q14 0 14 -47t-14 -47q-154 0 -154 -117v-272q0 -276 -12 -416q-32 -496 -539 -492q-156 0 -266 41q-158 61 -219 187q-51 106 -64 344v608q0 117 -155 117q-14 0 -14 47t14 47q343 -9 573 0 q14 0 14 -47t-14 -47q-174 0 -172 -117v-467l10 -280q2 -125 56 -203q90 -135 269 -135t283 104q90 92 91 324v657q0 117 -158 117q-14 0 -14 47t14 47z"/>
    <glyph glyph-name="uni01D6" unicode="ǖ" horiz-adv-x="1026" d="M716 1610q27 0 27 -55t-31 -56h-446q-23 -1 -23 55t23 56h450zM319 1049q-122 0 -129 120q0 74 57 111q33 20 72 20q68 0 104 -55q23 -30 23 -65q0 -80 -61 -115q-29 -16 -66 -16zM669 1049q-118 0 -129 120q0 74 58 111q33 20 71 20q68 0 105 -55q20 -28 20 -65 q0 -80 -59 -115q-29 -16 -66 -16zM981 98q11 0 31 5t26 -20t6 -37t-7 -15q-7 -2 -90 -17t-137 -32t-68 -17t-13 45v47q0 23 -12 23t-27 -14q-92 -88 -232 -88t-184 34q-147 119 -147 297v346q0 102 -84 103q-14 0 -14 36t14 37q113 -1 183 11t91 12q45 0 45 -43 q-6 -98 -6 -162v-342q0 -123 50 -182q29 -33 95 -33q65 0 127 49t62 99v415q0 102 -84 103q-16 0 -16 36t16 37q111 -1 183 11t85 12q53 0 54 -37q-8 -94 -8 -155v-406q0 -90 10 -117q14 -41 51 -41z"/>
    <glyph glyph-name="uni01D7" unicode="Ǘ" horiz-adv-x="1511" d="M792 1760q-20 0 -36 11t-16 38t39 55l260 199q6 6 14 6q24 0 56 -52t32 -78q0 -25 -10 -30l-289 -135q-31 -14 -50 -14zM696 1591q0 -80 -59 -114q-29 -18 -66 -19q-84 0 -117 66q-12 25 -12 57q0 74 57 111q33 20 72 18q68 0 105 -53q20 -31 20 -66zM1126 1591 q0 -80 -59 -114q-29 -18 -66 -19q-84 0 -117 66q-12 25 -12 57q0 74 58 111q33 20 71 18q68 0 105 -53q20 -29 20 -66zM1020 1364q275 -8 457 0q14 0 14 -47t-14 -47q-154 0 -154 -117v-272q0 -276 -12 -416q-32 -496 -539 -492q-156 0 -266 41q-158 61 -219 187 q-51 106 -64 344v608q0 117 -155 117q-14 0 -14 47t14 47q343 -9 573 0q14 0 14 -47t-14 -47q-174 0 -172 -117v-467l10 -280q2 -125 56 -203q90 -135 269 -135t283 104q90 92 91 324v657q0 117 -158 117q-14 0 -14 47t14 47z"/>
    <glyph glyph-name="uni01D8" unicode="ǘ" horiz-adv-x="1026" d="M512 1350q-43 0 -43 53q0 20 9 41l120 301q6 15 33 17t78 -33t49 -56q0 -6 -2 -12l-176 -262q-31 -49 -68 -49zM319 1049q-122 0 -129 120q0 74 57 111q33 20 72 20q68 0 104 -55q23 -30 23 -65q0 -80 -61 -115q-29 -16 -66 -16zM669 1049q-118 0 -129 120q0 74 58 111 q33 20 71 20q68 0 105 -55q20 -28 20 -65q0 -80 -59 -115q-29 -16 -66 -16zM981 98q11 0 31 5t26 -20t6 -37t-7 -15q-7 -2 -90 -17t-137 -32t-68 -17t-13 45v47q0 23 -12 23t-27 -14q-92 -88 -232 -88t-184 34q-147 119 -147 297v346q0 102 -84 103q-14 0 -14 36t14 37 q113 -1 183 11t91 12q45 0 45 -43q-6 -98 -6 -162v-342q0 -123 50 -182q29 -33 95 -33q65 0 127 49t62 99v415q0 102 -84 103q-16 0 -16 36t16 37q111 -1 183 11t85 12q53 0 54 -37q-8 -94 -8 -155v-406q0 -90 10 -117q14 -41 51 -41z"/>
    <glyph glyph-name="uni01D9" unicode="Ǚ" horiz-adv-x="1511" d="M510 2080q2 0 2 -2l268 -123q43 -19 74 0l266 123l5 2q22 -9 30 -43q0 -4 -4 -8l-282 -250q-51 -44 -101 0l-282 250q-10 10 2 30q12 21 22 21zM731 1590q0 -80 -59 -114q-29 -18 -66 -19q-84 0 -117 66q-12 25 -12 57q0 74 57 111q33 20 72 18q68 0 105 -53 q20 -31 20 -66zM1161 1590q0 -80 -59 -114q-29 -18 -66 -19q-84 0 -117 66q-12 25 -12 57q0 74 58 111q33 20 71 18q68 0 105 -53q20 -29 20 -66zM1020 1364q275 -8 457 0q14 0 14 -47t-14 -47q-154 0 -154 -117v-272q0 -276 -12 -416q-32 -496 -539 -492q-156 0 -266 41 q-158 61 -219 187q-51 106 -64 344v608q0 117 -155 117q-14 0 -14 47t14 47q343 -9 573 0q14 0 14 -47t-14 -47q-174 0 -172 -117v-467l10 -280q2 -125 56 -203q90 -135 269 -135t283 104q90 92 91 324v657q0 117 -158 117q-14 0 -14 47t14 47z"/>
    <glyph glyph-name="uni01DA" unicode="ǚ" horiz-adv-x="1026" d="M504 1364q-33 0 -49 31l-229 411q-2 2 -2 12t19 22t25 11q6 0 11 -6l182 -213q33 -39 43 -39t43 39l182 213q12 12 34 -4q22 -17 22 -25t-2 -10l-230 -411q-16 -31 -49 -31zM319 1049q-122 0 -129 120q0 74 57 111q33 20 72 20q68 0 104 -55q23 -30 23 -65 q0 -80 -61 -115q-29 -16 -66 -16zM669 1049q-118 0 -129 120q0 74 58 111q33 20 71 20q68 0 105 -55q20 -28 20 -65q0 -80 -59 -115q-29 -16 -66 -16zM981 98q11 0 31 5t26 -20t6 -37t-7 -15q-7 -2 -90 -17t-137 -32t-68 -17t-13 45v47q0 23 -12 23t-27 -14 q-92 -88 -232 -88t-184 34q-147 119 -147 297v346q0 102 -84 103q-14 0 -14 36t14 37q113 -1 183 11t91 12q45 0 45 -43q-6 -98 -6 -162v-342q0 -123 50 -182q29 -33 95 -33q65 0 127 49t62 99v415q0 102 -84 103q-16 0 -16 36t16 37q111 -1 183 11t85 12q53 0 54 -37 q-8 -94 -8 -155v-406q0 -90 10 -117q14 -41 51 -41z"/>
    <glyph glyph-name="uni01DB" unicode="Ǜ" horiz-adv-x="1511" d="M881 1807q0 -47 -51 -47q-23 0 -54 14l-274 125q-19 10 -19 34q-1 25 21 61q39 66 74 65q6 0 12 -5l252 -190q39 -30 39 -57zM721 1591q0 -80 -59 -114q-29 -18 -66 -19q-84 0 -117 66q-12 25 -12 57q0 74 57 111q33 20 72 18q68 0 105 -53q20 -31 20 -66zM1151 1591 q0 -80 -59 -114q-29 -18 -66 -19q-84 0 -117 66q-12 25 -12 57q0 74 58 111q33 20 71 18q68 0 105 -53q20 -29 20 -66zM1020 1364q275 -8 457 0q14 0 14 -47t-14 -47q-154 0 -154 -117v-272q0 -276 -12 -416q-32 -496 -539 -492q-156 0 -266 41q-158 61 -219 187 q-51 106 -64 344v608q0 117 -155 117q-14 0 -14 47t14 47q343 -9 573 0q14 0 14 -47t-14 -47q-174 0 -172 -117v-467l10 -280q2 -125 56 -203q90 -135 269 -135t283 104q90 92 91 324v657q0 117 -158 117q-14 0 -14 47t14 47z"/>
    <glyph glyph-name="uni01DC" unicode="ǜ" horiz-adv-x="1026" d="M553 1403q0 -53 -43 -53q-35 0 -68 49l-170 250q-4 8 -4 14q0 33 50 60t78 27t32 -13l117 -293q8 -23 8 -41zM319 1049q-122 0 -129 120q0 74 57 111q33 20 72 20q68 0 104 -55q23 -30 23 -65q0 -80 -61 -115q-29 -16 -66 -16zM669 1049q-118 0 -129 120q0 74 58 111 q33 20 71 20q68 0 105 -55q20 -28 20 -65q0 -80 -59 -115q-29 -16 -66 -16zM981 98q11 0 31 5t26 -20t6 -37t-7 -15q-7 -2 -90 -17t-137 -32t-68 -17t-13 45v47q0 23 -12 23t-27 -14q-92 -88 -232 -88t-184 34q-147 119 -147 297v346q0 102 -84 103q-14 0 -14 36t14 37 q113 -1 183 11t91 12q45 0 45 -43q-6 -98 -6 -162v-342q0 -123 50 -182q29 -33 95 -33q65 0 127 49t62 99v415q0 102 -84 103q-16 0 -16 36t16 37q111 -1 183 11t85 12q53 0 54 -37q-8 -94 -8 -155v-406q0 -90 10 -117q14 -41 51 -41z"/>
    <glyph glyph-name="uni01DD" unicode="ǝ" horiz-adv-x="868" d="M563 195q0 27 -37 24h-202q-37 0 -37 -22q0 -68 55 -113q35 -29 83 -29t97 43q41 42 41 97zM63 236q0 76 91 73h385q37 0 36 29q0 238 -110 334q-61 53 -149 53t-171 -55q-20 -10 -49 24q-27 35 -14 47q47 49 134 89t212 40t234 -108q143 -143 143 -350q0 -166 -115 -300 q-116 -134 -286 -134t-275 118q-66 91 -66 140z"/>
    <glyph glyph-name="uni01DE" unicode="Ǟ" horiz-adv-x="1400" d="M1020 1946q26 0 24 -54t-28 -53h-590q-25 -1 -26 53t26 54h594zM631 1591q0 -80 -59 -114q-29 -18 -66 -19q-84 0 -117 66q-12 25 -12 57q0 74 57 111q33 20 72 18q68 0 105 -53q20 -31 20 -66zM1061 1591q0 -80 -59 -114q-29 -18 -66 -19q-84 0 -117 66q-12 25 -12 57 q0 74 58 111q33 20 71 18q68 0 105 -53q20 -29 20 -66zM634 1083q-11 0 -18 -16l-157 -432l-4 -17q0 -10 20 -12h293q29 0 29 23q0 6 -4 14l-144 424q-4 16 -15 16zM1399 86q14 0 14 -46t-14 -46q-115 6 -265 6t-276 -6q-14 0 -14 46t14 46q96 0 96 66q0 20 -10 51l-100 297 q-6 23 -33 22h-375q-20 0 -30 -28l-109 -293q-8 -25 -10 -41q0 -74 147 -74q12 0 12 -46t-12 -46q-84 6 -234 6t-227 -6q-14 0 -14 46t14 46q152 0 201 131l371 969q12 31 12 38q-1 8 -15 22t-14 22q0 14 34 26t104 53q70 42 90 42q33 1 44 -47t52 -164l344 -975 q41 -117 203 -117z"/>
    <glyph glyph-name="uni01DF" unicode="ǟ" horiz-adv-x="858" d="M600 1610q27 0 27 -55t-31 -56h-446q-23 -1 -23 55t23 56h450zM217 1045q-122 0 -129 120q0 74 57 111q33 20 72 20q68 0 104 -55q23 -30 23 -65q0 -80 -61 -115q-29 -16 -66 -16zM567 1045q-118 0 -129 120q0 74 58 111q33 20 71 20q68 0 105 -55q20 -28 20 -65 q0 -80 -59 -115q-29 -16 -66 -16zM461 193v182q0 23 -15 22q-6 0 -12 -2q-141 -71 -141 -189t72 -118q96 1 96 105zM676 -25q-92 0 -162 82q-14 19 -23 19t-26 -17q-82 -82 -203 -82t-174 84q-27 43 -25 101q0 121 211 231l152 72q35 20 35 47v190q0 72 -105 72 q-80 0 -116 -51q-8 -15 -10 -63q-5 -152 -96 -152t-91 78q0 68 43 127t78 82q121 75 249 75t202 -50t75 -113v-508q0 -115 68 -113q31 -2 71 35q9 9 25 -7t12 -26q-57 -113 -190 -113z"/>
    <glyph glyph-name="uni01E0" unicode="Ǡ" horiz-adv-x="1400" d="M985 1946q27 0 25 -54t-29 -53h-590q-25 -1 -26 53t26 54h594zM566 1622q0 57 41 98t98 41t99 -41t42 -98t-41 -98t-99 -41t-99 41t-41 98zM634 1083q-11 0 -18 -16l-157 -432l-4 -17q0 -10 20 -12h293q29 0 29 23q0 6 -4 14l-144 424q-4 16 -15 16zM1399 86q14 0 14 -46 t-14 -46q-115 6 -265 6t-276 -6q-14 0 -14 46t14 46q96 0 96 66q0 20 -10 51l-100 297q-6 23 -33 22h-375q-20 0 -30 -28l-109 -293q-8 -25 -10 -41q0 -74 147 -74q12 0 12 -46t-12 -46q-84 6 -234 6t-227 -6q-14 0 -14 46t14 46q152 0 201 131l371 969q12 31 12 38 q-1 8 -15 22t-14 22q0 14 34 26t104 53q70 42 90 42q33 1 44 -47t52 -164l344 -975q41 -117 203 -117z"/>
    <glyph glyph-name="uni01E1" unicode="ǡ" horiz-adv-x="858" d="M653 1610q27 0 27 -55t-31 -56h-446q-23 -1 -23 55t23 56h450zM248 1188q0 57 41 98t98 41t99 -41t42 -98t-41 -98t-99 -41t-99 41t-41 98zM461 193v182q0 23 -15 22q-6 0 -12 -2q-141 -71 -141 -189t72 -118q96 1 96 105zM676 -25q-92 0 -162 82q-14 19 -23 19t-26 -17 q-82 -82 -203 -82t-174 84q-27 43 -25 101q0 121 211 231l152 72q35 20 35 47v190q0 72 -105 72q-80 0 -116 -51q-8 -15 -10 -63q-5 -152 -96 -152t-91 78q0 68 43 127t78 82q121 75 249 75t202 -50t75 -113v-508q0 -115 68 -113q31 -2 71 35q9 9 25 -7t12 -26 q-57 -113 -190 -113z"/>
    <glyph glyph-name="uni01E2" unicode="Ǣ" horiz-adv-x="1847" d="M1446 1661q26 1 24 -53t-28 -54h-590q-25 0 -26 54t26 53h594zM831 713v497q0 16 -10 19q-10 0 -20 -19l-287 -497q-4 -6 -4 -13q0 -16 16 -16h275q30 0 30 29zM1460 860q-18 -264 0 -422q0 -12 -48 -12t-48 12q0 158 -78 162h-180q-29 0 -29 -33v-295q0 -195 129 -194 l244 8q217 6 217 250q0 16 51 16t51 -16v-287q0 -27 -12 -41t-88 -14l-729 6q-156 0 -262 -6q-14 0 -14 46t14 46q153 0 153 109v374q0 31 -28 31h-334q-27 0 -37 -18l-207 -396q-12 -27 -12 -45q0 -55 139 -55q15 0 15 -46t-15 -46q-117 6 -241 6t-224 -6q-14 0 -14 46 t14 46q89 0 129 36t72 91l571 967q18 29 19 47q0 39 -84 39q-14 0 -14 46t14 46q141 -6 379 -6l612 6q72 0 87 -5t16 -40v-303q0 -17 -50 -17t-51 17q0 252 -229 258l-250 4q-31 0 -31 -43v-516q0 -29 29 -29h180q78 0 78 176q0 14 48 14t48 -14z"/>
    <glyph glyph-name="uni01E3" unicode="ǣ" horiz-adv-x="1236" d="M868 1239q27 0 27 -55t-31 -56h-446q-23 0 -23 55.5t23 55.5h450zM297 190q0 -61 45 -88q18 -10 39 -10q45 0 98 68q26 37 13.5 70.5t-23.5 136.5q-2 23 -14 22q-8 0 -19 -6q-139 -78 -139 -193zM975 718.5q0 23.5 -36 46.5t-73 23q-59 0 -111 -67t-55 -115q0 -16 15 -16 l243 98q17 7 17 30.5zM544 115q-9 0 -34 -23q-59 -68 -108.5 -85t-104.5 -17q-152 0 -207 88q-23 37 -22 84q0 154 159 219l207 90q35 14 35 59v148q0 111 -98 110q-66 0 -111 -61q-8 -12 -8 -49v-41q0 -76 -45 -111q-25 -18 -60 -18q-88 0 -88 80q0 66 43.5 123t73.5 77 q137 82 245.5 82t180.5 -57q27 -25 39 -25t35 21q78 61 180 61q182 0 277 -88q39 -41 38 -65q0 -27 -57 -51l-387 -162q-41 -16 -41 -92t53 -162q74 -117 195 -117q80 0 160 47q14 8 22 19q14 12 41 -9q27 -26 19 -36q-147 -176 -361 -177q-104 0 -197 68q-29 20 -47 45 t-27 25z"/>
    <glyph glyph-name="uni01E4" unicode="Ǥ" horiz-adv-x="1441" d="M784 68q254 0 254 92v119h-194q-18 0 -18.5 52t18.5 52h194v76q0 78 -112 78h-80q-14 0 -14.5 46t14.5 44q74 -6 273.5 -6t271.5 6q12 0 13 -45t-13 -45q-109 0 -109 -78v-76h135q20 0 20.5 -52t-22.5 -52h-133v-119q0 -45 43 -45q14 0 14 -40t-14 -40q-49 0 -235 -32 t-320 -30q-264 0 -463 154q-254 199 -252 520q0 266 152 463q213 274 588 274q143 0 271 -27t173 -28q31 -63 39 -274l2 -51q0 -18 -46 -21.5t-48 12.5q-20 211 -211 275q-80 27 -187 26q-207 0 -333.5 -167.5t-126.5 -423.5q0 -324 172 -502q129 -135 284 -135z"/>
    <glyph glyph-name="uni01E5" unicode="ǥ" horiz-adv-x="946" d="M279 -330q57 -110 225 -110q223 -1 284 110h-509zM362 -111q-20 0 -40 -14q-54 -39 -62 -100h551q-14 115 -236 114h-213zM412 -559q-377 0 -392 229h-81q-18 0 -19.5 52.5t19.5 52.5h114q52 73 150 123q14 6 14 12t-16 14q-133 55 -133 174q0 76 145 138q16 6 16 12 t-18 18q-154 96 -154 262q0 142 111 242t274 100q112 0 200 -36t114 -37h192q16 0 16.5 -57.5t-16.5 -57.5h-92q-31 0 -31 -29v-78q0 -170 -111 -264t-284 -94q-50 0 -84 3t-45 -3q-37 -31 -37 -61t36 -46q36 -17 91 -18h254q127 0 193 -20q143 -47 143 -213q0 -43 -10 -84 h112q20 0 20.5 -52.5t-22.5 -52.5h-159q-35 -49 -88 -92q-172 -137 -422 -137zM592 522q0 176 -72 242q-31 29 -74 29q-72 0 -118 -86q-39 -71 -39 -175t52 -170t120 -67q88 0 119 119q12 49 12 108z"/>
    <glyph glyph-name="Gcaron" unicode="Ǧ" horiz-adv-x="1441" d="M489 1798q2 0 2 -2l268 -123q43 -19 74 0l266 123l5 2q22 -9 30 -43q0 -4 -4 -8l-282 -250q-51 -44 -101 0l-282 250q-10 10 2 30q12 21 22 21zM1118 563q213 0 273 6q13 0 13 -46t-13 -46q-109 0 -109 -76v-241q0 -45 43 -45q14 0 14 -40t-14 -40q-49 0 -235 -31 t-320 -31q-262 0 -463 154q-252 199 -252 520q0 266 152 463q213 274 588 274q131 0 317 -36q70 -18 127 -19q29 -59 39 -274l2 -51q0 -18 -45 -22t-49 13q-18 209 -211 275q-80 26 -187 26q-208 0 -334 -168t-126 -423q0 -325 150 -481t306 -156q110 0 182 24t72 68v241 q0 76 -112 76h-80q-14 0 -14 46t14 46q59 -6 272 -6z"/>
    <glyph glyph-name="gcaron" unicode="ǧ" horiz-adv-x="946" d="M442 1020q-33 0 -49 31l-229 411q-2 2 -2 12t19 22t25 11q6 0 11 -6l182 -213q33 -39 43 -39t43 39l182 213q12 12 34 -4q22 -17 22 -25t-2 -10l-230 -411q-16 -31 -49 -31zM811 -242q0 131 -236 131h-213q-20 0 -40 -14q-64 -45 -64 -122t64 -135t182 -58q252 0 299 141 q8 26 8 57zM592 522q0 176 -72 242q-31 29 -74 29q-72 0 -118 -86q-39 -71 -39 -175t52 -170t120 -67q88 0 119 119q12 49 12 108zM981 -139q0 -164 -147 -283q-172 -137 -422 -137q-299 0 -371 147q-20 41 -21 93q0 82 103 165q35 30 65 44t29 20q0 6 -16 14 q-133 55 -133 174q0 76 145 138q16 6 16 12t-18 18q-154 96 -154 262q0 142 111 242t274 100q112 0 200 -36t114 -37h192q16 1 16 -57t-16 -58h-92q-31 0 -31 -29v-78q0 -170 -111 -264t-284 -94q-50 0 -84 3t-45 -3q-37 -31 -37 -61t36 -46q36 -17 91 -18h254 q129 0 193 -20q143 -47 143 -211z"/>
    <glyph glyph-name="uni01E8" unicode="Ǩ" horiz-adv-x="1380" d="M373 1798q2 0 2 -2l268 -123q43 -19 74 0l266 123l5 2q22 -9 30 -43q0 -4 -4 -8l-282 -250q-51 -44 -101 0l-282 250q-10 10 2 30q12 21 22 21zM1382 86q15 0 15 -46t-15 -46q-134 6 -286 6t-291 -6q-14 0 -14 46t14 46q84 0 84 39q0 27 -41 78l-258 321q-63 74 -86 74 t-23 -29v-366q0 -117 156 -117q13 0 13 -46t-13 -46q-133 6 -285 6t-276 -6q-15 0 -15 46t15 46q162 0 162 117v950q0 117 -172 117q-15 0 -15 47t15 47q48 -6 288 -6t287 6q14 0 14 -47t-14 -47q-160 0 -160 -117v-356q0 -27 17 -27q29 0 75 55l277 330q53 63 53 89t-61 26 q-13 0 -13 47t13 47q48 -5 198 -5t197 5q14 0 14 -47t-14 -47q-88 0 -131 -20t-82 -64l-338 -393q-14 -19 -14 -35t14 -33l459 -535q78 -90 178 -102q23 -2 59 -2z"/>
    </font>
</defs>
</svg>
