<?xml version="1.0" standalone="no"?>
<!DOCTYPE svg PUBLIC "-//W3C//DTD SVG 1.1//EN" "http://www.w3.org/Graphics/SVG/1.1/DTD/svg11.dtd" >
<svg xmlns="http://www.w3.org/2000/svg">
<metadata>
Created by FontPrep 20130207 at Sun Sep 28 11:27:21 2014
 By Michael Hawkins
Copyright (c) 2012 by Wallace Hooper. All rights reserved.
</metadata>
<defs>
<font id="717182e6b3f6e418f2528d246568536f" horiz-adv-x='1024' >
  <font-face 
    font-family="NewtonSans"
    font-weight="400"
    font-stretch="normal"
    units-per-em="2048"
    panose-1="2 11 6 4 2 2 2 2 2 4"
    ascent="1638"
    descent="-410"
    bbox="-416 -688 3269.67 1928"
    underline-thickness="150"
    underline-position="-142"
    unicode-range="U+0021-1F773"
  />
<missing-glyph horiz-adv-x="748" 
d="M136 68h408v1229h-408v-1229zM68 0v1365h544v-1365h-544z" />
    <glyph glyph-name=".notdef" horiz-adv-x="748" 
d="M136 68h408v1229h-408v-1229zM68 0v1365h544v-1365h-544z" />
    <glyph glyph-name=".null" horiz-adv-x="0" 
 />
    <glyph glyph-name="nonmarkingreturn" horiz-adv-x="682" 
 />
    <glyph glyph-name="exclam" unicode="!" horiz-adv-x="569" 
d="M185 0v201h194v-201h-194zM359 397h-148l-24 1012h196z" />
    <glyph glyph-name="underscore" unicode="_" horiz-adv-x="1139" 
d="M-31 -407v130h1193v-130h-1193z" />
    <glyph glyph-name="grave" unicode="`" horiz-adv-x="682" 
d="M106 1508h207l217 -287v-20h-94l-330 278v29z" />
    <glyph glyph-name="brokenbar" unicode="&#xa6;" horiz-adv-x="532" 
d="M183 -434v779h166v-779h-166zM183 706v778h166v-778h-166z" />
    <glyph glyph-name="section" unicode="&#xa7;" horiz-adv-x="1139" 
d="M866 664q0 85 -83.5 133.5t-231.5 82.5q-112 -6 -175 -60.5t-63 -135.5q0 -119 119.5 -156.5t179.5 -52.5q177 3 215.5 72.5t38.5 116.5zM334 1204q0 -116 121 -151.5t185 -50.5q171 -40 277.5 -110t106.5 -212q0 -143 -82.5 -198.5t-136.5 -68.5q213 -91 213 -268
q0 -147 -114.5 -232t-326.5 -85q-295 0 -369 97.5t-93 174.5l161 31q32 -144 138 -158t164 -14q125 0 202.5 41t77.5 129q0 133 -137.5 173t-202.5 56q-164 39 -264.5 109.5t-100.5 203.5q0 89 61.5 163t166.5 104q-142 47 -174.5 125.5t-32.5 126.5q0 139 105.5 216.5
t308.5 77.5q256 0 327 -95.5t86 -164.5l-161 -20q-27 150 -252 150q-125 0 -189.5 -39.5t-64.5 -110.5z" />
    <glyph glyph-name="ordfeminine" unicode="&#xaa;" horiz-adv-x="758" 
d="M176 883q0 -121 123 -121q93 0 155 60t62 137v65l-138 -4q-100 -5 -151 -32t-51 -105zM659 874q0 -108 55 -108q27 0 51 8v-104q-49 -13 -87 -13q-73 0 -111.5 39.5t-42.5 101.5h-4q-73 -147 -250 -147t-210.5 83.5t-33.5 143.5q0 119 86 175.5t226 58.5l178 4v60
q0 126 -58 140.5t-109 14.5q-125 0 -141 -135l-149 10q24 158 128.5 192t174.5 34q298 0 297 -250v-308z" />
    <glyph glyph-name="guillemotleft" unicode="&#xab;" horiz-adv-x="1139" 
d="M586 940v-31l-335 -372l337 -367v-29h-169l-336 365v63l336 371h167zM1054 940v-31l-338 -372l340 -367v-29h-170l-338 365v63l338 371h168z" />
    <glyph glyph-name="macron" unicode="&#xaf;" horiz-adv-x="1131" 
d="M1148 1452h-1165v94h1165v-94z" />
    <glyph glyph-name="degree" unicode="&#xb0;" horiz-adv-x="819" 
d="M536 1272.5q-51 52.5 -127 52.5q-75 0 -126.5 -53t-51.5 -126.5t52 -127t126 -53.5t126 53t52 127.5t-51 127zM696 1146q0 -119 -84.5 -202.5t-202 -83.5t-202.5 84t-85 202t84.5 201t203 83t202.5 -82.5t84 -201.5z" />
    <glyph glyph-name="uni00B2" unicode="&#xb2;" horiz-adv-x="682" 
d="M493 1184q0 56 -35.5 93.5t-106.5 37.5t-115 -36.5t-52 -104.5l-133 8q12 105 92 172t210 67t203.5 -62t73.5 -171q0 -147 -159.5 -264.5t-206 -161.5t-64.5 -86h443v-113h-600l-2 103q56 127 218.5 240.5t198 167.5t35.5 110z" />
    <glyph glyph-name="uni00B3" unicode="&#xb3;" horiz-adv-x="682" 
d="M505 803q0 137 -189 137h-61v109h57q113 0 142.5 48.5t29.5 98.5t-37 84.5t-107 34.5t-111.5 -35t-47.5 -100l-135 12q20 169 129 199t173 30q129 0 201 -60.5t72 -146.5q0 -176 -176 -215v-2q98 -9 147.5 -65t49.5 -137q0 -116 -77.5 -180t-219.5 -64q-286 0 -318 227
l136 13q18 -136 180 -136t162 148z" />
    <glyph glyph-name="paragraph" unicode="&#xb6;" horiz-adv-x="1100" 
d="M884 1307v-1571h-112v1571h-217v-1571h-113v958q-164 0 -263 91t-99 261q0 171 98 267t272 96h563v-102h-129z" />
    <glyph glyph-name="uni2219" unicode="&#x2219;" horiz-adv-x="569" 
d="M187 446v220h195v-220h-195z" />
    <glyph glyph-name="uni2219" unicode="&#xb7;" horiz-adv-x="569" 
d="M187 446v220h195v-220h-195z" />
    <glyph glyph-name="uni00B9" unicode="&#xb9;" horiz-adv-x="682" 
d="M80 563v107h211v620l-202 -138v120l210 137h123v-739h215v-107h-557z" />
    <glyph glyph-name="ordmasculine" unicode="&#xba;" horiz-adv-x="748" 
d="M574 1042q0 84 -12.5 138.5t-37.5 87t-61 46t-111 13.5t-124 -63.5t-49 -221.5q0 -231 74.5 -258.5t120.5 -27.5t83.5 13t63.5 46t39.5 88t13.5 139zM376 1432q347 0 347 -390q0 -188 -87.5 -289.5t-259.5 -101.5t-260.5 100.5t-88.5 290.5q0 284 130.5 337t218.5 53z
" />
    <glyph glyph-name="guillemotright" unicode="&#xbb;" horiz-adv-x="1139" 
d="M83 141v29l338 367l-336 372v31h168l335 -371v-63l-335 -365h-170zM550 141v29l338 367l-336 372v31h166l338 -371v-63l-338 -365h-168z" />
    <glyph glyph-name="onequarter" unicode="&#xbc;" horiz-adv-x="1708" 
d="M59 563v107h211v620l-202 -138v120l210 137h123v-739h215v-107h-557zM493 0h-148l881 1409h145zM1372 296v360q0 44 2 62q-22 -40 -82 -135l-199 -287h279zM1503 183v-178h-131v178h-406v111l386 557h151v-555h111v-113h-111z" />
    <glyph glyph-name="onehalf" unicode="&#xbd;" horiz-adv-x="1708" 
d="M59 563v107h211v620l-202 -138v120l210 137h123v-739h215v-107h-557zM493 0h-148l881 1409h145zM1503 626q1 56 -35 94t-107 37t-115 -37t-52 -104l-133 8q12 105 92 172t210 67t203 -62q74 -62 74 -171q0 -148 -188 -286q-131 -97 -178 -140q-46 -44 -64 -86h443v-113
h-600l-2 103q57 127 267 274q115 80 159 149q26 39 26 95z" />
    <glyph glyph-name="threequarters" unicode="&#xbe;" horiz-adv-x="1708" 
d="M513 0h-148l881 1409h145zM1372 296v360q0 44 2 62q-22 -40 -82 -135l-199 -287h279zM1503 183v-178h-131v178h-406v111l386 557h151v-555h111v-113h-111zM551 803q0 137 -189 137h-61v109h57q113 1 156 71q16 26 16 76t-37 84t-107 35q-70 0 -111 -35q-42 -35 -48 -100
l-135 12q20 169 187 215q51 14 115 14q129 0 201 -61t72 -146q0 -176 -176 -215v-2q98 -9 148 -65q49 -56 49 -137q0 -116 -78 -180t-219 -64q-286 0 -318 227l136 13q18 -136 180 -136t162 148z" />
    <glyph glyph-name="uni0292" unicode="&#x292;" horiz-adv-x="1084" 
d="M742.5 -54q77.5 67 77.5 202t-103.5 188t-240.5 53h-102l-74 1l410 553h-621v139h824v-137l-310 -419q4 -1 9 -2l86 -23q309 -101 309 -379q0 -80 -64.5 -236t-413.5 -156q-240 0 -356 107.5t-137 274.5l186 17q36 -250 307 -250q136 0 213.5 67z" />
    <glyph glyph-name="uni2010" unicode="&#x2010;" horiz-adv-x="682" 
d="M91 464v160h500v-160h-500z" />
    <glyph glyph-name="uni2011" unicode="&#x2011;" horiz-adv-x="682" 
d="M91 464v160h500v-160h-500z" />
    <glyph glyph-name="endash" unicode="&#x2013;" horiz-adv-x="1139" 
d="M0 451v137h1138v-137h-1138z" />
    <glyph glyph-name="emdash" unicode="&#x2014;" horiz-adv-x="2048" 
d="M0 451v137h2048v-137h-2048z" />
    <glyph glyph-name="afii00208" unicode="&#x2015;" horiz-adv-x="2048" 
d="M0 451v137h2048v-137h-2048z" />
    <glyph glyph-name="uni2016" unicode="&#x2016;" horiz-adv-x="1099" 
d="M661 -404v1869h122v-1869h-122zM232 -404v1869h121v-1869h-121z" />
    <glyph glyph-name="underscoredbl" unicode="&#x2017;" horiz-adv-x="1131" 
d="M-31 -431v130h1193v-130h-1193zM-31 -217v130h1193v-130h-1193z" />
    <glyph glyph-name="quoteleft" unicode="&#x2018;" horiz-adv-x="455" 
d="M127 1098q0 183 80 311h121q-95 -137 -95 -262h89v-195h-195v146z" />
    <glyph glyph-name="quoteright" unicode="&#x2019;" horiz-adv-x="455" 
d="M328 1264q0 -187 -78 -312h-123q94 136 94 260h-88v197h195v-145z" />
    <glyph glyph-name="quotesinglbase" unicode="&#x201a;" horiz-adv-x="455" 
d="M328 51q0 -188 -78 -313h-123q94 136 94 262h-88v195h195v-144z" />
    <glyph glyph-name="quotereversed" unicode="&#x201b;" horiz-adv-x="455" 
d="M126 1264v145h195v-197h-88q0 -124 94 -260h-123q-78 125 -78 312z" />
    <glyph glyph-name="quotedblleft" unicode="&#x201c;" horiz-adv-x="682" 
d="M75 1098q0 183 80 311h121q-95 -137 -95 -262h89v-195h-195v146zM407 1098q0 186 78 311h122q-94 -136 -94 -262h88v-195h-194v146z" />
    <glyph glyph-name="quotedblright" unicode="&#x201d;" horiz-adv-x="682" 
d="M276 1264q0 -187 -78 -312h-123q94 136 94 262h-88v195h195v-145zM607 1264q0 -186 -79 -312h-121q94 136 94 262h-88v195h194v-145z" />
    <glyph glyph-name="quotedblbase" unicode="&#x201e;" horiz-adv-x="682" 
d="M276 51q0 -188 -78 -313h-123q94 136 94 262h-88v195h195v-144zM607 51q0 -187 -79 -313h-121q94 136 94 262h-88v195h194v-144z" />
    <glyph glyph-name="dagger" unicode="&#x2020;" horiz-adv-x="1139" 
d="M649 1000l-22 -1138h-115l-22 1138l-352 -27v164l352 -29l-28 376h215l-28 -376l353 29v-164z" />
    <glyph glyph-name="daggerdbl" unicode="&#x2021;" horiz-adv-x="1139" 
d="M497 1000l-360 -27v164l360 -29l-16 376h175l-16 -376l361 29v-164l-361 27l-26 -330l26 -327l360 27v-164l-360 29l16 -376h-175l16 376l-361 -29v164l361 -27l26 327z" />
    <glyph glyph-name="bullet" unicode="&#x2022;" horiz-adv-x="717" 
d="M554 484.5q-82 -83.5 -197 -83.5t-195.5 82.5t-80.5 197.5t81 195t195 80t196.5 -80.5t82.5 -194.5q0 -113 -82 -196.5z" />
    <glyph glyph-name="ellipsis" unicode="&#x2026;" horiz-adv-x="2048" 
d="M278 0v219h195v-219h-195zM929 0v219h192v-219h-192zM1576 0v219h194v-219h-194z" />
    <glyph glyph-name="minute" unicode="&#x2032;" horiz-adv-x="384" 
d="M85 890l64 519h196l-158 -519h-102z" />
    <glyph glyph-name="second" unicode="&#x2033;" horiz-adv-x="725" 
d="M85 890l64 519h196l-158 -519h-102zM427 890l64 519h196l-158 -519h-102z" />
    <glyph glyph-name="guilsinglleft" unicode="&#x2039;" horiz-adv-x="682" 
d="M591 940v-31l-335 -372l337 -367v-29h-169l-336 365v63l336 371h167z" />
    <glyph glyph-name="guilsinglright" unicode="&#x203a;" horiz-adv-x="682" 
d="M89 141v29l338 367l-336 372v31h166l337 -371v-63l-337 -365h-168z" />
    <glyph glyph-name="uni203E" unicode="&#x203e;" horiz-adv-x="682" 
d="M747 1503h-811v117h811v-117z" />
    <glyph glyph-name="uni2041" unicode="&#x2041;" horiz-adv-x="858" 
d="M451 508l290 -504h-86l-241 416l-226 -416h-84l273 504h74z" />
    <glyph glyph-name="uni2215" unicode="&#x2215;" horiz-adv-x="342" 
d="M-268 0h-148l881 1409h145z" />
    <glyph glyph-name="uni2215" unicode="&#x2044;" horiz-adv-x="342" 
d="M-268 0h-148l881 1409h145z" />
    <glyph glyph-name="uni204B" unicode="&#x204b;" horiz-adv-x="1102" 
d="M80 1307v102h563q174 0 272 -96t98 -267t-99 -261.5t-263 -90.5v-958h-113v1571h-217v-1571h-112v1571h-129z" />
    <glyph glyph-name="uni207F" unicode="&#x207f;" horiz-adv-x="747" 
d="M451 1181q95 0 143.5 -54t48.5 -175v-433h-129v398q0 90 -21 117t-44.5 35t-58.5 8q-72 0 -114.5 -50t-42.5 -144v-364h-128v511l-4 139h119l6 -111h2q32 61 80 92t143 31z" />
    <glyph glyph-name="franc" unicode="&#x20a3;" horiz-adv-x="1139" 
d="M359 1254v-476h687v-157h-687v-213h402v-129h-402v-279h-180v279h-175v129h175v1001h891v-155h-711z" />
    <glyph glyph-name="lira" unicode="&#x20a4;" horiz-adv-x="1139" 
d="M738 153q174 0 203 176l163 -18q-26 -233 -148 -272t-189 -39h-698v154q175 90 175 327v25h-186v129h186v140h-186v129h186v130q0 288 150 342t236 54q160 0 261 -59.5t136 -170.5l-174 -57q-31 97 -99 118t-104 21q-114 0 -170 -57.5t-56 -182.5v-138h408v-129h-408
v-140h408v-129h-408v-7q0 -180 -64.5 -252.5t-104.5 -93.5h483z" />
    <glyph glyph-name="peseta" unicode="&#x20a7;" horiz-adv-x="2240" 
d="M1652 601q0 -65 84.5 -88t173 -43.5t165 -70.5t76.5 -170t-91.5 -184.5t-261.5 -64.5q-234 0 -291.5 83t-72.5 147l159 26q33 -119 211 -119q177 0 177 80t-51 104t-142 46q-91 23 -201 59.5t-110 189.5q0 109 84 168.5t235 59.5t233.5 -52.5t104.5 -168.5l-161 -17
q-21 100 -171 100t-150 -85zM1222 268q0 -151 83 -151q42 0 102 14v-123q-76 -24 -169 -24q-186 0 -186 245v453h-104v131h111l53 242h110v-242h157v-131h-157v-414zM452 700q320 0 320 283q0 273 -328 273h-105v-556h113zM828 671q-126 -122 -359 -122h-130v-549h-181v1409
h299q243 0 370 -113.5t127 -308.5q0 -194 -126 -316z" />
    <glyph glyph-name="Euro" unicode="&#x20ac;" horiz-adv-x="1139" 
d="M676 -20q-218 0 -339.5 139t-149.5 383h-171l40 129h120q-3 24 -3 85t3 79h-160l40 127h129q46 377 215 442.5t275 65.5q194 0 299 -89t133 -234l-185 -14q-14 91 -74.5 141t-147.5 50t-194.5 -39.5t-138.5 -322.5h446l-40 -127h-413q-3 -24 -3 -75t4 -89h452l-40 -129
h-404q42 -376 322 -376q100 0 160 50t74 141l185 -14q-43 -227 -184.5 -275t-249.5 -48z" />
    <glyph glyph-name="afii61248" unicode="&#x2105;" horiz-adv-x="1813" 
d="M215 975q0 -339 196 -339q69 0 116 41t58 128l141 -9q-13 -115 -93.5 -194.5t-217.5 -79.5q-179 0 -262.5 123t-83.5 345t98 326t247 104q194 0 246 -102t61 -157l-143 -11q-10 72 -51.5 114.5t-116.5 42.5q-108 0 -151.5 -82t-43.5 -250zM1554.5 699q-41.5 75 -127.5 75
t-128.5 -75t-42.5 -265q0 -266 64.5 -301t104.5 -35t71.5 17t65.5 78t34 246t-41.5 260zM523 0h-155l922 1409h157zM1744 438q0 -129 -25.5 -214.5t-69 -138t-101.5 -75t-163 -22.5t-190.5 104.5t-85.5 341.5q0 363 125.5 407t192.5 44t124.5 -20.5t100 -72t67.5 -138.5
t25 -216z" />
    <glyph glyph-name="uni2108" unicode="&#x2108;" horiz-adv-x="1245" 
d="M229 175q117 -352 365 -352q78 0 148.5 43.5t149 165t92.5 393.5h-523v184h523q-25 413 -164.5 496t-219.5 83q-140 0 -224 -86.5t-117 -217.5l-145 72q115 419 479 419q261 0 404.5 -231t143.5 -630t-141.5 -639t-405.5 -240t-360.5 173.5t-128.5 272.5z" />
    <glyph glyph-name="afii61289" unicode="&#x2113;" horiz-adv-x="662" 
d="M525 1108q0 246 -107 245q-83 0 -92 -89t-9 -135v-507q149 100 178.5 260t29.5 226zM151 1130q0 208 91 253.5t153 45.5q112 0 166.5 -80t54.5 -199q0 -215 -82 -372.5t-217 -235.5v-244q0 -162 46.5 -191t69.5 -29q103 0 136 213h69q-20 -154 -80 -232.5t-170 -78.5
t-173.5 79.5t-63.5 234.5v175q-51 -27 -132 -58v73q79 31 132 59v587z" />
    <glyph glyph-name="uni2114" unicode="&#x2114;" horiz-adv-x="1626" 
d="M731 966q0 -13 -4 -59h4q51 105 133 150t205 45q207 0 302 -138.5t95 -416.5q0 -567 -397 -567q-123 0 -205 45t-133 143h-2q0 -152 -8 -168h-176q8 16 8 37v1198h-236v-1235h-180v1235h-110v102h110v148h180v-148h236v148h178v-148h303v-102h-303v-269zM1221.5 859.5
q-58.5 103.5 -203.5 103.5t-216 -102t-71 -333q0 -328 109.5 -371.5t177.5 -43.5t116 23.5t97 99t49 298.5q0 222 -58.5 325.5z" />
    <glyph glyph-name="afii61352" unicode="&#x2116;" horiz-adv-x="2197" 
d="M1439 0v146h635v-146h-635zM1890 906.5q-45 61.5 -141 61.5t-142.5 -62t-46.5 -216q0 -224 70 -251.5t114 -27.5t80 13t73.5 60.5t37.5 203.5q0 157 -45 218.5zM1747 1080q347 0 347 -390q0 -188 -88 -289.5t-260 -101.5t-260 100.5t-88 290.5q0 284 130.5 337t218.5 53z
M348 0h-160v1409h202l728 -1198q-8 160 -8 274v924h162v-1409h-210l-720 1190l6 -254v-936z" />
    <glyph glyph-name="prescription" unicode="&#x211e;" horiz-adv-x="1674" 
d="M359 585v-585h-191v1409h663q361 0 429 -154.5t68 -234.5q0 -160 -86.5 -271.5t-257.5 -141.5l352 -545l317 182v-157l-243 -140l233 -360h-220l-169 270l-497 -284v158l424 242l-383 612h-439zM1136 1008q0 122 -84.5 185t-239.5 63h-453v-520h461q236 0 276 106t40 166
z" />
    <glyph glyph-name="trademark" unicode="&#x2122;" horiz-adv-x="2048" 
d="M577 1298v-664h-134v664h-255v111h650v-111h-261zM1817 1409v-775h-126v619q-11 -25 -14.5 -37t-5.5 -17l-230 -565h-108l-163 413q-23 58 -77 206q-2 -20 -2 -23v-596h-128v775h190l223 -563q3 -6 15 -42q74 189 74 192l168 413h184z" />
    <glyph glyph-name="uni2125" unicode="&#x2125;" horiz-adv-x="1084" 
d="M742.5 -195q77.5 67 77.5 202t-103.5 188t-240.5 53h-102l-74 1l410 553h-407l407 550h-522v139h725v-137l-306 -413h306v-137l-310 -419q4 -1 9 -2l86 -23q309 -102 309 -380q0 -80 -64.5 -235.5t-413.5 -155.5q-240 0 -356 107.5t-137 274.5l186 17q36 -250 307 -250
q136 0 213.5 67z" />
    <glyph glyph-name="uni2126" unicode="&#x2126;" horiz-adv-x="1573" 
d="M560 145q-424 231 -424 677q0 126 45 243t129 198t204.5 124t347.5 43t400.5 -167.5t173.5 -461.5q0 -207 -110.5 -376t-313.5 -280l208 11h244v-156h-589v224q366 194 366 564q0 232 -119 359t-336 127t-336 -127t-119 -359q0 -370 366 -564v-224h-589v156h244
q28 0 97 -4t111 -7z" />
    <glyph glyph-name="estimated" unicode="&#x212e;" horiz-adv-x="1229" 
d="M617 1011q-179 0 -296 -117v-278h596v277q-72 76 -159.5 97t-140.5 21zM321 175q115 -124 313 -124q128 0 216.5 57t163.5 177l72 -42q-83 -131 -187.5 -204t-296.5 -73q-112 0 -211.5 46.5t-201 165.5t-101.5 353q0 273 159.5 419t380.5 146q220 0 370 -154t150 -411
h-827v-356z" />
    <glyph glyph-name="oneeighth" unicode="&#x215b;" horiz-adv-x="1708" 
d="M80 563v107h211v620l-202 -138v120l210 137h123v-739h215v-107h-557zM493 0h-148l881 1409h145zM1614 237q0 -49 -18 -95t-54 -79t-92 -51t-134 -19q-149 0 -224 67t-75 167q0 99 50 154t119 66v3q-106 24 -139 129q-10 32 -10 72q0 90 73 151t207 61t205 -62t71 -165
q0 -104 -86 -160q-28 -18 -64 -25v-3q120 -20 158 -125q13 -36 13 -86zM1159 250q0 -156 158 -156q126 0 148 95q7 30 7 62q0 69 -34 109q-34 39 -124 39q-155 1 -155 -149zM1333 763q-94 0 -124 -34q-31 -34 -31 -76q0 -77 28 -115t93 -38q64 0 91 12q26 12 40 32
q20 30 21 91q0 128 -118 128z" />
    <glyph glyph-name="threeeighths" unicode="&#x215c;" horiz-adv-x="1708" 
d="M493 0h-148l881 1409h145zM1614 237q0 -49 -18 -95t-54 -79t-92 -51t-134 -19q-149 0 -224 67t-75 167q0 99 50 154t119 66v3q-106 24 -139 129q-10 32 -10 72q0 90 73 151t207 61t205 -62t71 -165q0 -104 -86 -160q-28 -18 -64 -25v-3q120 -20 158 -125q13 -36 13 -86z
M1159 250q0 -156 158 -156q126 0 148 95q7 30 7 62q0 69 -34 109q-34 39 -124 39q-155 1 -155 -149zM1333 763q-94 0 -124 -34q-31 -34 -31 -76q0 -77 28 -115t93 -38q64 0 91 12q26 12 40 32q20 30 21 91q0 128 -118 128zM539 803q0 137 -189 137h-61v109h57q113 1 156 71
q16 26 16 76t-37 84t-107 35q-70 0 -111 -35q-42 -35 -48 -100l-135 12q20 169 187 215q51 14 115 14q129 0 201 -61t72 -146q0 -176 -176 -215v-2q98 -9 148 -65q49 -56 49 -137q0 -116 -78 -180t-219 -64q-286 0 -318 227l136 13q18 -136 180 -136t162 148z" />
    <glyph glyph-name="fiveeighths" unicode="&#x215d;" horiz-adv-x="1708" 
d="M493 0h-148l881 1409h145zM1614 237q0 -49 -18 -95t-54 -79t-92 -51t-134 -19q-149 0 -224 67t-75 167q0 99 50 154t119 66v3q-106 24 -139 129q-10 32 -10 72q0 90 73 151t207 61t205 -62t71 -165q0 -104 -86 -160q-28 -18 -64 -25v-3q120 -20 158 -125q13 -36 13 -86z
M1159 250q0 -156 158 -156q126 0 148 95q7 30 7 62q0 69 -34 109q-34 39 -124 39q-155 1 -155 -149zM1333 763q-94 0 -124 -34q-31 -34 -31 -76q0 -77 28 -115t93 -38q64 0 91 12q26 12 40 32q20 30 21 91q0 128 -118 128zM226 788q24 -131 176 -131q54 1 96 43
q43 42 43 129q0 172 -156 172q-91 0 -151 -60h-129l33 468h506v-113h-398l-19 -245q66 59 174 59q200 0 257 -161q18 -51 18 -115q0 -129 -75 -206q-75 -76 -214 -76q-191 0 -263 132q-22 40 -31 89z" />
    <glyph glyph-name="seveneighths" unicode="&#x215e;" horiz-adv-x="1708" 
d="M433 0h-148l881 1409h145zM1614 237q0 -49 -18 -95t-54 -79t-92 -51t-134 -19q-149 0 -224 67t-75 167q0 99 50 154t119 66v3q-106 24 -139 129q-10 32 -10 72q0 90 73 151t207 61t205 -62t71 -165q0 -104 -86 -160q-28 -18 -64 -25v-3q120 -20 158 -125q13 -36 13 -86z
M1159 250q0 -156 158 -156q126 0 148 95q7 30 7 62q0 69 -34 109q-34 39 -124 39q-155 1 -155 -149zM1333 763q-94 0 -124 -34q-31 -34 -31 -76q0 -77 28 -115t93 -38q64 0 91 12q26 12 40 32q20 30 21 91q0 128 -118 128zM444 564h-133q1 260 181 556q54 88 113 176h-460
v113h589v-101q-150 -227 -199 -338q-91 -209 -91 -406z" />
    <glyph glyph-name="arrowleft" unicode="&#x2190;" horiz-adv-x="2048" 
d="M1630 637v-86h-989q57 -67 119 -197h-72q-127 149 -270 222v36q143 73 270 222h72q-62 -130 -119 -197h989z" />
    <glyph glyph-name="arrowup" unicode="&#x2191;" horiz-adv-x="1024" 
d="M555 -61h-86v989q-67 -57 -197 -119v72q149 127 222 270h36q73 -143 222 -270v-72q-130 62 -197 119v-989z" />
    <glyph glyph-name="arrowright" unicode="&#x2192;" horiz-adv-x="2048" 
d="M418 551v86h989q-57 67 -119 197h72q127 -149 270 -222v-36q-143 -73 -270 -222h-72q62 130 119 197h-989z" />
    <glyph glyph-name="arrowdown" unicode="&#x2193;" horiz-adv-x="1024" 
d="M469 1151h86v-989q67 57 197 119v-72q-149 -127 -222 -270h-36q-73 143 -222 270v72q130 -62 197 -119v989z" />
    <glyph glyph-name="arrowboth" unicode="&#x2194;" horiz-adv-x="2048" 
d="M1630 576q-143 -73 -270 -222h-72q62 130 119 197h-766q57 -67 119 -197h-72q-127 149 -270 222v36q143 73 270 222h72q-62 -130 -119 -197h766q-57 67 -119 197h72q127 -149 270 -222v-36z" />
    <glyph glyph-name="arrowupdn" unicode="&#x2195;" horiz-adv-x="1024" 
d="M494 -61q-73 143 -222 270v72q130 -62 197 -119v766q-67 -57 -197 -119v72q149 127 222 270h36q73 -143 222 -270v-72q-130 62 -197 119v-766q67 57 197 119v-72q-149 -127 -222 -270h-36z" />
    <glyph glyph-name="arrowupdnbse" unicode="&#x21a8;" horiz-adv-x="1024" 
d="M494 -61q-73 143 -222 270v72q130 -62 197 -119v766q-67 -57 -197 -119v72q149 127 222 270h36q73 -143 222 -270v-72q-130 62 -197 119v-766q67 57 197 119v-72q-149 -127 -222 -270h-36zM272 -104h480v-80h-480v80z" />
    <glyph glyph-name="filledbox" unicode="&#x25a0;" horiz-adv-x="1237" 
d="M123 1108h991v-991h-991v991z" />
    <glyph glyph-name="H22073" unicode="&#x25a1;" horiz-adv-x="1565" 
d="M150 1307v-1192h1169l4 1192h-1173zM1450 0h-1419v1421h1419v-1421z" />
    <glyph glyph-name="H18543" unicode="&#x25aa;" horiz-adv-x="726" 
d="M617 383h-508v508h508v-508z" />
    <glyph glyph-name="H18551" unicode="&#x25ab;" horiz-adv-x="726" 
d="M541 459v354h-356v-354h356zM617 383h-508v508h508v-508z" />
    <glyph glyph-name="filledrect" unicode="&#x25ac;" horiz-adv-x="2048" 
d="M0 616h2048v-616h-2048v616z" />
    <glyph glyph-name="triagup" unicode="&#x25b2;" horiz-adv-x="2027" 
d="M414 0l600 1198l598 -1198h-1198z" />
    <glyph glyph-name="triagrt" unicode="&#x25ba;" horiz-adv-x="2027" 
d="M401 1196l1225 -610l-1225 -613v1223z" />
    <glyph glyph-name="triagdn" unicode="&#x25bc;" horiz-adv-x="2027" 
d="M1612 1171l-598 -1198l-600 1198h1198z" />
    <glyph glyph-name="triaglf" unicode="&#x25c4;" horiz-adv-x="2027" 
d="M1626 1196v-1223l-1225 613z" />
    <glyph glyph-name="lozenge" unicode="&#x25ca;" horiz-adv-x="1012" 
d="M508 1286l-354 -565l354 -574l352 574zM547 0h-82l-457 719l457 721h82l459 -719z" />
    <glyph glyph-name="circle" unicode="&#x25cb;" horiz-adv-x="1237" 
d="M253 612q0 -76 28.5 -142t77.5 -115.5t115.5 -78t142.5 -28.5t143 28.5t116.5 78t78.5 115.5t29 142t-29 143t-78.5 116.5t-116.5 78.5t-143 29t-142.5 -29t-115.5 -78.5t-77.5 -116.5t-28.5 -143zM167 612q0 94 35 176.5t96 144t143 97t176 35.5t176.5 -35.5t144 -97
t97 -144t35.5 -176.5t-35.5 -176t-97 -143t-144 -96t-176.5 -35t-176 35t-143 96t-96 143t-35 176z" />
    <glyph glyph-name="H18533" unicode="&#x25cf;" horiz-adv-x="1237" 
d="M618 1018q110 0 217 -57q155 -82 189.5 -204t34.5 -179q0 -183 -129.5 -312t-311.5 -129t-311 129t-129 312q0 111 59 219t165 164q106 57 216 57z" />
    <glyph glyph-name="invbullet" unicode="&#x25d8;" horiz-adv-x="1237" 
d="M176 577q0 -91 34.5 -171t94.5 -140t140 -94.5t171 -34.5t171.5 34.5t140.5 94.5t94.5 140t34.5 171t-34.5 171.5t-94.5 140.5t-140.5 94.5t-171.5 34.5t-171 -34.5t-140 -94.5t-94.5 -140.5t-34.5 -171.5zM41 0v1155h1155v-1155h-1155z" />
    <glyph glyph-name="invcircle" unicode="&#x25d9;" horiz-adv-x="1237" 
d="M176 577q0 -91 34.5 -171t94.5 -140t140 -94.5t171 -34.5t171.5 34.5t140.5 94.5t94.5 140t34.5 171t-34.5 171.5t-94.5 140.5t-140.5 94.5t-171.5 34.5t-171 -34.5t-140 -94.5t-94.5 -140.5t-34.5 -171.5zM253 577q0 75 29 141.5t78.5 116t116 78.5t141.5 29t141.5 -29
t116 -78.5t78.5 -116t29 -141.5t-29 -141.5t-78.5 -116t-116 -78.5t-141.5 -29t-141.5 29t-116 78.5t-78.5 116t-29 141.5zM41 0v1155h1155v-1155h-1155z" />
    <glyph glyph-name="openbullet" unicode="&#x25e6;" horiz-adv-x="726" 
d="M363 464q72 0 122 52t50 122t-51 120.5t-121 50.5t-121 -50.5t-51 -120.5t50 -122t122 -52zM361 389q-99 0 -174 72q-72 76 -72 177t73 174q74 73 176 73t173 -74q74 -71 74 -173t-74 -177q-77 -72 -176 -72z" />
    <glyph glyph-name="uni2609" unicode="&#x2609;" 
d="M910 787q72 0 123 -51t51 -119t-49 -122t-123 -54t-124 51t-50 122t50 122t122 51zM894 1223q-235 0 -413.5 -178.5t-178.5 -430.5t179 -430.5t431 -178.5t430 178.5t178 430.5q0 141 -61 264t-161 206q-169 139 -404 139zM902 1395q310 0 534 -203q117 -108 186.5 -259
t69.5 -321t-69.5 -319t-180.5 -250q-232 -211 -531 -211q-162 0 -378.5 93t-341.5 384q-61 145 -61 306q0 303 203 524q107 117 258 186.5t311 69.5z" />
    <glyph glyph-name="uni261E" unicode="&#x261e;" horiz-adv-x="1892" 
d="M23 757q0 120 49 244h223q144 71 348 132l291 -29l39 -37l420 -8q143 0 187.5 -20t58.5 -42.5t14 -54.5q0 -106 -242 -106l-371 -2l-34 -13q51 -30 51 -86q0 -79 -90 -106q12 -23 12 -61t-28.5 -65t-88.5 -36v-18q0 -105 -155 -105h-35l-39 16q-58 -20 -96 -20t-54 2
t-34 4q-115 50 -234 178h-145q-47 113 -47 233zM1604 942q0 68 -201 68l-381 6l117 -107q-8 -19 -23 -24l236 4q252 0 252 53zM72 752q0 -86 28 -179h144q88 -113 213 -182q14 -6 28 -6q13 0 30.5 3t45.5 5l-129 51q23 54 84 109l-65 27q55 95 124 114l-73 35
q58 109 149 130q-37 -5 -69 -1l-7 51l19 -2q106 0 197 54q85 -87 176 -87q55 0 100 35l-154 148l-268 22l-350 -125h-191q-32 -116 -32 -202zM1006 735q0 49 -86 49h-134q-44 29 -88 29q-89 0 -125 -61l197 -82l113 2q123 0 123 63zM821 516q109 0 109 64q0 18 -19 43
l-155 -2l-111 49q-86 -13 -119 -68l199 -86h96zM713 393q100 0 100 74h-104l-140 61q-50 -37 -67 -59l172 -76h39zM899 834q-62 20 -115 67q-53 -27 -108 -38q9 1 18 1q55 0 105 -30h100z" />
    <glyph glyph-name="sun" unicode="&#x263c;" horiz-adv-x="1877" 
d="M604 470q0 -136 96 -233t235 -98q139 0 237 97q98 96 98 234t-99 237q-100 98 -235.5 98t-233.5 -99q-98 -100 -98 -236zM905 1083h66v-217q121 -11 225 -90l186 182l45 -45l-184 -184q86 -113 92 -229h215v-62h-215q-17 -125 -92 -221l184 -188l-49 -43l-182 182
q-53 -39 -99 -60t-126 -32v-217h-66v217q-121 17 -221 90l-188 -180l-43 45l182 184q-78 100 -94 225h-215v62h215q12 128 92 223l-180 184l40 49l189 -182q110 77 223 90v217z" />
    <glyph glyph-name="uni263D" unicode="&#x263d;" 
d="M1320 588q0 198 -110 360q-110 163 -279 241q-112 47 -193 47q-80 0 -124 -12q97 -26 190 -104q71 -63 123 -140q122 -181 122 -393t-110 -392q-130 -213 -321 -258q53 -17 167 -17q99 9 185 53q158 81 254 249t96 366zM329 1182q203 182 466 182q262 0 466 -204
q105 -107 169 -259.5t64 -319.5t-56 -307t-152.5 -246t-227 -167t-281.5 -61t-300 81q-59 32 -149 100q30 -3 68 -3t81 9q194 45 305 219t111 385q0 212 -124 384q-87 124 -221 180q-78 31 -162 31h-16q-17 0 -41 -4z" />
    <glyph glyph-name="uni263E" unicode="&#x263e;" 
d="M1130 1236q-127 0 -239 -47q-169 -78 -279 -241q-110 -162 -110 -360t96 -366t254 -249q86 -44 185 -53q114 0 167 17q-191 45 -321 258q-110 180 -110 392t122 393q52 77 123 140q93 78 190 104q-44 12 -78 12zM1009 1364q108 0 228.5 -30.5t255.5 -151.5q-24 4 -27 4
h-30q-84 0 -162 -31q-134 -56 -221 -180q-124 -172 -124 -384q0 -211 111 -385t305 -219q43 -9 81 -9t68 3q-90 -68 -149 -100q-149 -81 -300 -81t-281.5 61t-283 228.5t-152.5 492.5q0 166 64 318t166 256t222.5 156t228.5 52z" />
    <glyph glyph-name="uni263F" unicode="&#x263f;" horiz-adv-x="1176" 
d="M584 1051q-130 0 -218 -91q-86 -92 -86 -208t84 -208t218 -93q134 0 216 91q83 92 83 210t-78 200q-89 99 -219 99zM201 29h290v253q-170 34 -280 166t-110 304q0 213 163 359q-76 63 -120 156t-43 192h182q0 -74 34 -139q32 -74 97 -119q78 29 168 29t169 -29
q59 42 95 113t35 145h182q0 -99 -44 -190.5t-118 -157.5q162 -144 162 -349t-139 -345q-103 -105 -250 -135v-253h289v-159h-289v-243h-183v243h-290v159z" />
    <glyph glyph-name="female" unicode="&#x2640;" horiz-adv-x="1332" 
d="M299 29h283v210q-194 33 -325.5 186t-131.5 365t160.5 372.5t386.5 160.5t386 -160t160 -374t-131 -365t-325 -184v-211h282v-157h-282v-269h-180v269h-283v157zM666 1144q-156 0 -258 -112t-102 -254q0 -140 102 -253t258 -113t263.5 108t107.5 259t-107.5 258
t-263.5 107z" />
    <glyph glyph-name="uni2641" unicode="&#x2641;" horiz-adv-x="1332" 
d="M299 1143h283v269h180v-269h282v-157h-282v-211q194 -33 325 -184t131 -365t-160 -374t-386 -160t-386.5 160t-160.5 372t131.5 365.5t325.5 186.5v210h-283v157zM666 603q-156 0 -258 -113q-102 -114 -102 -254t102 -252t258 -113q156 0 263.5 107t107.5 258t-107.5 259
t-263.5 108z" />
    <glyph glyph-name="male" unicode="&#x2642;" horiz-adv-x="1783" 
d="M963 298q0 136 -99 235.5t-236 99.5t-235.5 -99.5t-98.5 -231.5t92 -235t236 -103t242.5 99t98.5 235zM1127 299q0 -206 -147 -352.5t-367 -146.5t-369 182q-114 138 -114 326t142 338t356 151q153 0 291 -92l338 338q-115 89 -263 107l697 216l-211 -702
q-14 141 -107 263l-338 -338q92 -142 92 -290z" />
    <glyph glyph-name="uni2643" unicode="&#x2643;" horiz-adv-x="1608" 
d="M748 910q0 -318 -225 -657h407v281l185 186v-467h397v-156h-397v-475h-185v475h-821q148 135 192 183q89 97 145 214q93 194 93 376q0 257 -193 350q-63 26 -124 26t-113 -22q47 47 181 94q76 24 133 24t113 -24q124 -53 177 -196q35 -92 35 -212z" />
    <glyph glyph-name="uni2644" unicode="&#x2644;" horiz-adv-x="1466" 
d="M1014 -280q0 26 20 86q20 58 25 67q4 9 30 76l46 148q20 78 20 143q0 152 -67 261q-85 139 -229 139q-198 0 -256 -134v-506h-154v1050h-254v143h254v271h154v-271h254v-143h-254v-336q98 80 236 80q238 0 364 -182q57 -84 82 -184t25 -143t1 -91q0 -90 -90 -305
q-8 -34 -37 -163q-13 -105 -111 -134q-35 16 -54 87q-5 15 -5 41z" />
    <glyph glyph-name="uni2646" unicode="&#x2646;" horiz-adv-x="2017" 
d="M1297 910q0 120 31 203q56 151 185 208q53 21 95 21q112 0 244 -64q57 -27 84 -54q-52 22 -113 22t-124 -26q-193 -93 -193 -350q0 -182 93 -376q56 -117 145 -214q44 -48 192 -183h-821v-475h-185v475h-821q148 135 192 183q89 97 145 214q93 194 93 376q0 257 -193 350
q-63 26 -124 26t-113 -22q47 47 181 94q76 24 133 24t113 -24q124 -53 177 -196q35 -92 35 -212q0 -318 -225 -657h407v881l185 186v-1067h407q-225 339 -225 657z" />
    <glyph glyph-name="uni2648" unicode="&#x2648;" horiz-adv-x="1810" 
d="M1293 1419q198 0 337.5 -139.5t139.5 -334.5q0 -229 -181 -373l-113 157q100 85 100 215t-103 219q-81 65 -187 65t-192 -80q-85 -80 -85 -201v-947h-194v946q0 124 -89 203q-88 79 -204 79t-196 -88t-81 -207q0 -118 101 -204l-113 -157q-181 142 -181 373
q0 182 133 328t344 146q243 0 389 -189q140 189 375 189z" />
    <glyph glyph-name="uni2649" unicode="&#x2649;" horiz-adv-x="1640" 
d="M1485 386q0 -112 -53 -236t-145 -215.5t-215.5 -144.5t-262.5 -53q-277 0 -475 197t-198 477q0 171 84 326t242 251q-130 80 -204 192t-103 224h204q42 -121 145 -206q132 -111 296 -111t286 87t175 230h204q-30 -129 -111 -238.5t-196 -177.5q159 -96 243 -252t84 -350z
M804 901q-210 0 -356 -161q-127 -139 -127 -328q1 -190 137 -340t338 -151q202 0 343 128q161 144 161 353t-143 354t-353 145z" />
    <glyph glyph-name="uni264A" unicode="&#x264a;" horiz-adv-x="1829" 
d="M909 1303q245 0 468 111h310q-152 -129 -350 -198v-1169q197 -68 350 -197h-310q-221 111 -466 111t-468 -111h-309q148 126 349 197v1170q-199 68 -349 197h309q221 -111 466 -111zM907 1145q-132 0 -255 25v-1076q129 25 261 25t255 -25v1076q-129 -25 -261 -25z" />
    <glyph glyph-name="uni264B" unicode="&#x264b;" horiz-adv-x="1810" 
d="M1310 628q88 0 150 62t62 152t-69 155q-63 55 -144 55t-145 -60t-65 -150q0 -90 61.5 -152t149.5 -62zM906 1199q-225 0 -418 -102q-232 -126 -358 -352v285q135 141 312 228q222 110 496 110q93 0 232 -36t252.5 -99t191 -161t77.5 -243t-112 -257.5t-279 -112.5
t-282 139q-87 105 -87 226q0 231 191 346q-118 29 -216 29zM298 322q0 -85 61 -147.5t152 -62.5t151 66t59 151q0 86 -69 152q-63 55 -148 55q-84 0 -145 -64.5t-61 -149.5zM130 324q0 156 112 268.5t268 112.5t267.5 -111.5t111.5 -269.5q0 -104 -51 -191.5t-140 -138.5
q114 -29 212 -29q218 0 396 89q249 123 385 365v-285q-323 -336 -809 -336q-117 0 -269 42q-151 42 -258 116q-225 154 -225 368z" />
    <glyph glyph-name="uni264C" unicode="&#x264c;" horiz-adv-x="1581" 
d="M358 617q-74 171 -74 290q0 120 98 258q81 119 211 173t281 54t281 -55t218 -165t88 -286q0 -177 -141 -403q-88 -140 -166 -256q-112 -166 -113 -302q0 -60 34 -120t127 -59q77 11 144 71.5t115 136.5v-221q-111 -140 -260 -140t-248 131q-68 94 -68 194q0 21 2 42
q18 121 81 244l212 360q117 204 117 330q0 165 -179 277q-110 72 -226 72q-229 0 -348 -143q-82 -108 -82 -246t124 -342q50 -68 50 -162t-76.5 -169.5t-188.5 -75.5q-111 1 -185 79t-74 178t74 178q74 77 172 77zM500 360q0 54 -40 89t-88 35t-85.5 -36t-37.5 -86
q1 -50 35 -87t86 -37t91 34t39 88z" />
    <glyph glyph-name="uni264D" unicode="&#x264d;" horiz-adv-x="1669" 
d="M1421 449q0 156 -89 253q-60 65 -148 88l1 -790q-2 -16 3 -39q129 119 197 297q36 93 36 191zM1424 -383q-164 0 -284 118q-90 -63 -193 -90.5t-161 -27.5t-129 26v160q77 -38 145 -38q110 0 254 90q-32 75 -32 145v941q0 111 -25 143q-44 56 -94 56q-113 0 -174 -90
q5 -41 5 -107v-943h-159v980q-2 54 -10 74t-23 38q-34 48 -104 48t-117 -51l-30 -37v-1052h-160v1356l79 85h81v-277l22 34q73 95 168 95t164 -60q36 -34 56 -77q14 29 41 54q75 83 202 83q79 0 148 -60q50 -49 70 -115t20 -167q188 -26 288 -165q100 -138 101 -300
q0 -162 -64 -304t-159 -251l-90 -98q73 -71 164 -71q42 0 79 19q42 17 69 38v-167q-57 -35 -148 -35z" />
    <glyph glyph-name="uni264E" unicode="&#x264e;" horiz-adv-x="1815" 
d="M130 242h1561v-164h-1561v164zM1372 618h319v-164h-485v156q0 126 -82 217t-211 91q-130 0 -214 -91q-83 -91 -83 -217v-156h-486v164h320q0 194 134 331q134 136 319 136t327 -130t142 -337z" />
    <glyph glyph-name="uni264F" unicode="&#x264f;" horiz-adv-x="2043" 
d="M1174 836l-1 -400q-1 -488 69 -574t194 -86q32 0 67 5q9 4 17 7l-10 37q-57 136 -174 224l712 -161l-534 -503q43 97 43 209q0 24 -2 49q-53 -26 -133 -26q-161 0 -282 118l-84 120q-32 75 -32 145v941q0 111 -25 143q-44 56 -94 56q-113 0 -174 -90q5 -41 5 -107v-943
h-159v980q-2 54 -10 74t-23 38q-34 48 -104 48t-117 -51l-30 -37v-1052h-160v1356l79 85h81v-277l22 34q73 95 168 95t164 -60q36 -34 56 -77q14 29 41 54q75 83 202 83q79 0 148 -60q50 -48 72 -122q8 -67 8 -275z" />
    <glyph glyph-name="uni2650" unicode="&#x2650;" horiz-adv-x="1815" 
d="M1369 918l-523 -522l225 -101l-71 -159l-285 128l-462 -461l-123 123l415 415l-221 99l71 159l282 -127l569 569q-123 88 -260 104l706 220l-219 -706q-16 139 -104 259z" />
    <glyph glyph-name="uni2651" unicode="&#x2651;" horiz-adv-x="1833" 
d="M920 296q0 -106 88.5 -193t211.5 -87t212 86t89 206t-89.5 207.5t-224.5 87.5t-231 -124q-56 -77 -56 -183zM458 1232v172h1234l-484 -625h13q192 0 331 -137.5t139 -331.5t-137.5 -332t-331.5 -138t-333 138t-139 331q0 92 36 181q-188 -101 -324.5 -313t-169.5 -440
h-162q47 388 318 688q216 236 512 318l379 489h-881z" />
    <glyph glyph-name="uni2652" unicode="&#x2652;" horiz-adv-x="1829" 
d="M130 1338q60 0 105 -45.5t85 -118.5t71 -156t54 -83q23 1 46 57q78 192 152 285q49 61 111 61t103.5 -47t80.5 -123t68.5 -154t57.5 -78t56 75.5t64 149.5t80 125.5t108 51.5t107 -54t78 -126l66 -149q31 -71 68 -71v-177q-63 0 -107.5 51.5t-86.5 133.5t-70 150
q-27 68 -51 68t-54 -66l-66 -144q-36 -72 -82 -132t-104 -60t-104.5 54t-88.5 136t-70 147q-29 65 -50 65t-52 -73t-71 -149t-86 -128t-106 -52t-103 55.5t-75 126.5l-69 149q-30 71 -65 71v174zM130 642q60 0 105 -46t85 -118t70 -156q32 -84 55 -84t46 56q78 192 152 286
q50 62 111 62t103.5 -48t80.5 -124t68 -154t58 -78t48 54q77 208 136.5 278.5t123.5 70.5q64 1 106 -53q44 -54 79 -126l66 -149q31 -72 68 -72v-177q-63 0 -107.5 51.5t-86.5 133.5t-70 151q-27 68 -51 68t-54 -67l-66 -143q-36 -73 -82 -133t-104 -60t-104.5 54t-88.5 136
t-70 147q-29 66 -50 66t-52 -74t-71 -150t-86 -127.5t-106 -51.5t-103 55.5t-75 126.5l-69 149q-30 71 -65 71v175z" />
    <glyph glyph-name="uni2653" unicode="&#x2653;" 
d="M1155 709q0 159 80 355t201 340h256q-166 -148 -250 -334t-100 -361h252v-174h-253q0 -154 96 -351t255 -344h-261q-185 231 -253 515q-23 96 -23 180h-487q0 -173 -83 -365t-194 -330h-261q154 142 244 324t107 371h-252v174h252q-18 191 -105 371t-246 324h257
q247 -307 280 -695h488z" />
    <glyph glyph-name="uni26B9" unicode="&#x26b9;" horiz-adv-x="1550" 
d="M1458 693v-128h-616l310 -537l-111 -63l-309 536l-310 -536l-111 63l310 537h-621v128h621l-310 537l111 63l310 -536l309 536l111 -63l-310 -537h616z" />
    <glyph glyph-name="uniE001" unicode="&#xe001;" horiz-adv-x="983" 
d="M477 1312v172h180v-172h-180zM477 0v1082h180v-1082h-180zM906 1256v-102h-588v-1154h-180v1154h-138v102h138v228h180v-228h588z" />
    <glyph glyph-name="uniE002" unicode="&#xe002;" horiz-adv-x="1084" 
d="M514 -121q271 0 307 250l186 -17q-32 -262 -197 -322t-288 -60q-239 0 -362.5 107.5t-123.5 297.5t113.5 264.5t195.5 101.5l86 23q5 1 9 2l-310 419v137h824v-139h-621l410 -553l-74 -1h-102q-137 0 -206 -35.5t-103.5 -83t-34.5 -125.5q0 -132 77.5 -199t213.5 -67z
" />
    <glyph glyph-name="uniE003" unicode="&#xe003;" horiz-adv-x="1084" 
d="M514 -262q271 0 307 250l186 -17q-32 -262 -197 -322t-288 -60q-239 0 -362.5 107.5t-123.5 297.5t113.5 264.5t195.5 101.5l86 23q5 1 9 2l-310 419v137h306l-306 413v137h725v-139h-522l407 -550h-407l410 -553l-74 -1h-102q-137 0 -206 -35.5t-103.5 -83t-34.5 -125.5
q0 -132 77.5 -199t213.5 -67z" />
    <glyph glyph-name="uniE004" unicode="&#xe004;" horiz-adv-x="889" 
d="M569 642q0 -57 21 -82.5t56 -43.5q34 -19 49 -28t55.5 -48t40.5 -167q0 -114 -36.5 -180t-108.5 -66q-130 0 -148 202l51 23q16 -125 97 -125q90 0 90 93.5t-23.5 120.5t-63.5 50q-41 24 -89.5 59.5t-48.5 177.5q0 224 135 224q123 0 140 -195l-54 -15q-14 110 -86 110
q-77 0 -77 -110zM255 928q-89 0 -89 -172q0 -128 43.5 -161t64.5 -49t38.5 -30.5t66 -75t48.5 -258.5q0 -185 -44 -286t-123 -101t-120.5 72t-59.5 243l62 36q10 -100 37 -147t76 -47q105 0 105 194q0 137 -47 175t-75 59q-66 51 -103.5 124t-37.5 230q0 350 159 350
q145 0 162 -305l-63 -23q-11 172 -100 172z" />
    <glyph glyph-name="uniE005" unicode="&#xe005;" horiz-adv-x="1948" 
d="M477 1312v172h180v-172h-180zM477 0v1082h180v-1082h-180zM1564 538q0 227 -59.5 326t-200.5 99q-142 0 -214 -100.5t-72 -333.5q0 -329 109.5 -372.5t177.5 -43.5t116 23t95.5 98.5t47.5 303.5zM838 223v931h-520v-1154h-180v1154h-138v102h138v228h180v-228h520v228
h180v-228h818v-102h-818v-93q0 -65 -4 -153h4q50 104 132.5 149t204.5 45q205 0 301.5 -138t96.5 -418q0 -566 -398 -566q-123 0 -204.5 44.5t-132.5 143.5h-2q0 -128 -10 -168h-174q6 54 6 223z" />
    <glyph glyph-name="uniE009" unicode="&#xe009;" horiz-adv-x="1466" 
d="M1014 -280q0 26 20 86q20 58 25 67q4 9 30 76l46 148q20 78 20 143q0 152 -67 261q-85 139 -229 139q-198 0 -256 -134v-506h-154v1464h154v-750q98 80 236 80q238 0 364 -182q57 -84 82 -184t25 -143t1 -91q0 -90 -90 -305q-8 -34 -37 -163q-13 -105 -111 -134
q-35 16 -54 87q-5 15 -5 41z" />
    <glyph glyph-name="uniE00A" unicode="&#xe00a;" horiz-adv-x="1585" 
d="M1215 368q74 -171 74 -290q0 -120 -98 -258q-81 -120 -211 -174t-281 -53q-151 0 -281 55q-130 54 -218 164t-88 287t141 403q89 140 167 256q112 166 112 302q0 60 -34 120t-127 59q-77 -11 -144 -71.5t-115 -136.5v221q111 140 260 140t248 -131q68 -94 68 -194
q0 -21 -2 -42q-18 -121 -81 -244l-212 -360q-117 -204 -117 -330q0 -165 179 -277q111 -72 227 -72q229 0 347 143q82 108 82 246t-124 342q-50 69 -50 163t76.5 169t188.5 75t186 -78t73 -180q0 -100 -74 -177t-172 -77zM1073 624q-1 -54 39 -88q40 -35 88 -35t86 36t38 86
t-34 87t-87 37q-52 0 -91 -34.5t-39 -88.5z" />
    <glyph glyph-name="uniE00B" unicode="&#xe00b;" horiz-adv-x="2472" 
d="M1878 636q47 0 111 17t121 55t99 92q42 53 80 110q-231 162 -441 -185q-28 -47 -49 -86q32 -3 79 -3zM2397 1020q-101 -440 -527 -440q-34 0 -71 3q-43 -87 -62 -207q-20 -119 -31 -190q-24 -158 -76 -265q-51 -107 -170 -145q-46 -13 -86 -13t-66 2q309 155 326 655
q-19 85 -146 130t-158 89q-30 43 -30 85t8 78q-273 -84 -482 -336q-98 -118 -190 -259q-91 -142 -146 -223q-7 22 -7 44q1 22 5 58q6 47 43 202q38 155 38 207q0 53 -2 90q-3 37 -27 86q-54 107 -214 131q-198 -77 -271 -274q-51 63 -51 114q0 99 88 171t225 93q37 6 69 6
q99 0 179 -40q153 -76 153 -292q0 -46 -10 -105q328 357 710 708q13 -41 18 -132q9 -181 29 -250q35 -115 116 -162q125 29 277 215q96 118 170 172q74 55 166 55q93 0 203 -61z" />
    <glyph glyph-name="uniE00C" unicode="&#xe00c;" 
d="M837 709v646h180v-646h138q0 159 80 355t201 340h256q-166 -148 -250 -334t-100 -361h252v-174h-253q0 -154 96 -351t255 -344h-261q-185 231 -253 515q-23 96 -23 180h-138v-665h-180v665h-169q0 -173 -83 -365t-194 -330h-261q154 142 244 324t107 371h-252v174h252
q-18 191 -105 371t-246 324h257q247 -307 280 -695h170z" />
    <glyph glyph-name="uniE00D" unicode="&#xe00d;" horiz-adv-x="1599" 
d="M687 561v706q-24 -64 -38 -108t-39 -109q-25 -64 -46.5 -120.5t-45.5 -118.5t-49.5 -126.5t-48.5 -123.5h267zM878 1253v-524h586v-158h-586v-571h-191v410l-328 -1l-157 -404h-198l576 1403h107v1h801v-156h-610z" />
    <glyph glyph-name="uniE00E" unicode="&#xe00e;" horiz-adv-x="1461" 
d="M1097 1277h-772l386 -669zM1048 -119h-259v-304h-155v304h-260v155h260v381l-576 999h1306l-575 -997v-383h259v-155z" />
    <glyph glyph-name="uniE00F" unicode="&#xe00f;" horiz-adv-x="2601" 
d="M584 1051q-130 0 -218 -91q-86 -92 -86 -208t84 -208t218 -93q134 0 216 91q83 92 83 210t-78 200q-89 99 -219 99zM2172 29h319v-164h-485v156q0 126 -82 217t-211 91q-130 0 -214 -91q-83 -91 -83 -217v-156h-486v5h-256v-243h-183v243h-290v159h290v253
q-170 34 -280 166t-110 304q0 213 163 359q-76 63 -120 156t-43 192h182q0 -74 34 -139q32 -74 97 -119q78 29 168 29t169 -29q59 42 95 113t35 145h182q0 -99 -44 -190.5t-118 -157.5q162 -144 162 -349t-139 -345q-103 -105 -250 -135v-253h576q0 194 134 331
q134 136 319 136t327 -130t142 -337z" />
    <glyph glyph-name="uniE010" unicode="&#xe010;" horiz-adv-x="1930" 
d="M1702 458q0 34 -12.5 63.5t-34 51t-51 34t-63.5 12.5t-63.5 -12.5t-51 -34t-34.5 -51t-13 -63.5t13 -63.5t34.5 -52.5t51 -35.5t63.5 -12.5t63.5 12.5t51 35.5t34 52.5t12.5 63.5zM1832 458q0 -60 -23 -112.5t-62.5 -92t-92.5 -62.5t-113 -23t-112.5 23t-92 62.5
t-62.5 92t-23 112.5t40 152t175 128q-26 100 -93 189l-338 -338q92 -142 92 -290q0 -206 -147 -352.5t-367 -146.5t-369 182q-114 138 -114 326t142 338t356 151q153 0 291 -92l338 338q-115 89 -263 107l697 216l-186 -620q18 2 57 2t92 -23t92.5 -62t62.5 -92t23 -113z
M963 298q0 136 -99 235.5t-236 99.5t-235.5 -99.5t-98.5 -231.5t92 -235t236 -103t242.5 99t98.5 235z" />
    <glyph glyph-name="uniE011" unicode="&#xe011;" horiz-adv-x="1369" 
d="M753 132v-91l125 91h-125zM591 132h-128l128 -91v91zM667 1277q-141 0 -233 -101q-92 -102 -92 -228t92 -228t232 -102t237 97.5t97 233.5t-96 232t-237 96zM1184 -113h-391l278 -191l-77 -59l-269 198v-279h-106v279l-274 -198l-73 59l268 191h-382v83h382l-268 198
l64 44v62h255v189q-175 29 -293 167.5t-118 328.5t144.5 334.5t347.5 144.5t347 -144t144 -336t-118 -328.5t-292 -165.5v-190h254v-64l64 -42l-278 -198h391v-83z" />
    <glyph glyph-name="uniE012" unicode="&#xe012;" horiz-adv-x="1342" 
d="M667 122q125 0 201 77t92 165h-577q14 -81 73 -145q86 -97 211 -97zM668 708q-126 0 -212 -96q-59 -65 -73 -146h577q-15 90 -91 166q-75 76 -201 76zM1241 1099h-434l309 -212l-86 -65l-299 220v-195q143 -18 261 -135t117 -288q0 -171 -105 -292t-260 -147v-410h-144
v409q-155 26 -260.5 149t-105.5 292t129 297q107 107 250 125v195l-304 -220l-81 65l298 212h-425v93h425l-298 219l81 56l304 -220v257h118v-257l299 220l86 -56l-309 -219h434v-93z" />
    <glyph glyph-name="uniE013" unicode="&#xe013;" horiz-adv-x="1631" 
d="M1200 -104q0 68 -52.5 117t-128.5 49q-120 0 -151.5 -65t-31.5 -101q0 -68 52 -119t131 -51q117 0 149 67t32 103zM748 1083q0 -293 -225 -605h407v259l185 171v-430h397v-143h-397v-153q15 -6 53 -20t108 -78t70 -188q0 -123 -96.5 -212t-230.5 -89t-230.5 89t-96.5 212
t79.5 195.5t158.5 92.5v151h-821q139 114 210 186q71 71 127 179q93 178 93 343t-90 257q-41 40 -103 68q-63 24 -123 24t-114 -21q52 48 155 79q103 30 160 30q124 0 224 -97t100 -300z" />
    <glyph glyph-name="uniE014" unicode="&#xe014;" horiz-adv-x="1970" 
d="M1656 32q-53 53 -129 53t-129 -53t-53 -128t52 -130t130 -55t130 55t52 130t-53 128zM1758 -326q-96 -96 -230 -97q-134 1 -230 97t-97 230q0 134 97 230t230 96t230 -96t97 -230q-1 -134 -97 -230zM914 -256q0 26 20 86q20 58 25 67q4 9 30 76l46 148q20 78 20 143
q0 152 -67 261q-85 139 -229 139q-198 0 -256 -134v-529h-154v1073h-254v143h254v271h154v-271h254v-143h-254v-336q98 80 236 80q238 0 364 -182q57 -84 82 -184t25 -143t1 -91q0 -90 -90 -305q-8 -34 -37 -163q-13 -105 -111 -134q-35 16 -54 87q-5 15 -5 41z" />
    <glyph glyph-name="uniE015" unicode="&#xe015;" horiz-adv-x="1360" 
d="M363 783h234v213l-259 -188l-75 60l275 195h-391v86h391l-275 201l75 52l280 -203v292h108v-292l275 203l79 -52l-284 -201h399v-86h-399l284 -195l-79 -60l-255 188v-213h234v-130h-234v-175q161 -28 269.5 -153t108.5 -302t-132.5 -309.5t-319.5 -132.5t-320 133
t-133 308t108.5 302t269.5 155v174h-234v130zM370 32q0 -116 84 -210t214 -93q130 0 218 89.5t88 213.5t-89 213.5t-218 89.5q-129 1 -213 -93t-84 -210zM618 1005v6l-8 -6h8zM726 1005h8l-8 6v-6z" />
    <glyph glyph-name="uniE016" unicode="&#xe016;" horiz-adv-x="1300" 
d="M680 374q-122 0 -210.5 -74t-108.5 -188h621q-16 96 -88 168q-92 94 -214 94zM877 -181q91 78 107 195h-625q16 -117 107 -195t205.5 -78t205.5 78zM743 523h7q166 -28 279.5 -160.5t113.5 -315.5t-139.5 -321.5t-331.5 -138.5t-332 138t-140 321t113.5 315.5
t280.5 162.5h15v345l-309 -178l-67 117l307 178l-307 176l67 117l309 -177v354h134v-354l308 177l67 -117l-307 -176l307 -178l-67 -117l-308 178v-346z" />
    <glyph glyph-name="uniE018" unicode="&#xe018;" horiz-adv-x="2017" 
d="M1203 -114q0 70 -53 118.5t-111 48.5q-94 0 -147 -49t-53 -117t52.5 -119.5t130.5 -51.5q116 0 148.5 67t32.5 103zM1742 1404q-118 0 -201 -82t-83 -231t83 -309q69 -134 225 -264q59 -50 79 -66h-739v-276q80 -18 135.5 -68.5t81.5 -105t26 -147t-96 -181t-231 -88.5
t-231 88.5t-96 212t82 198t162 91.5v276h-739q20 16 79 66q308 258 308 574q0 147 -81 230q-37 34 -93 58t-110 24t-103 -18q74 65 166 81t130 16q38 1 89 -19t93 -60q97 -94 97 -278q0 -263 -202 -544h366v729l167 154v-883h366q-202 281 -202 544q0 184 97 278
q42 40 93 60t111 19q60 0 148.5 -32.5t125.5 -64.5q-49 18 -103 18z" />
    <glyph glyph-name="uniE019" unicode="&#xe019;" horiz-adv-x="1288" 
d="M695 833q-12 0 -16 2q-24 -19 -114.5 -27t-91.5 -8l-36 8q-35 0 -35 -37q0 -52 73.5 -90.5t73.5 -39.5l61 -5q93 0 111.5 20t34.5 24q32 7 52 48.5t20 71.5l-2 13q-14 32 -67 22l-25 3q-27 -5 -39 -5zM979 1139q0 32 -28 32q-35 0 -61.5 -24t-26.5 -38q-26 -5 -110 -45
q-56 0 -67.5 -10.5t-18 -15t-28.5 -4.5l-51 2l-105 -14q-11 0 -24.5 8.5t-32.5 8.5l-55 -3q-33 0 -51 19t-25.5 27.5t-17.5 8.5l-46 5q-5 -12 -5 -24t11.5 -29t37.5 -38t68.5 -40.5t63.5 -19.5q22 0 45 -8.5t34 -8.5l6 2q9 -1 18.5 -7t26.5 -6l34 2q18 -12 27 -12l32 5
l17 -3q12 2 23.5 12t27.5 12l14 -1q38 0 72 25t48 30q68 0 92 49q20 14 37.5 42.5t17.5 60.5zM918 953q0 -12 4 -19t18.5 -12.5t19.5 -55.5t5 -64q0 -40 -33 -76q-4 -13 -19 -35.5t-15 -38.5l2 -11q-28 -66 -80 -76q-8 -6 -29.5 -33t-31.5 -27q-9 1 -11 1q-2 1 -53.5 -28.5
t-60.5 -42.5l2 -12q3 -12 -6.5 -31t-9.5 -49q0 -42 45 -42l20 3l13 -1q12 0 30 8l31 -5q12 0 23.5 6.5t13.5 6.5h12q10 0 46 -1t121 23l16 -1q17 0 33 3q16 -33 16 -45q0 -27 -38.5 -52t-110.5 -25q-4 0 -24 8q-19 -16 -61 -16q-44 0 -69.5 -9.5t-49.5 -9.5q-8 3 -12.5 7.5
t-18.5 4.5q-31 0 -49.5 -23.5t-18.5 -56.5l10 -32q0 -5 -8 -9q8 -7 14 -14.5t17 -7.5t19 7t13 21t20 13t27 2t22 13t23 12l38 -7l78 2l37 -2q7 0 12 5q51 0 76.5 -34.5t32 -50t7.5 -15.5l2 -19q0 -63 -33.5 -98t-33.5 -36l4 2q-5 -9 -11.5 -13t-6.5 -10t4 -16
q-12 -19 -51.5 -77.5t-25 -62t32.5 -4.5t23 -3l68 14q20 0 46.5 -15t26.5 -20q0 -39 -45 -52t-45 -14h4l-8 -8l-20 8q-72 -35 -110 -35q-61 0 -81.5 26t-20.5 47q0 22 6 35t14.5 24t18 21.5t16.5 22.5l-2 5q0 31 42 66q5 14 14.5 26.5t18.5 27.5l-4 9q0 10 5 13t5 12
q0 86 -120 75l-27 -4q-27 -3 -40.5 5t-34.5 8q-37 0 -68.5 -51.5t-31.5 -80.5l6 -22l-14 -76l2 -45q0 -54 -25.5 -89t-68.5 -35q-24 3 -39.5 28.5t-15.5 28.5q7 183 33 202l-9 66q0 58 15.5 74.5t22.5 22.5t7 24q0 52 -15 96.5t-54 44.5q-10 0 -23 -5l-51 12h-12h-73
l-78 -10q-58 0 -80 23.5t-22 30.5q0 16 41 45.5t55 29.5l45 -8l37 6l38 -8l21 2q21 0 34.5 -7t47.5 -7t60 10t35.5 23t9 25t-0.5 29t-12 37.5t-27 33.5t-27 19.5t-12 8.5h2q-2 6 -8 6h-14q-64 0 -90.5 32t-48.5 47.5t-43.5 41.5t-21.5 82q0 92 73 162h4q4 0 4 4t-11 13.5
t-74.5 57.5t-63.5 88l6 -2q-12 16 -12 35l2 31l-2 21q8 31 19.5 93t31.5 87q15 13 26 37.5t31 66t55 41.5q13 0 33 -23.5t22 -42.5l-2 -18q0 -85 66 -138q28 -23 62 -34t49 -17.5t32 -6.5t40 10q4 -7 15 -7t22.5 2.5t19.5 5.5t14.5 6.5t14.5 5.5l55 -8q68 0 107.5 36
t39.5 33q0 60 55 112l-2 15q0 35 104 92q25 0 39 -23t14 -50q10 -16 21.5 -26.5t27.5 -34t16 -85.5q-34 -25 -45 -58.5t-16.5 -49t-14.5 -23.5q-10 -9 -34 -21t-28 -24q-27 0 -54.5 -37t-27.5 -49z" />
    <glyph glyph-name="uniE01A" unicode="&#xe01a;" horiz-adv-x="1526" 
d="M690 1309l205 -1q68 0 153 17q141 18 340 146h11q-29 -93 -103 -173t-182 -130q0 2 -17 -4t-27 -9q184 -147 184 -378q0 -178 -116 -312t-286 -162v-124h578v-140h-578v-156q77 46 155 46q144 0 241 -96t97 -230q1 -2 -21 -2t-52 1t-73 2q0 74 -53 127t-129 53
q-77 0 -129 -52q-22 -22 -36 -53v-71h-7q1 -2 1 -5q0 -2 -13 -2h-15h-6h-50q-32 0 -72 1q0 17 2 33v18q-24 82 -104 117q-32 14 -71 14q-76 0 -129 -53t-53 -128q0 -2 -23 -2h-50q-32 0 -72 1q2 137 98 232t230 95q93 0 174 -51v161h-580v140h580v123q-170 28 -286 164
t-117 311q0 236 195 385l-18 6q-119 59 -199 149q-60 73 -87 154h11q190 -118 314 -138q107 -24 185 -24zM759 650q-40 0 -75 34t-35 74q0 65 35 101t75 36q67 0 106 -39q39 -38 39 -72t-12 -56t-28 -40q-18 -18 -42 -28t-63 -10zM767 1100q-138 0 -228 -100t-90 -222
q0 -124 90 -224q89 -100 227 -100t233 96t95 228q0 134 -94 228t-233 94z" />
    <glyph glyph-name="uniE01C" unicode="&#xe01c;" horiz-adv-x="1456" 
d="M595 904q0 272 26 289q42 28 130 -32q11 -15 11 -214v-288q1 -216 8 -345q7 -128 29 -126q-5 -4 2 -11q90 11 120 7q62 -7 151 -30q90 -24 139 -52q92 -68 43 -109q-49 -42 -126 -37q-78 4 -209 51q-130 47 -178 71q-49 -14 -107 -28t-114 -29t-116 -31q-33 -24 -113 -47
t-90 -8q-10 24 102 103q27 19 43 33q55 48 311 88q-47 149 -59 580q-2 86 -3 165z" />
    <glyph glyph-name="uniE01D" unicode="&#xe01d;" horiz-adv-x="1560" 
d="M867 1382l-247 1q-99 0 -281 -97q-101 -54 -101 -140v-7q28 -102 161 -154t227 -74q0 -24 -6 -46t-10 -22l-235 -843h-179l258 873q-204 53 -302 163q-52 59 -53 127q0 104 123 190l60 34q202 104 484 104q283 0 482 -97q200 -98 200 -232q0 -135 -199 -231
q-108 -52 -228 -74l260 -857l-188 -2l-232 838q-5 0 -23 82q227 24 360 112q75 50 75 110t-45 125q-85 67 -149 87t-212 30z" />
    <glyph glyph-name="uniE01E" unicode="&#xe01e;" horiz-adv-x="1049" 
d="M275 544q0 -227 59.5 -326t201.5 -99t213.5 101.5t71.5 333.5q0 327 -109.5 371t-177.5 44t-116 -23t-95.5 -98.5t-47.5 -303.5zM825 174h-4q-50 -104 -132.5 -149t-204.5 -45q-205 0 -301.5 138t-96.5 418q0 566 398 566q123 0 205 -45t132 -143h2l-1 30l-1 126h180
v-847q0 -169 6 -223h-172q-10 50 -10 174zM618.5 1593.5q35.5 29.5 68.5 29.5q70 0 125 -42.5t55 -147.5t-81.5 -193t-147.5 -115l-19 39q84 50 126 113.5t42 98.5q0 34 -28 34l-49 -8q-83 0 -105 36t-22 81t35.5 74.5z" />
    <glyph glyph-name="uniE01F" unicode="&#xe01f;" horiz-adv-x="1626" 
d="M586 147q42 0 105 21q64 21 125 82q105 105 105 253v32q0 29 -19 90q-38 122 -128 194q-100 54 -185 54q-177 0 -284 -103t-107 -245q0 -60 21 -120q40 -115 138 -187t229 -71zM55 512q0 207 146 357q146 151 362 151q169 0 306 -100q136 -100 161 -211q117 301 522 301
q-184 -54 -291 -178t-107 -322t105 -311t293 -162q-202 0 -338 93t-163 241q-46 -157 -180 -259t-317 -102q-94 0 -188 39t-164 107t-108 162q-39 94 -39 194z" />
    <glyph glyph-name="uniE020" unicode="&#xe020;" horiz-adv-x="2048" 
d="M1116 322q60 143 60 356t-62 360q-70 -138 -70 -358t72 -358zM432 1157q-129 -154 -129 -477t125.5 -479t310.5 -156q156 0 267 107q-199 190 -199 517t207 525q-115 117 -284 117t-298 -154zM739 -29q-284 0 -439.5 155.5t-192.5 298t-37 256.5t26.5 211t93 212.5
t220 197.5t345.5 82q191 0 359 -110q178 110 389 110q136 0 178.5 -9t75.5 -23t65.5 -28.5t77 -62t89.5 -219.5l-47 -30q-42 163 -134.5 227t-273.5 64q-182 0 -313 -119q188 -197 188 -506t-180 -502q127 -115 317 -115q224 0 302.5 96.5t95.5 110.5l36 -37
q-2 -2 -11 -21.5t-52.5 -72.5t-149 -109.5t-299.5 -56.5t-362 103q-162 -103 -367 -103z" />
    <glyph glyph-name="uniE021" unicode="&#xe021;" horiz-adv-x="1671" 
d="M717 1518h196v-660h658v-199h-658v-659h-196v659h-656v199h656v660z" />
    <glyph glyph-name="uniE022" unicode="&#xe022;" horiz-adv-x="1634" 
d="M800 896h34q7 52 -9 99t-20 67q-24 8 -71 47q-86 71 -120 85q-54 21 -96 -27q15 -135 110 -208q44 -35 94 -49t78 -14zM970 -204q0 48 12 97t44 102q31 53 71 101q41 48 79 92q38 42 73 80t54 71q1 92 -89 113q-26 6 -70 16t-67 39q25 47 57 86t54 71q24 32 42 50t48 54
q29 36 33 85q-43 -14 -181 -24t-202 -29q-21 -37 -36 -79q-14 -42 -32 -83q-44 -104 -91 -161q-46 -57 -128 -72q-85 133 -174 188q-74 17 -120 17t-80 -4t-72 -5q-9 -14 -21 -25t-33 -30t-30 -47q-17 -15 -4 -45q12 -29 13 -41t-18 -18q-106 67 -8 181q50 58 106 79
q10 4 22 9t24 9t26 8q14 5 25 9q13 4 25 7t27 7t44 5q28 1 57 -5t64 -20q36 -14 66 -34t80 -48t94 -29q67 67 61 168q-184 53 -271 115q-122 89 -128 288q69 136 147 136q45 0 109 -32q63 -32 110 -56q143 -75 143 -222q0 -29 -5 -63q51 -11 83 -11q78 0 194 16t153 16
t57 -1q3 -17 3 -33t-6 -38t-22 -42t-36 -38t-34 -36q-32 -38 -66 -90q-34 -53 -29 -67q98 -43 123 -63q59 -47 59 -126q0 -78 -76 -134q-250 -181 -250 -421q0 -33 4 -71q114 -43 159 -43q45 -1 87 25q41 26 76 52q89 67 117 68h22q-73 -230 -383 -239h-70q-66 7 -98 79
q-17 38 -17 86z" />
    <glyph glyph-name="uniE023" unicode="&#xe023;" horiz-adv-x="2159" 
d="M1492 810q274 0 274 234q0 114 -70.5 163t-203.5 49h-289v-446h289zM1839 412q0 249 -315 249h-321v-508h334q219 0 260.5 92t41.5 167zM1697 743q315 -41 315 -365q0 -88 -72 -233t-394 -145h-572l-679 1200q9 -220 9 -264v-936h-153v1409h200l680 -1199v89l-5 186v924
h466q447 0 447 -342q0 -188 -90.5 -248.5t-151.5 -75.5z" />
    <glyph glyph-name="uniE024" unicode="&#xe024;" horiz-adv-x="1343" 
d="M487 863q-39 50 -110 50t-136 -63t-65 -141q0 -79 45 -128t120 -49t138 79q47 59 47 130q0 72 -39 122zM799 1281q-39 50 -120 50t-145 -76q-20 -24 -34 -64t-15 -72q0 -67 45 -116t106 -49t110 36q48 36 70 84q22 49 22 103t-39 104zM1090 871q-40 52 -111 52t-137 -63
t-66 -140q0 -78 46 -129t121 -51q77 0 139 80q20 26 34 66t14 86q0 47 -40 99zM371 1130q0 74 24 124q23 50 65 86t96 58q54 21 114 21q120 0 208 -79q87 -79 87 -193q0 -76 -43 -142q16 4 58 4q42 1 96 -21q56 -22 99 -60q95 -84 95 -196t-93 -188q-93 -77 -221 -77
q-127 0 -217 90l31 -101q24 -77 24 -157q0 -135 -24 -260t-23 -157q0 -32 1 -45q5 -28 32 -28q12 0 62 59q51 59 82 76q40 15 56 15t34 -2t37 -18q20 -15 33 -39q14 -24 26 -45q21 -35 14 -127q-6 -92 -52 -108t-102 2q-57 18 -111 36t-101 60t-84 113t-42 214v45
q0 32 12 169t-1 169l-53 127q-90 -101 -221 -101t-219 80q-87 80 -87 192t87 192q87 79 210 79q37 0 64 -8q-53 67 -53 141z" />
    <glyph glyph-name="uniE025" unicode="&#xe025;" horiz-adv-x="2339" 
d="M2173 284q1 117 -45 202q-22 40 -49 64q-58 52 -111 27q-54 -31 -76 -133q-10 -45 -10 -98q0 -52 12 -106q26 -110 81 -161q55 -50 106 -20q92 44 92 225zM381 1226q40 153 413 153q92 0 170 -9q88 -17 136 -75t48 -179v-703l305 645h86l-391 -835v-66q-1 -12 -1 -24
q0 -215 247 -263q67 -13 122 -13q158 0 217 108q49 205 53 264q-8 31 -8 100q0 151 72 265t173 114q100 0 173 -112t73 -275t-73 -275t-173 -112q-99 0 -171 113v-21q-9 -71 -80 -188q-87 -97 -293 -97q-43 0 -91 5q-279 24 -322 96q-30 51 -47 106l-157 -335h-91l224 475
v1028q0 72 -29 90t-86 24q-59 1 -110 1q-299 0 -347 -27t-48 -88v-1118h-152v1118q0 133 -108 133q-49 0 -69 -36t-32 -33q-10 3 0 26q26 147 187 147q78 -1 126 -37t54 -90z" />
    <glyph glyph-name="uniE026" unicode="&#xe026;" horiz-adv-x="2046" 
d="M1059 994q-64 164 -74 215q-2 -5 -23 -71t-52 -146l-162 -417h474zM1419 70l-145 371h-578l-146 -371h-178l517 1269h196l509 -1269h-175zM197 579q0 -114 29 -220t105.5 -246.5t258 -252.5t395.5 -112q326 0 515 199.5t231 358.5t42 273t-28 220t-106.5 245.5t-258 252
t-395.5 112.5q-325 0 -512.5 -196.5t-231.5 -358t-44 -275.5zM542.5 1378q199.5 125 440.5 125q361 0 572 -221.5t257 -398.5t46 -305t-31 -246t-118 -273.5t-287 -280t-439 -124.5t-439 124.5t-318.5 336.5t-118.5 464t118 463t317.5 336z" />
    <glyph glyph-name="uniE027" unicode="&#xe027;" horiz-adv-x="2046" 
d="M1400 341q0 224 -315 224h-321v-457h334q219 0 260.5 83t41.5 150zM1053 699q274 0 274 211q0 103 -70.5 147t-203.5 44h-289v-402h289zM1258 639q315 -37 315 -329q0 -80 -72.5 -210t-393.5 -130h-515v1269h461q447 0 447 -308q0 -169 -90.5 -223.5t-151.5 -68.5z
M212 559q0 -114 28.5 -220t104.5 -244.5t257 -252.5t396 -114t444.5 142t287.5 358.5t58 330.5t-28.5 220.5t-106.5 246t-259 251.5t-395 112q-322 0 -511.5 -197.5t-232.5 -358t-43 -274.5zM122 558q0 385 257 655t617 270t572 -221t258.5 -398.5t46.5 -305.5t-31 -245
t-118.5 -273.5t-287.5 -281t-439 -124.5t-438.5 124t-318 336.5t-118.5 463.5z" />
    <glyph glyph-name="uniE028" unicode="&#xe028;" horiz-adv-x="1024" 
d="M371 948q-60 0 -60 52q0 26 17 36q22 27 76 27q126 0 245 -121q76 -76 94.5 -151.5t18.5 -114.5q0 -78 -44 -132.5t-100 -72.5q-13 -6 -98 -14q-66 -23 -74 -45q-6 -16 -6 -27v-92h-37q-6 6 -6 7v15q0 13 -6 19q0 12 -3 45t-5 92l-6 47v27q10 8 26.5 11t36.5 9
q128 9 150 15q115 39 115 157q0 85 -65 161.5t-132 76.5z" />
    <glyph glyph-name="uniE029" unicode="&#xe029;" horiz-adv-x="1165" 
d="M244 532q-149 0 -185 -182h-43q4 129 71.5 203t160.5 74q52 0 90 -15q61 -16 254 -95t262 -79q70 0 120 47t60 140h45q-4 -125 -72.5 -201t-172.5 -76q-52 0 -120 21t-238 92q-169 71 -232 71z" />
    <glyph glyph-name="uniE02A" unicode="&#xe02a;" horiz-adv-x="1303" 
d="M1026 1206q34 0 76 -15q82 -31 91 -71q7 -30 -30 -131q-38 13 -54 39q-15 27 -23 43t-22 42q-15 26 -47 37q-33 10 -57 -20t-52 -88t-60 -140q-30 -81 -64 -171t-73 -184q-84 -203 -175 -349t-212 -184q-26 -8 -57 -8t-73 16q-81 30 -93 62q-13 32 20 109q21 -9 45 -18
q77 -29 119 -116q91 87 258 493t299 550q94 104 184 104z" />
    <glyph glyph-name="uniE02B" unicode="&#xe02b;" horiz-adv-x="549" 
d="M353 -72q0 24 -18 81q-30 94 -125 294q-152 319 -152 461v16q7 141 149 178q95 28 124 13t45 -39t38 -58q-26 -7 -42 -7q-36 1 -84 17q-48 17 -74 16q-25 0 -52 -6t-26 -38q0 -31 20 -79q20 -49 53 -111q99 -187 143 -275q115 -230 115 -363q0 -162 -158 -200
q-93 -26 -122 -14t-43 30t-27 43q104 28 152 24q48 -5 83 -17q1 10 1 34z" />
    <glyph glyph-name="uniE02C" unicode="&#xe02c;" horiz-adv-x="897" 
d="M758 967h-273v-1057h-106v1057h-266v100h266v369h106v-369h273v-100z" />
    <glyph glyph-name="uniE02D" unicode="&#xe02d;" horiz-adv-x="901" 
d="M758 967h-273v-375h275v-100h-275v-582h-106v582h-264v100h264v375h-266v100h266v369h106v-369h273v-100z" />
    <glyph glyph-name="uniE02E" unicode="&#xe02e;" horiz-adv-x="897" 
d="M758 967h-273v-240h275v-100h-275v-252h277v-99h-277v-366h-106v366h-264v99h264v252h-264v100h264v240h-266v100h266v369h106v-369h273v-100z" />
    <glyph glyph-name="uniE02F" unicode="&#xe02f;" horiz-adv-x="1343" 
d="M1114 582q43 50 43 106q-1 57 -19 97q-18 39 -48 67t-67 44q-38 16 -73 17q-65 0 -104 -49t-39 -110q-1 -60 13 -89q14 -28 34 -54t44 -43q51 -36 112 -36t104 50zM803 1004q45 50 45 120q0 71 -43 124t-89 68t-78 15q-61 0 -101 -49q-41 -49 -41 -103q0 -55 14 -94
q29 -59 78 -95t109 -36q61 0 106 50zM511 589q46 49 46 108q0 98 -65 162t-144 64q-99 1 -135 -107q-10 -30 -10 -60t14 -70q15 -40 35 -64q20 -26 44 -44q48 -38 108 -38q61 0 107 49zM682 365l19 -267q0 -191 -56 -296t-192 -153t-186 -30t-57 108q-6 89 10 120
q16 29 29 53q33 60 94 60q27 0 67 -16q38 -24 84 -80q46 -55 59 -55q27 0 32 27q2 14 2 32q0 50 -24 171q-24 122 -24 189v81q2 76 24 147l31 101q-90 -90 -216 -90t-220 76q-95 76 -95 189t94 195t216 82q13 0 39 -4q-43 63 -43 131q0 125 87 204q86 79 208 79
q121 0 210 -80t89 -179t-54 -171q23 8 74 8q116 0 201 -79q86 -78 86 -192q0 -113 -86 -193q-86 -79 -219 -79q-134 0 -222 101l-53 -127q-8 -23 -8 -63z" />
    <glyph glyph-name="uniE030" unicode="&#xe030;" horiz-adv-x="1343" 
d="M803 1004q45 50 45 120q0 71 -43 124t-89 68t-78 15q-61 0 -101 -49q-41 -49 -41 -103q0 -55 14 -94q29 -59 78 -95t109 -36q61 0 106 50zM1114 582q43 50 43 106q-1 57 -19 97q-18 39 -48 67t-67 44q-38 16 -73 17q-65 0 -104 -49t-39 -110q-1 -60 13 -89q14 -28 34 -54
t44 -43q51 -36 112 -36t104 50zM511 589q46 49 46 108q0 98 -65 162t-144 64q-99 1 -135 -107q-10 -30 -10 -60t14 -70q15 -40 35 -64q20 -26 44 -44q48 -38 108 -38q61 0 107 49zM553 -191q34 0 34 76t-24 217h-317v172h295q-2 30 -2 52t2 40t8 40q6 20 14 50l31 101
q-90 -90 -216 -90t-220 76q-95 76 -95 189t94 195t216 82q13 0 39 -4q-43 63 -43 131q0 125 87 204q86 79 208 79q121 0 210 -80t89 -179t-54 -171q23 8 74 8q116 0 201 -79q86 -78 86 -192q0 -113 -86 -193q-86 -79 -219 -79q-134 0 -222 101l-53 -127q-12 -29 -6 -73
t10 -81h391v-172h-387q-5 -154 -43 -239q-37 -85 -83 -136t-98 -69q-99 -35 -161 -44q-62 -8 -87 44t-16 147q2 29 14 51t25 44q33 60 94 60q27 0 67 -16q38 -24 84 -80q45 -55 59 -55z" />
    <glyph glyph-name="uniE031" unicode="&#xe031;" horiz-adv-x="1231" 
d="M597 305q-44 0 -83 38t-39 97t39 98q39 40 100 40q88 0 132 -86q12 -24 12 -50t-12 -50t-32 -44t-46 -32t-71 -11zM268 825v-735h674v735h-674zM305 1161v56h203v227h182v-227h199v-56h-199v-239l340 4v-934h-852v934h332l-2 235h-203z" />
    <glyph glyph-name="uniE032" unicode="&#xe032;" horiz-adv-x="1231" 
d="M590 584l319 319h-639zM188 846v-664l332 332zM256 111h668l-334 333zM997 176v676l-338 -338zM1102 1024v-1032h-1022v1032h1022z" />
    <glyph glyph-name="uniE033" unicode="&#xe033;" horiz-adv-x="1268" 
d="M631 302q-127 0 -209 -92t-82 -206t82 -204q82 -91 210 -91q126 0 212.5 86.5t86.5 208.5t-87 210t-213 88zM545 1401h186v-55h443v-103h-443v-141h440v-105h-440v-147h443v-117h-443v-297q143 -31 245 -149t102 -291t-129.5 -302.5t-312.5 -129.5t-313 130t-130 302
t103 291q103 120 247 151l2 512v451z" />
    <glyph glyph-name="uniE034" unicode="&#xe034;" horiz-adv-x="1765" 
d="M961 1067q-39 50 -43 113q-48 0 -62 -43q-6 -19 -11 -39t-14 -37q39 -28 104 -9q17 5 26 15zM948 934q-106 0 -184 -16q-24 -44 -44 -94t-42 -97q104 -11 149 -11h56q102 2 188 18q-27 108 -80 200h-43zM665 405l295 13q52 0 89 -8q111 -24 139 -12q-19 116 -68 194
q-63 0 -126 6q-64 6 -111 10t-80 6t-81 2t-112 -30q-50 -90 -56 -114q-7 -25 -11 -52q57 -15 122 -15zM234 267q-16 0 -29 6q-39 -21 -109 0q-20 6 -41 12q-16 43 -16 67t8 36q7 14 23 21t30 21q41 28 76 24q35 -2 80 -16t88 -14t76 6q59 88 74 156q-38 14 -58 14h-23
l-110 -8q-13 0 -35 2t-51 29q-16 100 -10 116q5 15 23 14t51 -11q25 -18 51 -20t43 -2l104 3q35 0 64 -12q30 24 50 73q19 48 29 76t25 52q-13 34 -71 36q-24 1 -50 0q-28 -1 -51 3q-15 -4 -31 -4l-112 6q-27 54 2 84t69 29q39 -1 53 0t26 3q12 3 23 5q31 7 197 -21
q49 75 103 192t106 203h37q48 -57 96 -192t89 -203q37 7 73 9t62 14q45 3 109 -10t88 -13q30 1 17 -81q-6 -45 -90 -35q-24 3 -51 3q-41 -5 -61 -5h-26q-40 1 -78 5q0 -10 -7 -12q7 -28 14 -58t22 -80t38 -67q23 -18 45 -16t42 9q22 6 44 14t41 4q11 4 33 4l90 -2q20 0 29 6
q47 0 55 -16q14 -30 -12 -111q-51 -26 -100 -25q-50 2 -78 5t-70 1q-41 -2 -70 -32q21 -26 34 -71q14 -45 22 -65t24 -32q6 -10 12 -4t19 8q16 3 69 -10q53 -12 72 2q12 1 34 1t58 -10q36 -9 56 -31q47 -49 -13 -120q-76 11 -147 11t-105 -1h-30q4 -14 10 -36q7 -22 15 -51
t18 -57t18 -59q25 -67 51 -143l-39 -39l-57 -4l-53 18l-113 371l-735 6h-45l-137 -350l-43 -23h-43l-39 19q33 84 53 134t33 81t25 59t20 48q8 22 14 34h-22q-18 17 -48 17h-46z" />
    <glyph glyph-name="uniE035" unicode="&#xe035;" horiz-adv-x="1953" 
d="M662 352l358 874h-716zM1252 1253v-524h550v-158h-550v-571h-134v1105l-457 -1127l-579 1428h1036v3h701v-156h-567z" />
    <glyph glyph-name="uniE036" unicode="&#xe036;" horiz-adv-x="1993" 
d="M763 1200l-190 -467q31 -15 66 -6q35 7 53 9t34 -11q22 9 48 5t52 -6q66 -9 102 23q-18 114 -62 241t-60 196q-11 4 -20 10t-23 6zM706 612q-112 0 -163 3q-84 -164 -141 -307q-56 -144 -78 -196t-26 -74l-7 -38q-6 -29 -26 -40q-39 3 -51 3h-16q-20 -1 -32 -1t-26 7
t-16 11t-2 8q-1 4 -3 8t-7 3q25 52 41 77q15 24 24 41t24 45t38 75q2 25 17 56q15 32 35 87q20 56 80 170t123 242q31 81 47 124q16 44 43 105q26 59 45 89t33 61t25 60q10 29 19 58q8 29 16 55t18 52t35 44q24 18 55 11q14 -56 68 -165t63 -151q9 -41 19 -59t27 -48t13 -60
q12 -25 26 -48q14 -22 24 -54t18 -75q10 -43 21 -73q14 -38 48 -96t31 -85q-4 -27 4 -47t21 -39q55 -85 70 -140q68 102 125 251q123 320 163 400q-6 24 13 59q18 36 26 45q2 39 38 134q35 95 37 128q3 34 6 45t7 21t9 21t11 26q22 21 30 31t14 14q6 2 14 0t28 -6t26 -15
q10 -21 3 -50q-6 -29 -24 -82q-13 -13 -18 -41t-24 -49q-24 -98 -77 -212q-52 -114 -70 -194q-29 -43 -65 -152t-68 -152q0 -25 -18 -61t-14 -57q-20 -24 -35 -63q-14 -40 -22 -58t-23 -28q1 -22 -22 -67q-23 -46 -21 -74q-33 -89 -104 -126q-6 -3 -19 8q-12 11 -18 8
q-68 100 -93 179q-24 78 -34 126t-30 132q-20 85 -69 185q-147 -25 -259 -25z" />
    <glyph glyph-name="uniE037" unicode="&#xe037;" horiz-adv-x="1667" 
d="M269 1207l-11 -58q0 -134 85 -224q85 -91 222 -158q-1 -13 11 -19t25 -10q37 -11 26 -27q11 1 23 7q43 24 75 6q11 162 11 216q0 52 -2 96t-3 112q-45 84 -45 129t10 71t36 40q53 28 122 -5q87 -44 87 -166q-1 -25 -11 -71q-20 -90 -20 -168v-33q2 -82 16 -209
q28 -6 58 -6q85 0 192 55q108 55 155 131q69 108 74 252q-25 58 51 92q44 20 84 20t65 -6t41 -25t-4 -55q-31 -54 -79 -178q-49 -124 -90 -198q-94 -94 -237 -184q-44 -28 -83 -46q-48 -4 -108 -21q-60 -18 -95 -22q-18 -24 -18 -58l13 -165q0 -25 -7 -47q18 -44 15 -94
q-3 -49 -7 -82t-4 -86t21 -88q43 -59 43 -95q0 -68 -61 -96q-34 -16 -70 -15q-37 0 -69 11q-80 27 -80 107q0 33 22 76q16 69 16 164q0 96 -3 153q-3 58 -7 114t-8 107t-5 94q-78 16 -231 86q-3 8 -34 19t-34 18q-226 83 -374 344q-11 31 -17 63t-12 54t-6 42q0 19 14 47
q35 70 117 70q105 0 105 -81z" />
    <glyph glyph-name="uniE038" unicode="&#xe038;" horiz-adv-x="1774" 
d="M780 1301v73q0 93 49 97q13 2 31 2t35 -9q42 -24 51 -86q4 -28 7 -77t24 -70q27 -21 63 -8t58 21t40 6q33 -4 63 -24q30 -21 32 -40q3 -20 3 -29q0 -78 -116 -78q-45 0 -145 17q-8 -24 -8 -60l11 -117v-9l-6 -128v-17q0 -36 3 -87h211q120 0 141 13l-7 129v15
q2 89 62 120q35 -8 74 -56q0 -44 -12 -109q-12 -66 0 -106q148 6 209 13q38 -19 44 -67t-26 -81q-53 -8 -81 -8h-36q-55 2 -110 2q-6 -30 0 -89q6 -60 6 -89t-12 -49q-68 -26 -101 22q-34 48 2 211q-65 18 -107 18t-76 -4t-78 -12t-101 -12q-13 -35 -13 -142v-139l7 -284
q41 -126 29 -198q-4 -22 -11 -65q-8 -44 -6 -81q-11 -16 -69 -28q-58 -11 -68 -15q-59 44 -61 149v15q0 41 5 92t7 112q15 44 15 106v77q-3 156 -14 262q-12 106 -12 125q-4 40 -126 40h-27q-41 -1 -109 -5t-90 2q-4 -32 -4 -66l5 -123q0 -20 -1 -39q-17 -27 -61 -49
q-73 19 -66 117q2 28 9 80t1 80q-38 -3 -73 -10q-136 -27 -191 10q-22 28 -6 82q4 14 12 22q29 13 67 13q37 1 67 -3t62 -9t56 -7q21 22 9 73q-11 49 -18 79t-7 54q0 57 53 64q126 9 80 -258q12 -8 85 -8h157q84 0 104 -4q3 26 3 49l-8 170v32q0 23 3 70q-2 17 1 35
q11 67 -7 80l-156 -10q-28 0 -59 4q-27 64 -13 112q6 18 19 29q56 11 209 -12q14 35 14 82z" />
    <glyph glyph-name="uniE039" unicode="&#xe039;" horiz-adv-x="1756" 
d="M934 1168q0 50 6 62q-48 74 -161 30q-30 -12 -53 -30q-1 -11 -1 -34q-1 -23 15 -56q32 -69 105 -69q43 0 81 33q8 14 8 64zM834 909q-84 0 -162 55q-118 83 -118 191q0 84 55 159t154 106q18 8 64 -2q45 -11 60 -10q25 -21 73 -46t73 -49q57 -56 30 -166
q-27 -111 -106 -189q-37 -36 -66 -42t-57 -7zM1474 1321q13 0 25 -11q1 -41 -27 -86t-32 -69q-209 -207 -471 -545q-53 -66 5 -102q14 -8 22 -14q33 -75 99 -94q51 -82 165 -169q48 -35 96 -71t93 -80t95 -90q50 -47 110 -82v-67q-66 -76 -134 -15q-34 31 -63 71
q-27 40 -47 62q-20 21 -54 47t-95 85q-62 59 -152 137q-89 76 -112 102t-61 65t-89 72q-25 -28 -51 -55q-103 -107 -145 -173q-79 -70 -152 -163q-72 -92 -114 -146t-89 -101q-4 -60 -69 -70q-66 -11 -113 23q9 105 123 198q114 94 372 402q48 58 97 112q28 7 33 28
q10 42 -54 94q-93 103 -201 200t-168 152t-75 65l-31 21q-95 64 -143 148q-24 42 -9 59q15 19 34 21q30 4 101 -41q71 -44 118 -104q46 -60 91 -105q45 -39 94 -87q50 -47 72 -61t40 -31q19 -19 32 -41t28 -37q14 -15 36 -29t56 -40q34 -25 54 -63q62 22 120 101
q24 32 45 66q22 34 82 96q193 198 330 389q14 2 28 9t28 12t27 5z" />
    <glyph glyph-name="uniE03A" unicode="&#xe03a;" 
d="M845 1460h126v-168q138 -10 273 -74q136 -63 237 -174q211 -232 211 -531q0 -162 -93 -378.5t-384 -341.5q-116 -49 -244 -59v-172h-126v172q-261 19 -460 201q-117 107 -186.5 258t-69.5 311q0 310 203 534q108 117 244 180t269 73v169zM301 496q1 -236 179 -414
q155 -155 365 -175v1212q-105 -11 -213 -65q-109 -54 -192 -154q-139 -169 -139 -404zM1519 514q0 252 -168 419q-168 168 -380 186v-1212q213 19 380 187q168 168 168 420z" />
    <glyph glyph-name="uniE03B" unicode="&#xe03b;" horiz-adv-x="2243" 
d="M276 1164q-4 -30 14 -56t46 -40q72 -33 123 24q11 64 -32 104t-94 29q-51 -10 -57 -61zM292 -62q-16 -14 -20 -44q-4 -28 14 -55t46 -40q72 -32 125 24q11 65 -33 103t-79 32q-37 -6 -53 -20zM1024 536q-2 -28 16 -55q18 -26 44 -39q68 -32 126 24q7 67 -34 105
q-42 38 -95 28q-53 -9 -57 -63zM1962 488q0 16 -8 39t-28 39q-43 36 -93 26t-53 -63q-6 -29 11 -55t46 -40q70 -32 123 23q2 15 2 31zM1790 1207q-16 -14 -22 -43q-6 -30 14 -56q18 -26 47 -40q68 -32 123 26q11 62 -32 102q-44 39 -79 32t-51 -21zM266 527q-4 -29 14 -55
t48 -38q70 -32 123 23q12 68 -32 106q-43 38 -94 27q-52 -10 -59 -63zM1806 -62q-16 -14 -20 -44q-4 -28 14 -55t46 -40q73 -33 124 24q12 66 -32 104t-79 31q-37 -6 -53 -20zM1920 184q0 -27 7 -65q66 -18 98 -45q63 -53 65 -155v-7q0 -95 -49 -181t-118 -101
q-32 -6 -68 -6q-35 0 -85 20t-90 68q-65 80 -65 180q1 100 49 155q48 56 124 72l-4 150q-100 31 -146 143q-24 57 -23 111q0 55 16 99q17 44 55 80t100 50l6 148q-44 6 -68 24t-49 50l-354 -365q4 -27 4 -54q-1 -87 -33 -155q-51 -107 -131 -127q-30 -5 -56 -5q-27 0 -61 6
t-70 32t-60 63t-38 80t-14 88t15 88l-359 349q-27 -34 -94 -64l-4 -162q41 -10 88 -30q58 -47 63 -149v-15q1 -136 -83 -237q-26 -32 -60 -46l18 -162q55 -21 78 -41q53 -46 55 -149v-7q0 -93 -47 -180t-118 -102q-30 -6 -66 -6t-86 20t-88 67q-63 78 -63 178t50 156t122 74
l6 146q-107 27 -157 142q-26 62 -26 116q0 55 16 99t57 81q40 37 104 49q1 67 -3 70q-4 2 -5 8t-1 22t2 50q-108 27 -152 146q-17 48 -17 76q0 154 98 226q47 34 119 43q187 0 233 -96q25 -52 25 -102t-13 -101q176 -153 253 -229t141 -135q65 38 139 38t129 -32
q49 45 85 78q36 32 64 60t54 52l52 48t58 52q31 28 72 64q-8 35 -8 70q0 132 96 196q43 28 108 37q144 0 195 -47q56 -47 65 -145v-23q0 -78 -40 -158t-101 -110l11 -164q20 -8 38 -14t33 -14q75 -58 75 -193q0 -136 -84 -220q-30 -30 -67 -38q-14 0 -17 -76v-7z" />
    <glyph glyph-name="uniE03C" unicode="&#xe03c;" horiz-adv-x="1745" 
d="M864 -141q54 0 86 35q11 66 -32 105q-42 39 -96 31q-22 -2 -40 -18t-21 -44t15 -56t45 -40q26 -12 43 -13zM1427 1098q54 0 86 35q3 15 3 31t-10 38t-30 40q-43 36 -94 28q-52 -9 -55 -63q-5 -29 13 -55t44 -40t43 -14zM295 1109q17 1 37 3t49 31q2 15 2 31t-8 38
q-7 22 -27 40q-41 37 -94 28q-52 -9 -59 -63q-5 -31 13 -57t44 -38q27 -13 43 -13zM852 517q16 0 38 3q21 3 52 33q1 10 1 27q1 17 -9 41q-10 23 -30 41q-45 38 -97 27q-52 -12 -55 -64q-2 -31 15 -57t43 -39q26 -12 42 -12zM1159 1196q0 128 87 198q86 71 232 38
q53 -12 87 -40q82 -68 82 -198q0 -80 -31 -134q-73 -127 -210 -127q-65 0 -112 28l-239 -260q6 -28 6 -55q1 -80 -33 -155q-50 -111 -133 -134l4 -164q11 -4 27 -8q16 -5 32 -11t27 -11q44 -18 77 -84q34 -66 34 -139q0 -134 -96 -204q-56 -41 -127 -41q-143 0 -217 93
t-74 190q0 98 51 152q51 55 129 69l2 81v15q0 5 -1 19t-3 47q-94 32 -142 130q-32 64 -32 113t8 80q-61 61 -84 97q-47 74 -66 102t-71 82q-44 -22 -85 -22q-93 1 -156 51q-101 81 -101 219q0 139 107 206q106 67 262 8q106 -40 106 -185q0 -79 -31 -146q54 -50 81 -93
q72 -114 134 -179q68 38 131 38t131 -28l240 235q-33 66 -33 127z" />
    <glyph glyph-name="uniE03D" unicode="&#xe03d;" horiz-adv-x="1681" 
d="M180 74q-4 -30 14 -56t48 -39q70 -32 120 23q13 66 -30 106t-94 29q-51 -10 -58 -63zM1307 70q-4 -28 13 -54t46 -40q68 -32 125 24q8 67 -35 105t-92 28q-50 -10 -57 -63zM836 1090q55 0 88 35q8 67 -36 104q-43 37 -81 32q-68 -9 -72 -63q-3 -30 15 -57t44 -39t42 -12z
M449 224q36 -54 36 -146t-48 -171t-115 -95q-31 -6 -59 -6q-80 0 -147 53t-88 160q-6 26 -6 50q0 75 36 133q55 90 173 101h31q16 0 37 -2q70 142 164 364q94 221 162 370q-47 75 -47 165q0 110 79 179t229 37q62 -13 93 -38q61 -51 61 -164t-51 -192l371 -721q72 6 148 -27
q20 -9 34 -22q67 -50 69 -154v-7q0 -93 -49 -180t-120 -103q-32 -6 -63 -6q-88 0 -161 70q-72 70 -74 193v5q0 118 83 182q-53 103 -101 193q-121 229 -245 485h-7q-29 -5 -48 -5h-24q-38 1 -67 11z" />
    <glyph glyph-name="uniE03E" unicode="&#xe03e;" horiz-adv-x="2165" 
d="M1358 765l-356 6q-109 0 -174 -6q25 -88 161 -228q59 -61 68 -85q8 -24 18 -42t36 -26q31 48 66 93q143 184 197 282zM1039 -326l6 134v30q-1 32 -9 51q-28 19 -80 15q-107 -7 -146 -2q-62 7 -62 51q-2 21 14 31t39 16q24 6 55 6t91 -3t89 1q-2 18 -2 34t4 39q4 22 11 49
q7 26 9 44t2 33t-5 37t-21 45q-16 24 -37 49q-20 25 -41 49q-22 24 -38 45t-40 49t-47 56t-45 55t-34 44q-12 18 -24 34q-52 74 -61 113q-3 2 -17 2l-57 2h-18q-55 -1 -67 -39q-8 -25 -7 -95v-63q-1 -99 -27 -124q-12 -11 -33 -11q-48 0 -48 100l6 149q0 50 -14 66
q-14 17 -69 17l-113 -4q-102 -1 -102 53t117 54l129 -4h22t20 2q-3 22 -3 43v119q0 50 11 95q0 17 55 17t59 -13q3 -26 3 -49l-9 -212q15 -2 43 -2h56l107 -2l42 6q64 0 140 -10q112 -16 185 -16v17l6 148q0 51 -14 67t-69 16l-112 -4q-103 0 -103 56q0 51 118 51l128 -3h22
q10 0 21 1q-4 22 -4 43v120q0 50 11 94q4 17 56 17q53 0 58 -13q8 -53 2 -130q-6 -78 -8 -131q21 -1 40 -1h34q5 1 26 1q147 0 147 -57q0 -52 -67 -52l-110 8q-73 0 -73 -80v-140q0 -12 -2 -21q143 13 202 13t115 -18l70 -2h22q10 0 20 2q-4 36 -4 85t1 76t2 43t4 26t5 25
q4 18 59 18t55 -14q9 -70 -6 -259q20 -1 42 -1h51q80 0 116 -15q37 -16 37 -34q0 -34 -14 -46q-14 -14 -54 -14l-110 7q-73 0 -73 -79v-117q0 -135 -57 -135q-32 0 -41 28t-9 72l6 148q0 53 -12 65q-24 26 -143 14q-9 -21 -15 -43t-26 -54q-26 -43 -115 -159
q-88 -117 -115 -178q-26 -60 -34 -91q-8 -30 -8 -62q-2 -32 -2 -72t-2 -92q26 -3 56 -2t62 0q75 -2 110 -21q35 -18 3 -80q-42 -9 -91 -3q-48 5 -74 5t-48 -8q-22 -30 -22 -92v-99q0 -87 -16 -110q-16 -22 -43 -22q-50 0 -50 102z" />
    <glyph glyph-name="uniE03F" unicode="&#xe03f;" horiz-adv-x="1876" 
d="M1017 327v-55q2 -55 16 -136q134 -19 226 6q3 86 3 143t-3 122q-33 4 -59 4l-138 -5q-16 0 -34 1q-11 -38 -11 -80zM635 130l156 -15q73 0 121 15q4 73 4 138t-10 133q-29 7 -46 7h-21q-43 -1 -108 -12q-65 -10 -96 -12q-7 -28 -7 -44v-20q1 -33 3 -65l4 -64t0 -61z
M734 508q80 0 172 14v59q0 127 -17 178q-65 9 -99 9h-40q-65 -1 -132 -3q-18 -40 -12 -94q6 -53 11 -87t6 -67q31 -9 111 -9zM1247 586l1 100q0 50 -24 91q-130 0 -213 -18q3 -28 3 -56t1 -56t2 -59t5 -66q150 -7 231 18q-6 30 -6 46zM100 427q0 87 80 87q16 0 50 -20
q36 -3 74 -3q38 -1 93 5t116 9q9 25 9 55l-14 187q0 66 35 105q57 -6 102 -6q121 0 232 12q8 45 8 71v31q-2 85 -14 176q-13 90 -16 137q-23 55 -23 80q0 23 4 39t21 25q16 9 39 11q51 6 92 -14t30 -52l-16 -398q0 -44 3 -83q34 -18 70 -18q35 0 65 3t62 7q113 14 143 -55
q13 -31 13 -64l-3 -138q0 -36 14 -76q31 -6 51 -6h24l213 18q61 24 87 -26q10 -20 11 -46q-1 -24 -11 -42q-28 -49 -87 -13q-43 8 -84 8t-75 -3t-70 -10q-37 -7 -71 -13q-1 -16 -1 -39t6 -65q6 -43 8 -83q4 -40 4 -66t-4 -62t-30 -72q-42 18 -118 18l-36 -1q-88 -4 -141 -17
q-6 -58 5 -139t12 -132q20 -33 20 -50t-5 -37t-30 -38q-25 -20 -59 -24q-72 -10 -101 52q-7 16 -7 36t12 56t12 98v96q0 36 8 71q-39 10 -80 10l-202 -15h-11q-43 0 -82 11q-14 45 -14 119l2 102q0 95 -23 154q-62 -10 -130 -14t-135 -10q-37 -21 -53 -21t-35 3
q-17 3 -33 25t-16 54z" />
    <glyph glyph-name="uniE040" unicode="&#xe040;" horiz-adv-x="1925" 
d="M915 1210q-179 -216 -294 -388q92 -104 183 -206t197 -193q24 15 34 39q9 25 15 33t16 18q11 10 21 21l105 123l20 24t23 30q12 18 25 32q15 12 32 15t18 19t-16 30q-18 13 -41 34q-19 23 -29 45t-28 46t-50 56q-130 132 -169 209q-18 -2 -62 13zM977 -376q-45 0 -45 110
t-23 136q-26 3 -42 3h-23q-33 -1 -85 -1t-89 29q4 79 80 91q21 3 51 3t96 -8q16 83 16 159q1 76 3 107q5 66 -2 84t-41 53q-33 36 -49 60t-32 42q-18 18 -42 34t-42 38t-36 59q-34 65 -107 134q-183 -243 -333 -399q-22 -24 -27 -23q-8 -16 -27 2q-20 17 -20 31t20 42t52 69
q32 39 72 89t80 97t75 88t57 67q-252 232 -380 386q-20 24 -15 26q-45 30 5 58q13 8 30 10q11 0 114 -106t147 -150q45 -45 81 -85t59 -65q11 20 27 40t32 44t44 46q26 22 49 44q14 47 39 78q24 32 40 50t31 36t29 41q57 90 125 72q6 -13 12 -25l12 -24q78 -93 156 -187
t170 -188q13 -15 29 -32t30 -36q20 21 52 63t72 92t83 106q155 200 199 223q6 8 22 4q16 -5 28 -15q35 -28 19 -45q12 -5 -96 -134q-197 -237 -323 -363q152 -114 374 -346q24 -26 26 -34q3 -27 -12 -53q-14 -26 -38 -14q0 -11 -115 91q-188 167 -291 282q-20 -26 -46 -50
t-44 -40q-36 -41 -68 -79t-65 -77t-65 -78t-66 -80v-150q0 -84 6 -151q29 -9 88 -6q58 3 83 5t43 2t38 -1q21 -25 5 -77q-5 -16 -5 -33q-40 -22 -118 -17t-99 5l-35 -1q-14 -25 -9 -104q5 -78 2 -102t-15 -40q-12 -14 -33 -12z" />
    <glyph glyph-name="uniE041" unicode="&#xe041;" horiz-adv-x="1649" 
d="M268 626q42 0 104 3t152 5q20 253 20 343v115q-1 72 -7 138q-42 -39 -65 -87q-22 -48 -36 -78t-34 -69t-54 -87l-88 -128t-74 -153q40 -2 82 -2zM1352 796v70q-58 -48 -146 -48q-96 0 -184 63t-121 197q-2 22 -2 58q-1 102 53 186q80 127 255 127q86 -1 128 -27
q118 -76 125 -141q27 -51 30 -146q3 -93 3 -163t-4 -140q-19 -335 -50 -399q-29 -62 -105 -97q-75 -36 -173 -40h-29q-24 0 -58 22t-56 59q-22 38 -39 84q-16 46 -33 87l-219 -6h-61q-7 -56 -7 -114l6 -234v-15q0 -52 -6 -98q14 -31 14 -51t-7 -42q-8 -22 -32 -40t-56 -22
q-82 -8 -82 86q0 18 22 63q-5 33 -5 59v35l11 366q-51 11 -103 11l-245 -12q-77 0 -131 20q-15 54 21 102q16 20 34 40q18 18 31 36q35 64 72 140t63 118q26 44 39 52q11 8 29 34t38 67q20 43 40 71t32 46t25 36q13 20 23 40t30 48q20 29 58 42q6 0 6 -6q64 -48 64 -203
l-9 -190q-1 -21 -1 -42l14 -246v-29q0 -29 -1 -58q53 -13 142 -13l231 7q34 -22 40 -58q7 -36 9 -60t13 -57q11 -34 35 -43q59 -23 112 -5q104 34 115 280q2 45 2 93zM1186 1324q-174 0 -173 -168q0 -63 28 -117q28 -55 60 -85q33 -30 69 -46q36 -15 81 -15t101 28v120
q1 31 1 57q-1 84 -15 126q-23 67 -97 100h-55z" />
    <glyph glyph-name="uniE042" unicode="&#xe042;" horiz-adv-x="2066" 
d="M407 661h-6q-84 1 -134 -49t-49 -112t50 -104q6 -5 10 -9q53 -41 125 -41h9q82 0 132 50t50 108v1q0 56 -46 99l-15 14q-54 43 -126 43zM1189 1129v6q1 84 -49 134t-112 49t-104 -50q-5 -6 -9 -10q-41 -53 -41 -125v-9q0 -82 50 -132t108 -50h1q56 0 99 46l14 15
q43 54 43 126zM874 -125q0 -87 51 -137t107 -51h3q55 0 99 44q9 9 12 15q44 56 44 114q0 106 -52 155t-105 51q-63 -4 -111 -54q-47 -49 -48 -136v-1zM1661 346q85 0 136 51t52 107v3q0 55 -44 99q-9 9 -15 12q-56 44 -114 44q-106 0 -155 -52t-51 -105q4 -63 54 -111
q49 -47 136 -48h1zM1101 573h273q17 82 78 139q86 86 208 86t208 -86t86 -207v-1q0 -122 -86 -208t-207 -87q-122 0 -209 87q-58 58 -78 140l-110 -1h-163v-273q82 -17 139 -78q86 -86 86 -208t-86 -208t-207 -87l-1 1q-122 0 -208 86t-87 207q0 122 87 209q58 58 140 78
l-1 110v163h-272q-18 -82 -78 -139q-86 -87 -207 -87l-2 1q-122 0 -208 84t-86 208v3q0 121 86 207t208 87q122 0 197 -76t89 -150h273v272q-82 18 -139 78q-87 86 -87 207l1 2q0 122 84 208t208 86h3q121 0 207 -86t87 -208q0 -122 -76 -197t-150 -89v-273z" />
    <glyph glyph-name="uniE043" unicode="&#xe043;" horiz-adv-x="2408" 
d="M355 942q1 -22 15 -52t42 -48q63 -40 127 16q9 12 9 44v48q0 16 7 25q-30 48 -93 43t-105 -43q-2 -12 -2 -33zM1260 1245q0 -22 14 -53t40 -48q27 -17 44 -17h19q34 1 65 30q12 14 12 46v47q0 16 7 25q-31 45 -91 43t-110 -43v-30zM2089 205q0 46 10 58q-34 47 -93 43
t-110 -43q-2 -11 -2 -33t16 -52t42 -47q65 -40 128 14q9 14 9 60zM1022 965q18 -1 45 -1q26 0 163 5q7 39 11 37q3 -2 5 -4t6 2q-62 32 -108 87t-46 125q0 71 36 121q64 87 159 113q16 12 43 5l44 -11t33 -3q22 -18 68 -41q45 -23 75 -53t30 -88q0 -92 -74 -193
q-26 -35 -51 -56q1 -2 3 2q-1 -7 -3 -30l269 17q14 -1 22 -19t8 -40q0 -58 -37 -64q8 -12 -318 -19q-16 -178 -16 -354v-232q21 -9 73 -9h78q163 0 230 -8q61 111 98 145q36 33 54 39q24 7 67 0q42 -8 60 -5q21 -23 47 -37t50 -28q56 -34 66 -72t6 -72t-15 -68
q-27 -76 -70 -125t-73 -57q-30 -9 -52 -9q-58 0 -131 55q-74 55 -112 127q-35 -16 -78 -14q-43 1 -77 3t-67 6q-128 11 -154 -4q-11 -157 -11 -240v-142q9 -40 9 -58t-2 -38t-14 -38q-27 -39 -62 -4q-36 34 -36 122q13 120 11 174t-3 84t-1 64q0 35 4 81q-99 17 -210 17
t-194 -3t-137 -7q-119 -7 -169 -4q-51 3 -86 32q-8 44 36 69q18 10 38 18q20 9 39 21q48 32 121 124q73 93 80 142q6 48 8 76t-2 44t-18 27q-13 9 -36 19t-58 22t-83 32q-54 -77 -107 -89q-26 -7 -52 -7q-76 0 -149 50q-110 76 -110 180q-1 75 37 128q65 92 158 116
q13 10 41 4q27 -6 44 -10t31 -2q22 -20 48 -34t50 -28q68 -42 72 -104q1 -14 3 -35t-4 -49q68 -4 92 -18t37 -28t30 -30q28 -25 47 -75q18 -50 18 -92q0 -82 -35 -170t-89 -159q-19 -20 -42 -36q-24 -16 -52 -41h79l214 2q203 0 304 22q9 44 9 112l-20 476l-176 -2
q-84 0 -89 7q-30 -2 -38 15t-6 36t11 36t15 19t12 0q8 0 26 -1z" />
    <glyph glyph-name="uniE044" unicode="&#xe044;" horiz-adv-x="2352" 
d="M1130 1236q-127 0 -239 -47q-169 -78 -279 -241q-110 -162 -110 -360t96 -366t254 -249q86 -44 185 -53q114 0 167 17q-191 45 -321 258q-110 180 -110 392t122 393q52 77 123 140q93 78 190 104q-44 12 -78 12zM1009 1364q251 0 437 -143q21 -15 37.5 -30t52.5 -42
t87 -48q126 -52 324 -52q72 0 122 46.5t61 139.5h45q-4 -127 -73 -201.5t-172 -74.5h-83q-83 0 -107.5 7.5t-37.5 11t-127 40.5t-198 121q-17 12 -49 33q-27 -7 -54 -17q-134 -56 -221 -180q-124 -172 -124 -384q0 -211 111 -385t305 -219q43 -9 81 -9t68 3
q-90 -68 -149 -100q-149 -81 -300 -81t-281.5 61t-283 228.5t-152.5 492.5q0 166 64 318t166 256t222.5 156t228.5 52z" />
    <glyph glyph-name="uniE045" unicode="&#xe045;" horiz-adv-x="2151" 
d="M711 703q0 70 -29 151q-138 -51 -224 -95q-86 -45 -108 -59q-42 -28 -42 -79q0 -92 151 -144q96 -33 176 -47q71 128 76 256v17zM867 734q13 -73 7 -97q-18 -125 -65 -238q67 -4 128 -4t269 8h78q-44 75 -52 142q-9 67 -9 143t18 203q-130 16 -287 16l-92 -6
q-8 -24 -8 -59t13 -108zM1060 1012q40 0 204 -7q33 124 79 191q64 68 197 146q133 77 240 77q110 -3 160 -63q24 -28 26 -68v-5q0 -37 -27 -81q-42 -18 -80 -13q-39 5 -61 10t-51 11q-166 -50 -261 -156q-30 -34 -46 -73q467 -84 542 -283q20 -45 20 -68t-2 -49t-28 -66
q-42 -69 -153 -130q-48 -23 -93 -33t-112 -26q150 -153 334 -164q18 -24 40 -50q88 -103 27 -157q-39 -9 -73 -9q-218 0 -426 181q-70 58 -148 153q-124 -13 -208 -13h-104q-193 2 -308 15q-173 -275 -474 -332q-55 -10 -108 -10t-103 7q-2 13 -5 27t-6 36t11 45
q343 94 494 266q-305 88 -352 144q-72 76 -66 176q3 31 19 61q36 65 188 142q153 77 293 114q-23 48 -29 66q-62 118 -244 190q-109 43 -193 70q-83 27 -132 47q-5 65 91 113q44 22 96 22q106 0 214 -55t256 -168q14 -37 58 -94t64 -87t28 -57q172 7 212 7zM1702 514
q69 53 69 128q0 74 -77 139q-45 38 -103 59q-17 2 -41 5l-48 6t-48 5t-43 6q-2 -23 -2 -49t6 -88t44 -149q38 -86 68 -132q31 12 91 33q59 20 84 37z" />
    <glyph glyph-name="uniE046" unicode="&#xe046;" horiz-adv-x="1981" 
d="M53 205v31q4 108 71 166q34 30 83 32q16 -22 16 -50t-6 -58t-14 -58q-8 -30 -6 -48t6 -21t9 -7t10 -5t9 -3q15 9 39 23t71 45q48 31 70 59q23 27 35 47t22 40q25 42 53 41t39 -12q10 -11 14 -31q5 -26 -10 -94t-15 -112q17 -3 39 -3t50 12q30 11 62 35t66 50q33 26 70 40
q14 86 66 122q16 12 36 8t32 -16t12 -32q1 -23 -16 -91q-17 -69 -14 -98q22 -4 42 -4t44 6q24 5 50 25q38 29 83 105q44 76 78 106q57 -19 63 -63q3 -20 0 -44q-3 -22 -7 -61t16 -70q191 33 345 233q42 54 85 107q15 0 21 -4t10 -4q-22 -11 -24 -50q-3 -38 -15 -67
q-12 -28 -39 -66q-55 -77 -142 -152q-87 -74 -151 -99q-65 -24 -85 -24h-22q-86 2 -120 99q-42 -2 -68 -19t-50 -39t-48 -42q-24 -22 -55 -33q-23 13 -45 24q-79 40 -93 109q-199 -128 -288 -128t-125 108q-45 -3 -75 -29q-31 -25 -47 -43t-43 -41t-73 -20q-78 7 -110 106
q-11 37 -11 62zM1498 691q22 0 56 11q34 12 65 32q33 20 61 46t76 70q48 43 106 68q2 -10 2 -32t-24 -64q-24 -40 -65 -82q-156 -156 -321 -197q-42 -4 -66 27q-24 30 -59 89q-125 -51 -172 -116q-27 -5 -61 -5t-66 24q-33 24 -39 77q-35 -1 -69 -21t-100 -58
q-65 -38 -106 -38h-7q-44 0 -71 46q-12 18 -24 40t-32 39q-33 -18 -70 -47q-86 -67 -161 -74h-9q-40 0 -84 31q-30 52 -30 98q0 218 112 255q12 4 30 4t42 -11q4 -33 -6 -61t-23 -72q-14 -45 4 -94q35 -22 51 -22t32 2q18 2 40 22t40 51t40 59q20 28 44 54q24 24 58 32
q34 -18 35 -53q2 -35 0 -59q-8 -89 37 -103q34 -14 58 6q24 19 40 37t31 30q22 18 56 31q33 13 44 23q11 12 20 32q36 82 64 85q79 -13 59 -97l-16 -64t2 -66l63 4q22 0 40 -21q49 95 151 181q30 26 62 51q51 -20 44 -83q-2 -28 -10 -58t-6 -58q10 -1 32 -1zM909 951
q-73 -1 -111 49q-22 30 -26 83q-28 -13 -62 -37q-131 -90 -195 -90q-85 0 -93 134q-11 14 -35 -1q-25 -15 -39 1q-24 66 52 132q22 18 62 49q40 30 60 62q83 -15 50 -113t-17 -137q61 11 102 39t76 63q35 33 69 69t79 61q0 -8 10 -7t16 -3q23 -44 15 -89t-12 -71t-4 -45
t1 -31q27 -9 43 -9t36 4t42 22q22 16 46 34q22 18 48 23q21 24 33 58q47 132 139 132q56 -33 8 -161q-12 -30 -14 -56l12 -26q88 0 138 90q14 24 39 69t53 66q84 -1 72 -77q-16 -99 8 -128q44 2 76 20t63 40q31 20 59 38t62 19q-4 -82 -91 -162q-88 -81 -180 -81t-124 85
q-57 -68 -162 -101q-29 -10 -45 -10h-22q-74 7 -95 76q-124 -83 -242 -83z" />
    <glyph glyph-name="uniE047" unicode="&#xe047;" horiz-adv-x="1458" 
d="M674 1332v2q-2 -2 0 -2zM887 587q78 75 78 172q-1 97 -53 156t-117 82l4 -443q30 3 88 33zM465 788q0 -56 18 -111q51 -81 181 -119l10 451l-43 -6q-105 -11 -147 -113q-18 -46 -19 -102zM1244 748q0 34 -2 50t-16 40t-26 72q-56 219 -256 316q-91 41 -151 55v-157
q197 -48 277 -210q32 -65 32 -137q0 -143 -81 -239q-81 -97 -222 -121l2 -143q237 48 365 252q38 60 58 124q20 63 20 98zM662 413q-122 20 -219 96q-98 76 -98 268q1 145 71 209q31 28 39 62q26 10 53 24q107 53 168 64q2 53 2 93t-2 67l-29 -5q-39 -8 -75 -14t-93 -19
q-56 -13 -100 -46q-87 -69 -149 -237q-26 -70 -25 -119q0 -98 23 -198t71 -167q30 -51 105 -109t131 -81t122 -34q0 84 5 146zM684 1409q132 1 204 -35q26 -12 50 -21q109 -49 187 -116q78 -66 147 -167q35 -54 57 -169q23 -115 23 -175t-6 -94q-84 -171 -125 -228
q-41 -58 -71 -86q-49 -46 -162 -112q-114 -66 -187 -82l6 -453q0 -40 -42 -58t-70 -9q-54 18 -54 57q6 195 12 459l-28 4q-164 16 -324 158t-203 311q-22 68 -13 172q30 357 265 526q145 118 334 118z" />
    <glyph glyph-name="uniE048" unicode="&#xe048;" horiz-adv-x="1573" 
d="M517 1289.5q-52 55.5 -129 55.5q-119 0 -151 -73.5t-32 -111.5q0 -76 53 -128.5t129 -52.5t129 53t53 128q0 74 -52 129.5zM618 929.5q-97 -95.5 -230 -95.5t-230 95.5t-97 230.5q0 134 96.5 230.5t230.5 96.5t230.5 -96.5t96.5 -230.5q0 -135 -97 -230.5zM1277 1289.5
q-52 55.5 -129 55.5q-119 0 -151 -73.5t-32 -111.5q0 -76 53 -128.5t129 -52.5t129 53t53 128q0 74 -52 129.5zM1378 929.5q-97 -95.5 -230 -95.5t-230 95.5t-97 230.5q0 134 96.5 230.5t230.5 96.5t230.5 -96.5t96.5 -230.5q0 -135 -97 -230.5zM896 663q-53 53 -129 53
t-129 -53t-53 -128t52 -130t130 -55t130 55.5t52 129.5q0 75 -53 128zM998.5 304.5q-96.5 -96.5 -230.5 -96.5t-230.5 96.5t-96.5 230.5t97 230t230 96t230 -95.5t97 -230.5q0 -134 -96.5 -230.5zM516 52q-53 53 -129 53t-129 -53t-53 -128t52 -130t130 -55t130 55.5
t52 129.5q0 75 -53 128zM618.5 -306.5q-96.5 -96.5 -230.5 -96.5t-230.5 96.5t-96.5 230.5t97 230t230 96t230 -95.5t97 -230.5q0 -134 -96.5 -230.5zM1276 52q-53 53 -129 53t-129 -53t-53 -128t52 -130t130 -55t130 55.5t52 129.5q0 75 -53 128zM1378.5 -306.5
q-96.5 -96.5 -230.5 -96.5t-230.5 96.5t-96.5 230.5t97 230t230 96t230 -95.5t97 -230.5q0 -134 -96.5 -230.5z" />
    <glyph glyph-name="uniE049" unicode="&#xe049;" horiz-adv-x="1852" 
d="M1155 709q0 159 80 355t201 340h256q-166 -148 -250 -334t-100 -361l-1 -174q0 -154 96 -351t255 -344h-261q-185 231 -253 515q-23 96 -23 180h-487q0 -173 -83 -365t-194 -330h-261q154 142 244 324t107 371v174q-18 191 -105 371t-246 324h257q247 -307 280 -695h488z
" />
    <glyph glyph-name="uniE04A" unicode="&#xe04a;" horiz-adv-x="2169" 
d="M1186 -16q0 90 -6 201q-22 -2 -52 1q-129 13 -167 -13q-3 -56 -3 -115q0 -220 119 -266q52 23 86 43q23 59 23 149zM967 832q19 -2 59 -2h80q40 0 70 -4q-2 31 -2 73v90q0 186 -18 245q-18 58 -38 78q-18 20 -46 20t-68 -27q-46 -202 -46 -305q0 -104 9 -168zM502 395
l176 -10h33q39 1 69 9q-17 52 -17 106t15 101l-4 26q-37 -2 -84 -2t-98 -2q-131 -5 -196 -25q-120 -36 -120 -128q0 -76 120 -76h71q15 1 35 1zM1806 617h-51q-16 0 -44 9t-50 0q-21 -9 -30 -9q-9 1 -18 9t-27 11t-45 1q-29 -2 -57 -6t-56 -7q-28 -4 -60 -2q-2 -26 -3 -58
t-3 -83t12 -92q46 7 76 7h36q124 -2 165 -2q131 -1 185 19q106 38 116 142q-54 61 -146 61zM1065 722q-145 0 -207 -115l8 -98l-12 -78q20 -37 53 -63t68 -52q17 0 35 -1l36 -2t34 -1q18 0 36 4q26 6 90 58t64 130q0 40 -14 75q-29 76 -82 110q-61 33 -109 33zM674 760
q96 0 100 -4q0 -5 12 -19q12 -13 21 -23q8 -10 16 -21q33 45 78 78l-35 18q-22 14 -29 25q-7 10 -5 11t2 23v139q0 168 10 220q31 161 75 194q24 18 74 35q49 17 57 17h11q61 0 105 -35q80 -64 98 -125t18 -119l-4 -229q0 -55 8 -79t2 -36q-17 -34 -35 -59l-22 -6
q47 -33 78 -86l10 18l55 55q41 4 78 4l199 -10q28 -2 85 2q56 4 84 4t55 -6q56 -12 114 -63q57 -51 73 -109q4 -18 4 -50t-5 -64q-18 -114 -68 -141t-92 -35q-41 -7 -73 -12q-70 -11 -182 -11h-103l-155 2q-24 0 -26 -2q-6 -6 -37 31t-39 49l-47 -64q-9 -4 -19 -7t-18 -9
l47 -25l27 -22l16 -16t6 -7q-10 -55 -10 -83v-36l6 -159q0 -152 -63 -203q-63 -50 -152 -52h-7q-78 0 -122 31q-43 31 -58 67q-38 91 -38 267l2 139v23q-9 9 21 43l28 18l-24 17q-31 20 -68 67l-33 -53l-22 -3q-66 -9 -180 -9q-348 0 -412 74q-20 23 -28 56l-14 53
q-5 20 -20 38v12q40 238 570 262z" />
    <glyph glyph-name="uniE04B" unicode="&#xe04b;" horiz-adv-x="2169" 
d="M1176 -23q0 79 -7 208q-20 -2 -51 1q-132 13 -168 -13q-2 -56 -2 -115q0 -220 119 -266q52 23 86 43q23 63 23 142zM956 832q23 -2 61 -2h79q41 0 69 -4q-4 31 -4 73v90q1 197 -17 251q-18 52 -36 72t-47 20t-68 -27q-47 -223 -47 -316t10 -157zM492 395l176 -10h32
q39 1 70 9q-18 54 -18 107t16 100l-4 26q-37 -2 -84 -2q-48 0 -100 -2q-128 -5 -208 -28t-100 -84q-26 -81 46 -106q32 -11 75 -11h64q15 1 35 1zM1745 617q-16 0 -41 7t-36 5q-10 -2 -24 -7t-22 -5q-8 1 -18 9t-28 11q-17 3 -45 1q-27 -2 -55 -6t-58 -7q-30 -4 -60 -2
l-6 -121q0 -76 12 -112q46 7 76 7h36q124 -2 165 -2q130 -1 186 19q103 36 115 142q-53 61 -146 61h-51zM1054 722q-147 0 -206 -115l8 -98l-12 -78q20 -37 53 -63t68 -52q17 0 35 -1l36 -2t34 -1q18 0 36 4q25 5 75 45q51 40 65 72q14 31 14 71t-12 75q-26 75 -85 110
q-62 33 -109 33zM823 849l-1 124v55q2 139 12 185q33 155 74 188q20 17 70 34q49 18 59 18h14q61 0 105 -35q76 -61 96 -123q20 -63 20 -121l-4 -229q0 -55 8 -82t-2 -41l106 106t130 128t134 132q68 66 122 118t88 86l32 32q4 8 16 5t23 -14q27 -30 12 -54q-16 -23 -52 -64
t-82 -94t-101 -113t-142 -158q-87 -97 -165 -178q33 2 65 2t78 -4t88 -6t70 0t57 4t57 2t54 -6q62 -13 120 -66t68 -106q4 -18 4 -50q0 -166 -80 -209q-43 -23 -85 -30q-138 -25 -224 -25h-97q-44 1 -92 1h-106q39 -41 89 -95q49 -54 103 -109q108 -113 335 -363
q42 -46 29 -66q-8 -12 -29 -12t-39 2q-234 210 -343 314q-110 104 -154 146t-81 78q-4 -38 -4 -73l7 -167q1 -156 -71 -212q-56 -44 -145 -46h-7q-80 0 -122 31q-43 31 -57 66q-39 91 -39 248v77q0 34 1 61q1 26 1 36q-153 -160 -388 -369q-234 -209 -241 -209q-8 -15 -27 2
q-20 17 -20 30t18 35t46 56q30 35 69 79t83 93q44 48 91 102t92 103t86 94t74 80q-70 -9 -161 -9q-162 0 -250 13q-159 23 -183 95q-6 18 -13 54t-28 60v12q18 111 159 181t389 79q25 2 48 2t41 -2q-29 29 -69 71t-86 90q-48 49 -97 101t-96 102q-232 247 -219 253
q-44 32 5 58q13 7 30 9q9 0 105 -91t146 -138t102 -98t102 -99t94 -92z" />
    <glyph glyph-name="uniE04C" unicode="&#xe04c;" horiz-adv-x="2628" 
d="M2001 565.5q21 17.5 45 17.5q23 0 41.5 -18.5t18.5 -43.5t-18 -40.5t-44 -15.5t-45 15.5t-19 41.5t21 43.5zM571 521q0 25 19.5 43.5t44.5 18.5t43.5 -18.5t18.5 -43.5t-18.5 -40.5t-43.5 -15.5t-44.5 15.5t-19.5 40.5zM1252 1139q0 25 18.5 43.5t44.5 18.5t44.5 -18.5
t18.5 -43.5t-18.5 -41.5t-44.5 -16.5t-44.5 16.5t-18.5 41.5zM1252 -94q0 24 18.5 43t44.5 19t44.5 -19t18.5 -43t-18.5 -41t-44.5 -17t-44.5 17t-18.5 41zM955 203q-34 -27 -62 -64t-87 -114t-73 -138q159 111 213 169t84 95l-8 47zM1620 190h-5l3 -46q12 -25 40.5 -50.5
t62.5 -55.5q21 -44 85 -85.5t121 -70.5q-43 61 -77.5 118t-83.5 126t-116 69q-18 -5 -30 -5zM1010 822q3 42 3 44v16q0 7 -72 83l-87 104l-151 61q103 -169 241 -307zM1661 857q4 0 33 -21l53 19q101 81 141.5 141t55.5 141l-63 -18q-74 -52 -134 -97t-98 -98l8 -69q0 2 4 2
zM1442.5 660q-61.5 51 -125.5 51q-128 0 -176 -104l4 -86l-9 -69q17 -35 46.5 -58t59.5 -46h15l76 -4q56 0 113.5 48t57.5 133q0 84 -61.5 135zM1176 -131q0 -141 159 -141q72 0 113 25t41 93t-28.5 196.5t-35.5 191.5q-5 -2 -7 -2h-16l-97 3q-52 0 -74 -15q-1 -34 -28 -163
t-27 -188zM1420 805q52 130 52 294t-52 204.5t-98 40.5t-129 -59q-25 -47 -25 -156t69 -321l27 -2l85 2h27q26 0 44 -3zM1052 627l-367 23q-124 0 -174.5 -12t-59.5 -47q-9 -17 -9 -53q0 -69 42.5 -132.5t88.5 -88.5q35 -22 77 -22q125 0 189 49q70 53 143 62t87 12
q-16 48 -16 96t14 89l-3 24h-12zM1971 343q224 0 224 169q0 37 -11 84q-78 103 -149 103t-107 -9t-87.5 -23t-103 -14t-143.5 -30l-7 -134q0 -45 11 -74q231 -72 373 -72zM277 483q0 166 75.5 236.5t215.5 70.5t230.5 -21t129.5 -28q-106 60 -248 261t-162 349q-14 9 -14 11
t6 2q80 0 277 -130.5t312 -295.5q-14 69 -43 128t-40.5 88.5t-11.5 55.5q0 58 17 117.5t36 77.5q19 17 70 28.5t70.5 17t68.5 15.5t103 11q108 0 177 -52t69 -140q0 -123 -71 -278q134 159 307.5 244.5t274.5 99.5q2 3 3 3v-5q0 -42 -17 -69q-30 -173 -134.5 -330.5
t-219.5 -212.5q15 0 89.5 49.5t93.5 49.5l119 -1l59 1q96 0 158 -120.5t62 -154.5q0 -67 -34 -145t-75 -92q-25 -7 -57 -21t-89.5 -38.5t-96.5 -24.5q-128 0 -280 42q103 -54 231 -219t141 -249t13 -94t-2.5 -9.5t-6 3t-29.5 12.5t-83.5 42t-223.5 147t-220 233
q10 -66 53.5 -198.5t43.5 -189.5q0 -137 -276 -137q-326 0 -326 163q0 100 34 196.5t46 133.5q-78 -120 -243 -248t-283 -161q-14 -20 -32 -20t-18 10v3q39 188 163 338t176 197q-135 -52 -196 -52q-106 0 -191 23t-106 45q-49 50 -72 98.5t-23 133.5z" />
    <glyph glyph-name="uniE04D" unicode="&#xe04d;" horiz-adv-x="2656" 
d="M1790 744h-362l256 -227l-73 -77l-245 242v-341h-94v341l-253 -242l-67 77l243 227h-347v107h347l-243 240l67 58l253 -241v346h94v-346l245 241l73 -58l-256 -240h362v-107zM339 1396l982 -1656l978 1656h-1960zM1321 -415l-1138 1898h2272z" />
    <glyph glyph-name="uniE04E" unicode="&#xe04e;" horiz-adv-x="2656" 
d="M1244 520q0 -130 70 -160q10 4 16 8q23 14 40 20q9 30 9 81q-1 51 -1 79v51q-15 -1 -33 1q-73 10 -99 -12q-2 -34 -2 -68zM1376 1083q0 193 -52 207q-20 6 -51 -16q-29 -123 -29 -184t6 -99q11 -4 27 -4h59t40 -3v99zM1128 790q0 32 9 62l-2 17q-21 -2 -51 -2t-60 -2
q-81 -5 -128 -19t-57 -56q-14 -44 27 -60q16 -6 40 -6h42l148 -5q24 0 41 5v2q-9 32 -9 64zM1539 727h23q38 -1 76 -1q97 0 135 14q61 23 70 93q-27 28 -87 28h-30l-50 8l-25 -8q-5 1 -11 5t-16 6t-28 1q-16 -1 -34 -3l-36 -4q-18 -3 -35 -1q0 -16 -3 -67t6 -76q27 5 45 5z
M1272 676h19t21 -2q12 -1 30 1q89 45 92 115q3 66 -58 115q-87 51 -159 -9q-20 -16 -31 -40l2 -66l-8 -46q15 -20 34 -34t38 -35q10 1 20 1zM746 733q-5 35 -11 47v10q14 76 112 117q98 40 233 40q50 1 54 -3q16 -16 29 -36q31 33 47 46l-22 9q-8 6 -16 11t-6 8q3 2 3 32v69
q1 134 11 164q10 29 23 54t20 31t17 11t22 9t20 9q8 4 20 4q31 0 74 -32t54 -67q10 -35 10 -70l-2 -138q0 -33 10 -59q0 -3 -4 -9t-10 -16l-12 -20l-10 -3q10 -11 22 -25t23 -29l4 13l33 32q45 7 97 0q51 -7 70 -7l104 5q52 0 95 -37t47 -61t4 -43q0 -77 -28 -103
q-17 -23 -48 -31t-59 -12q-27 -4 -57 -6t-61 -3q-30 -1 -62 0t-56 2t-38 1q-15 0 -18 -1t-44 50l-25 -42q-7 0 -25 -9l29 -19q11 -6 17 -8t12 -6q6 -3 1 -22q-4 -19 -4 -37v-22q1 -35 3 -87t-17 -103q-14 -31 -48 -47t-68 -16q-86 0 -110 60q-23 51 -23 121v91l1 49
q-5 15 27 34l-11 12q-25 17 -43 43q-6 -18 -12 -24t-7 -10q-87 -7 -156 -7q-223 0 -235 86zM347 1393l982 -1656l978 1656h-1960zM1329 -418l-1138 1898h2272z" />
    <glyph glyph-name="uniE04F" unicode="&#xe04f;" horiz-adv-x="1378" 
d="M497 397q-39 0 -29 116q15 190 15 263q-4 34 -6 54t-4 38t-4 34q-6 50 -6 175q-77 -34 -179 -173t-114 -232q0 -285 133 -424q47 -48 95 -64t114 -31t119 -14t73 6t44 6q93 4 97 68q3 47 3 97q0 187 -49 214q-68 17 -111 17q-44 -1 -68 -13t-36 -30t-19 -38
q-6 -20 -10 -35q-3 -15 -19 -20t-25 -9t-14 -5zM621 986q-1 -48 -3 -74t-4 -57t-5 -67t-3 -88q41 10 75 10q116 0 195 -76q102 -98 102 -293q0 -33 -3 -65q60 39 91 106q32 67 48 117t26 99t9 95q0 47 -8 69q-7 22 -15 38t-19 40q-11 25 -43 75q-81 129 -192 195
q-70 42 -136 42t-122 -22q7 -96 7 -144zM663 7q-47 0 -101 3q-54 2 -137 30q-151 50 -278 171q-14 37 -52 119t-45 147q-6 65 -6 117q0 159 67 303q121 260 401 345q87 27 122 27q34 1 84 -3t138 -37t164 -82q164 -105 213 -244q37 -115 37 -272t-66 -279q-12 -18 -32 -36
t-38 -38q-16 -22 -30 -44t-35 -51q-21 -30 -65 -62q-146 -57 -211 -94q-83 -20 -130 -20z" />
    <glyph glyph-name="uniE050" unicode="&#xe050;" horiz-adv-x="1450" 
d="M668 190q0 77 2 128t5 68q3 18 6 48t5 60q2 32 2 62t-2 59q-68 67 -142 131t-144 128q-165 151 -255 288q-72 48 -99 138t63 120q55 -11 99 -69q18 -25 36 -49t43 -42q63 -150 217 -293q66 -61 135 -119q70 -58 133 -123q45 47 93 116t87 121q40 52 66 84t49 66t51 66
q28 34 38 56q40 81 55 100q16 20 22 32t13 21q8 9 14 19t13 16q21 18 61 11t49 -32q9 -27 -1 -45t-22 -36t-22 -38q-10 -18 -1 -41q-34 -28 -91 -115t-77 -108q-19 -20 -35 -28t-32 -28t-30 -50q-16 -30 -32 -42q-16 -14 -24 -22t-18 -17t-19 -17q-7 -8 -23 -20
q-19 -13 -55 -75t-86 -76q-13 -20 -11 -58q3 -38 -9 -56q4 -39 13 -107t9 -148q0 -81 -20 -128l18 -305q-10 -7 -16 -18t-15 -19q-34 -4 -56 3t-42 15q-15 65 -9 113q5 47 5 77t-23 95q9 6 9 83z" />
    <glyph glyph-name="uniE051" unicode="&#xe051;" horiz-adv-x="1877" 
d="M159 104l2 -169q626 2 667 4t182 16q141 15 244 81q102 66 178 174t110 241q42 116 42 167t-20 142t-79 207q-59 117 -154 199t-191 114t-160 31q-188 0 -356 -122l4 -10q48 11 108 11t150 -29t176 -103q84 -74 145 -195q61 -122 61 -290t-88 -316q-88 -149 -248 -227
q-74 -36 -145 -44q-9 -7 -61 -7t-114 3q-92 -7 -155 -13h-1q-49 0 -49 361q0 92 3 209q-122 -5 -245 -15q-6 -298 -6 -420zM915 -141h-827q-12 87 -12 257t26 486q107 9 204 9t167 -15q13 -468 16 -526q2 -44 138 -44q44 0 103 5q265 43 353 383q20 78 20 136q0 176 -58 295
q-111 229 -329 299q-37 10 -81 10q-45 0 -70 -1q120 163 300 228q92 33 189 35h12q91 0 207 -36t222 -132t184 -255q78 -160 78 -361q1 -265 -149 -472q-88 -122 -206 -194t-248 -90q-129 -18 -239 -17z" />
    <glyph glyph-name="uniE052" unicode="&#xe052;" horiz-adv-x="1312" 
d="M611 790l-313 -492h626zM674 1437v-197h210v-114h-210v-197l465 -734h-465v-197h210v-114h-210v-224h-126v224h-210v114h210v197h-465l465 734v197h-210v114h210v197h126z" />
    <glyph glyph-name="uniE053" unicode="&#xe053;" horiz-adv-x="2656" 
d="M951 826q-1 -140 99 -238q100 -100 225 -112v721q-145 -14 -235 -122q-89 -109 -89 -249zM1677 837q0 150 -100 249t-227 111v-722q127 12 227 112t100 250zM848 832q0 187 121 318q143 152 346 152q202 0 343 -152q122 -135 122 -320q0 -186 -136.5 -322.5
t-330.5 -136.5q-179 0 -315 124q-66 61 -108 151t-42 186zM339 1397l982 -1656l978 1656h-1960zM1321 -414l-1138 1898h2272z" />
    <glyph glyph-name="uniE054" unicode="&#xe054;" horiz-adv-x="2656" 
d="M339 1397l982 -1656l978 1656h-1960zM1321 -414l-1138 1898h2272zM1564 685v489h-498v-489h498zM1592 364v-116h-188v-212h-173v212h-191v116h191v163h-331v802h813v-802h-311l2 -163h188z" />
    <glyph glyph-name="uniE055" unicode="&#xe055;" horiz-adv-x="1732" 
d="M1163 1231q0 -138 -98 -226q-48 -43 -103 -63q106 -24 188 -106q116 -116 117 -272q0 -156 -96 -266.5t-236 -134.5v-154h205v-114h-205v-197h-132v197h-206v114h206v153q-141 24 -237 136t-96 266t117 271q79 79 179 104q-67 22 -116 71q-92 95 -92 221h-453v108h562
v-104q0 -82 54 -142q55 -59 141 -59t138 58q54 58 54 143v104h562v-108h-453zM865 822q-115 0 -189 -82t-74 -184t74 -186q74 -82 188 -82t192.5 79t78.5 189t-78 188t-192 78z" />
    <glyph glyph-name="uniE056" unicode="&#xe056;" horiz-adv-x="1200" 
d="M554 -106q-20 0 -38 8q-51 26 -48 90t38 107q89 112 181 37q29 -34 31 -57t2 -43t-16 -53t-48 -59t-56 -28q-26 -2 -46 -2zM684 1207q0 17 -14 42t-42 41q-55 33 -121 15q-67 -18 -67 -93q-4 -51 40 -81q43 -29 98 -23q54 6 76 26t26 38t4 35zM345 102q0 -32 5 -69
q5 -38 39 -89t99 -95t162 -44q96 0 161 71q43 69 43 143q0 81 -52 153q-84 114 -230 114q-104 0 -178 -68q-18 -16 -34 -50t-15 -66zM539 914q0 24 -3 55q-17 22 -58 37q-42 16 -55 25q-75 73 -79 176v11q0 104 65 167t168 63h7q66 -2 114 -30t72 -56t35 -60t11 -54
q0 -23 -4 -53q-10 -68 -56 -114q-45 -46 -124 -95q3 -67 4 -169q2 -101 4 -175t3 -176q42 -31 112 -61q71 -31 105 -49t75 -68q43 -50 65 -122t22 -112t-2 -54q-10 -163 -125 -282q-114 -120 -274 -122q-110 -10 -280 80q-19 10 -43 25t-59 57q-69 84 -97 215q-8 43 -8 75
t4 84q4 50 35 103t98 104t235 106q8 93 14 171t11 141t7 97q2 36 1 60z" />
    <glyph glyph-name="uniE057" unicode="&#xe057;" horiz-adv-x="1955" 
d="M768 1026q-70 176 -83 239q-1 -5 -9 -28q-43 -130 -74 -213l-180 -463h527zM1753 851q0 52 -34 106q-34 53 -104 91q-137 74 -198 83l224 58q97 -31 174 -134t77 -222q0 -120 -84 -236q-24 -34 -52 -57l-81 -60q-86 -63 -192 -69l-152 -1h-27q-54 0 -104 -8l162 -402
h-195l-161 412h-642l-162 -412h-198l575 1409h217l344 -857q59 11 121 11l118 -6q23 0 45 3q150 0 205 57q93 93 115 155q10 28 9 79z" />
    <glyph glyph-name="uniE058" unicode="&#xe058;" horiz-adv-x="1487" 
d="M922 364q0 26 -12 50q-47 100 -166 91l-79 -57q-31 -46 -6 -101t75 -81q50 -27 89 -15q38 11 58 27q21 16 31 38t10 48zM638 656q0 26 -12 52q-24 51 -77 75t-104 8q-53 -10 -71 -59q-8 -22 -8 -47t11 -52q20 -50 74 -75t90 -14q35 10 55 27t31 39q11 20 11 46zM720 1289
q34 0 57 -3t64 -11q41 -9 85 -27q94 -38 172 -122q77 -84 77 -191q0 -62 -25 -93q-25 -30 -52 -60q-105 -115 -229 -198l-49 -28q82 -13 123 -48q41 -36 55 -66t14 -66q0 -73 -69 -124q-69 -52 -162 -52t-160 50q-66 50 -70 119q-112 -100 -112 -219q0 -79 48 -159
q54 -50 121 -80q66 -29 106 -33t72 -4h46l-138 158q-10 44 35 58q19 6 39 6t33 2l117 -148l94 160q30 2 50 8t35 6q27 -1 53 -59l-113 -165q68 24 145 74q51 0 56 -33q10 -61 -100 -105q-52 -21 -110 -30l135 -173q10 -45 -9 -53q-19 -9 -72 7l-147 168l-98 -143
q-21 -6 -41 -12t-35 -6q-35 1 -22 54l83 142q-189 0 -253 34q-140 55 -188 84q-101 63 -101 132q-19 54 -19 88t5 76q6 42 36 100q60 116 175 187q-88 10 -150 58q-61 48 -61 124q0 77 68 128t162 51t163 -52t69 -131q0 -5 -1 -12t-1 -13q38 22 84 48q194 106 229 254
q0 101 -130 177q-36 21 -70 37q-49 12 -79 12h-38q-61 -2 -141 -14l141 -178q10 -46 -12 -52q-12 -3 -29 1q-18 4 -40 6l-147 167l-97 -143q-85 -31 -98 -6q-6 11 -1 42l85 143l-66 -7q-82 14 -84 45t67 45l34 14t36 13l-117 131q-5 86 108 67l116 -151l94 162q23 3 43 6
q64 10 95 -52l-93 -134q70 12 104 12z" />
    <glyph glyph-name="uniE059" unicode="&#xe059;" horiz-adv-x="1417" 
d="M933 1354q-15 0 -38 -7q-57 -58 -103 -158q-25 -54 -24 -98q2 -43 0 -69t-4 -46t-2 -38v-76q2 -16 -3 -34t-3 -36t15 -36t19 -46t8 -59q1 -31 9 -53t13 -58q6 -36 10 -75t8 -76t18 -61q4 -2 5 1t1 5q60 64 156 294q67 162 72 242q6 80 10 119q6 55 15 95t8 68t-12 54
t-25 48t-32 42q-16 20 -28 45q-18 -2 -32 2q-14 3 -30 7t-31 4zM532 -146q-16 0 -43 -14q-65 -16 -117 -16q-171 0 -241 57q-24 40 -24 81q0 146 106 230q10 1 37 1q26 1 54 -17t40 -57q-27 -38 -53 -68q-15 -9 -26 -3q-11 7 -16 7t-13 -10q-6 -59 54 -82q40 -15 132 -20
q14 6 28 16t27 16q127 11 185 59q32 26 62 70q30 43 75 109q-22 51 -48 199q-26 146 -32 170t-5 36t2 23t2 23t-1 21q-1 9 -9 14t-10 15q-2 11 1 46t-17 41q10 61 15 117t13 113q36 271 172 395q99 90 185 16q18 -16 51 -47q33 -32 66 -48q56 -203 62 -279q7 -75 7 -106
t-2 -59q-53 -119 -53 -231q-34 -35 -47 -85q-14 -49 -25 -69q-10 -20 -17 -36t-17 -34q-10 -20 -19 -42t-19 -42l-18 -36l-13 -26t-10 -26t-9 -32t-6 -29q-3 -14 -9 -29q35 -20 72 -55t76 -70t79 -65t89 -43q10 -23 0 -60q-15 -16 -41 -26q-26 -9 -47 -21q-75 24 -158 117
q-35 39 -67 77t-62 64q-43 -19 -73 -60t-56 -69q-30 -26 -75 -45q-45 -20 -73 -51h-37q-31 -35 -50 -30q-18 5 -34 5z" />
    <glyph glyph-name="uniE05A" unicode="&#xe05a;" horiz-adv-x="2317" 
d="M1718.5 1192.5q-59.5 63.5 -167.5 63.5h-317v-520h323q110 0 165.5 74t55.5 196q0 123 -59.5 186.5zM662 352l358 874h-716zM1234 585v-585h-134v1060l-439 -1082l-579 1428h1018v3h464q253 0 300.5 -154.5t47.5 -234.5q0 -161 -60.5 -272t-179.5 -141l280 -607h-154
l-257 585h-307z" />
    </font>
</defs>
</svg>
